<svg xmlns="http://www.w3.org/2000/svg" xmlns:xlink="http://www.w3.org/1999/xlink" version="1.2" width="594.00mm" height="420.00mm" viewBox="0.0000 -0.0000 355.8092 251.5823">
<style type="text/css">
<![CDATA[
tspan { white-space: pre; }
]]>
</style>
<g transform="translate(17.9702, 56.2241)">
<line stroke-linejoin="round" stroke-linecap="round" stroke-width="0.0944" stroke="currentColor" x1="0.0472" y1="0" x2="141.1766" y2="0"/>
</g>
<g transform="translate(17.9702, 55.4873)">
<line stroke-linejoin="round" stroke-linecap="round" stroke-width="0.0944" stroke="currentColor" x1="0.0472" y1="0" x2="141.1766" y2="0"/>
</g>
<g transform="translate(17.9702, 54.7504)">
<line stroke-linejoin="round" stroke-linecap="round" stroke-width="0.0944" stroke="currentColor" x1="0.0472" y1="0" x2="141.1766" y2="0"/>
</g>
<g transform="translate(17.9702, 54.0136)">
<line stroke-linejoin="round" stroke-linecap="round" stroke-width="0.0944" stroke="currentColor" x1="0.0472" y1="0" x2="141.1766" y2="0"/>
</g>
<g transform="translate(17.9702, 53.2768)">
<line stroke-linejoin="round" stroke-linecap="round" stroke-width="0.0944" stroke="currentColor" x1="0.0472" y1="0" x2="141.1766" y2="0"/>
</g>
<g transform="translate(159.0145, 54.7504)">
<rect x="0.0000" y="-1.4737" width="0.1794" height="2.9474" ry="0.0000" fill="currentColor"/>
</g>
<g transform="translate(55.5115, 54.7504)">
<rect x="0.0000" y="-1.4737" width="0.1794" height="2.9474" ry="0.0000" fill="currentColor"/>
</g>
<g transform="translate(70.4997, 54.7504)">
<rect x="0.0000" y="-1.4737" width="0.1794" height="2.9474" ry="0.0000" fill="currentColor"/>
</g>
<g transform="translate(122.7062, 54.7504)">
<rect x="0.0000" y="-1.4737" width="0.1794" height="2.9474" ry="0.0000" fill="currentColor"/>
</g>
<g transform="translate(106.8135, 54.7504)">
<rect x="0.0000" y="-1.4737" width="0.1794" height="2.9474" ry="0.0000" fill="currentColor"/>
</g>
<g transform="translate(138.2722, 54.7504)">
<rect x="0.0000" y="-1.4737" width="0.1794" height="2.9474" ry="0.0000" fill="currentColor"/>
</g>
<g transform="translate(91.7181, 54.7504)">
<rect x="0.0000" y="-1.4737" width="0.1794" height="2.9474" ry="0.0000" fill="currentColor"/>
</g>
<g transform="translate(40.0409, 54.7504)">
<rect x="0.0000" y="-1.4737" width="0.1794" height="2.9474" ry="0.0000" fill="currentColor"/>
</g>
<g transform="translate(17.9702, 56.9610)">
<rect x="127.8575" y="-0.0841" width="1.4347" height="0.1681" ry="0.0841" fill="currentColor"/>
</g>
<g transform="translate(17.9702, 57.6978)">
<rect x="127.8575" y="-0.0841" width="1.4347" height="0.1681" ry="0.0841" fill="currentColor"/>
</g>
<g transform="translate(17.9702, 56.9610)">
<rect x="116.2282" y="-0.0841" width="1.4347" height="0.1681" ry="0.0841" fill="currentColor"/>
</g>
<g transform="translate(17.9702, 56.9610)">
<rect x="110.4915" y="-0.0841" width="1.4347" height="0.1681" ry="0.0841" fill="currentColor"/>
</g>
<g transform="translate(17.9702, 56.9610)">
<rect x="105.5763" y="-0.0841" width="1.4347" height="0.1681" ry="0.0841" fill="currentColor"/>
</g>
<g transform="translate(17.9702, 56.9610)">
<rect x="100.7817" y="-0.0841" width="1.4347" height="0.1681" ry="0.0841" fill="currentColor"/>
</g>
<g transform="translate(17.9702, 56.9610)">
<rect x="95.1646" y="-0.0841" width="1.4347" height="0.1681" ry="0.0841" fill="currentColor"/>
</g>
<g transform="translate(17.9702, 56.9610)">
<rect x="90.3013" y="-0.0841" width="1.3829" height="0.1681" ry="0.0841" fill="currentColor"/>
</g>
<g transform="translate(17.9702, 56.9610)">
<rect x="53.3699" y="-0.0841" width="1.4347" height="0.1681" ry="0.0841" fill="currentColor"/>
</g>
<g transform="translate(17.9702, 57.6978)">
<rect x="53.3699" y="-0.0841" width="1.4347" height="0.1681" ry="0.0841" fill="currentColor"/>
</g>
<g transform="translate(17.9702, 56.9610)">
<rect x="38.3817" y="-0.0841" width="1.4347" height="0.1681" ry="0.0841" fill="currentColor"/>
</g>
<g transform="translate(17.9702, 56.9610)">
<rect x="28.1764" y="-0.0841" width="1.5329" height="0.1681" ry="0.0841" fill="currentColor"/>
</g>
<g transform="translate(17.9702, 56.9610)">
<rect x="23.5287" y="-0.0841" width="1.3829" height="0.1681" ry="0.0841" fill="currentColor"/>
</g>
<g transform="translate(17.9702, 56.9610)">
<rect x="8.1819" y="-0.0841" width="1.4347" height="0.1681" ry="0.0841" fill="currentColor"/>
</g>
<g transform="translate(17.9702, 57.6978)">
<rect x="8.1819" y="-0.0841" width="1.4347" height="0.1681" ry="0.0841" fill="currentColor"/>
</g>
<g transform="translate(115.2255, 54.7504)">
<rect x="-0.0614" y="-0.7368" width="0.1228" height="2.4597" ry="0.0421" fill="currentColor"/>
</g>
<g transform="translate(115.6084, 57.3294)">
<path transform="scale(0.0029, -0.0029)" d="M0 0c0 30 25 55 55 55s54 -25 54 -55s-24 -55 -54 -55s-55 25 -55 55z" fill="currentColor"/>
</g>
<g transform="translate(119.9475, 56.5926)">
<path transform="scale(0.0029, -0.0029)" d="M208 139c61 0 117 -33 117 -99c0 -71 -52 -119 -99 -147c-34 -20 -71 -32 -110 -32c-61 0 -116 33 -116 99c0 71 51 119 98 147c34 20 71 32 110 32z" fill="currentColor"/>
</g>
<g transform="translate(115.6084, 56.5926)">
<path transform="scale(0.0029, -0.0029)" d="M0 0c0 30 25 55 55 55s54 -25 54 -55s-24 -55 -54 -55s-55 25 -55 55z" fill="currentColor"/>
</g>
<g transform="translate(113.4353, 54.7504)">
<rect x="-0.0614" y="2.3298" width="0.1228" height="1.7229" ry="0.0421" fill="currentColor"/>
</g>
<g transform="translate(118.9910, 53.2768)">
<path transform="scale(0.0029, -0.0029)" d="M208 139c61 0 117 -33 117 -99c0 -71 -52 -119 -99 -147c-34 -20 -71 -32 -110 -32c-61 0 -116 33 -116 99c0 71 51 119 98 147c34 20 71 32 110 32z" fill="currentColor"/>
</g>
<g transform="translate(119.4693, 55.1189)">
<path transform="scale(0.0029, -0.0029)" d="M208 139c61 0 117 -33 117 -99c0 -71 -52 -119 -99 -147c-34 -20 -71 -32 -110 -32c-61 0 -116 33 -116 99c0 71 51 119 98 147c34 20 71 32 110 32z" fill="currentColor"/>
</g>
<g transform="translate(115.6084, 52.9083)">
<path transform="scale(0.0029, -0.0029)" d="M0 0c0 30 25 55 55 55s54 -25 54 -55s-24 -55 -54 -55s-55 25 -55 55z" fill="currentColor"/>
</g>
<g transform="translate(113.3739, 53.2768)">
<path transform="scale(0.0029, -0.0029)" d="M208 139c61 0 117 -33 117 -99c0 -71 -52 -119 -99 -147c-34 -20 -71 -32 -110 -32c-61 0 -116 33 -116 99c0 71 51 119 98 147c34 20 71 32 110 32z" fill="currentColor"/>
</g>
<g transform="translate(113.8521, 55.1189)">
<path transform="scale(0.0029, -0.0029)" d="M208 139c61 0 117 -33 117 -99c0 -71 -52 -119 -99 -147c-34 -20 -71 -32 -110 -32c-61 0 -116 33 -116 99c0 71 51 119 98 147c34 20 71 32 110 32z" fill="currentColor"/>
</g>
<g transform="translate(114.3304, 56.5926)">
<path transform="scale(0.0029, -0.0029)" d="M208 139c61 0 117 -33 117 -99c0 -71 -52 -119 -99 -147c-34 -20 -71 -32 -110 -32c-61 0 -116 33 -116 99c0 71 51 119 98 147c34 20 71 32 110 32z" fill="currentColor"/>
</g>
<g transform="translate(113.3739, 56.9610)">
<path transform="scale(0.0029, -0.0029)" d="M208 139c61 0 117 -33 117 -99c0 -71 -52 -119 -99 -147c-34 -20 -71 -32 -110 -32c-61 0 -116 33 -116 99c0 71 51 119 98 147c34 20 71 32 110 32z" fill="currentColor"/>
</g>
<g transform="translate(114.2690, 54.7504)">
<rect x="-0.0614" y="-3.4386" width="0.1228" height="1.8457" ry="0.0421" fill="currentColor"/>
</g>
<g transform="translate(115.6084, 55.1189)">
<path transform="scale(0.0029, -0.0029)" d="M0 0c0 30 25 55 55 55s54 -25 54 -55s-24 -55 -54 -55s-55 25 -55 55z" fill="currentColor"/>
</g>
<g transform="translate(114.7472, 54.7504)">
<rect x="-0.0614" y="-2.2105" width="0.1228" height="2.4597" ry="0.0421" fill="currentColor"/>
</g>
<g transform="translate(123.7856, 53.2768)">
<path transform="scale(0.0029, -0.0029)" d="M208 139c61 0 117 -33 117 -99c0 -71 -52 -119 -99 -147c-34 -20 -71 -32 -110 -32c-61 0 -116 33 -116 99c0 71 51 119 98 147c34 20 71 32 110 32z" fill="currentColor"/>
</g>
<g transform="translate(124.2639, 54.0136)">
<path transform="scale(0.0029, -0.0029)" d="M208 139c61 0 117 -33 117 -99c0 -71 -52 -119 -99 -147c-34 -20 -71 -32 -110 -32c-61 0 -116 33 -116 99c0 71 51 119 98 147c34 20 71 32 110 32z" fill="currentColor"/>
</g>
<g transform="translate(124.7421, 55.4873)">
<path transform="scale(0.0029, -0.0029)" d="M208 139c61 0 117 -33 117 -99c0 -71 -52 -119 -99 -147c-34 -20 -71 -32 -110 -32c-61 0 -116 33 -116 99c0 71 51 119 98 147c34 20 71 32 110 32z" fill="currentColor"/>
</g>
<g transform="translate(123.7856, 57.3294)">
<path transform="scale(0.0029, -0.0029)" d="M208 139c61 0 117 -33 117 -99c0 -71 -52 -119 -99 -147c-34 -20 -71 -32 -110 -32c-61 0 -116 33 -116 99c0 71 51 119 98 147c34 20 71 32 110 32z" fill="currentColor"/>
</g>
<g transform="translate(124.6807, 54.7504)">
<rect x="-0.0614" y="-3.4386" width="0.1228" height="1.8457" ry="0.0421" fill="currentColor"/>
</g>
<g transform="translate(125.1590, 54.7504)">
<rect x="-0.0614" y="-2.9474" width="0.1228" height="2.0913" ry="0.0421" fill="currentColor"/>
</g>
<g transform="translate(125.6372, 54.7504)">
<rect x="-0.0614" y="-1.8421" width="0.1228" height="2.4597" ry="0.0421" fill="currentColor"/>
</g>
<g transform="translate(99.7157, 52.9083)">
<path transform="scale(0.0029, -0.0029)" d="M0 0c0 30 25 55 55 55s54 -25 54 -55s-24 -55 -54 -55s-55 25 -55 55z" fill="currentColor"/>
</g>
<g transform="translate(119.8861, 54.7504)">
<rect x="-0.0614" y="-3.6842" width="0.1228" height="2.0913" ry="0.0421" fill="currentColor"/>
</g>
<g transform="translate(119.9475, 51.1083)">
<path transform="scale(0.0029, -0.0029)" d="M0 0c0 -196 207 -334 207 -530c0 -71 -15 -140 -41 -206c-5 -10 -14 -13 -23 -13c-14 0 -28 10 -28 26c0 2 1 3 1 5c26 59 42 123 42 188c0 101 -90 205 -158 280h-21v250h21z" fill="currentColor"/>
</g>
<g transform="translate(120.3644, 54.7504)">
<rect x="-0.0614" y="-2.2105" width="0.1228" height="2.4597" ry="0.0421" fill="currentColor"/>
</g>
<g transform="translate(120.4257, 52.5820)">
<path transform="scale(0.0029, -0.0029)" d="M0 0c0 -196 207 -334 207 -530c0 -71 -15 -140 -41 -206c-5 -10 -14 -13 -23 -13c-14 0 -28 10 -28 26c0 2 1 3 1 5c26 59 42 123 42 188c0 101 -90 205 -158 280h-21v250h21z" fill="currentColor"/>
</g>
<g transform="translate(118.9910, 56.9610)">
<path transform="scale(0.0029, -0.0029)" d="M208 139c61 0 117 -33 117 -99c0 -71 -52 -119 -99 -147c-34 -20 -71 -32 -110 -32c-61 0 -116 33 -116 99c0 71 51 119 98 147c34 20 71 32 110 32z" fill="currentColor"/>
</g>
<g transform="translate(120.8426, 54.7504)">
<rect x="-0.0614" y="-0.7368" width="0.1228" height="2.4597" ry="0.0421" fill="currentColor"/>
</g>
<g transform="translate(120.9040, 54.0557)">
<path transform="scale(0.0029, -0.0029)" d="M0 0c0 -196 207 -334 207 -530c0 -71 -15 -140 -41 -206c-5 -10 -14 -13 -23 -13c-14 0 -28 10 -28 26c0 2 1 3 1 5c26 59 42 123 42 188c0 101 -90 205 -158 280h-21v250h21z" fill="currentColor"/>
</g>
<g transform="translate(119.0524, 54.7504)">
<rect x="-0.0614" y="2.3298" width="0.1228" height="2.0913" ry="0.0421" fill="currentColor"/>
</g>
<g transform="translate(119.1138, 59.1294)">
<path transform="scale(0.0029, -0.0029)" d="M0 250c94 60 217 150 217 259c0 56 -15 110 -41 160v6c0 16 14 26 28 26c9 0 17 -4 22 -14c25 -56 40 -116 40 -178c0 -203 -266 -306 -266 -509h-21v250h21z" fill="currentColor"/>
</g>
<g transform="translate(104.0548, 51.1083)">
<path transform="scale(0.0029, -0.0029)" d="M0 0c0 -196 207 -334 207 -530c0 -71 -15 -140 -41 -206c-5 -10 -14 -13 -23 -13c-14 0 -28 10 -28 26c0 2 1 3 1 5c26 59 42 123 42 188c0 101 -90 205 -158 280h-21v250h21z" fill="currentColor"/>
</g>
<g transform="translate(103.0983, 53.2768)">
<path transform="scale(0.0029, -0.0029)" d="M208 139c61 0 117 -33 117 -99c0 -71 -52 -119 -99 -147c-34 -20 -71 -32 -110 -32c-61 0 -116 33 -116 99c0 71 51 119 98 147c34 20 71 32 110 32z" fill="currentColor"/>
</g>
<g transform="translate(103.5766, 54.0136)">
<path transform="scale(0.0029, -0.0029)" d="M208 139c61 0 117 -33 117 -99c0 -71 -52 -119 -99 -147c-34 -20 -71 -32 -110 -32c-61 0 -116 33 -116 99c0 71 51 119 98 147c34 20 71 32 110 32z" fill="currentColor"/>
</g>
<g transform="translate(104.0548, 55.1189)">
<path transform="scale(0.0029, -0.0029)" d="M208 139c61 0 117 -33 117 -99c0 -71 -52 -119 -99 -147c-34 -20 -71 -32 -110 -32c-61 0 -116 33 -116 99c0 71 51 119 98 147c34 20 71 32 110 32z" fill="currentColor"/>
</g>
<g transform="translate(103.0983, 56.5926)">
<path transform="scale(0.0029, -0.0029)" d="M208 139c61 0 117 -33 117 -99c0 -71 -52 -119 -99 -147c-34 -20 -71 -32 -110 -32c-61 0 -116 33 -116 99c0 71 51 119 98 147c34 20 71 32 110 32z" fill="currentColor"/>
</g>
<g transform="translate(103.9934, 54.7504)">
<rect x="-0.0614" y="-3.6842" width="0.1228" height="2.0913" ry="0.0421" fill="currentColor"/>
</g>
<g transform="translate(104.4717, 54.7504)">
<rect x="-0.0614" y="-3.0395" width="0.1228" height="2.1834" ry="0.0421" fill="currentColor"/>
</g>
<g transform="translate(104.5331, 51.7531)">
<path transform="scale(0.0029, -0.0029)" d="M0 0c0 -196 207 -334 207 -530c0 -71 -15 -140 -41 -206c-5 -10 -14 -13 -23 -13c-14 0 -28 10 -28 26c0 2 1 3 1 5c26 59 42 123 42 188c0 101 -90 205 -158 280h-21v250h21z" fill="currentColor"/>
</g>
<g transform="translate(104.9499, 54.7504)">
<rect x="-0.0614" y="-2.2105" width="0.1228" height="2.4597" ry="0.0421" fill="currentColor"/>
</g>
<g transform="translate(147.3788, 54.1432)">
<polygon stroke-linejoin="round" stroke-linecap="round" stroke-width="0.0842" fill="currentColor" stroke="currentColor" points="3.4371 -0.3940 3.4371 -0.1245 0.0421 0.1347 0.0421 -0.1347"/>
</g>
<g transform="translate(98.3763, 54.7504)">
<rect x="-0.0614" y="-3.4386" width="0.1228" height="1.8457" ry="0.0421" fill="currentColor"/>
</g>
<g transform="translate(99.7157, 53.6452)">
<path transform="scale(0.0029, -0.0029)" d="M0 0c0 30 25 55 55 55s54 -25 54 -55s-24 -55 -54 -55s-55 25 -55 55z" fill="currentColor"/>
</g>
<g transform="translate(98.8546, 54.7504)">
<rect x="-0.0614" y="-2.9474" width="0.1228" height="2.0913" ry="0.0421" fill="currentColor"/>
</g>
<g transform="translate(99.7157, 55.1189)">
<path transform="scale(0.0029, -0.0029)" d="M0 0c0 30 25 55 55 55s54 -25 54 -55s-24 -55 -54 -55s-55 25 -55 55z" fill="currentColor"/>
</g>
<g transform="translate(99.3328, 54.7504)">
<rect x="-0.0614" y="-2.2105" width="0.1228" height="2.4597" ry="0.0421" fill="currentColor"/>
</g>
<g transform="translate(99.7157, 56.5926)">
<path transform="scale(0.0029, -0.0029)" d="M0 0c0 30 25 55 55 55s54 -25 54 -55s-24 -55 -54 -55s-55 25 -55 55z" fill="currentColor"/>
</g>
<g transform="translate(97.5426, 54.7504)">
<rect x="-0.0614" y="1.9613" width="0.1228" height="1.7229" ry="0.0421" fill="currentColor"/>
</g>
<g transform="translate(108.5201, 54.7504)">
<rect x="-0.0614" y="2.3298" width="0.1228" height="1.7229" ry="0.0421" fill="currentColor"/>
</g>
<g transform="translate(109.8321, 54.7504)">
<rect x="-0.0614" y="-2.2105" width="0.1228" height="2.4597" ry="0.0421" fill="currentColor"/>
</g>
<g transform="translate(110.3103, 54.7504)">
<rect x="-0.0614" y="-0.7368" width="0.1228" height="2.4597" ry="0.0421" fill="currentColor"/>
</g>
<g transform="translate(107.5929, 56.9610)">
<path transform="scale(0.0029, -0.0029)" d="M-8 375c8 5 18 7 27 7s20 -2 28 -7l-3 -196l99 24h4c11 0 20 -8 20 -19l8 -559c-8 -5 -19 -7 -28 -7s-19 2 -27 7l3 196l-99 -24h-5c-11 0 -19 8 -19 19zM127 109l-85 -20l-2 -198l84 20z" fill="currentColor"/>
</g>
<g transform="translate(105.0113, 52.5820)">
<path transform="scale(0.0029, -0.0029)" d="M0 0c0 -196 207 -334 207 -530c0 -71 -15 -140 -41 -206c-5 -10 -14 -13 -23 -13c-14 0 -28 10 -28 26c0 2 1 3 1 5c26 59 42 123 42 188c0 101 -90 205 -158 280h-21v250h21z" fill="currentColor"/>
</g>
<g transform="translate(103.1597, 54.7504)">
<rect x="-0.0614" y="1.9613" width="0.1228" height="2.0913" ry="0.0421" fill="currentColor"/>
</g>
<g transform="translate(103.2211, 58.7610)">
<path transform="scale(0.0029, -0.0029)" d="M0 250c94 60 217 150 217 259c0 56 -15 110 -41 160v6c0 16 14 26 28 26c9 0 17 -4 22 -14c25 -56 40 -116 40 -178c0 -203 -266 -306 -266 -509h-21v250h21z" fill="currentColor"/>
</g>
<g transform="translate(108.4587, 53.2768)">
<path transform="scale(0.0029, -0.0029)" d="M208 139c61 0 117 -33 117 -99c0 -71 -52 -119 -99 -147c-34 -20 -71 -32 -110 -32c-61 0 -116 33 -116 99c0 71 51 119 98 147c34 20 71 32 110 32z" fill="currentColor"/>
</g>
<g transform="translate(108.9370, 55.1189)">
<path transform="scale(0.0029, -0.0029)" d="M208 139c61 0 117 -33 117 -99c0 -71 -52 -119 -99 -147c-34 -20 -71 -32 -110 -32c-61 0 -116 33 -116 99c0 71 51 119 98 147c34 20 71 32 110 32z" fill="currentColor"/>
</g>
<g transform="translate(109.4152, 56.5926)">
<path transform="scale(0.0029, -0.0029)" d="M208 139c61 0 117 -33 117 -99c0 -71 -52 -119 -99 -147c-34 -20 -71 -32 -110 -32c-61 0 -116 33 -116 99c0 71 51 119 98 147c34 20 71 32 110 32z" fill="currentColor"/>
</g>
<g transform="translate(108.4587, 56.9610)">
<path transform="scale(0.0029, -0.0029)" d="M208 139c61 0 117 -33 117 -99c0 -71 -52 -119 -99 -147c-34 -20 -71 -32 -110 -32c-61 0 -116 33 -116 99c0 71 51 119 98 147c34 20 71 32 110 32z" fill="currentColor"/>
</g>
<g transform="translate(109.3538, 54.7504)">
<rect x="-0.0614" y="-3.4386" width="0.1228" height="1.8457" ry="0.0421" fill="currentColor"/>
</g>
<g transform="translate(146.0668, 57.6978)">
<path transform="scale(0.0029, -0.0029)" d="M208 139c61 0 117 -33 117 -99c0 -71 -52 -119 -99 -147c-34 -20 -71 -32 -110 -32c-61 0 -116 33 -116 99c0 71 51 119 98 147c34 20 71 32 110 32z" fill="currentColor"/>
</g>
<g transform="translate(142.7103, 54.0136)">
<path transform="scale(0.0029, -0.0029)" d="M208 139c61 0 117 -33 117 -99c0 -71 -52 -119 -99 -147c-34 -20 -71 -32 -110 -32c-61 0 -116 33 -116 99c0 71 51 119 98 147c34 20 71 32 110 32z" fill="currentColor"/>
</g>
<g transform="translate(143.6054, 54.7504)">
<rect x="-0.0614" y="-2.5832" width="0.1228" height="1.7271" ry="0.0421" fill="currentColor"/>
</g>
<g transform="translate(146.0668, 54.0136)">
<path transform="scale(0.0029, -0.0029)" d="M208 139c61 0 117 -33 117 -99c0 -71 -52 -119 -99 -147c-34 -20 -71 -32 -110 -32c-61 0 -116 33 -116 99c0 71 51 119 98 147c34 20 71 32 110 32z" fill="currentColor"/>
</g>
<g transform="translate(146.5451, 56.2241)">
<path transform="scale(0.0029, -0.0029)" d="M208 139c61 0 117 -33 117 -99c0 -71 -52 -119 -99 -147c-34 -20 -71 -32 -110 -32c-61 0 -116 33 -116 99c0 71 51 119 98 147c34 20 71 32 110 32z" fill="currentColor"/>
</g>
<g transform="translate(147.8231, 53.6452)">
<path transform="scale(0.0029, -0.0029)" d="M0 0c0 30 25 55 55 55s54 -25 54 -55s-24 -55 -54 -55s-55 25 -55 55z" fill="currentColor"/>
</g>
<g transform="translate(146.9619, 54.7504)">
<rect x="-0.0614" y="-2.9474" width="0.1228" height="2.0913" ry="0.0421" fill="currentColor"/>
</g>
<g transform="translate(147.4402, 54.7504)">
<rect x="-0.0614" y="-0.6118" width="0.1228" height="1.9662" ry="0.0421" fill="currentColor"/>
</g>
<g transform="translate(140.7272, 54.7504)">
<rect x="-0.0614" y="-2.2105" width="0.1228" height="2.4597" ry="0.0421" fill="currentColor"/>
</g>
<g transform="translate(141.2054, 54.7504)">
<rect x="-0.0614" y="-1.4737" width="0.1228" height="2.4597" ry="0.0421" fill="currentColor"/>
</g>
<g transform="translate(139.4152, 54.7504)">
<rect x="-0.0614" y="1.9613" width="0.1228" height="1.7229" ry="0.0421" fill="currentColor"/>
</g>
<g transform="translate(156.5531, 54.7504)">
<rect x="-0.0614" y="-2.7632" width="0.1228" height="2.2755" ry="0.0421" fill="currentColor"/>
</g>
<g transform="translate(156.6145, 52.0294)">
<path transform="scale(0.0029, -0.0029)" d="M0 0c0 -196 207 -334 207 -530c0 -71 -15 -140 -41 -206c-5 -10 -14 -13 -23 -13c-14 0 -28 10 -28 26c0 2 1 3 1 5c26 59 42 123 42 188c0 101 -90 205 -158 280h-21v250h21z" fill="currentColor"/>
</g>
<g transform="translate(155.6580, 54.3820)">
<path transform="scale(0.0029, -0.0029)" d="M208 139c61 0 117 -33 117 -99c0 -71 -52 -119 -99 -147c-34 -20 -71 -32 -110 -32c-61 0 -116 33 -116 99c0 71 51 119 98 147c34 20 71 32 110 32z" fill="currentColor"/>
</g>
<g transform="translate(72.4129, 52.4103)">
<polygon stroke-linejoin="round" stroke-linecap="round" stroke-width="0.0842" fill="currentColor" stroke="currentColor" points="3.6763 -0.3735 3.6763 -0.1041 0.0421 0.1347 0.0421 -0.1347"/>
</g>
<g transform="translate(72.8911, 52.4103)">
<polygon stroke-linejoin="round" stroke-linecap="round" stroke-width="0.0842" fill="currentColor" stroke="currentColor" points="3.6763 0.1245 3.6763 0.3940 0.0421 0.1347 0.0421 -0.1347"/>
</g>
<g transform="translate(80.0823, 53.8840)">
<polygon stroke-linejoin="round" stroke-linecap="round" stroke-width="0.0842" fill="currentColor" stroke="currentColor" points="3.4371 0.1245 3.4371 0.3940 0.0421 0.1347 0.0421 -0.1347"/>
</g>
<g transform="translate(140.1876, 51.9327)">
<polygon stroke-linejoin="round" stroke-linecap="round" stroke-width="0.0842" fill="currentColor" stroke="currentColor" points="3.4371 0.1041 3.4371 0.3735 0.0421 0.1347 0.0421 -0.1347"/>
</g>
<g transform="translate(146.1282, 54.7504)">
<rect x="-0.0614" y="3.0666" width="0.1228" height="1.7229" ry="0.0421" fill="currentColor"/>
</g>
<g transform="translate(149.9015, 55.8557)">
<path transform="scale(0.0029, -0.0029)" d="M208 139c61 0 117 -33 117 -99c0 -71 -52 -119 -99 -147c-34 -20 -71 -32 -110 -32c-61 0 -116 33 -116 99c0 71 51 119 98 147c34 20 71 32 110 32z" fill="currentColor"/>
</g>
<g transform="translate(150.7967, 54.7504)">
<rect x="-0.0614" y="-0.8619" width="0.1228" height="1.8479" ry="0.0421" fill="currentColor"/>
</g>
<g transform="translate(153.2580, 55.4873)">
<path transform="scale(0.0029, -0.0029)" d="M208 139c61 0 117 -33 117 -99c0 -71 -52 -119 -99 -147c-34 -20 -71 -32 -110 -32c-61 0 -116 33 -116 99c0 71 51 119 98 147c34 20 71 32 110 32z" fill="currentColor"/>
</g>
<g transform="translate(154.1531, 54.7504)">
<rect x="-0.0614" y="-1.8421" width="0.1228" height="2.4597" ry="0.0421" fill="currentColor"/>
</g>
<g transform="translate(131.0306, 54.7504)">
<rect x="-0.0614" y="-1.8421" width="0.1228" height="2.4597" ry="0.0421" fill="currentColor"/>
</g>
<g transform="translate(131.4136, 55.1189)">
<path transform="scale(0.0029, -0.0029)" d="M0 0c0 30 25 55 55 55s54 -25 54 -55s-24 -55 -54 -55s-55 25 -55 55z" fill="currentColor"/>
</g>
<g transform="translate(130.0741, 54.7504)">
<rect x="-0.0614" y="-2.2105" width="0.1228" height="2.4597" ry="0.0421" fill="currentColor"/>
</g>
<g transform="translate(131.4136, 55.8557)">
<path transform="scale(0.0029, -0.0029)" d="M0 0c0 30 25 55 55 55s54 -25 54 -55s-24 -55 -54 -55s-55 25 -55 55z" fill="currentColor"/>
</g>
<g transform="translate(129.5959, 54.7504)">
<rect x="-0.0614" y="-3.1930" width="0.1228" height="1.9685" ry="0.0421" fill="currentColor"/>
</g>
<g transform="translate(131.4136, 57.3294)">
<path transform="scale(0.0029, -0.0029)" d="M0 0c0 30 25 55 55 55s54 -25 54 -55s-24 -55 -54 -55s-55 25 -55 55z" fill="currentColor"/>
</g>
<g transform="translate(128.7622, 54.7504)">
<rect x="-0.0614" y="2.3298" width="0.1228" height="1.7229" ry="0.0421" fill="currentColor"/>
</g>
<g transform="translate(123.8470, 54.7504)">
<rect x="-0.0614" y="2.6982" width="0.1228" height="1.7229" ry="0.0421" fill="currentColor"/>
</g>
<g transform="translate(128.7008, 53.6452)">
<path transform="scale(0.0029, -0.0029)" d="M208 139c61 0 117 -33 117 -99c0 -71 -52 -119 -99 -147c-34 -20 -71 -32 -110 -32c-61 0 -116 33 -116 99c0 71 51 119 98 147c34 20 71 32 110 32z" fill="currentColor"/>
</g>
<g transform="translate(129.1790, 55.1189)">
<path transform="scale(0.0029, -0.0029)" d="M208 139c61 0 117 -33 117 -99c0 -71 -52 -119 -99 -147c-34 -20 -71 -32 -110 -32c-61 0 -116 33 -116 99c0 71 51 119 98 147c34 20 71 32 110 32z" fill="currentColor"/>
</g>
<g transform="translate(130.1355, 55.4873)">
<path transform="scale(0.0029, -0.0029)" d="M208 139c61 0 117 -33 117 -99c0 -71 -52 -119 -99 -147c-34 -20 -71 -32 -110 -32c-61 0 -116 33 -116 99c0 71 51 119 98 147c34 20 71 32 110 32z" fill="currentColor"/>
</g>
<g transform="translate(128.7008, 56.9610)">
<path transform="scale(0.0029, -0.0029)" d="M208 139c61 0 117 -33 117 -99c0 -71 -52 -119 -99 -147c-34 -20 -71 -32 -110 -32c-61 0 -116 33 -116 99c0 71 51 119 98 147c34 20 71 32 110 32z" fill="currentColor"/>
</g>
<g transform="translate(131.4136, 53.6452)">
<path transform="scale(0.0029, -0.0029)" d="M0 0c0 30 25 55 55 55s54 -25 54 -55s-24 -55 -54 -55s-55 25 -55 55z" fill="currentColor"/>
</g>
<g transform="translate(139.8321, 55.1189)">
<path transform="scale(0.0029, -0.0029)" d="M208 139c61 0 117 -33 117 -99c0 -71 -52 -119 -99 -147c-34 -20 -71 -32 -110 -32c-61 0 -116 33 -116 99c0 71 51 119 98 147c34 20 71 32 110 32z" fill="currentColor"/>
</g>
<g transform="translate(134.4989, 54.7504)">
<rect x="-0.0614" y="2.3298" width="0.1228" height="2.0913" ry="0.0421" fill="currentColor"/>
</g>
<g transform="translate(134.5602, 59.1294)">
<path transform="scale(0.0029, -0.0029)" d="M0 250c94 60 217 150 217 259c0 56 -15 110 -41 160v6c0 16 14 26 28 26c9 0 17 -4 22 -14c25 -56 40 -116 40 -178c0 -203 -266 -306 -266 -509h-21v250h21z" fill="currentColor"/>
</g>
<g transform="translate(139.3538, 53.6452)">
<path transform="scale(0.0029, -0.0029)" d="M208 139c61 0 117 -33 117 -99c0 -71 -52 -119 -99 -147c-34 -20 -71 -32 -110 -32c-61 0 -116 33 -116 99c0 71 51 119 98 147c34 20 71 32 110 32z" fill="currentColor"/>
</g>
<g transform="translate(136.8287, 52.9504)">
<path transform="scale(0.0029, -0.0029)" d="M0 0c0 -196 207 -334 207 -530c0 -71 -15 -140 -41 -206c-5 -10 -14 -13 -23 -13c-14 0 -28 10 -28 26c0 2 1 3 1 5c26 59 42 123 42 188c0 101 -90 205 -158 280h-21v250h21z" fill="currentColor"/>
</g>
<g transform="translate(140.3103, 55.8557)">
<path transform="scale(0.0029, -0.0029)" d="M208 139c61 0 117 -33 117 -99c0 -71 -52 -119 -99 -147c-34 -20 -71 -32 -110 -32c-61 0 -116 33 -116 99c0 71 51 119 98 147c34 20 71 32 110 32z" fill="currentColor"/>
</g>
<g transform="translate(139.3538, 56.5926)">
<path transform="scale(0.0029, -0.0029)" d="M208 139c61 0 117 -33 117 -99c0 -71 -52 -119 -99 -147c-34 -20 -71 -32 -110 -32c-61 0 -116 33 -116 99c0 71 51 119 98 147c34 20 71 32 110 32z" fill="currentColor"/>
</g>
<g transform="translate(140.2489, 54.7504)">
<rect x="-0.0614" y="-2.8135" width="0.1228" height="1.5890" ry="0.0421" fill="currentColor"/>
</g>
<g transform="translate(134.4375, 53.6452)">
<path transform="scale(0.0029, -0.0029)" d="M208 139c61 0 117 -33 117 -99c0 -71 -52 -119 -99 -147c-34 -20 -71 -32 -110 -32c-61 0 -116 33 -116 99c0 71 51 119 98 147c34 20 71 32 110 32z" fill="currentColor"/>
</g>
<g transform="translate(134.9157, 55.1189)">
<path transform="scale(0.0029, -0.0029)" d="M208 139c61 0 117 -33 117 -99c0 -71 -52 -119 -99 -147c-34 -20 -71 -32 -110 -32c-61 0 -116 33 -116 99c0 71 51 119 98 147c34 20 71 32 110 32z" fill="currentColor"/>
</g>
<g transform="translate(135.8722, 55.4873)">
<path transform="scale(0.0029, -0.0029)" d="M208 139c61 0 117 -33 117 -99c0 -71 -52 -119 -99 -147c-34 -20 -71 -32 -110 -32c-61 0 -116 33 -116 99c0 71 51 119 98 147c34 20 71 32 110 32z" fill="currentColor"/>
</g>
<g transform="translate(134.4375, 56.9610)">
<path transform="scale(0.0029, -0.0029)" d="M208 139c61 0 117 -33 117 -99c0 -71 -52 -119 -99 -147c-34 -20 -71 -32 -110 -32c-61 0 -116 33 -116 99c0 71 51 119 98 147c34 20 71 32 110 32z" fill="currentColor"/>
</g>
<g transform="translate(135.3326, 54.7504)">
<rect x="-0.0614" y="-3.3158" width="0.1228" height="2.0913" ry="0.0421" fill="currentColor"/>
</g>
<g transform="translate(135.3940, 51.4768)">
<path transform="scale(0.0029, -0.0029)" d="M0 0c0 -196 207 -334 207 -530c0 -71 -15 -140 -41 -206c-5 -10 -14 -13 -23 -13c-14 0 -28 10 -28 26c0 2 1 3 1 5c26 59 42 123 42 188c0 101 -90 205 -158 280h-21v250h21z" fill="currentColor"/>
</g>
<g transform="translate(135.8108, 54.7504)">
<rect x="-0.0614" y="-2.2105" width="0.1228" height="2.4597" ry="0.0421" fill="currentColor"/>
</g>
<g transform="translate(135.8722, 52.5820)">
<path transform="scale(0.0029, -0.0029)" d="M0 0c0 -196 207 -334 207 -530c0 -71 -15 -140 -41 -206c-5 -10 -14 -13 -23 -13c-14 0 -28 10 -28 26c0 2 1 3 1 5c26 59 42 123 42 188c0 101 -90 205 -158 280h-21v250h21z" fill="currentColor"/>
</g>
<g transform="translate(136.7673, 54.7504)">
<rect x="-0.0614" y="-1.8421" width="0.1228" height="2.4597" ry="0.0421" fill="currentColor"/>
</g>
<g transform="translate(46.4020, 55.1189)">
<path transform="scale(0.0029, -0.0029)" d="M208 139c61 0 117 -33 117 -99c0 -71 -52 -119 -99 -147c-34 -20 -71 -32 -110 -32c-61 0 -116 33 -116 99c0 71 51 119 98 147c34 20 71 32 110 32z" fill="currentColor"/>
</g>
<g transform="translate(46.9130, 55.8557)">
<path transform="scale(0.0029, -0.0029)" d="M208 139c61 0 117 -33 117 -99c0 -71 -52 -119 -99 -147c-34 -20 -71 -32 -110 -32c-61 0 -116 33 -116 99c0 71 51 119 98 147c34 20 71 32 110 32z" fill="currentColor"/>
</g>
<g transform="translate(46.4020, 56.9610)">
<path transform="scale(0.0029, -0.0029)" d="M308 62c0 23 -20 39 -40 39c-4 0 -7 0 -11 -1c-29 -8 -74 -38 -109 -61s-79 -52 -99 -75c-6 -8 -10 -16 -10 -26c0 -23 20 -39 40 -39c4 0 7 0 11 1c29 8 74 38 109 61s79 52 99 75c6 8 10 16 10 26zM0 -59c0 142 114 198 251 198c53 0 96 -22 96 -80
c0 -142 -115 -198 -252 -198c-53 0 -95 22 -95 80z" fill="currentColor"/>
</g>
<g transform="translate(48.1910, 55.1189)">
<path transform="scale(0.0029, -0.0029)" d="M0 0c0 30 25 55 55 55s54 -25 54 -55s-24 -55 -54 -55s-55 25 -55 55z" fill="currentColor"/>
</g>
<g transform="translate(47.2971, 54.7504)">
<rect x="-0.0614" y="-2.2105" width="0.1228" height="2.4597" ry="0.0421" fill="currentColor"/>
</g>
<g transform="translate(48.1910, 55.8557)">
<path transform="scale(0.0029, -0.0029)" d="M0 0c0 30 25 55 55 55s54 -25 54 -55s-24 -55 -54 -55s-55 25 -55 55z" fill="currentColor"/>
</g>
<g transform="translate(47.8081, 54.7504)">
<rect x="-0.0614" y="-1.4737" width="0.1228" height="2.4597" ry="0.0421" fill="currentColor"/>
</g>
<g transform="translate(46.4634, 54.7504)">
<rect x="-0.0614" y="2.3848" width="0.1228" height="1.6678" ry="0.0421" fill="currentColor"/>
</g>
<g transform="translate(43.0595, 54.7504)">
<rect x="-0.0614" y="-1.4737" width="0.1228" height="2.4597" ry="0.0421" fill="currentColor"/>
</g>
<g transform="translate(41.7475, 54.7504)">
<rect x="-0.0614" y="2.3298" width="0.1228" height="1.7229" ry="0.0421" fill="currentColor"/>
</g>
<g transform="translate(40.8203, 56.9610)">
<path transform="scale(0.0029, -0.0029)" d="M-8 375c8 5 18 7 27 7s20 -2 28 -7l-3 -196l99 24h4c11 0 20 -8 20 -19l8 -559c-8 -5 -19 -7 -28 -7s-19 2 -27 7l3 196l-99 -24h-5c-11 0 -19 8 -19 19zM127 109l-85 -20l-2 -198l84 20z" fill="currentColor"/>
</g>
<g transform="translate(57.4861, 54.7504)">
<rect x="-0.0614" y="-2.4561" width="0.1228" height="2.3369" ry="0.0421" fill="currentColor"/>
</g>
<g transform="translate(57.9643, 54.7504)">
<rect x="-0.0614" y="-1.8421" width="0.1228" height="2.4597" ry="0.0421" fill="currentColor"/>
</g>
<g transform="translate(97.4812, 56.5926)">
<path transform="scale(0.0029, -0.0029)" d="M208 139c61 0 117 -33 117 -99c0 -71 -52 -119 -99 -147c-34 -20 -71 -32 -110 -32c-61 0 -116 33 -116 99c0 71 51 119 98 147c34 20 71 32 110 32z" fill="currentColor"/>
</g>
<g transform="translate(56.5910, 57.3294)">
<path transform="scale(0.0029, -0.0029)" d="M208 139c61 0 117 -33 117 -99c0 -71 -52 -119 -99 -147c-34 -20 -71 -32 -110 -32c-61 0 -116 33 -116 99c0 71 51 119 98 147c34 20 71 32 110 32z" fill="currentColor"/>
</g>
<g transform="translate(56.6523, 54.7504)">
<rect x="-0.0614" y="2.6982" width="0.1228" height="1.7229" ry="0.0421" fill="currentColor"/>
</g>
<g transform="translate(51.9159, 55.1189)">
<path transform="scale(0.0029, -0.0029)" d="M208 139c61 0 117 -33 117 -99c0 -71 -52 -119 -99 -147c-34 -20 -71 -32 -110 -32c-61 0 -116 33 -116 99c0 71 51 119 98 147c34 20 71 32 110 32z" fill="currentColor"/>
</g>
<g transform="translate(52.3942, 55.8557)">
<path transform="scale(0.0029, -0.0029)" d="M208 139c61 0 117 -33 117 -99c0 -71 -52 -119 -99 -147c-34 -20 -71 -32 -110 -32c-61 0 -116 33 -116 99c0 71 51 119 98 147c34 20 71 32 110 32z" fill="currentColor"/>
</g>
<g transform="translate(52.8110, 54.7504)">
<rect x="-0.0614" y="-2.2105" width="0.1228" height="2.4597" ry="0.0421" fill="currentColor"/>
</g>
<g transform="translate(52.8724, 52.5820)">
<path transform="scale(0.0029, -0.0029)" d="M0 0c0 -196 207 -334 207 -530c0 -71 -15 -140 -41 -206c-5 -10 -14 -13 -23 -13c-14 0 -28 10 -28 26c0 2 1 3 1 5c26 59 42 123 42 188c0 101 -90 205 -158 280h-21v250h21z" fill="currentColor"/>
</g>
<g transform="translate(42.5812, 54.7504)">
<rect x="-0.0614" y="-2.2105" width="0.1228" height="2.4597" ry="0.0421" fill="currentColor"/>
</g>
<g transform="translate(53.2893, 54.7504)">
<rect x="-0.0614" y="-1.4737" width="0.1228" height="2.4597" ry="0.0421" fill="currentColor"/>
</g>
<g transform="translate(53.3507, 53.3189)">
<path transform="scale(0.0029, -0.0029)" d="M0 0c0 -196 207 -334 207 -530c0 -71 -15 -140 -41 -206c-5 -10 -14 -13 -23 -13c-14 0 -28 10 -28 26c0 2 1 3 1 5c26 59 42 123 42 188c0 101 -90 205 -158 280h-21v250h21z" fill="currentColor"/>
</g>
<g transform="translate(56.5910, 54.7504)">
<path transform="scale(0.0029, -0.0029)" d="M208 139c61 0 117 -33 117 -99c0 -71 -52 -119 -99 -147c-34 -20 -71 -32 -110 -32c-61 0 -116 33 -116 99c0 71 51 119 98 147c34 20 71 32 110 32z" fill="currentColor"/>
</g>
<g transform="translate(57.0692, 55.4873)">
<path transform="scale(0.0029, -0.0029)" d="M208 139c61 0 117 -33 117 -99c0 -71 -52 -119 -99 -147c-34 -20 -71 -32 -110 -32c-61 0 -116 33 -116 99c0 71 51 119 98 147c34 20 71 32 110 32z" fill="currentColor"/>
</g>
<g transform="translate(27.7646, 54.7504)">
<rect x="-0.0614" y="-1.4737" width="0.1228" height="2.4597" ry="0.0421" fill="currentColor"/>
</g>
<g transform="translate(26.4526, 54.7504)">
<rect x="-0.0614" y="3.0666" width="0.1228" height="1.7229" ry="0.0421" fill="currentColor"/>
</g>
<g transform="translate(31.1071, 55.1189)">
<path transform="scale(0.0029, -0.0029)" d="M208 139c61 0 117 -33 117 -99c0 -71 -52 -119 -99 -147c-34 -20 -71 -32 -110 -32c-61 0 -116 33 -116 99c0 71 51 119 98 147c34 20 71 32 110 32z" fill="currentColor"/>
</g>
<g transform="translate(31.5854, 55.8557)">
<path transform="scale(0.0029, -0.0029)" d="M208 139c61 0 117 -33 117 -99c0 -71 -52 -119 -99 -147c-34 -20 -71 -32 -110 -32c-61 0 -116 33 -116 99c0 71 51 119 98 147c34 20 71 32 110 32z" fill="currentColor"/>
</g>
<g transform="translate(31.1071, 56.5926)">
<path transform="scale(0.0029, -0.0029)" d="M208 139c61 0 117 -33 117 -99c0 -71 -52 -119 -99 -147c-34 -20 -71 -32 -110 -32c-61 0 -116 33 -116 99c0 71 51 119 98 147c34 20 71 32 110 32z" fill="currentColor"/>
</g>
<g transform="translate(32.8634, 55.1189)">
<path transform="scale(0.0029, -0.0029)" d="M0 0c0 30 25 55 55 55s54 -25 54 -55s-24 -55 -54 -55s-55 25 -55 55z" fill="currentColor"/>
</g>
<g transform="translate(32.0022, 54.7504)">
<rect x="-0.0614" y="-2.2105" width="0.1228" height="2.4597" ry="0.0421" fill="currentColor"/>
</g>
<g transform="translate(18.7702, 55.4873)">
<path transform="scale(0.0029, -0.0029)" d="M381 266h9c157 0 258 -130 258 -264c0 -77 -33 -156 -108 -212c-22 -16 -46 -28 -71 -36c2 -32 3 -65 3 -97c0 -21 -1 -43 -2 -64c-7 -122 -91 -230 -211 -230c-108 0 -197 88 -197 197c0 58 54 104 113 104c54 0 95 -48 95 -104c0 -52 -43 -95 -95 -95c-8 0 -16 2 -24 4
c25 -35 65 -59 111 -59c95 0 155 92 161 190c1 20 2 39 2 59c0 28 -1 55 -3 83c-29 -5 -57 -7 -87 -7c-189 0 -333 174 -333 377c0 176 128 307 242 443c-21 62 -41 124 -50 189c-7 52 -8 106 -8 159c0 113 54 219 146 286c8 6 21 7 29 0c72 -82 136 -244 136 -357
c0 -141 -83 -253 -174 -362c22 -67 41 -135 58 -204zM464 -200c64 25 108 93 108 159c0 87 -62 173 -163 187c24 -113 43 -225 55 -346zM338 -218c27 0 54 2 80 6c-13 125 -33 242 -58 359c-79 -7 -123 -59 -123 -116c0 -43 24 -89 78 -120c5 -5 8 -11 8 -17
c0 -13 -11 -24 -24 -24c-3 0 -7 0 -10 2c-81 44 -119 116 -119 187c0 90 60 178 164 201c-14 56 -30 112 -47 167c-104 -122 -208 -245 -208 -404c0 -132 127 -241 259 -241zM239 782c0 -69 22 -127 41 -183c77 97 140 199 140 323c0 49 -3 69 -19 113
c-99 -45 -162 -145 -162 -253z" fill="currentColor"/>
</g>
<g transform="translate(22.2702, 53.2768)">
<path transform="scale(0.0029, -0.0029)" d="M0 114c0 12 7 22 18 26l37 15v151c0 12 10 22 22 22s22 -10 22 -22v-134l77 29v152c0 12 10 22 22 22s22 -10 22 -22v-134l16 6c3 1 8 2 11 2c15 0 28 -12 28 -28v-50c0 -12 -7 -23 -18 -27l-37 -14v-152l16 7c3 1 8 2 11 2c15 0 28 -13 28 -29v-50c0 -12 -7 -22 -18 -26
l-37 -15v-151c0 -12 -10 -22 -22 -22s-22 10 -22 22v134l-77 -29v-152c0 -12 -10 -22 -22 -22s-22 10 -22 22v134l-16 -6c-3 -1 -8 -2 -11 -2c-15 0 -28 12 -28 28v50c0 12 7 23 18 27l37 14v152l-16 -7c-3 -1 -8 -2 -11 -2c-15 0 -28 13 -28 29v50zM176 91l-77 -30v-152
l77 30v152z" fill="currentColor"/>
</g>
<g transform="translate(23.0807, 54.3820)">
<path transform="scale(0.0029, -0.0029)" d="M0 114c0 12 7 22 18 26l37 15v151c0 12 10 22 22 22s22 -10 22 -22v-134l77 29v152c0 12 10 22 22 22s22 -10 22 -22v-134l16 6c3 1 8 2 11 2c15 0 28 -12 28 -28v-50c0 -12 -7 -23 -18 -27l-37 -14v-152l16 7c3 1 8 2 11 2c15 0 28 -13 28 -29v-50c0 -12 -7 -22 -18 -26
l-37 -15v-151c0 -12 -10 -22 -22 -22s-22 10 -22 22v134l-77 -29v-152c0 -12 -10 -22 -22 -22s-22 10 -22 22v134l-16 -6c-3 -1 -8 -2 -11 -2c-15 0 -28 12 -28 28v50c0 12 7 23 18 27l37 14v152l-16 -7c-3 -1 -8 -2 -11 -2c-15 0 -28 13 -28 29v50zM176 91l-77 -30v-152
l77 30v152z" fill="currentColor"/>
</g>
<g transform="translate(26.3912, 54.0136)">
<path transform="scale(0.0029, -0.0029)" d="M208 139c61 0 117 -33 117 -99c0 -71 -52 -119 -99 -147c-34 -20 -71 -32 -110 -32c-61 0 -116 33 -116 99c0 71 51 119 98 147c34 20 71 32 110 32z" fill="currentColor"/>
</g>
<g transform="translate(26.8695, 55.8557)">
<path transform="scale(0.0029, -0.0029)" d="M208 139c61 0 117 -33 117 -99c0 -71 -52 -119 -99 -147c-34 -20 -71 -32 -110 -32c-61 0 -116 33 -116 99c0 71 51 119 98 147c34 20 71 32 110 32z" fill="currentColor"/>
</g>
<g transform="translate(26.3912, 57.6978)">
<path transform="scale(0.0029, -0.0029)" d="M208 139c61 0 117 -33 117 -99c0 -71 -52 -119 -99 -147c-34 -20 -71 -32 -110 -32c-61 0 -116 33 -116 99c0 71 51 119 98 147c34 20 71 32 110 32z" fill="currentColor"/>
</g>
<g transform="translate(27.2863, 54.7504)">
<rect x="-0.0614" y="-2.9474" width="0.1228" height="2.0913" ry="0.0421" fill="currentColor"/>
</g>
<g transform="translate(36.6477, 58.7610)">
<path transform="scale(0.0029, -0.0029)" d="M0 250c94 60 217 150 217 259c0 56 -15 110 -41 160v6c0 16 14 26 28 26c9 0 17 -4 22 -14c25 -56 40 -116 40 -178c0 -203 -266 -306 -266 -509h-21v250h21z" fill="currentColor"/>
</g>
<g transform="translate(37.8983, 54.7504)">
<rect x="-0.0614" y="-1.4737" width="0.1228" height="2.4597" ry="0.0421" fill="currentColor"/>
</g>
<g transform="translate(37.9597, 53.3189)">
<path transform="scale(0.0029, -0.0029)" d="M0 0c0 -196 207 -334 207 -530c0 -71 -15 -140 -41 -206c-5 -10 -14 -13 -23 -13c-14 0 -28 10 -28 26c0 2 1 3 1 5c26 59 42 123 42 188c0 101 -90 205 -158 280h-21v250h21z" fill="currentColor"/>
</g>
<g transform="translate(36.5864, 54.7504)">
<rect x="-0.0614" y="1.9613" width="0.1228" height="2.0913" ry="0.0421" fill="currentColor"/>
</g>
<g transform="translate(37.4815, 52.5820)">
<path transform="scale(0.0029, -0.0029)" d="M0 0c0 -196 207 -334 207 -530c0 -71 -15 -140 -41 -206c-5 -10 -14 -13 -23 -13c-14 0 -28 10 -28 26c0 2 1 3 1 5c26 59 42 123 42 188c0 101 -90 205 -158 280h-21v250h21z" fill="currentColor"/>
</g>
<g transform="translate(41.6861, 55.1189)">
<path transform="scale(0.0029, -0.0029)" d="M208 139c61 0 117 -33 117 -99c0 -71 -52 -119 -99 -147c-34 -20 -71 -32 -110 -32c-61 0 -116 33 -116 99c0 71 51 119 98 147c34 20 71 32 110 32z" fill="currentColor"/>
</g>
<g transform="translate(42.1643, 55.8557)">
<path transform="scale(0.0029, -0.0029)" d="M208 139c61 0 117 -33 117 -99c0 -71 -52 -119 -99 -147c-34 -20 -71 -32 -110 -32c-61 0 -116 33 -116 99c0 71 51 119 98 147c34 20 71 32 110 32z" fill="currentColor"/>
</g>
<g transform="translate(41.6861, 56.9610)">
<path transform="scale(0.0029, -0.0029)" d="M208 139c61 0 117 -33 117 -99c0 -71 -52 -119 -99 -147c-34 -20 -71 -32 -110 -32c-61 0 -116 33 -116 99c0 71 51 119 98 147c34 20 71 32 110 32z" fill="currentColor"/>
</g>
<g transform="translate(32.8634, 55.8557)">
<path transform="scale(0.0029, -0.0029)" d="M0 0c0 30 25 55 55 55s54 -25 54 -55s-24 -55 -54 -55s-55 25 -55 55z" fill="currentColor"/>
</g>
<g transform="translate(32.4805, 54.7504)">
<rect x="-0.0614" y="-1.4737" width="0.1228" height="2.4597" ry="0.0421" fill="currentColor"/>
</g>
<g transform="translate(32.8634, 56.5926)">
<path transform="scale(0.0029, -0.0029)" d="M0 0c0 30 25 55 55 55s54 -25 54 -55s-24 -55 -54 -55s-55 25 -55 55z" fill="currentColor"/>
</g>
<g transform="translate(31.1685, 54.7504)">
<rect x="-0.0614" y="1.9613" width="0.1228" height="1.7229" ry="0.0421" fill="currentColor"/>
</g>
<g transform="translate(36.5250, 55.1189)">
<path transform="scale(0.0029, -0.0029)" d="M208 139c61 0 117 -33 117 -99c0 -71 -52 -119 -99 -147c-34 -20 -71 -32 -110 -32c-61 0 -116 33 -116 99c0 71 51 119 98 147c34 20 71 32 110 32z" fill="currentColor"/>
</g>
<g transform="translate(37.0032, 55.8557)">
<path transform="scale(0.0029, -0.0029)" d="M208 139c61 0 117 -33 117 -99c0 -71 -52 -119 -99 -147c-34 -20 -71 -32 -110 -32c-61 0 -116 33 -116 99c0 71 51 119 98 147c34 20 71 32 110 32z" fill="currentColor"/>
</g>
<g transform="translate(36.5250, 56.5926)">
<path transform="scale(0.0029, -0.0029)" d="M208 139c61 0 117 -33 117 -99c0 -71 -52 -119 -99 -147c-34 -20 -71 -32 -110 -32c-61 0 -116 33 -116 99c0 71 51 119 98 147c34 20 71 32 110 32z" fill="currentColor"/>
</g>
<g transform="translate(37.4201, 54.7504)">
<rect x="-0.0614" y="-2.2105" width="0.1228" height="2.4597" ry="0.0421" fill="currentColor"/>
</g>
<g transform="translate(79.2486, 56.2241)">
<path transform="scale(0.0029, -0.0029)" d="M208 139c61 0 117 -33 117 -99c0 -71 -52 -119 -99 -147c-34 -20 -71 -32 -110 -32c-61 0 -116 33 -116 99c0 71 51 119 98 147c34 20 71 32 110 32z" fill="currentColor"/>
</g>
<g transform="translate(80.5267, 53.6452)">
<path transform="scale(0.0029, -0.0029)" d="M0 0c0 30 25 55 55 55s54 -25 54 -55s-24 -55 -54 -55s-55 25 -55 55z" fill="currentColor"/>
</g>
<g transform="translate(79.6655, 54.7504)">
<rect x="-0.0614" y="-2.9474" width="0.1228" height="2.0913" ry="0.0421" fill="currentColor"/>
</g>
<g transform="translate(80.1437, 54.7504)">
<rect x="-0.0614" y="-0.8619" width="0.1228" height="2.2163" ry="0.0421" fill="currentColor"/>
</g>
<g transform="translate(78.7704, 54.0136)">
<path transform="scale(0.0029, -0.0029)" d="M208 139c61 0 117 -33 117 -99c0 -71 -52 -119 -99 -147c-34 -20 -71 -32 -110 -32c-61 0 -116 33 -116 99c0 71 51 119 98 147c34 20 71 32 110 32z" fill="currentColor"/>
</g>
<g transform="translate(82.6051, 56.5926)">
<path transform="scale(0.0029, -0.0029)" d="M208 139c61 0 117 -33 117 -99c0 -71 -52 -119 -99 -147c-34 -20 -71 -32 -110 -32c-61 0 -116 33 -116 99c0 71 51 119 98 147c34 20 71 32 110 32z" fill="currentColor"/>
</g>
<g transform="translate(83.5002, 54.7504)">
<rect x="-0.0614" y="-0.6118" width="0.1228" height="2.3347" ry="0.0421" fill="currentColor"/>
</g>
<g transform="translate(75.1748, 54.0136)">
<path transform="scale(0.0029, -0.0029)" d="M208 139c61 0 117 -33 117 -99c0 -71 -52 -119 -99 -147c-34 -20 -71 -32 -110 -32c-61 0 -116 33 -116 99c0 71 51 119 98 147c34 20 71 32 110 32z" fill="currentColor"/>
</g>
<g transform="translate(75.6530, 55.8557)">
<path transform="scale(0.0029, -0.0029)" d="M208 139c61 0 117 -33 117 -99c0 -71 -52 -119 -99 -147c-34 -20 -71 -32 -110 -32c-61 0 -116 33 -116 99c0 71 51 119 98 147c34 20 71 32 110 32z" fill="currentColor"/>
</g>
<g transform="translate(76.0699, 54.7504)">
<rect x="-0.0614" y="-2.5750" width="0.1228" height="1.7189" ry="0.0421" fill="currentColor"/>
</g>
<g transform="translate(76.5481, 54.7504)">
<rect x="-0.0614" y="-2.0852" width="0.1228" height="3.0712" ry="0.0421" fill="currentColor"/>
</g>
<g transform="translate(92.8611, 54.7504)">
<rect x="-0.0614" y="1.9613" width="0.1228" height="1.7229" ry="0.0421" fill="currentColor"/>
</g>
<g transform="translate(97.4812, 53.2768)">
<path transform="scale(0.0029, -0.0029)" d="M208 139c61 0 117 -33 117 -99c0 -71 -52 -119 -99 -147c-34 -20 -71 -32 -110 -32c-61 0 -116 33 -116 99c0 71 51 119 98 147c34 20 71 32 110 32z" fill="currentColor"/>
</g>
<g transform="translate(97.9594, 54.0136)">
<path transform="scale(0.0029, -0.0029)" d="M208 139c61 0 117 -33 117 -99c0 -71 -52 -119 -99 -147c-34 -20 -71 -32 -110 -32c-61 0 -116 33 -116 99c0 71 51 119 98 147c34 20 71 32 110 32z" fill="currentColor"/>
</g>
<g transform="translate(98.4377, 55.1189)">
<path transform="scale(0.0029, -0.0029)" d="M208 139c61 0 117 -33 117 -99c0 -71 -52 -119 -99 -147c-34 -20 -71 -32 -110 -32c-61 0 -116 33 -116 99c0 71 51 119 98 147c34 20 71 32 110 32z" fill="currentColor"/>
</g>
<g transform="translate(85.9616, 56.2241)">
<path transform="scale(0.0029, -0.0029)" d="M208 139c61 0 117 -33 117 -99c0 -71 -52 -119 -99 -147c-34 -20 -71 -32 -110 -32c-61 0 -116 33 -116 99c0 71 51 119 98 147c34 20 71 32 110 32z" fill="currentColor"/>
</g>
<g transform="translate(86.8567, 54.7504)">
<rect x="-0.0614" y="-1.1053" width="0.1228" height="2.4597" ry="0.0421" fill="currentColor"/>
</g>
<g transform="translate(88.3616, 54.3820)">
<path transform="scale(0.0029, -0.0029)" d="M208 139c61 0 117 -33 117 -99c0 -71 -52 -119 -99 -147c-34 -20 -71 -32 -110 -32c-61 0 -116 33 -116 99c0 71 51 119 98 147c34 20 71 32 110 32z" fill="currentColor"/>
</g>
<g transform="translate(89.2567, 54.7504)">
<rect x="-0.0614" y="-2.7632" width="0.1228" height="2.2755" ry="0.0421" fill="currentColor"/>
</g>
<g transform="translate(89.3181, 52.0294)">
<path transform="scale(0.0029, -0.0029)" d="M0 0c0 -196 207 -334 207 -530c0 -71 -15 -140 -41 -206c-5 -10 -14 -13 -23 -13c-14 0 -28 10 -28 26c0 2 1 3 1 5c26 59 42 123 42 188c0 101 -90 205 -158 280h-21v250h21z" fill="currentColor"/>
</g>
<g transform="translate(92.7997, 54.0136)">
<path transform="scale(0.0029, -0.0029)" d="M208 139c61 0 117 -33 117 -99c0 -71 -52 -119 -99 -147c-34 -20 -71 -32 -110 -32c-61 0 -116 33 -116 99c0 71 51 119 98 147c34 20 71 32 110 32z" fill="currentColor"/>
</g>
<g transform="translate(92.7997, 56.5926)">
<path transform="scale(0.0029, -0.0029)" d="M208 139c61 0 117 -33 117 -99c0 -71 -52 -119 -99 -147c-34 -20 -71 -32 -110 -32c-61 0 -116 33 -116 99c0 71 51 119 98 147c34 20 71 32 110 32z" fill="currentColor"/>
</g>
<g transform="translate(93.6948, 54.7504)">
<rect x="-0.0614" y="-2.9474" width="0.1228" height="2.0913" ry="0.0421" fill="currentColor"/>
</g>
<g transform="translate(66.9041, 54.7504)">
<path transform="scale(0.0029, -0.0029)" d="M208 139c61 0 117 -33 117 -99c0 -71 -52 -119 -99 -147c-34 -20 -71 -32 -110 -32c-61 0 -116 33 -116 99c0 71 51 119 98 147c34 20 71 32 110 32z" fill="currentColor"/>
</g>
<g transform="translate(67.3824, 55.4873)">
<path transform="scale(0.0029, -0.0029)" d="M208 139c61 0 117 -33 117 -99c0 -71 -52 -119 -99 -147c-34 -20 -71 -32 -110 -32c-61 0 -116 33 -116 99c0 71 51 119 98 147c34 20 71 32 110 32z" fill="currentColor"/>
</g>
<g transform="translate(67.7992, 54.7504)">
<rect x="-0.0614" y="-2.4868" width="0.1228" height="2.3676" ry="0.0421" fill="currentColor"/>
</g>
<g transform="translate(61.4516, 54.7504)">
<rect x="-0.0614" y="1.6480" width="0.1228" height="1.7906" ry="0.0421" fill="currentColor"/>
</g>
<g transform="translate(67.8606, 52.3057)">
<path transform="scale(0.0029, -0.0029)" d="M0 0c0 -196 207 -334 207 -530c0 -71 -15 -140 -41 -206c-5 -10 -14 -13 -23 -13c-14 0 -28 10 -28 26c0 2 1 3 1 5c26 59 42 123 42 188c0 101 -90 205 -158 280h-21v250h21z" fill="currentColor"/>
</g>
<g transform="translate(68.2775, 54.7504)">
<rect x="-0.0614" y="-1.8421" width="0.1228" height="2.4597" ry="0.0421" fill="currentColor"/>
</g>
<g transform="translate(68.3388, 52.9504)">
<path transform="scale(0.0029, -0.0029)" d="M0 0c0 -196 207 -334 207 -530c0 -71 -15 -140 -41 -206c-5 -10 -14 -13 -23 -13c-14 0 -28 10 -28 26c0 2 1 3 1 5c26 59 42 123 42 188c0 101 -90 205 -158 280h-21v250h21z" fill="currentColor"/>
</g>
<g transform="translate(61.3902, 54.7504)">
<path transform="scale(0.0029, -0.0029)" d="M208 139c61 0 117 -33 117 -99c0 -71 -52 -119 -99 -147c-34 -20 -71 -32 -110 -32c-61 0 -116 33 -116 99c0 71 51 119 98 147c34 20 71 32 110 32z" fill="currentColor"/>
</g>
<g transform="translate(61.9011, 55.4873)">
<path transform="scale(0.0029, -0.0029)" d="M208 139c61 0 117 -33 117 -99c0 -71 -52 -119 -99 -147c-34 -20 -71 -32 -110 -32c-61 0 -116 33 -116 99c0 71 51 119 98 147c34 20 71 32 110 32z" fill="currentColor"/>
</g>
<g transform="translate(61.3902, 56.2241)">
<path transform="scale(0.0029, -0.0029)" d="M308 62c0 23 -20 39 -40 39c-4 0 -7 0 -11 -1c-29 -8 -74 -38 -109 -61s-79 -52 -99 -75c-6 -8 -10 -16 -10 -26c0 -23 20 -39 40 -39c4 0 7 0 11 1c29 8 74 38 109 61s79 52 99 75c6 8 10 16 10 26zM0 -59c0 142 114 198 251 198c53 0 96 -22 96 -80
c0 -142 -115 -198 -252 -198c-53 0 -95 22 -95 80z" fill="currentColor"/>
</g>
<g transform="translate(63.1792, 54.3820)">
<path transform="scale(0.0029, -0.0029)" d="M0 0c0 30 25 55 55 55s54 -25 54 -55s-24 -55 -54 -55s-55 25 -55 55z" fill="currentColor"/>
</g>
<g transform="translate(62.2853, 54.7504)">
<rect x="-0.0614" y="-2.4561" width="0.1228" height="2.3369" ry="0.0421" fill="currentColor"/>
</g>
<g transform="translate(63.1792, 55.1189)">
<path transform="scale(0.0029, -0.0029)" d="M0 0c0 30 25 55 55 55s54 -25 54 -55s-24 -55 -54 -55s-55 25 -55 55z" fill="currentColor"/>
</g>
<g transform="translate(62.7963, 54.7504)">
<rect x="-0.0614" y="-1.8421" width="0.1228" height="2.4597" ry="0.0421" fill="currentColor"/>
</g>
<g transform="translate(71.6405, 54.7504)">
<rect x="-0.0614" y="3.0666" width="0.1228" height="1.7229" ry="0.0421" fill="currentColor"/>
</g>
<g transform="translate(72.9525, 54.7504)">
<rect x="-0.0614" y="-2.3359" width="0.1228" height="2.9535" ry="0.0421" fill="currentColor"/>
</g>
<g transform="translate(72.4743, 54.7504)">
<rect x="-0.0614" y="-2.3441" width="0.1228" height="1.8564" ry="0.0421" fill="currentColor"/>
</g>
<g transform="translate(71.5792, 57.6978)">
<path transform="scale(0.0029, -0.0029)" d="M208 139c61 0 117 -33 117 -99c0 -71 -52 -119 -99 -147c-34 -20 -71 -32 -110 -32c-61 0 -116 33 -116 99c0 71 51 119 98 147c34 20 71 32 110 32z" fill="currentColor"/>
</g>
<g transform="translate(72.0574, 55.4873)">
<path transform="scale(0.0029, -0.0029)" d="M208 139c61 0 117 -33 117 -99c0 -71 -52 -119 -99 -147c-34 -20 -71 -32 -110 -32c-61 0 -116 33 -116 99c0 71 51 119 98 147c34 20 71 32 110 32z" fill="currentColor"/>
</g>
<g transform="translate(71.5792, 54.3820)">
<path transform="scale(0.0029, -0.0029)" d="M208 139c61 0 117 -33 117 -99c0 -71 -52 -119 -99 -147c-34 -20 -71 -32 -110 -32c-61 0 -116 33 -116 99c0 71 51 119 98 147c34 20 71 32 110 32z" fill="currentColor"/>
</g>
</svg>
