<svg xmlns="http://www.w3.org/2000/svg" xmlns:xlink="http://www.w3.org/1999/xlink" version="1.2" width="594.00mm" height="420.00mm" viewBox="0.0000 -0.0000 355.8092 251.5823">
<style type="text/css">
<![CDATA[
tspan { white-space: pre; }
]]>
</style>
<g transform="translate(17.9702, 56.2241)">
<line stroke-linejoin="round" stroke-linecap="round" stroke-width="0.0944" stroke="currentColor" x1="0.0472" y1="0" x2="145.1643" y2="0"/>
</g>
<g transform="translate(17.9702, 55.4873)">
<line stroke-linejoin="round" stroke-linecap="round" stroke-width="0.0944" stroke="currentColor" x1="0.0472" y1="0" x2="145.1643" y2="0"/>
</g>
<g transform="translate(17.9702, 54.7504)">
<line stroke-linejoin="round" stroke-linecap="round" stroke-width="0.0944" stroke="currentColor" x1="0.0472" y1="0" x2="145.1643" y2="0"/>
</g>
<g transform="translate(17.9702, 54.0136)">
<line stroke-linejoin="round" stroke-linecap="round" stroke-width="0.0944" stroke="currentColor" x1="0.0472" y1="0" x2="145.1643" y2="0"/>
</g>
<g transform="translate(17.9702, 53.2768)">
<line stroke-linejoin="round" stroke-linecap="round" stroke-width="0.0944" stroke="currentColor" x1="0.0472" y1="0" x2="145.1643" y2="0"/>
</g>
<g transform="translate(88.5708, 54.7504)">
<rect x="0.0000" y="-1.4737" width="0.1794" height="2.9474" ry="0.0000" fill="currentColor"/>
</g>
<g transform="translate(107.5954, 54.7504)">
<rect x="0.0000" y="-1.4737" width="0.1794" height="2.9474" ry="0.0000" fill="currentColor"/>
</g>
<g transform="translate(69.3546, 54.7504)">
<rect x="0.0000" y="-1.4737" width="0.1794" height="2.9474" ry="0.0000" fill="currentColor"/>
</g>
<g transform="translate(122.9338, 54.7504)">
<rect x="0.0000" y="-1.4737" width="0.1794" height="2.9474" ry="0.0000" fill="currentColor"/>
</g>
<g transform="translate(55.1921, 54.7504)">
<rect x="0.0000" y="-1.4737" width="0.1794" height="2.9474" ry="0.0000" fill="currentColor"/>
</g>
<g transform="translate(40.5804, 54.7504)">
<rect x="0.0000" y="-1.4737" width="0.1794" height="2.9474" ry="0.0000" fill="currentColor"/>
</g>
<g transform="translate(147.5514, 54.7504)">
<rect x="0.0000" y="-1.4737" width="0.1794" height="2.9474" ry="0.0000" fill="currentColor"/>
</g>
<g transform="translate(163.0023, 54.7504)">
<rect x="0.0000" y="-1.4737" width="0.1794" height="2.9474" ry="0.0000" fill="currentColor"/>
</g>
<g transform="translate(17.9702, 56.9610)">
<rect x="136.1617" y="-0.0841" width="1.5329" height="0.1681" ry="0.0841" fill="currentColor"/>
</g>
<g transform="translate(17.9702, 57.6978)">
<rect x="136.1617" y="-0.0841" width="1.5329" height="0.1681" ry="0.0841" fill="currentColor"/>
</g>
<g transform="translate(17.9702, 56.9610)">
<rect x="130.4216" y="-0.0841" width="1.4347" height="0.1681" ry="0.0841" fill="currentColor"/>
</g>
<g transform="translate(17.9702, 57.6978)">
<rect x="130.4216" y="-0.0841" width="1.4347" height="0.1681" ry="0.0841" fill="currentColor"/>
</g>
<g transform="translate(17.9702, 56.9610)">
<rect x="106.7286" y="-0.0841" width="1.3706" height="0.1681" ry="0.0841" fill="currentColor"/>
</g>
<g transform="translate(17.9702, 56.9610)">
<rect x="99.8973" y="-0.0841" width="1.4347" height="0.1681" ry="0.0841" fill="currentColor"/>
</g>
<g transform="translate(17.9702, 57.6978)">
<rect x="99.8973" y="-0.0841" width="1.4347" height="0.1681" ry="0.0841" fill="currentColor"/>
</g>
<g transform="translate(17.9702, 56.9610)">
<rect x="95.1814" y="-0.0841" width="1.4347" height="0.1681" ry="0.0841" fill="currentColor"/>
</g>
<g transform="translate(17.9702, 57.6978)">
<rect x="95.1814" y="-0.0841" width="1.4347" height="0.1681" ry="0.0841" fill="currentColor"/>
</g>
<g transform="translate(17.9702, 56.9610)">
<rect x="90.4655" y="-0.0841" width="1.4347" height="0.1681" ry="0.0841" fill="currentColor"/>
</g>
<g transform="translate(17.9702, 56.9610)">
<rect x="84.5350" y="-0.0841" width="1.4347" height="0.1681" ry="0.0841" fill="currentColor"/>
</g>
<g transform="translate(17.9702, 56.9610)">
<rect x="61.5613" y="-0.0841" width="1.3706" height="0.1681" ry="0.0841" fill="currentColor"/>
</g>
<g transform="translate(17.9702, 56.9610)">
<rect x="56.9407" y="-0.0841" width="1.4347" height="0.1681" ry="0.0841" fill="currentColor"/>
</g>
<g transform="translate(17.9702, 57.6978)">
<rect x="56.9407" y="-0.0841" width="1.4347" height="0.1681" ry="0.0841" fill="currentColor"/>
</g>
<g transform="translate(17.9702, 56.9610)">
<rect x="52.2248" y="-0.0841" width="1.4347" height="0.1681" ry="0.0841" fill="currentColor"/>
</g>
<g transform="translate(17.9702, 57.6978)">
<rect x="52.2248" y="-0.0841" width="1.4347" height="0.1681" ry="0.0841" fill="currentColor"/>
</g>
<g transform="translate(17.9702, 56.9610)">
<rect x="42.5140" y="-0.0841" width="1.5329" height="0.1681" ry="0.0841" fill="currentColor"/>
</g>
<g transform="translate(17.9702, 56.9610)">
<rect x="28.4320" y="-0.0841" width="1.4524" height="0.1681" ry="0.0841" fill="currentColor"/>
</g>
<g transform="translate(110.0481, 54.7504)">
<rect x="-0.0614" y="-1.8421" width="0.1228" height="2.4597" ry="0.0421" fill="currentColor"/>
</g>
<g transform="translate(108.7362, 54.7504)">
<rect x="-0.0614" y="2.6982" width="0.1228" height="1.7229" ry="0.0421" fill="currentColor"/>
</g>
<g transform="translate(109.5699, 54.7504)">
<rect x="-0.0614" y="-2.9474" width="0.1228" height="2.0913" ry="0.0421" fill="currentColor"/>
</g>
<g transform="translate(124.8738, 54.7504)">
<path stroke-width="0.0755" stroke-linejoin="round" stroke-linecap="round" stroke="currentColor" fill="currentColor" d="M0.8538 -1.2933C2.5395 -2.8658 14.6662 -4.4498 16.6992 -3.3630L16.6992 -3.3630C14.6808 -4.3374 2.5542 -2.7535 0.8538 -1.2933z"/>
</g>
<g transform="translate(108.6748, 57.3294)">
<path transform="scale(0.0029, -0.0029)" d="M208 139c61 0 117 -33 117 -99c0 -71 -52 -119 -99 -147c-34 -20 -71 -32 -110 -32c-61 0 -116 33 -116 99c0 71 51 119 98 147c34 20 71 32 110 32z" fill="currentColor"/>
</g>
<g transform="translate(109.1530, 55.4873)">
<path transform="scale(0.0029, -0.0029)" d="M208 139c61 0 117 -33 117 -99c0 -71 -52 -119 -99 -147c-34 -20 -71 -32 -110 -32c-61 0 -116 33 -116 99c0 71 51 119 98 147c34 20 71 32 110 32z" fill="currentColor"/>
</g>
<g transform="translate(108.6748, 54.0136)">
<path transform="scale(0.0029, -0.0029)" d="M208 139c61 0 117 -33 117 -99c0 -71 -52 -119 -99 -147c-34 -20 -71 -32 -110 -32c-61 0 -116 33 -116 99c0 71 51 119 98 147c34 20 71 32 110 32z" fill="currentColor"/>
</g>
<g transform="translate(101.5838, 55.8557)">
<path transform="scale(0.0029, -0.0029)" d="M0 114c0 12 7 22 18 26l37 15v151c0 12 10 22 22 22s22 -10 22 -22v-134l77 29v152c0 12 10 22 22 22s22 -10 22 -22v-134l16 6c3 1 8 2 11 2c15 0 28 -12 28 -28v-50c0 -12 -7 -23 -18 -27l-37 -14v-152l16 7c3 1 8 2 11 2c15 0 28 -13 28 -29v-50c0 -12 -7 -22 -18 -26
l-37 -15v-151c0 -12 -10 -22 -22 -22s-22 10 -22 22v134l-77 -29v-152c0 -12 -10 -22 -22 -22s-22 10 -22 22v134l-16 -6c-3 -1 -8 -2 -11 -2c-15 0 -28 12 -28 28v50c0 12 7 23 18 27l37 14v152l-16 -7c-3 -1 -8 -2 -11 -2c-15 0 -28 13 -28 29v50zM176 91l-77 -30v-152
l77 30v152z" fill="currentColor"/>
</g>
<g transform="translate(102.8057, 54.7504)">
<rect x="-0.0614" y="2.3298" width="0.1228" height="1.7229" ry="0.0421" fill="currentColor"/>
</g>
<g transform="translate(119.4799, 54.7504)">
<rect x="-0.0614" y="-1.8421" width="0.1228" height="2.4597" ry="0.0421" fill="currentColor"/>
</g>
<g transform="translate(119.0017, 54.7504)">
<rect x="-0.0614" y="-2.4561" width="0.1228" height="2.3369" ry="0.0421" fill="currentColor"/>
</g>
<g transform="translate(118.1066, 58.0662)">
<path transform="scale(0.0029, -0.0029)" d="M208 139c61 0 117 -33 117 -99c0 -71 -52 -119 -99 -147c-34 -20 -71 -32 -110 -32c-61 0 -116 33 -116 99c0 71 51 119 98 147c34 20 71 32 110 32z" fill="currentColor"/>
</g>
<g transform="translate(118.5848, 55.4873)">
<path transform="scale(0.0029, -0.0029)" d="M208 139c61 0 117 -33 117 -99c0 -71 -52 -119 -99 -147c-34 -20 -71 -32 -110 -32c-61 0 -116 33 -116 99c0 71 51 119 98 147c34 20 71 32 110 32z" fill="currentColor"/>
</g>
<g transform="translate(118.1066, 54.7504)">
<path transform="scale(0.0029, -0.0029)" d="M208 139c61 0 117 -33 117 -99c0 -71 -52 -119 -99 -147c-34 -20 -71 -32 -110 -32c-61 0 -116 33 -116 99c0 71 51 119 98 147c34 20 71 32 110 32z" fill="currentColor"/>
</g>
<g transform="translate(112.3923, 55.8557)">
<path transform="scale(0.0029, -0.0029)" d="M0 114c0 12 7 22 18 26l37 15v151c0 12 10 22 22 22s22 -10 22 -22v-134l77 29v152c0 12 10 22 22 22s22 -10 22 -22v-134l16 6c3 1 8 2 11 2c15 0 28 -12 28 -28v-50c0 -12 -7 -23 -18 -27l-37 -14v-152l16 7c3 1 8 2 11 2c15 0 28 -13 28 -29v-50c0 -12 -7 -22 -18 -26
l-37 -15v-151c0 -12 -10 -22 -22 -22s-22 10 -22 22v134l-77 -29v-152c0 -12 -10 -22 -22 -22s-22 10 -22 22v134l-16 -6c-3 -1 -8 -2 -11 -2c-15 0 -28 12 -28 28v50c0 12 7 23 18 27l37 14v152l-16 -7c-3 -1 -8 -2 -11 -2c-15 0 -28 13 -28 29v50zM176 91l-77 -30v-152
l77 30v152z" fill="currentColor"/>
</g>
<g transform="translate(113.4521, 54.7504)">
<rect x="-0.0614" y="3.0666" width="0.1228" height="1.7229" ry="0.0421" fill="currentColor"/>
</g>
<g transform="translate(114.7640, 54.7504)">
<rect x="-0.0614" y="-1.4737" width="0.1228" height="2.4597" ry="0.0421" fill="currentColor"/>
</g>
<g transform="translate(114.2858, 54.7504)">
<rect x="-0.0614" y="-2.7018" width="0.1228" height="2.2141" ry="0.0421" fill="currentColor"/>
</g>
<g transform="translate(113.3907, 57.6978)">
<path transform="scale(0.0029, -0.0029)" d="M208 139c61 0 117 -33 117 -99c0 -71 -52 -119 -99 -147c-34 -20 -71 -32 -110 -32c-61 0 -116 33 -116 99c0 71 51 119 98 147c34 20 71 32 110 32z" fill="currentColor"/>
</g>
<g transform="translate(113.8689, 55.8557)">
<path transform="scale(0.0029, -0.0029)" d="M208 139c61 0 117 -33 117 -99c0 -71 -52 -119 -99 -147c-34 -20 -71 -32 -110 -32c-61 0 -116 33 -116 99c0 71 51 119 98 147c34 20 71 32 110 32z" fill="currentColor"/>
</g>
<g transform="translate(113.3907, 54.3820)">
<path transform="scale(0.0029, -0.0029)" d="M208 139c61 0 117 -33 117 -99c0 -71 -52 -119 -99 -147c-34 -20 -71 -32 -110 -32c-61 0 -116 33 -116 99c0 71 51 119 98 147c34 20 71 32 110 32z" fill="currentColor"/>
</g>
<g transform="translate(94.6105, 54.7504)">
<rect x="-0.0614" y="-0.9330" width="0.1228" height="1.9190" ry="0.0421" fill="currentColor"/>
</g>
<g transform="translate(93.7154, 55.8557)">
<path transform="scale(0.0029, -0.0029)" d="M208 139c61 0 117 -33 117 -99c0 -71 -52 -119 -99 -147c-34 -20 -71 -32 -110 -32c-61 0 -116 33 -116 99c0 71 51 119 98 147c34 20 71 32 110 32z" fill="currentColor"/>
</g>
<g transform="translate(92.4541, 54.7504)">
<rect x="-0.0614" y="-1.1479" width="0.1228" height="2.5024" ry="0.0421" fill="currentColor"/>
</g>
<g transform="translate(91.5589, 56.2241)">
<path transform="scale(0.0029, -0.0029)" d="M208 139c61 0 117 -33 117 -99c0 -71 -52 -119 -99 -147c-34 -20 -71 -32 -110 -32c-61 0 -116 33 -116 99c0 71 51 119 98 147c34 20 71 32 110 32z" fill="currentColor"/>
</g>
<g transform="translate(89.7138, 54.7504)">
<rect x="-0.0614" y="1.9613" width="0.1228" height="1.7229" ry="0.0421" fill="currentColor"/>
</g>
<g transform="translate(90.5476, 54.7504)">
<rect x="-0.0614" y="-1.3379" width="0.1228" height="1.9556" ry="0.0421" fill="currentColor"/>
</g>
<g transform="translate(135.0835, 51.9327)">
<polygon stroke-linejoin="round" stroke-linecap="round" stroke-width="0.0842" fill="currentColor" stroke="currentColor" points="6.5501 -0.1347 6.5501 0.1347 0.0421 0.1347 0.0421 -0.1347"/>
</g>
<g transform="translate(135.0835, 52.5399)">
<polygon stroke-linejoin="round" stroke-linecap="round" stroke-width="0.0842" fill="currentColor" stroke="currentColor" points="6.5501 -0.1347 6.5501 0.1347 0.0421 0.1347 0.0421 -0.1347"/>
</g>
<g transform="translate(104.1177, 54.7504)">
<rect x="-0.0614" y="-1.4737" width="0.1228" height="2.4597" ry="0.0421" fill="currentColor"/>
</g>
<g transform="translate(103.6394, 54.7504)">
<rect x="-0.0614" y="-2.2105" width="0.1228" height="2.4597" ry="0.0421" fill="currentColor"/>
</g>
<g transform="translate(102.7443, 56.9610)">
<path transform="scale(0.0029, -0.0029)" d="M208 139c61 0 117 -33 117 -99c0 -71 -52 -119 -99 -147c-34 -20 -71 -32 -110 -32c-61 0 -116 33 -116 99c0 71 51 119 98 147c34 20 71 32 110 32z" fill="currentColor"/>
</g>
<g transform="translate(103.2226, 55.8557)">
<path transform="scale(0.0029, -0.0029)" d="M208 139c61 0 117 -33 117 -99c0 -71 -52 -119 -99 -147c-34 -20 -71 -32 -110 -32c-61 0 -116 33 -116 99c0 71 51 119 98 147c34 20 71 32 110 32z" fill="currentColor"/>
</g>
<g transform="translate(102.7443, 55.1189)">
<path transform="scale(0.0029, -0.0029)" d="M208 139c61 0 117 -33 117 -99c0 -71 -52 -119 -99 -147c-34 -20 -71 -32 -110 -32c-61 0 -116 33 -116 99c0 71 51 119 98 147c34 20 71 32 110 32z" fill="currentColor"/>
</g>
<g transform="translate(98.0898, 54.7504)">
<rect x="-0.0614" y="1.9613" width="0.1228" height="1.7229" ry="0.0421" fill="currentColor"/>
</g>
<g transform="translate(118.1680, 54.7504)">
<rect x="-0.0614" y="3.4350" width="0.1228" height="1.7229" ry="0.0421" fill="currentColor"/>
</g>
<g transform="translate(99.4018, 54.7504)">
<rect x="-0.0614" y="-1.4737" width="0.1228" height="2.4597" ry="0.0421" fill="currentColor"/>
</g>
<g transform="translate(98.9235, 54.7504)">
<rect x="-0.0614" y="-2.4561" width="0.1228" height="2.3369" ry="0.0421" fill="currentColor"/>
</g>
<g transform="translate(98.0284, 56.5926)">
<path transform="scale(0.0029, -0.0029)" d="M208 139c61 0 117 -33 117 -99c0 -71 -52 -119 -99 -147c-34 -20 -71 -32 -110 -32c-61 0 -116 33 -116 99c0 71 51 119 98 147c34 20 71 32 110 32z" fill="currentColor"/>
</g>
<g transform="translate(98.5067, 55.8557)">
<path transform="scale(0.0029, -0.0029)" d="M208 139c61 0 117 -33 117 -99c0 -71 -52 -119 -99 -147c-34 -20 -71 -32 -110 -32c-61 0 -116 33 -116 99c0 71 51 119 98 147c34 20 71 32 110 32z" fill="currentColor"/>
</g>
<g transform="translate(98.0284, 54.7504)">
<path transform="scale(0.0029, -0.0029)" d="M208 139c61 0 117 -33 117 -99c0 -71 -52 -119 -99 -147c-34 -20 -71 -32 -110 -32c-61 0 -116 33 -116 99c0 71 51 119 98 147c34 20 71 32 110 32z" fill="currentColor"/>
</g>
<g transform="translate(96.5170, 54.7504)">
<rect x="-0.0614" y="-0.7430" width="0.1228" height="2.4658" ry="0.0421" fill="currentColor"/>
</g>
<g transform="translate(95.6219, 56.5926)">
<path transform="scale(0.0029, -0.0029)" d="M208 139c61 0 117 -33 117 -99c0 -71 -52 -119 -99 -147c-34 -20 -71 -32 -110 -32c-61 0 -116 33 -116 99c0 71 51 119 98 147c34 20 71 32 110 32z" fill="currentColor"/>
</g>
<g transform="translate(151.9259, 54.7504)">
<rect x="-0.0614" y="-1.1053" width="0.1228" height="2.4597" ry="0.0421" fill="currentColor"/>
</g>
<g transform="translate(151.0308, 56.2241)">
<path transform="scale(0.0029, -0.0029)" d="M208 139c61 0 117 -33 117 -99c0 -71 -52 -119 -99 -147c-34 -20 -71 -32 -110 -32c-61 0 -116 33 -116 99c0 71 51 119 98 147c34 20 71 32 110 32z" fill="currentColor"/>
</g>
<g transform="translate(148.6922, 54.7504)">
<rect x="-0.0614" y="3.4350" width="0.1228" height="1.7229" ry="0.0421" fill="currentColor"/>
</g>
<g transform="translate(151.9873, 53.6873)">
<path transform="scale(0.0029, -0.0029)" d="M0 0c0 -196 207 -334 207 -530c0 -71 -15 -140 -41 -206c-5 -10 -14 -13 -23 -13c-14 0 -28 10 -28 26c0 2 1 3 1 5c26 59 42 123 42 188c0 101 -90 205 -158 280h-21v250h21z" fill="currentColor"/>
</g>
<g transform="translate(90.4862, 53.4064)">
<polygon stroke-linejoin="round" stroke-linecap="round" stroke-width="0.0842" fill="currentColor" stroke="currentColor" points="6.0501 0.4725 6.0501 0.7420 0.0421 0.1347 0.0421 -0.1347"/>
</g>
<g transform="translate(90.4862, 54.0136)">
<polygon stroke-linejoin="round" stroke-linecap="round" stroke-width="0.0842" fill="currentColor" stroke="currentColor" points="6.0501 0.4725 6.0501 0.7420 0.0421 0.1347 0.0421 -0.1347"/>
</g>
<g transform="translate(148.6308, 58.0662)">
<path transform="scale(0.0029, -0.0029)" d="M208 139c61 0 117 -33 117 -99c0 -71 -52 -119 -99 -147c-34 -20 -71 -32 -110 -32c-61 0 -116 33 -116 99c0 71 51 119 98 147c34 20 71 32 110 32z" fill="currentColor"/>
</g>
<g transform="translate(89.6525, 54.7504)">
<path stroke-width="0.0755" stroke-linejoin="round" stroke-linecap="round" stroke="currentColor" fill="currentColor" d="M0.9267 -1.8832C1.4847 -2.3296 2.3744 -2.2409 2.8332 -1.6932L2.8332 -1.6932C2.3631 -2.1282 1.4734 -2.2168 0.9267 -1.8832z"/>
</g>
<g transform="translate(142.9371, 54.7504)">
<rect x="-0.0614" y="1.9613" width="0.1228" height="1.7229" ry="0.0421" fill="currentColor"/>
</g>
<g transform="translate(143.7708, 54.7504)">
<rect x="-0.0614" y="-1.4737" width="0.1228" height="2.4597" ry="0.0421" fill="currentColor"/>
</g>
<g transform="translate(142.8757, 56.5926)">
<path transform="scale(0.0029, -0.0029)" d="M208 139c61 0 117 -33 117 -99c0 -71 -52 -119 -99 -147c-34 -20 -71 -32 -110 -32c-61 0 -116 33 -116 99c0 71 51 119 98 147c34 20 71 32 110 32z" fill="currentColor"/>
</g>
<g transform="translate(142.8757, 55.8557)">
<path transform="scale(0.0029, -0.0029)" d="M208 139c61 0 117 -33 117 -99c0 -71 -52 -119 -99 -147c-34 -20 -71 -32 -110 -32c-61 0 -116 33 -116 99c0 71 51 119 98 147c34 20 71 32 110 32z" fill="currentColor"/>
</g>
<g transform="translate(159.6458, 56.5926)">
<path transform="scale(0.0029, -0.0029)" d="M208 139c61 0 117 -33 117 -99c0 -71 -52 -119 -99 -147c-34 -20 -71 -32 -110 -32c-61 0 -116 33 -116 99c0 71 51 119 98 147c34 20 71 32 110 32z" fill="currentColor"/>
</g>
<g transform="translate(79.7064, 54.7504)">
<path stroke-width="0.0755" stroke-linejoin="round" stroke-linecap="round" stroke="currentColor" fill="currentColor" d="M0.9014 -2.0177C2.1435 -3.0308 6.1695 -2.9516 7.3708 -1.8905L7.3708 -1.8905C6.1673 -2.8383 2.1412 -2.9175 0.9014 -2.0177z"/>
</g>
<g transform="translate(160.6023, 54.0557)">
<path transform="scale(0.0029, -0.0029)" d="M0 0c0 -196 207 -334 207 -530c0 -71 -15 -140 -41 -206c-5 -10 -14 -13 -23 -13c-14 0 -28 10 -28 26c0 2 1 3 1 5c26 59 42 123 42 188c0 101 -90 205 -158 280h-21v250h21z" fill="currentColor"/>
</g>
<g transform="translate(160.5409, 54.7504)">
<rect x="-0.0614" y="-0.7368" width="0.1228" height="2.4597" ry="0.0421" fill="currentColor"/>
</g>
<g transform="translate(154.4487, 54.7504)">
<rect x="-0.0614" y="3.1217" width="0.1228" height="1.6678" ry="0.0421" fill="currentColor"/>
</g>
<g transform="translate(155.2824, 54.7504)">
<rect x="-0.0614" y="-1.1053" width="0.1228" height="2.4597" ry="0.0421" fill="currentColor"/>
</g>
<g transform="translate(155.6654, 55.8557)">
<path transform="scale(0.0029, -0.0029)" d="M0 0c0 30 25 55 55 55s54 -25 54 -55s-24 -55 -54 -55s-55 25 -55 55z" fill="currentColor"/>
</g>
<g transform="translate(154.3873, 57.6978)">
<path transform="scale(0.0029, -0.0029)" d="M308 62c0 23 -20 39 -40 39c-4 0 -7 0 -11 -1c-29 -8 -74 -38 -109 -61s-79 -52 -99 -75c-6 -8 -10 -16 -10 -26c0 -23 20 -39 40 -39c4 0 7 0 11 1c29 8 74 38 109 61s79 52 99 75c6 8 10 16 10 26zM0 -59c0 142 114 198 251 198c53 0 96 -22 96 -80
c0 -142 -115 -198 -252 -198c-53 0 -95 22 -95 80z" fill="currentColor"/>
</g>
<g transform="translate(154.3873, 56.2241)">
<path transform="scale(0.0029, -0.0029)" d="M208 139c61 0 117 -33 117 -99c0 -71 -52 -119 -99 -147c-34 -20 -71 -32 -110 -32c-61 0 -116 33 -116 99c0 71 51 119 98 147c34 20 71 32 110 32z" fill="currentColor"/>
</g>
<g transform="translate(123.7133, 56.9610)">
<path transform="scale(0.0029, -0.0029)" d="M0 114c0 12 7 22 18 26l37 15v151c0 12 10 22 22 22s22 -10 22 -22v-134l77 29v152c0 12 10 22 22 22s22 -10 22 -22v-134l16 6c3 1 8 2 11 2c15 0 28 -12 28 -28v-50c0 -12 -7 -23 -18 -27l-37 -14v-152l16 7c3 1 8 2 11 2c15 0 28 -13 28 -29v-50c0 -12 -7 -22 -18 -26
l-37 -15v-151c0 -12 -10 -22 -22 -22s-22 10 -22 22v134l-77 -29v-152c0 -12 -10 -22 -22 -22s-22 10 -22 22v134l-16 -6c-3 -1 -8 -2 -11 -2c-15 0 -28 12 -28 28v50c0 12 7 23 18 27l37 14v152l-16 -7c-3 -1 -8 -2 -11 -2c-15 0 -28 13 -28 29v50zM176 91l-77 -30v-152
l77 30v152z" fill="currentColor"/>
</g>
<g transform="translate(130.5819, 54.7504)">
<rect x="-0.0614" y="-1.6291" width="0.1228" height="2.2467" ry="0.0421" fill="currentColor"/>
</g>
<g transform="translate(129.6868, 55.4873)">
<path transform="scale(0.0029, -0.0029)" d="M208 139c61 0 117 -33 117 -99c0 -71 -52 -119 -99 -147c-34 -20 -71 -32 -110 -32c-61 0 -116 33 -116 99c0 71 51 119 98 147c34 20 71 32 110 32z" fill="currentColor"/>
</g>
<g transform="translate(128.1754, 54.7504)">
<rect x="-0.0614" y="-1.1886" width="0.1228" height="2.5431" ry="0.0421" fill="currentColor"/>
</g>
<g transform="translate(127.2803, 56.2241)">
<path transform="scale(0.0029, -0.0029)" d="M208 139c61 0 117 -33 117 -99c0 -71 -52 -119 -99 -147c-34 -20 -71 -32 -110 -32c-61 0 -116 33 -116 99c0 71 51 119 98 147c34 20 71 32 110 32z" fill="currentColor"/>
</g>
<g transform="translate(125.7689, 54.7504)">
<rect x="-0.0614" y="-0.7481" width="0.1228" height="2.8394" ry="0.0421" fill="currentColor"/>
</g>
<g transform="translate(93.7154, 54.7504)">
<path stroke-width="0.0755" stroke-linejoin="round" stroke-linecap="round" stroke="currentColor" fill="currentColor" d="M0.9448 -1.5944C1.5307 -2.0294 2.4217 -1.8889 2.8512 -1.2938L2.8512 -1.2938C2.4041 -1.7770 1.5131 -1.9175 0.9448 -1.5944z"/>
</g>
<g transform="translate(125.7075, 54.0136)">
<polygon stroke-linejoin="round" stroke-linecap="round" stroke-width="0.0842" fill="currentColor" stroke="currentColor" points="7.3001 -1.4788 7.3001 -1.2093 0.0421 0.1347 0.0421 -0.1347"/>
</g>
<g transform="translate(125.7075, 54.6208)">
<polygon stroke-linejoin="round" stroke-linecap="round" stroke-width="0.0842" fill="currentColor" stroke="currentColor" points="7.3001 -1.4788 7.3001 -1.2093 0.0421 0.1347 0.0421 -0.1347"/>
</g>
<g transform="translate(124.8738, 56.9610)">
<path transform="scale(0.0029, -0.0029)" d="M208 139c61 0 117 -33 117 -99c0 -71 -52 -119 -99 -147c-34 -20 -71 -32 -110 -32c-61 0 -116 33 -116 99c0 71 51 119 98 147c34 20 71 32 110 32z" fill="currentColor"/>
</g>
<g transform="translate(136.4062, 55.4873)">
<path transform="scale(0.0029, -0.0029)" d="M208 139c61 0 117 -33 117 -99c0 -71 -52 -119 -99 -147c-34 -20 -71 -32 -110 -32c-61 0 -116 33 -116 99c0 71 51 119 98 147c34 20 71 32 110 32z" fill="currentColor"/>
</g>
<g transform="translate(141.6143, 54.7504)">
<rect x="-0.0614" y="-2.8177" width="0.1228" height="3.4354" ry="0.0421" fill="currentColor"/>
</g>
<g transform="translate(140.7192, 55.4873)">
<path transform="scale(0.0029, -0.0029)" d="M208 139c61 0 117 -33 117 -99c0 -71 -52 -119 -99 -147c-34 -20 -71 -32 -110 -32c-61 0 -116 33 -116 99c0 71 51 119 98 147c34 20 71 32 110 32z" fill="currentColor"/>
</g>
<g transform="translate(139.7078, 54.7504)">
<rect x="-0.0614" y="-2.8177" width="0.1228" height="1.5933" ry="0.0421" fill="currentColor"/>
</g>
<g transform="translate(138.8127, 53.6452)">
<path transform="scale(0.0029, -0.0029)" d="M208 139c61 0 117 -33 117 -99c0 -71 -52 -119 -99 -147c-34 -20 -71 -32 -110 -32c-61 0 -116 33 -116 99c0 71 51 119 98 147c34 20 71 32 110 32z" fill="currentColor"/>
</g>
<g transform="translate(137.3013, 54.7504)">
<rect x="-0.0614" y="-2.8177" width="0.1228" height="3.4354" ry="0.0421" fill="currentColor"/>
</g>
<g transform="translate(80.5401, 53.2768)">
<polygon stroke-linejoin="round" stroke-linecap="round" stroke-width="0.0842" fill="currentColor" stroke="currentColor" points="6.5501 -0.0051 6.5501 0.2644 0.0421 0.1347 0.0421 -0.1347"/>
</g>
<g transform="translate(80.5401, 53.8840)">
<polygon stroke-linejoin="round" stroke-linecap="round" stroke-width="0.0842" fill="currentColor" stroke="currentColor" points="6.5501 -0.0051 6.5501 0.2644 0.0421 0.1347 0.0421 -0.1347"/>
</g>
<g transform="translate(135.1449, 54.7504)">
<rect x="-0.0614" y="-2.8177" width="0.1228" height="3.0669" ry="0.0421" fill="currentColor"/>
</g>
<g transform="translate(134.2498, 55.1189)">
<path transform="scale(0.0029, -0.0029)" d="M208 139c61 0 117 -33 117 -99c0 -71 -52 -119 -99 -147c-34 -20 -71 -32 -110 -32c-61 0 -116 33 -116 99c0 71 51 119 98 147c34 20 71 32 110 32z" fill="currentColor"/>
</g>
<g transform="translate(132.9884, 54.7504)">
<rect x="-0.0614" y="-2.0697" width="0.1228" height="1.9504" ry="0.0421" fill="currentColor"/>
</g>
<g transform="translate(132.0933, 54.7504)">
<path transform="scale(0.0029, -0.0029)" d="M208 139c61 0 117 -33 117 -99c0 -71 -52 -119 -99 -147c-34 -20 -71 -32 -110 -32c-61 0 -116 33 -116 99c0 71 51 119 98 147c34 20 71 32 110 32z" fill="currentColor"/>
</g>
<g transform="translate(48.0487, 54.7504)">
<rect x="-0.0614" y="-2.2105" width="0.1228" height="2.4047" ry="0.0421" fill="currentColor"/>
</g>
<g transform="translate(47.0882, 55.1189)">
<path transform="scale(0.0029, -0.0029)" d="M308 62c0 23 -20 39 -40 39c-4 0 -7 0 -11 -1c-29 -8 -74 -38 -109 -61s-79 -52 -99 -75c-6 -8 -10 -16 -10 -26c0 -23 20 -39 40 -39c4 0 7 0 11 1c29 8 74 38 109 61s79 52 99 75c6 8 10 16 10 26zM0 -59c0 142 114 198 251 198c53 0 96 -22 96 -80
c0 -142 -115 -198 -252 -198c-53 0 -95 22 -95 80z" fill="currentColor"/>
</g>
<g transform="translate(48.1101, 55.4873)">
<path transform="scale(0.0029, -0.0029)" d="M308 62c0 23 -20 39 -40 39c-4 0 -7 0 -11 -1c-29 -8 -74 -38 -109 -61s-79 -52 -99 -75c-6 -8 -10 -16 -10 -26c0 -23 20 -39 40 -39c4 0 7 0 11 1c29 8 74 38 109 61s79 52 99 75c6 8 10 16 10 26zM0 -59c0 142 114 198 251 198c53 0 96 -22 96 -80
c0 -142 -115 -198 -252 -198c-53 0 -95 22 -95 80z" fill="currentColor"/>
</g>
<g transform="translate(46.5772, 56.9610)">
<path transform="scale(0.0029, -0.0029)" d="M308 62c0 23 -20 39 -40 39c-4 0 -7 0 -11 -1c-29 -8 -74 -38 -109 -61s-79 -52 -99 -75c-6 -8 -10 -16 -10 -26c0 -23 20 -39 40 -39c4 0 7 0 11 1c29 8 74 38 109 61s79 52 99 75c6 8 10 16 10 26zM0 -59c0 142 114 198 251 198c53 0 96 -22 96 -80
c0 -142 -115 -198 -252 -198c-53 0 -95 22 -95 80z" fill="currentColor"/>
</g>
<g transform="translate(49.4535, 53.6452)">
<path transform="scale(0.0029, -0.0029)" d="M0 0c0 30 25 55 55 55s54 -25 54 -55s-24 -55 -54 -55s-55 25 -55 55z" fill="currentColor"/>
</g>
<g transform="translate(47.4723, 54.7504)">
<rect x="-0.0614" y="-3.1930" width="0.1228" height="1.9685" ry="0.0421" fill="currentColor"/>
</g>
<g transform="translate(46.5772, 53.6452)">
<path transform="scale(0.0029, -0.0029)" d="M208 139c61 0 117 -33 117 -99c0 -71 -52 -119 -99 -147c-34 -20 -71 -32 -110 -32c-61 0 -116 33 -116 99c0 71 51 119 98 147c34 20 71 32 110 32z" fill="currentColor"/>
</g>
<g transform="translate(49.0706, 54.7504)">
<rect x="-0.0614" y="-1.8421" width="0.1228" height="2.4047" ry="0.0421" fill="currentColor"/>
</g>
<g transform="translate(46.6386, 54.7504)">
<rect x="-0.0614" y="2.3848" width="0.1228" height="1.6678" ry="0.0421" fill="currentColor"/>
</g>
<g transform="translate(41.7234, 54.7504)">
<rect x="-0.0614" y="1.9613" width="0.1228" height="1.7229" ry="0.0421" fill="currentColor"/>
</g>
<g transform="translate(57.2303, 55.8557)">
<path transform="scale(0.0029, -0.0029)" d="M208 139c61 0 117 -33 117 -99c0 -71 -52 -119 -99 -147c-34 -20 -71 -32 -110 -32c-61 0 -116 33 -116 99c0 71 51 119 98 147c34 20 71 32 110 32z" fill="currentColor"/>
</g>
<g transform="translate(58.1254, 54.7504)">
<rect x="-0.0614" y="-1.4737" width="0.1228" height="2.4597" ry="0.0421" fill="currentColor"/>
</g>
<g transform="translate(57.6471, 54.7504)">
<rect x="-0.0614" y="-2.2105" width="0.1228" height="2.4597" ry="0.0421" fill="currentColor"/>
</g>
<g transform="translate(57.1689, 54.7504)">
<rect x="-0.0614" y="-3.4386" width="0.1228" height="1.8457" ry="0.0421" fill="currentColor"/>
</g>
<g transform="translate(56.2738, 56.5926)">
<path transform="scale(0.0029, -0.0029)" d="M208 139c61 0 117 -33 117 -99c0 -71 -52 -119 -99 -147c-34 -20 -71 -32 -110 -32c-61 0 -116 33 -116 99c0 71 51 119 98 147c34 20 71 32 110 32z" fill="currentColor"/>
</g>
<g transform="translate(43.5136, 54.7504)">
<rect x="-0.0614" y="-1.8421" width="0.1228" height="2.4597" ry="0.0421" fill="currentColor"/>
</g>
<g transform="translate(56.7520, 55.1189)">
<path transform="scale(0.0029, -0.0029)" d="M208 139c61 0 117 -33 117 -99c0 -71 -52 -119 -99 -147c-34 -20 -71 -32 -110 -32c-61 0 -116 33 -116 99c0 71 51 119 98 147c34 20 71 32 110 32z" fill="currentColor"/>
</g>
<g transform="translate(56.2738, 53.2768)">
<path transform="scale(0.0029, -0.0029)" d="M208 139c61 0 117 -33 117 -99c0 -71 -52 -119 -99 -147c-34 -20 -71 -32 -110 -32c-61 0 -116 33 -116 99c0 71 51 119 98 147c34 20 71 32 110 32z" fill="currentColor"/>
</g>
<g transform="translate(52.7921, 51.4768)">
<path transform="scale(0.0029, -0.0029)" d="M0 0c0 -196 207 -334 207 -530c0 -71 -15 -140 -41 -206c-5 -10 -14 -13 -23 -13c-14 0 -28 10 -28 26c0 2 1 3 1 5c26 59 42 123 42 188c0 101 -90 205 -158 280h-21v250h21z" fill="currentColor"/>
</g>
<g transform="translate(52.7308, 54.7504)">
<rect x="-0.0614" y="-3.3158" width="0.1228" height="2.0913" ry="0.0421" fill="currentColor"/>
</g>
<g transform="translate(51.8357, 53.6452)">
<path transform="scale(0.0029, -0.0029)" d="M208 139c61 0 117 -33 117 -99c0 -71 -52 -119 -99 -147c-34 -20 -71 -32 -110 -32c-61 0 -116 33 -116 99c0 71 51 119 98 147c34 20 71 32 110 32z" fill="currentColor"/>
</g>
<g transform="translate(45.4167, 56.9610)">
<path transform="scale(0.0029, -0.0029)" d="M0 114c0 12 7 22 18 26l37 15v151c0 12 10 22 22 22s22 -10 22 -22v-134l77 29v152c0 12 10 22 22 22s22 -10 22 -22v-134l16 6c3 1 8 2 11 2c15 0 28 -12 28 -28v-50c0 -12 -7 -23 -18 -27l-37 -14v-152l16 7c3 1 8 2 11 2c15 0 28 -13 28 -29v-50c0 -12 -7 -22 -18 -26
l-37 -15v-151c0 -12 -10 -22 -22 -22s-22 10 -22 22v134l-77 -29v-152c0 -12 -10 -22 -22 -22s-22 10 -22 22v134l-16 -6c-3 -1 -8 -2 -11 -2c-15 0 -28 12 -28 28v50c0 12 7 23 18 27l37 14v152l-16 -7c-3 -1 -8 -2 -11 -2c-15 0 -28 13 -28 29v50zM176 91l-77 -30v-152
l77 30v152z" fill="currentColor"/>
</g>
<g transform="translate(26.3672, 54.7504)">
<rect x="-0.0614" y="-0.7368" width="0.1228" height="2.4597" ry="0.0421" fill="currentColor"/>
</g>
<g transform="translate(26.4286, 54.0557)">
<path transform="scale(0.0029, -0.0029)" d="M0 0c0 -196 207 -334 207 -530c0 -71 -15 -140 -41 -206c-5 -10 -14 -13 -23 -13c-14 0 -28 10 -28 26c0 2 1 3 1 5c26 59 42 123 42 188c0 101 -90 205 -158 280h-21v250h21z" fill="currentColor"/>
</g>
<g transform="translate(28.8286, 53.2768)">
<path transform="scale(0.0029, -0.0029)" d="M63 -250l119 325c-32 -11 -65 -21 -99 -21c-47 0 -87 34 -87 79c0 40 34 72 75 72c25 0 48 -13 56 -36c10 -26 4 -58 32 -58c13 0 48 38 54 50c8 15 30 15 37 0l-117 -411c-10 -8 -23 -13 -35 -13s-25 5 -35 13z" fill="currentColor"/>
</g>
<g transform="translate(25.4721, 56.5926)">
<path transform="scale(0.0029, -0.0029)" d="M208 139c61 0 117 -33 117 -99c0 -71 -52 -119 -99 -147c-34 -20 -71 -32 -110 -32c-61 0 -116 33 -116 99c0 71 51 119 98 147c34 20 71 32 110 32z" fill="currentColor"/>
</g>
<g transform="translate(31.9655, 55.1189)">
<path transform="scale(0.0029, -0.0029)" d="M208 139c61 0 117 -33 117 -99c0 -71 -52 -119 -99 -147c-34 -20 -71 -32 -110 -32c-61 0 -116 33 -116 99c0 71 51 119 98 147c34 20 71 32 110 32z" fill="currentColor"/>
</g>
<g transform="translate(32.4764, 55.8557)">
<path transform="scale(0.0029, -0.0029)" d="M308 62c0 23 -20 39 -40 39c-4 0 -7 0 -11 -1c-29 -8 -74 -38 -109 -61s-79 -52 -99 -75c-6 -8 -10 -16 -10 -26c0 -23 20 -39 40 -39c4 0 7 0 11 1c29 8 74 38 109 61s79 52 99 75c6 8 10 16 10 26zM0 -59c0 142 114 198 251 198c53 0 96 -22 96 -80
c0 -142 -115 -198 -252 -198c-53 0 -95 22 -95 80z" fill="currentColor"/>
</g>
<g transform="translate(31.9655, 56.5926)">
<path transform="scale(0.0029, -0.0029)" d="M308 62c0 23 -20 39 -40 39c-4 0 -7 0 -11 -1c-29 -8 -74 -38 -109 -61s-79 -52 -99 -75c-6 -8 -10 -16 -10 -26c0 -23 20 -39 40 -39c4 0 7 0 11 1c29 8 74 38 109 61s79 52 99 75c6 8 10 16 10 26zM0 -59c0 142 114 198 251 198c53 0 96 -22 96 -80
c0 -142 -115 -198 -252 -198c-53 0 -95 22 -95 80z" fill="currentColor"/>
</g>
<g transform="translate(33.8199, 55.1189)">
<path transform="scale(0.0029, -0.0029)" d="M0 0c0 30 25 55 55 55s54 -25 54 -55s-24 -55 -54 -55s-55 25 -55 55z" fill="currentColor"/>
</g>
<g transform="translate(32.8606, 54.7504)">
<rect x="-0.0614" y="-2.2105" width="0.1228" height="2.4597" ry="0.0421" fill="currentColor"/>
</g>
<g transform="translate(22.3827, 54.7504)">
<path transform="scale(0.0029, -0.0029)" d="M33 35l-2 -60v-11c0 -21 2 -43 5 -64c42 38 87 81 87 138c0 32 -13 63 -41 63c-31 0 -48 -32 -49 -66zM32 446l-9 -337c25 26 59 40 95 40c50 0 82 -51 82 -105c0 -77 -80 -117 -137 -169c-18 -17 -26 -48 -52 -48c-16 0 -28 15 -28 32l-15 587c10 6 21 8 32 8
s22 -2 32 -8z" fill="currentColor"/>
</g>
<g transform="translate(18.7702, 55.4873)">
<path transform="scale(0.0029, -0.0029)" d="M381 266h9c157 0 258 -130 258 -264c0 -77 -33 -156 -108 -212c-22 -16 -46 -28 -71 -36c2 -32 3 -65 3 -97c0 -21 -1 -43 -2 -64c-7 -122 -91 -230 -211 -230c-108 0 -197 88 -197 197c0 58 54 104 113 104c54 0 95 -48 95 -104c0 -52 -43 -95 -95 -95c-8 0 -16 2 -24 4
c25 -35 65 -59 111 -59c95 0 155 92 161 190c1 20 2 39 2 59c0 28 -1 55 -3 83c-29 -5 -57 -7 -87 -7c-189 0 -333 174 -333 377c0 176 128 307 242 443c-21 62 -41 124 -50 189c-7 52 -8 106 -8 159c0 113 54 219 146 286c8 6 21 7 29 0c72 -82 136 -244 136 -357
c0 -141 -83 -253 -174 -362c22 -67 41 -135 58 -204zM464 -200c64 25 108 93 108 159c0 87 -62 173 -163 187c24 -113 43 -225 55 -346zM338 -218c27 0 54 2 80 6c-13 125 -33 242 -58 359c-79 -7 -123 -59 -123 -116c0 -43 24 -89 78 -120c5 -5 8 -11 8 -17
c0 -13 -11 -24 -24 -24c-3 0 -7 0 -10 2c-81 44 -119 116 -119 187c0 90 60 178 164 201c-14 56 -30 112 -47 167c-104 -122 -208 -245 -208 -404c0 -132 127 -241 259 -241zM239 782c0 -69 22 -127 41 -183c77 97 140 199 140 323c0 49 -3 69 -19 113
c-99 -45 -162 -145 -162 -253z" fill="currentColor"/>
</g>
<g transform="translate(17.9702, 54.7504)">
<path stroke-width="0.0755" stroke-linejoin="round" stroke-linecap="round" stroke="currentColor" fill="currentColor" d="M5.0020 1.0631C5.7367 0.3686 7.3010 0.3686 8.0357 1.0631L8.0357 1.0631C7.3010 0.4819 5.7367 0.4819 5.0020 1.0631z"/>
</g>
<g transform="translate(43.0354, 54.7504)">
<rect x="-0.0614" y="-2.4561" width="0.1228" height="2.3369" ry="0.0421" fill="currentColor"/>
</g>
<g transform="translate(42.5571, 54.7504)">
<rect x="-0.0614" y="-3.1930" width="0.1228" height="1.9685" ry="0.0421" fill="currentColor"/>
</g>
<g transform="translate(41.6620, 56.5926)">
<path transform="scale(0.0029, -0.0029)" d="M208 139c61 0 117 -33 117 -99c0 -71 -52 -119 -99 -147c-34 -20 -71 -32 -110 -32c-61 0 -116 33 -116 99c0 71 51 119 98 147c34 20 71 32 110 32z" fill="currentColor"/>
</g>
<g transform="translate(42.6185, 55.4873)">
<path transform="scale(0.0029, -0.0029)" d="M208 139c61 0 117 -33 117 -99c0 -71 -52 -119 -99 -147c-34 -20 -71 -32 -110 -32c-61 0 -116 33 -116 99c0 71 51 119 98 147c34 20 71 32 110 32z" fill="currentColor"/>
</g>
<g transform="translate(42.1403, 54.7504)">
<path transform="scale(0.0029, -0.0029)" d="M208 139c61 0 117 -33 117 -99c0 -71 -52 -119 -99 -147c-34 -20 -71 -32 -110 -32c-61 0 -116 33 -116 99c0 71 51 119 98 147c34 20 71 32 110 32z" fill="currentColor"/>
</g>
<g transform="translate(41.6620, 53.6452)">
<path transform="scale(0.0029, -0.0029)" d="M208 139c61 0 117 -33 117 -99c0 -71 -52 -119 -99 -147c-34 -20 -71 -32 -110 -32c-61 0 -116 33 -116 99c0 71 51 119 98 147c34 20 71 32 110 32z" fill="currentColor"/>
</g>
<g transform="translate(89.6525, 55.4873)">
<path transform="scale(0.0029, -0.0029)" d="M208 139c61 0 117 -33 117 -99c0 -71 -52 -119 -99 -147c-34 -20 -71 -32 -110 -32c-61 0 -116 33 -116 99c0 71 51 119 98 147c34 20 71 32 110 32z" fill="currentColor"/>
</g>
<g transform="translate(38.1804, 52.5820)">
<path transform="scale(0.0029, -0.0029)" d="M0 0c0 -196 207 -334 207 -530c0 -71 -15 -140 -41 -206c-5 -10 -14 -13 -23 -13c-14 0 -28 10 -28 26c0 2 1 3 1 5c26 59 42 123 42 188c0 101 -90 205 -158 280h-21v250h21z" fill="currentColor"/>
</g>
<g transform="translate(38.1190, 54.7504)">
<rect x="-0.0614" y="-2.2105" width="0.1228" height="2.4597" ry="0.0421" fill="currentColor"/>
</g>
<g transform="translate(37.2239, 55.1189)">
<path transform="scale(0.0029, -0.0029)" d="M208 139c61 0 117 -33 117 -99c0 -71 -52 -119 -99 -147c-34 -20 -71 -32 -110 -32c-61 0 -116 33 -116 99c0 71 51 119 98 147c34 20 71 32 110 32z" fill="currentColor"/>
</g>
<g transform="translate(32.0269, 54.7504)">
<rect x="-0.0614" y="2.0164" width="0.1228" height="1.6678" ry="0.0421" fill="currentColor"/>
</g>
<g transform="translate(33.4369, 54.7504)">
<rect x="-0.0614" y="-1.4737" width="0.1228" height="2.4047" ry="0.0421" fill="currentColor"/>
</g>
<g transform="translate(75.6282, 55.8557)">
<path transform="scale(0.0029, -0.0029)" d="M208 139c61 0 117 -33 117 -99c0 -71 -52 -119 -99 -147c-34 -20 -71 -32 -110 -32c-61 0 -116 33 -116 99c0 71 51 119 98 147c34 20 71 32 110 32z" fill="currentColor"/>
</g>
<g transform="translate(75.1499, 57.6978)">
<path transform="scale(0.0029, -0.0029)" d="M208 139c61 0 117 -33 117 -99c0 -71 -52 -119 -99 -147c-34 -20 -71 -32 -110 -32c-61 0 -116 33 -116 99c0 71 51 119 98 147c34 20 71 32 110 32z" fill="currentColor"/>
</g>
<g transform="translate(76.0450, 54.7504)">
<rect x="-0.0614" y="-2.2105" width="0.1228" height="2.4597" ry="0.0421" fill="currentColor"/>
</g>
<g transform="translate(76.5233, 54.7504)">
<rect x="-0.0614" y="-1.4737" width="0.1228" height="2.4597" ry="0.0421" fill="currentColor"/>
</g>
<g transform="translate(75.1499, 55.1189)">
<path transform="scale(0.0029, -0.0029)" d="M208 139c61 0 117 -33 117 -99c0 -71 -52 -119 -99 -147c-34 -20 -71 -32 -110 -32c-61 0 -116 33 -116 99c0 71 51 119 98 147c34 20 71 32 110 32z" fill="currentColor"/>
</g>
<g transform="translate(75.2113, 54.7504)">
<rect x="-0.0614" y="3.0666" width="0.1228" height="1.7229" ry="0.0421" fill="currentColor"/>
</g>
<g transform="translate(79.7064, 55.4873)">
<path transform="scale(0.0029, -0.0029)" d="M208 139c61 0 117 -33 117 -99c0 -71 -52 -119 -99 -147c-34 -20 -71 -32 -110 -32c-61 0 -116 33 -116 99c0 71 51 119 98 147c34 20 71 32 110 32z" fill="currentColor"/>
</g>
<g transform="translate(79.7064, 56.9610)">
<path transform="scale(0.0029, -0.0029)" d="M208 139c61 0 117 -33 117 -99c0 -71 -52 -119 -99 -147c-34 -20 -71 -32 -110 -32c-61 0 -116 33 -116 99c0 71 51 119 98 147c34 20 71 32 110 32z" fill="currentColor"/>
</g>
<g transform="translate(56.3352, 54.7504)">
<rect x="-0.0614" y="1.9613" width="0.1228" height="1.7229" ry="0.0421" fill="currentColor"/>
</g>
<g transform="translate(70.4954, 54.7504)">
<rect x="-0.0614" y="3.4350" width="0.1228" height="1.7229" ry="0.0421" fill="currentColor"/>
</g>
<g transform="translate(89.6525, 56.5926)">
<path transform="scale(0.0029, -0.0029)" d="M208 139c61 0 117 -33 117 -99c0 -71 -52 -119 -99 -147c-34 -20 -71 -32 -110 -32c-61 0 -116 33 -116 99c0 71 51 119 98 147c34 20 71 32 110 32z" fill="currentColor"/>
</g>
<g transform="translate(87.0710, 54.7504)">
<rect x="-0.0614" y="-1.3453" width="0.1228" height="2.3313" ry="0.0421" fill="currentColor"/>
</g>
<g transform="translate(86.1759, 55.8557)">
<path transform="scale(0.0029, -0.0029)" d="M208 139c61 0 117 -33 117 -99c0 -71 -52 -119 -99 -147c-34 -20 -71 -32 -110 -32c-61 0 -116 33 -116 99c0 71 51 119 98 147c34 20 71 32 110 32z" fill="currentColor"/>
</g>
<g transform="translate(84.9145, 54.7504)">
<rect x="-0.0614" y="-1.3877" width="0.1228" height="2.7421" ry="0.0421" fill="currentColor"/>
</g>
<g transform="translate(84.0194, 56.2241)">
<path transform="scale(0.0029, -0.0029)" d="M208 139c61 0 117 -33 117 -99c0 -71 -52 -119 -99 -147c-34 -20 -71 -32 -110 -32c-61 0 -116 33 -116 99c0 71 51 119 98 147c34 20 71 32 110 32z" fill="currentColor"/>
</g>
<g transform="translate(82.7580, 54.7504)">
<rect x="-0.0614" y="-1.4301" width="0.1228" height="2.4161" ry="0.0421" fill="currentColor"/>
</g>
<g transform="translate(81.8629, 55.8557)">
<path transform="scale(0.0029, -0.0029)" d="M208 139c61 0 117 -33 117 -99c0 -71 -52 -119 -99 -147c-34 -20 -71 -32 -110 -32c-61 0 -116 33 -116 99c0 71 51 119 98 147c34 20 71 32 110 32z" fill="currentColor"/>
</g>
<g transform="translate(78.5459, 56.9610)">
<path transform="scale(0.0029, -0.0029)" d="M0 114c0 12 7 22 18 26l37 15v151c0 12 10 22 22 22s22 -10 22 -22v-134l77 29v152c0 12 10 22 22 22s22 -10 22 -22v-134l16 6c3 1 8 2 11 2c15 0 28 -12 28 -28v-50c0 -12 -7 -23 -18 -27l-37 -14v-152l16 7c3 1 8 2 11 2c15 0 28 -13 28 -29v-50c0 -12 -7 -22 -18 -26
l-37 -15v-151c0 -12 -10 -22 -22 -22s-22 10 -22 22v134l-77 -29v-152c0 -12 -10 -22 -22 -22s-22 10 -22 22v134l-16 -6c-3 -1 -8 -2 -11 -2c-15 0 -28 12 -28 28v50c0 12 7 23 18 27l37 14v152l-16 -7c-3 -1 -8 -2 -11 -2c-15 0 -28 13 -28 29v50zM176 91l-77 -30v-152
l77 30v152z" fill="currentColor"/>
</g>
<g transform="translate(79.7678, 54.7504)">
<rect x="-0.0614" y="2.3298" width="0.1228" height="1.7229" ry="0.0421" fill="currentColor"/>
</g>
<g transform="translate(80.6015, 54.7504)">
<rect x="-0.0614" y="-1.4725" width="0.1228" height="2.0901" ry="0.0421" fill="currentColor"/>
</g>
<g transform="translate(62.5941, 53.6452)">
<path transform="scale(0.0029, -0.0029)" d="M0 0c0 30 25 55 55 55s54 -25 54 -55s-24 -55 -54 -55s-55 25 -55 55z" fill="currentColor"/>
</g>
<g transform="translate(60.8011, 54.7504)">
<rect x="-0.0614" y="2.7532" width="0.1228" height="1.6678" ry="0.0421" fill="currentColor"/>
</g>
<g transform="translate(71.8074, 54.7504)">
<rect x="-0.0614" y="-1.8421" width="0.1228" height="2.4597" ry="0.0421" fill="currentColor"/>
</g>
<g transform="translate(62.2111, 54.7504)">
<rect x="-0.0614" y="-1.4737" width="0.1228" height="2.4047" ry="0.0421" fill="currentColor"/>
</g>
<g transform="translate(61.6348, 54.7504)">
<rect x="-0.0614" y="-2.9474" width="0.1228" height="2.0913" ry="0.0421" fill="currentColor"/>
</g>
<g transform="translate(60.7397, 57.3294)">
<path transform="scale(0.0029, -0.0029)" d="M308 62c0 23 -20 39 -40 39c-4 0 -7 0 -11 -1c-29 -8 -74 -38 -109 -61s-79 -52 -99 -75c-6 -8 -10 -16 -10 -26c0 -23 20 -39 40 -39c4 0 7 0 11 1c29 8 74 38 109 61s79 52 99 75c6 8 10 16 10 26zM0 -59c0 142 114 198 251 198c53 0 96 -22 96 -80
c0 -142 -115 -198 -252 -198c-53 0 -95 22 -95 80z" fill="currentColor"/>
</g>
<g transform="translate(61.2506, 55.8557)">
<path transform="scale(0.0029, -0.0029)" d="M308 62c0 23 -20 39 -40 39c-4 0 -7 0 -11 -1c-29 -8 -74 -38 -109 -61s-79 -52 -99 -75c-6 -8 -10 -16 -10 -26c0 -23 20 -39 40 -39c4 0 7 0 11 1c29 8 74 38 109 61s79 52 99 75c6 8 10 16 10 26zM0 -59c0 142 114 198 251 198c53 0 96 -22 96 -80
c0 -142 -115 -198 -252 -198c-53 0 -95 22 -95 80z" fill="currentColor"/>
</g>
<g transform="translate(60.7397, 54.0136)">
<path transform="scale(0.0029, -0.0029)" d="M208 139c61 0 117 -33 117 -99c0 -71 -52 -119 -99 -147c-34 -20 -71 -32 -110 -32c-61 0 -116 33 -116 99c0 71 51 119 98 147c34 20 71 32 110 32z" fill="currentColor"/>
</g>
<g transform="translate(70.4340, 54.7504)">
<path transform="scale(0.0029, -0.0029)" d="M208 139c61 0 117 -33 117 -99c0 -71 -52 -119 -99 -147c-34 -20 -71 -32 -110 -32c-61 0 -116 33 -116 99c0 71 51 119 98 147c34 20 71 32 110 32z" fill="currentColor"/>
</g>
<g transform="translate(66.9546, 52.0294)">
<path transform="scale(0.0029, -0.0029)" d="M0 0c0 -196 207 -334 207 -530c0 -71 -15 -140 -41 -206c-5 -10 -14 -13 -23 -13c-14 0 -28 10 -28 26c0 2 1 3 1 5c26 59 42 123 42 188c0 101 -90 205 -158 280h-21v250h21z" fill="currentColor"/>
</g>
<g transform="translate(66.8932, 54.7504)">
<rect x="-0.0614" y="-2.7632" width="0.1228" height="2.2755" ry="0.0421" fill="currentColor"/>
</g>
<g transform="translate(71.3291, 54.7504)">
<rect x="-0.0614" y="-2.4561" width="0.1228" height="2.3369" ry="0.0421" fill="currentColor"/>
</g>
<g transform="translate(65.9981, 54.3820)">
<path transform="scale(0.0029, -0.0029)" d="M208 139c61 0 117 -33 117 -99c0 -71 -52 -119 -99 -147c-34 -20 -71 -32 -110 -32c-61 0 -116 33 -116 99c0 71 51 119 98 147c34 20 71 32 110 32z" fill="currentColor"/>
</g>
<g transform="translate(70.9123, 55.4873)">
<path transform="scale(0.0029, -0.0029)" d="M208 139c61 0 117 -33 117 -99c0 -71 -52 -119 -99 -147c-34 -20 -71 -32 -110 -32c-61 0 -116 33 -116 99c0 71 51 119 98 147c34 20 71 32 110 32z" fill="currentColor"/>
</g>
<g transform="translate(70.4340, 58.0662)">
<path transform="scale(0.0029, -0.0029)" d="M208 139c61 0 117 -33 117 -99c0 -71 -52 -119 -99 -147c-34 -20 -71 -32 -110 -32c-61 0 -116 33 -116 99c0 71 51 119 98 147c34 20 71 32 110 32z" fill="currentColor"/>
</g>
</svg>
