<svg xmlns="http://www.w3.org/2000/svg" xmlns:xlink="http://www.w3.org/1999/xlink" version="1.2" width="594.00mm" height="420.00mm" viewBox="0.0000 -0.0000 355.8092 251.5823">
<style type="text/css">
<![CDATA[
tspan { white-space: pre; }
]]>
</style>
<g transform="translate(17.9702, 56.2241)">
<line stroke-linejoin="round" stroke-linecap="round" stroke-width="0.0944" stroke="currentColor" x1="0.0472" y1="0" x2="120.5491" y2="0"/>
</g>
<g transform="translate(17.9702, 55.4873)">
<line stroke-linejoin="round" stroke-linecap="round" stroke-width="0.0944" stroke="currentColor" x1="0.0472" y1="0" x2="120.5491" y2="0"/>
</g>
<g transform="translate(17.9702, 54.7504)">
<line stroke-linejoin="round" stroke-linecap="round" stroke-width="0.0944" stroke="currentColor" x1="0.0472" y1="0" x2="120.5491" y2="0"/>
</g>
<g transform="translate(17.9702, 54.0136)">
<line stroke-linejoin="round" stroke-linecap="round" stroke-width="0.0944" stroke="currentColor" x1="0.0472" y1="0" x2="120.5491" y2="0"/>
</g>
<g transform="translate(17.9702, 53.2768)">
<line stroke-linejoin="round" stroke-linecap="round" stroke-width="0.0944" stroke="currentColor" x1="0.0472" y1="0" x2="120.5491" y2="0"/>
</g>
<g transform="translate(138.3871, 54.7504)">
<rect x="0.0000" y="-1.4737" width="0.1794" height="2.9474" ry="0.0000" fill="currentColor"/>
</g>
<g transform="translate(52.6664, 54.7504)">
<rect x="0.0000" y="-1.4737" width="0.1794" height="2.9474" ry="0.0000" fill="currentColor"/>
</g>
<g transform="translate(81.6603, 54.7504)">
<rect x="0.0000" y="-1.4737" width="0.1794" height="2.9474" ry="0.0000" fill="currentColor"/>
</g>
<g transform="translate(110.2737, 54.7504)">
<rect x="0.0000" y="-1.4737" width="0.1794" height="2.9474" ry="0.0000" fill="currentColor"/>
</g>
<g transform="translate(17.9702, 56.9610)">
<rect x="110.3957" y="-0.0841" width="1.4347" height="0.1681" ry="0.0841" fill="currentColor"/>
</g>
<g transform="translate(17.9702, 57.6978)">
<rect x="110.3957" y="-0.0841" width="1.4347" height="0.1681" ry="0.0841" fill="currentColor"/>
</g>
<g transform="translate(17.9702, 56.9610)">
<rect x="93.1438" y="-0.0841" width="1.4347" height="0.1681" ry="0.0841" fill="currentColor"/>
</g>
<g transform="translate(17.9702, 57.6978)">
<rect x="93.1438" y="-0.0841" width="1.4347" height="0.1681" ry="0.0841" fill="currentColor"/>
</g>
<g transform="translate(17.9702, 56.9610)">
<rect x="64.5305" y="-0.0841" width="1.4347" height="0.1681" ry="0.0841" fill="currentColor"/>
</g>
<g transform="translate(17.9702, 56.9610)">
<rect x="35.5365" y="-0.0841" width="1.4347" height="0.1681" ry="0.0841" fill="currentColor"/>
</g>
<g transform="translate(102.8981, 55.4873)">
<path transform="scale(0.0029, -0.0029)" d="M208 139c61 0 117 -33 117 -99c0 -71 -52 -119 -99 -147c-34 -20 -71 -32 -110 -32c-61 0 -116 33 -116 99c0 71 51 119 98 147c34 20 71 32 110 32z" fill="currentColor"/>
</g>
<g transform="translate(103.7932, 54.7504)">
<rect x="-0.0614" y="-2.4021" width="0.1228" height="3.0197" ry="0.0421" fill="currentColor"/>
</g>
<g transform="translate(101.3867, 54.7504)">
<rect x="-0.0614" y="-2.0889" width="0.1228" height="3.4433" ry="0.0421" fill="currentColor"/>
</g>
<g transform="translate(100.4916, 56.2241)">
<path transform="scale(0.0029, -0.0029)" d="M208 139c61 0 117 -33 117 -99c0 -71 -52 -119 -99 -147c-34 -20 -71 -32 -110 -32c-61 0 -116 33 -116 99c0 71 51 119 98 147c34 20 71 32 110 32z" fill="currentColor"/>
</g>
<g transform="translate(99.2303, 54.7504)">
<rect x="-0.0614" y="-1.4848" width="0.1228" height="2.4709" ry="0.0421" fill="currentColor"/>
</g>
<g transform="translate(98.3351, 55.8557)">
<path transform="scale(0.0029, -0.0029)" d="M208 139c61 0 117 -33 117 -99c0 -71 -52 -119 -99 -147c-34 -20 -71 -32 -110 -32c-61 0 -116 33 -116 99c0 71 51 119 98 147c34 20 71 32 110 32z" fill="currentColor"/>
</g>
<g transform="translate(97.0738, 54.7504)">
<rect x="-0.0614" y="-1.8761" width="0.1228" height="2.4937" ry="0.0421" fill="currentColor"/>
</g>
<g transform="translate(96.1787, 55.4873)">
<path transform="scale(0.0029, -0.0029)" d="M208 139c61 0 117 -33 117 -99c0 -71 -52 -119 -99 -147c-34 -20 -71 -32 -110 -32c-61 0 -116 33 -116 99c0 71 51 119 98 147c34 20 71 32 110 32z" fill="currentColor"/>
</g>
<g transform="translate(112.2482, 54.7504)">
<rect x="-0.0614" y="-0.7481" width="0.1228" height="3.5762" ry="0.0421" fill="currentColor"/>
</g>
<g transform="translate(111.3531, 57.6978)">
<path transform="scale(0.0029, -0.0029)" d="M208 139c61 0 117 -33 117 -99c0 -71 -52 -119 -99 -147c-34 -20 -71 -32 -110 -32c-61 0 -116 33 -116 99c0 71 51 119 98 147c34 20 71 32 110 32z" fill="currentColor"/>
</g>
<g transform="translate(106.8611, 54.3820)">
<path transform="scale(0.0029, -0.0029)" d="M0 114c0 12 7 22 18 26l37 15v151c0 12 10 22 22 22s22 -10 22 -22v-134l77 29v152c0 12 10 22 22 22s22 -10 22 -22v-134l16 6c3 1 8 2 11 2c15 0 28 -12 28 -28v-50c0 -12 -7 -23 -18 -27l-37 -14v-152l16 7c3 1 8 2 11 2c15 0 28 -13 28 -29v-50c0 -12 -7 -22 -18 -26
l-37 -15v-151c0 -12 -10 -22 -22 -22s-22 10 -22 22v134l-77 -29v-152c0 -12 -10 -22 -22 -22s-22 10 -22 22v134l-16 -6c-3 -1 -8 -2 -11 -2c-15 0 -28 12 -28 28v50c0 12 7 23 18 27l37 14v152l-16 -7c-3 -1 -8 -2 -11 -2c-15 0 -28 13 -28 29v50zM176 91l-77 -30v-152
l77 30v152z" fill="currentColor"/>
</g>
<g transform="translate(108.9167, 54.7504)">
<rect x="-0.0614" y="-3.0690" width="0.1228" height="2.5814" ry="0.0421" fill="currentColor"/>
</g>
<g transform="translate(108.0216, 54.3820)">
<path transform="scale(0.0029, -0.0029)" d="M208 139c61 0 117 -33 117 -99c0 -71 -52 -119 -99 -147c-34 -20 -71 -32 -110 -32c-61 0 -116 33 -116 99c0 71 51 119 98 147c34 20 71 32 110 32z" fill="currentColor"/>
</g>
<g transform="translate(106.1997, 54.7504)">
<rect x="-0.0614" y="-2.7154" width="0.1228" height="2.5961" ry="0.0421" fill="currentColor"/>
</g>
<g transform="translate(105.3046, 54.7504)">
<path transform="scale(0.0029, -0.0029)" d="M208 139c61 0 117 -33 117 -99c0 -71 -52 -119 -99 -147c-34 -20 -71 -32 -110 -32c-61 0 -116 33 -116 99c0 71 51 119 98 147c34 20 71 32 110 32z" fill="currentColor"/>
</g>
<g transform="translate(86.0413, 54.7504)">
<rect x="-0.0614" y="-1.1886" width="0.1228" height="2.9115" ry="0.0421" fill="currentColor"/>
</g>
<g transform="translate(85.1462, 56.5926)">
<path transform="scale(0.0029, -0.0029)" d="M208 139c61 0 117 -33 117 -99c0 -71 -52 -119 -99 -147c-34 -20 -71 -32 -110 -32c-61 0 -116 33 -116 99c0 71 51 119 98 147c34 20 71 32 110 32z" fill="currentColor"/>
</g>
<g transform="translate(83.6348, 54.7504)">
<rect x="-0.0614" y="-0.7481" width="0.1228" height="3.2078" ry="0.0421" fill="currentColor"/>
</g>
<g transform="translate(82.7397, 57.3294)">
<path transform="scale(0.0029, -0.0029)" d="M208 139c61 0 117 -33 117 -99c0 -71 -52 -119 -99 -147c-34 -20 -71 -32 -110 -32c-61 0 -116 33 -116 99c0 71 51 119 98 147c34 20 71 32 110 32z" fill="currentColor"/>
</g>
<g transform="translate(78.5402, 53.6452)">
<path transform="scale(0.0029, -0.0029)" d="M33 35l-2 -60v-11c0 -21 2 -43 5 -64c42 38 87 81 87 138c0 32 -13 63 -41 63c-31 0 -48 -32 -49 -66zM32 446l-9 -337c25 26 59 40 95 40c50 0 82 -51 82 -105c0 -77 -80 -117 -137 -169c-18 -17 -26 -48 -52 -48c-16 0 -28 15 -28 32l-15 587c10 6 21 8 32 8
s22 -2 32 -8z" fill="currentColor"/>
</g>
<g transform="translate(129.4387, 53.2768)">
<polygon stroke-linejoin="round" stroke-linecap="round" stroke-width="0.0842" fill="currentColor" stroke="currentColor" points="7.6107 -1.6084 7.6107 -1.3389 0.0421 0.1347 0.0421 -0.1347"/>
</g>
<g transform="translate(129.4387, 53.8840)">
<polygon stroke-linejoin="round" stroke-linecap="round" stroke-width="0.0842" fill="currentColor" stroke="currentColor" points="7.6107 -1.6084 7.6107 -1.3389 0.0421 0.1347 0.0421 -0.1347"/>
</g>
<g transform="translate(95.1673, 54.7504)">
<rect x="-0.0614" y="-2.2219" width="0.1228" height="2.1027" ry="0.0421" fill="currentColor"/>
</g>
<g transform="translate(94.2722, 54.7504)">
<path transform="scale(0.0029, -0.0029)" d="M208 139c61 0 117 -33 117 -99c0 -71 -52 -119 -99 -147c-34 -20 -71 -32 -110 -32c-61 0 -116 33 -116 99c0 71 51 119 98 147c34 20 71 32 110 32z" fill="currentColor"/>
</g>
<g transform="translate(93.2608, 54.7504)">
<rect x="-0.0614" y="-2.5678" width="0.1228" height="1.7117" ry="0.0421" fill="currentColor"/>
</g>
<g transform="translate(92.3657, 54.0136)">
<path transform="scale(0.0029, -0.0029)" d="M208 139c61 0 117 -33 117 -99c0 -71 -52 -119 -99 -147c-34 -20 -71 -32 -110 -32c-61 0 -116 33 -116 99c0 71 51 119 98 147c34 20 71 32 110 32z" fill="currentColor"/>
</g>
<g transform="translate(90.8543, 54.7504)">
<rect x="-0.0614" y="-2.0697" width="0.1228" height="1.9504" ry="0.0421" fill="currentColor"/>
</g>
<g transform="translate(89.9592, 54.7504)">
<path transform="scale(0.0029, -0.0029)" d="M208 139c61 0 117 -33 117 -99c0 -71 -52 -119 -99 -147c-34 -20 -71 -32 -110 -32c-61 0 -116 33 -116 99c0 71 51 119 98 147c34 20 71 32 110 32z" fill="currentColor"/>
</g>
<g transform="translate(88.4478, 54.7504)">
<rect x="-0.0614" y="-1.6291" width="0.1228" height="2.2467" ry="0.0421" fill="currentColor"/>
</g>
<g transform="translate(87.5527, 55.4873)">
<path transform="scale(0.0029, -0.0029)" d="M208 139c61 0 117 -33 117 -99c0 -71 -52 -119 -99 -147c-34 -20 -71 -32 -110 -32c-61 0 -116 33 -116 99c0 71 51 119 98 147c34 20 71 32 110 32z" fill="currentColor"/>
</g>
<g transform="translate(137.0301, 54.7504)">
<rect x="-0.0614" y="-2.9355" width="0.1228" height="2.4479" ry="0.0421" fill="currentColor"/>
</g>
<g transform="translate(136.1350, 54.3820)">
<path transform="scale(0.0029, -0.0029)" d="M208 139c61 0 117 -33 117 -99c0 -71 -52 -119 -99 -147c-34 -20 -71 -32 -110 -32c-61 0 -116 33 -116 99c0 71 51 119 98 147c34 20 71 32 110 32z" fill="currentColor"/>
</g>
<g transform="translate(134.3131, 54.7504)">
<rect x="-0.0614" y="-2.4123" width="0.1228" height="3.0299" ry="0.0421" fill="currentColor"/>
</g>
<g transform="translate(133.4180, 55.4873)">
<path transform="scale(0.0029, -0.0029)" d="M208 139c61 0 117 -33 117 -99c0 -71 -52 -119 -99 -147c-34 -20 -71 -32 -110 -32c-61 0 -116 33 -116 99c0 71 51 119 98 147c34 20 71 32 110 32z" fill="currentColor"/>
</g>
<g transform="translate(131.9066, 54.7504)">
<rect x="-0.0614" y="-1.9489" width="0.1228" height="3.3034" ry="0.0421" fill="currentColor"/>
</g>
<g transform="translate(131.0115, 56.2241)">
<path transform="scale(0.0029, -0.0029)" d="M208 139c61 0 117 -33 117 -99c0 -71 -52 -119 -99 -147c-34 -20 -71 -32 -110 -32c-61 0 -116 33 -116 99c0 71 51 119 98 147c34 20 71 32 110 32z" fill="currentColor"/>
</g>
<g transform="translate(129.5001, 54.7504)">
<rect x="-0.0614" y="-1.4855" width="0.1228" height="4.3136" ry="0.0421" fill="currentColor"/>
</g>
<g transform="translate(128.6050, 57.6978)">
<path transform="scale(0.0029, -0.0029)" d="M208 139c61 0 117 -33 117 -99c0 -71 -52 -119 -99 -147c-34 -20 -71 -32 -110 -32c-61 0 -116 33 -116 99c0 71 51 119 98 147c34 20 71 32 110 32z" fill="currentColor"/>
</g>
<g transform="translate(121.8128, 51.9327)">
<polygon stroke-linejoin="round" stroke-linecap="round" stroke-width="0.0842" fill="currentColor" stroke="currentColor" points="5.8001 1.2093 5.8001 1.4788 0.0421 0.1347 0.0421 -0.1347"/>
</g>
<g transform="translate(121.8128, 52.5399)">
<polygon stroke-linejoin="round" stroke-linecap="round" stroke-width="0.0842" fill="currentColor" stroke="currentColor" points="5.8001 1.2093 5.8001 1.4788 0.0421 0.1347 0.0421 -0.1347"/>
</g>
<g transform="translate(112.1868, 54.0136)">
<polygon stroke-linejoin="round" stroke-linecap="round" stroke-width="0.0842" fill="currentColor" stroke="currentColor" points="7.3001 -1.4788 7.3001 -1.2093 0.0421 0.1347 0.0421 -0.1347"/>
</g>
<g transform="translate(112.1868, 54.6208)">
<polygon stroke-linejoin="round" stroke-linecap="round" stroke-width="0.0842" fill="currentColor" stroke="currentColor" points="7.3001 -1.4788 7.3001 -1.2093 0.0421 0.1347 0.0421 -0.1347"/>
</g>
<g transform="translate(101.3254, 52.6695)">
<polygon stroke-linejoin="round" stroke-linecap="round" stroke-width="0.0842" fill="currentColor" stroke="currentColor" points="7.6107 -1.1308 7.6107 -0.8614 0.0421 0.1347 0.0421 -0.1347"/>
</g>
<g transform="translate(101.3254, 53.2768)">
<polygon stroke-linejoin="round" stroke-linecap="round" stroke-width="0.0842" fill="currentColor" stroke="currentColor" points="7.6107 -1.1308 7.6107 -0.8614 0.0421 0.1347 0.0421 -0.1347"/>
</g>
<g transform="translate(93.1994, 52.1715)">
<polygon stroke-linejoin="round" stroke-linecap="round" stroke-width="0.0842" fill="currentColor" stroke="currentColor" points="6.0501 0.9705 6.0501 1.2400 0.0421 0.1347 0.0421 -0.1347"/>
</g>
<g transform="translate(93.1994, 52.7787)">
<polygon stroke-linejoin="round" stroke-linecap="round" stroke-width="0.0842" fill="currentColor" stroke="currentColor" points="6.0501 0.9705 6.0501 1.2400 0.0421 0.1347 0.0421 -0.1347"/>
</g>
<g transform="translate(83.5735, 54.0136)">
<polygon stroke-linejoin="round" stroke-linecap="round" stroke-width="0.0842" fill="currentColor" stroke="currentColor" points="7.3001 -1.4788 7.3001 -1.2093 0.0421 0.1347 0.0421 -0.1347"/>
</g>
<g transform="translate(83.5735, 54.6208)">
<polygon stroke-linejoin="round" stroke-linecap="round" stroke-width="0.0842" fill="currentColor" stroke="currentColor" points="7.3001 -1.4788 7.3001 -1.2093 0.0421 0.1347 0.0421 -0.1347"/>
</g>
<g transform="translate(72.8919, 52.1715)">
<polygon stroke-linejoin="round" stroke-linecap="round" stroke-width="0.0842" fill="currentColor" stroke="currentColor" points="7.5021 -1.3696 7.5021 -1.1002 0.0421 0.1347 0.0421 -0.1347"/>
</g>
<g transform="translate(72.8919, 52.7787)">
<polygon stroke-linejoin="round" stroke-linecap="round" stroke-width="0.0842" fill="currentColor" stroke="currentColor" points="7.5021 -1.3696 7.5021 -1.1002 0.0421 0.1347 0.0421 -0.1347"/>
</g>
<g transform="translate(64.2055, 51.4347)">
<polygon stroke-linejoin="round" stroke-linecap="round" stroke-width="0.0842" fill="currentColor" stroke="currentColor" points="6.0501 0.9705 6.0501 1.2400 0.0421 0.1347 0.0421 -0.1347"/>
</g>
<g transform="translate(64.2055, 52.0419)">
<polygon stroke-linejoin="round" stroke-linecap="round" stroke-width="0.0842" fill="currentColor" stroke="currentColor" points="6.0501 0.9705 6.0501 1.2400 0.0421 0.1347 0.0421 -0.1347"/>
</g>
<g transform="translate(54.5795, 54.0136)">
<polygon stroke-linejoin="round" stroke-linecap="round" stroke-width="0.0842" fill="currentColor" stroke="currentColor" points="7.3001 -1.6084 7.3001 -1.3389 0.0421 0.1347 0.0421 -0.1347"/>
</g>
<g transform="translate(54.5795, 54.6208)">
<polygon stroke-linejoin="round" stroke-linecap="round" stroke-width="0.0842" fill="currentColor" stroke="currentColor" points="7.3001 -1.6084 7.3001 -1.3389 0.0421 0.1347 0.0421 -0.1347"/>
</g>
<g transform="translate(44.1183, 52.6695)">
<polygon stroke-linejoin="round" stroke-linecap="round" stroke-width="0.0842" fill="currentColor" stroke="currentColor" points="7.3060 -1.3696 7.3060 -1.1002 0.0421 0.1347 0.0421 -0.1347"/>
</g>
<g transform="translate(44.1183, 53.2768)">
<polygon stroke-linejoin="round" stroke-linecap="round" stroke-width="0.0842" fill="currentColor" stroke="currentColor" points="7.3060 -1.3696 7.3060 -1.1002 0.0421 0.1347 0.0421 -0.1347"/>
</g>
<g transform="translate(35.4318, 51.4347)">
<polygon stroke-linejoin="round" stroke-linecap="round" stroke-width="0.0842" fill="currentColor" stroke="currentColor" points="6.0501 0.9705 6.0501 1.2400 0.0421 0.1347 0.0421 -0.1347"/>
</g>
<g transform="translate(35.4318, 52.0419)">
<polygon stroke-linejoin="round" stroke-linecap="round" stroke-width="0.0842" fill="currentColor" stroke="currentColor" points="6.0501 0.9705 6.0501 1.2400 0.0421 0.1347 0.0421 -0.1347"/>
</g>
<g transform="translate(26.3059, 53.2768)">
<polygon stroke-linejoin="round" stroke-linecap="round" stroke-width="0.0842" fill="currentColor" stroke="currentColor" points="7.0501 -1.6084 7.0501 -1.3389 0.0421 0.1347 0.0421 -0.1347"/>
</g>
<g transform="translate(26.3059, 53.8840)">
<polygon stroke-linejoin="round" stroke-linecap="round" stroke-width="0.0842" fill="currentColor" stroke="currentColor" points="7.0501 -1.6084 7.0501 -1.3389 0.0421 0.1347 0.0421 -0.1347"/>
</g>
<g transform="translate(134.9745, 54.3820)">
<path transform="scale(0.0029, -0.0029)" d="M0 114c0 12 7 22 18 26l37 15v151c0 12 10 22 22 22s22 -10 22 -22v-134l77 29v152c0 12 10 22 22 22s22 -10 22 -22v-134l16 6c3 1 8 2 11 2c15 0 28 -12 28 -28v-50c0 -12 -7 -23 -18 -27l-37 -14v-152l16 7c3 1 8 2 11 2c15 0 28 -13 28 -29v-50c0 -12 -7 -22 -18 -26
l-37 -15v-151c0 -12 -10 -22 -22 -22s-22 10 -22 22v134l-77 -29v-152c0 -12 -10 -22 -22 -22s-22 10 -22 22v134l-16 -6c-3 -1 -8 -2 -11 -2c-15 0 -28 12 -28 28v50c0 12 7 23 18 27l37 14v152l-16 -7c-3 -1 -8 -2 -11 -2c-15 0 -28 13 -28 29v50zM176 91l-77 -30v-152
l77 30v152z" fill="currentColor"/>
</g>
<g transform="translate(119.4677, 54.7504)">
<rect x="-0.0614" y="-2.0697" width="0.1228" height="2.3189" ry="0.0421" fill="currentColor"/>
</g>
<g transform="translate(118.5726, 55.1189)">
<path transform="scale(0.0029, -0.0029)" d="M208 139c61 0 117 -33 117 -99c0 -71 -52 -119 -99 -147c-34 -20 -71 -32 -110 -32c-61 0 -116 33 -116 99c0 71 51 119 98 147c34 20 71 32 110 32z" fill="currentColor"/>
</g>
<g transform="translate(117.0612, 54.7504)">
<rect x="-0.0614" y="-1.6291" width="0.1228" height="2.6152" ry="0.0421" fill="currentColor"/>
</g>
<g transform="translate(116.1661, 55.8557)">
<path transform="scale(0.0029, -0.0029)" d="M208 139c61 0 117 -33 117 -99c0 -71 -52 -119 -99 -147c-34 -20 -71 -32 -110 -32c-61 0 -116 33 -116 99c0 71 51 119 98 147c34 20 71 32 110 32z" fill="currentColor"/>
</g>
<g transform="translate(114.6547, 54.7504)">
<rect x="-0.0614" y="-1.1886" width="0.1228" height="2.9115" ry="0.0421" fill="currentColor"/>
</g>
<g transform="translate(113.7596, 56.5926)">
<path transform="scale(0.0029, -0.0029)" d="M208 139c61 0 117 -33 117 -99c0 -71 -52 -119 -99 -147c-34 -20 -71 -32 -110 -32c-61 0 -116 33 -116 99c0 71 51 119 98 147c34 20 71 32 110 32z" fill="currentColor"/>
</g>
<g transform="translate(127.5936, 54.7504)">
<rect x="-0.0614" y="-1.4878" width="0.1228" height="3.2107" ry="0.0421" fill="currentColor"/>
</g>
<g transform="translate(126.6985, 56.5926)">
<path transform="scale(0.0029, -0.0029)" d="M208 139c61 0 117 -33 117 -99c0 -71 -52 -119 -99 -147c-34 -20 -71 -32 -110 -32c-61 0 -116 33 -116 99c0 71 51 119 98 147c34 20 71 32 110 32z" fill="currentColor"/>
</g>
<g transform="translate(125.6872, 54.7504)">
<rect x="-0.0614" y="-1.9264" width="0.1228" height="2.9124" ry="0.0421" fill="currentColor"/>
</g>
<g transform="translate(124.7921, 55.8557)">
<path transform="scale(0.0029, -0.0029)" d="M208 139c61 0 117 -33 117 -99c0 -71 -52 -119 -99 -147c-34 -20 -71 -32 -110 -32c-61 0 -116 33 -116 99c0 71 51 119 98 147c34 20 71 32 110 32z" fill="currentColor"/>
</g>
<g transform="translate(123.7807, 54.7504)">
<rect x="-0.0614" y="-2.3650" width="0.1228" height="2.6142" ry="0.0421" fill="currentColor"/>
</g>
<g transform="translate(122.8856, 55.1189)">
<path transform="scale(0.0029, -0.0029)" d="M208 139c61 0 117 -33 117 -99c0 -71 -52 -119 -99 -147c-34 -20 -71 -32 -110 -32c-61 0 -116 33 -116 99c0 71 51 119 98 147c34 20 71 32 110 32z" fill="currentColor"/>
</g>
<g transform="translate(121.8742, 54.7504)">
<rect x="-0.0614" y="-2.8036" width="0.1228" height="1.9476" ry="0.0421" fill="currentColor"/>
</g>
<g transform="translate(120.9791, 54.0136)">
<path transform="scale(0.0029, -0.0029)" d="M208 139c61 0 117 -33 117 -99c0 -71 -52 -119 -99 -147c-34 -20 -71 -32 -110 -32c-61 0 -116 33 -116 99c0 71 51 119 98 147c34 20 71 32 110 32z" fill="currentColor"/>
</g>
<g transform="translate(46.5920, 54.7504)">
<rect x="-0.0614" y="-2.4966" width="0.1228" height="2.3774" ry="0.0421" fill="currentColor"/>
</g>
<g transform="translate(45.6969, 54.7504)">
<path transform="scale(0.0029, -0.0029)" d="M208 139c61 0 117 -33 117 -99c0 -71 -52 -119 -99 -147c-34 -20 -71 -32 -110 -32c-61 0 -116 33 -116 99c0 71 51 119 98 147c34 20 71 32 110 32z" fill="currentColor"/>
</g>
<g transform="translate(42.1240, 55.4873)">
<path transform="scale(0.0029, -0.0029)" d="M0 114c0 12 7 22 18 26l37 15v151c0 12 10 22 22 22s22 -10 22 -22v-134l77 29v152c0 12 10 22 22 22s22 -10 22 -22v-134l16 6c3 1 8 2 11 2c15 0 28 -12 28 -28v-50c0 -12 -7 -23 -18 -27l-37 -14v-152l16 7c3 1 8 2 11 2c15 0 28 -13 28 -29v-50c0 -12 -7 -22 -18 -26
l-37 -15v-151c0 -12 -10 -22 -22 -22s-22 10 -22 22v134l-77 -29v-152c0 -12 -10 -22 -22 -22s-22 10 -22 22v134l-16 -6c-3 -1 -8 -2 -11 -2c-15 0 -28 12 -28 28v50c0 12 7 23 18 27l37 14v152l-16 -7c-3 -1 -8 -2 -11 -2c-15 0 -28 13 -28 29v50zM176 91l-77 -30v-152
l77 30v152z" fill="currentColor"/>
</g>
<g transform="translate(44.1797, 54.7504)">
<rect x="-0.0614" y="-2.0912" width="0.1228" height="2.7088" ry="0.0421" fill="currentColor"/>
</g>
<g transform="translate(43.2846, 55.4873)">
<path transform="scale(0.0029, -0.0029)" d="M208 139c61 0 117 -33 117 -99c0 -71 -52 -119 -99 -147c-34 -20 -71 -32 -110 -32c-61 0 -116 33 -116 99c0 71 51 119 98 147c34 20 71 32 110 32z" fill="currentColor"/>
</g>
<g transform="translate(41.4627, 54.7504)">
<rect x="-0.0614" y="-2.2217" width="0.1228" height="2.4709" ry="0.0421" fill="currentColor"/>
</g>
<g transform="translate(40.5676, 55.1189)">
<path transform="scale(0.0029, -0.0029)" d="M208 139c61 0 117 -33 117 -99c0 -71 -52 -119 -99 -147c-34 -20 -71 -32 -110 -32c-61 0 -116 33 -116 99c0 71 51 119 98 147c34 20 71 32 110 32z" fill="currentColor"/>
</g>
<g transform="translate(39.3062, 54.7504)">
<rect x="-0.0614" y="-2.6129" width="0.1228" height="2.4937" ry="0.0421" fill="currentColor"/>
</g>
<g transform="translate(38.4111, 54.7504)">
<path transform="scale(0.0029, -0.0029)" d="M208 139c61 0 117 -33 117 -99c0 -71 -52 -119 -99 -147c-34 -20 -71 -32 -110 -32c-61 0 -116 33 -116 99c0 71 51 119 98 147c34 20 71 32 110 32z" fill="currentColor"/>
</g>
<g transform="translate(50.5099, 53.2768)">
<path transform="scale(0.0029, -0.0029)" d="M208 139c61 0 117 -33 117 -99c0 -71 -52 -119 -99 -147c-34 -20 -71 -32 -110 -32c-61 0 -116 33 -116 99c0 71 51 119 98 147c34 20 71 32 110 32z" fill="currentColor"/>
</g>
<g transform="translate(54.6409, 54.7504)">
<rect x="-0.0614" y="-0.7492" width="0.1228" height="2.8405" ry="0.0421" fill="currentColor"/>
</g>
<g transform="translate(53.7458, 56.9610)">
<path transform="scale(0.0029, -0.0029)" d="M208 139c61 0 117 -33 117 -99c0 -71 -52 -119 -99 -147c-34 -20 -71 -32 -110 -32c-61 0 -116 33 -116 99c0 71 51 119 98 147c34 20 71 32 110 32z" fill="currentColor"/>
</g>
<g transform="translate(51.4050, 54.7504)">
<rect x="-0.0614" y="-3.3055" width="0.1228" height="1.7126" ry="0.0421" fill="currentColor"/>
</g>
<g transform="translate(48.9985, 54.7504)">
<rect x="-0.0614" y="-2.9010" width="0.1228" height="2.0450" ry="0.0421" fill="currentColor"/>
</g>
<g transform="translate(48.1034, 54.0136)">
<path transform="scale(0.0029, -0.0029)" d="M208 139c61 0 117 -33 117 -99c0 -71 -52 -119 -99 -147c-34 -20 -71 -32 -110 -32c-61 0 -116 33 -116 99c0 71 51 119 98 147c34 20 71 32 110 32z" fill="currentColor"/>
</g>
<g transform="translate(44.8411, 54.7504)">
<path transform="scale(0.0029, -0.0029)" d="M-8 375c8 5 18 7 27 7s20 -2 28 -7l-3 -196l99 24h4c11 0 20 -8 20 -19l8 -559c-8 -5 -19 -7 -28 -7s-19 2 -27 7l3 196l-99 -24h-5c-11 0 -19 8 -19 19zM127 109l-85 -20l-2 -198l84 20z" fill="currentColor"/>
</g>
<g transform="translate(28.7737, 54.7504)">
<rect x="-0.0614" y="-1.9865" width="0.1228" height="2.2357" ry="0.0421" fill="currentColor"/>
</g>
<g transform="translate(27.8786, 55.1189)">
<path transform="scale(0.0029, -0.0029)" d="M208 139c61 0 117 -33 117 -99c0 -71 -52 -119 -99 -147c-34 -20 -71 -32 -110 -32c-61 0 -116 33 -116 99c0 71 51 119 98 147c34 20 71 32 110 32z" fill="currentColor"/>
</g>
<g transform="translate(26.3672, 54.7504)">
<rect x="-0.0614" y="-1.4864" width="0.1228" height="3.2093" ry="0.0421" fill="currentColor"/>
</g>
<g transform="translate(25.4721, 56.5926)">
<path transform="scale(0.0029, -0.0029)" d="M208 139c61 0 117 -33 117 -99c0 -71 -52 -119 -99 -147c-34 -20 -71 -32 -110 -32c-61 0 -116 33 -116 99c0 71 51 119 98 147c34 20 71 32 110 32z" fill="currentColor"/>
</g>
<g transform="translate(22.3827, 54.7504)">
<path transform="scale(0.0029, -0.0029)" d="M33 35l-2 -60v-11c0 -21 2 -43 5 -64c42 38 87 81 87 138c0 32 -13 63 -41 63c-31 0 -48 -32 -49 -66zM32 446l-9 -337c25 26 59 40 95 40c50 0 82 -51 82 -105c0 -77 -80 -117 -137 -169c-18 -17 -26 -48 -52 -48c-16 0 -28 15 -28 32l-15 587c10 6 21 8 32 8
s22 -2 32 -8z" fill="currentColor"/>
</g>
<g transform="translate(18.7702, 55.4873)">
<path transform="scale(0.0029, -0.0029)" d="M381 266h9c157 0 258 -130 258 -264c0 -77 -33 -156 -108 -212c-22 -16 -46 -28 -71 -36c2 -32 3 -65 3 -97c0 -21 -1 -43 -2 -64c-7 -122 -91 -230 -211 -230c-108 0 -197 88 -197 197c0 58 54 104 113 104c54 0 95 -48 95 -104c0 -52 -43 -95 -95 -95c-8 0 -16 2 -24 4
c25 -35 65 -59 111 -59c95 0 155 92 161 190c1 20 2 39 2 59c0 28 -1 55 -3 83c-29 -5 -57 -7 -87 -7c-189 0 -333 174 -333 377c0 176 128 307 242 443c-21 62 -41 124 -50 189c-7 52 -8 106 -8 159c0 113 54 219 146 286c8 6 21 7 29 0c72 -82 136 -244 136 -357
c0 -141 -83 -253 -174 -362c22 -67 41 -135 58 -204zM464 -200c64 25 108 93 108 159c0 87 -62 173 -163 187c24 -113 43 -225 55 -346zM338 -218c27 0 54 2 80 6c-13 125 -33 242 -58 359c-79 -7 -123 -59 -123 -116c0 -43 24 -89 78 -120c5 -5 8 -11 8 -17
c0 -13 -11 -24 -24 -24c-3 0 -7 0 -10 2c-81 44 -119 116 -119 187c0 90 60 178 164 201c-14 56 -30 112 -47 167c-104 -122 -208 -245 -208 -404c0 -132 127 -241 259 -241zM239 782c0 -69 22 -127 41 -183c77 97 140 199 140 323c0 49 -3 69 -19 113
c-99 -45 -162 -145 -162 -253z" fill="currentColor"/>
</g>
<g transform="translate(37.3997, 54.7504)">
<rect x="-0.0614" y="-2.9588" width="0.1228" height="2.1027" ry="0.0421" fill="currentColor"/>
</g>
<g transform="translate(36.5046, 54.0136)">
<path transform="scale(0.0029, -0.0029)" d="M208 139c61 0 117 -33 117 -99c0 -71 -52 -119 -99 -147c-34 -20 -71 -32 -110 -32c-61 0 -116 33 -116 99c0 71 51 119 98 147c34 20 71 32 110 32z" fill="currentColor"/>
</g>
<g transform="translate(35.4932, 54.7504)">
<rect x="-0.0614" y="-3.3047" width="0.1228" height="1.7117" ry="0.0421" fill="currentColor"/>
</g>
<g transform="translate(34.5981, 53.2768)">
<path transform="scale(0.0029, -0.0029)" d="M208 139c61 0 117 -33 117 -99c0 -71 -52 -119 -99 -147c-34 -20 -71 -32 -110 -32c-61 0 -116 33 -116 99c0 71 51 119 98 147c34 20 71 32 110 32z" fill="currentColor"/>
</g>
<g transform="translate(33.3367, 54.7504)">
<rect x="-0.0614" y="-2.9346" width="0.1228" height="1.7101" ry="0.0421" fill="currentColor"/>
</g>
<g transform="translate(32.4416, 53.6452)">
<path transform="scale(0.0029, -0.0029)" d="M208 139c61 0 117 -33 117 -99c0 -71 -52 -119 -99 -147c-34 -20 -71 -32 -110 -32c-61 0 -116 33 -116 99c0 71 51 119 98 147c34 20 71 32 110 32z" fill="currentColor"/>
</g>
<g transform="translate(31.1802, 54.7504)">
<rect x="-0.0614" y="-2.4865" width="0.1228" height="1.6304" ry="0.0421" fill="currentColor"/>
</g>
<g transform="translate(30.2851, 54.0136)">
<path transform="scale(0.0029, -0.0029)" d="M208 139c61 0 117 -33 117 -99c0 -71 -52 -119 -99 -147c-34 -20 -71 -32 -110 -32c-61 0 -116 33 -116 99c0 71 51 119 98 147c34 20 71 32 110 32z" fill="currentColor"/>
</g>
<g transform="translate(70.2363, 54.7504)">
<rect x="-0.0614" y="-2.2217" width="0.1228" height="2.8393" ry="0.0421" fill="currentColor"/>
</g>
<g transform="translate(69.3412, 55.4873)">
<path transform="scale(0.0029, -0.0029)" d="M208 139c61 0 117 -33 117 -99c0 -71 -52 -119 -99 -147c-34 -20 -71 -32 -110 -32c-61 0 -116 33 -116 99c0 71 51 119 98 147c34 20 71 32 110 32z" fill="currentColor"/>
</g>
<g transform="translate(68.0798, 54.7504)">
<rect x="-0.0614" y="-2.6129" width="0.1228" height="2.8621" ry="0.0421" fill="currentColor"/>
</g>
<g transform="translate(67.1847, 55.1189)">
<path transform="scale(0.0029, -0.0029)" d="M208 139c61 0 117 -33 117 -99c0 -71 -52 -119 -99 -147c-34 -20 -71 -32 -110 -32c-61 0 -116 33 -116 99c0 71 51 119 98 147c34 20 71 32 110 32z" fill="currentColor"/>
</g>
<g transform="translate(66.1733, 54.7504)">
<rect x="-0.0614" y="-2.9588" width="0.1228" height="2.4711" ry="0.0421" fill="currentColor"/>
</g>
<g transform="translate(65.2782, 54.3820)">
<path transform="scale(0.0029, -0.0029)" d="M208 139c61 0 117 -33 117 -99c0 -71 -52 -119 -99 -147c-34 -20 -71 -32 -110 -32c-61 0 -116 33 -116 99c0 71 51 119 98 147c34 20 71 32 110 32z" fill="currentColor"/>
</g>
<g transform="translate(64.2669, 54.7504)">
<rect x="-0.0614" y="-3.3047" width="0.1228" height="2.0802" ry="0.0421" fill="currentColor"/>
</g>
<g transform="translate(63.3717, 53.6452)">
<path transform="scale(0.0029, -0.0029)" d="M208 139c61 0 117 -33 117 -99c0 -71 -52 -119 -99 -147c-34 -20 -71 -32 -110 -32c-61 0 -116 33 -116 99c0 71 51 119 98 147c34 20 71 32 110 32z" fill="currentColor"/>
</g>
<g transform="translate(80.3748, 54.7504)">
<rect x="-0.0614" y="-3.8038" width="0.1228" height="2.5793" ry="0.0421" fill="currentColor"/>
</g>
<g transform="translate(79.4797, 53.6452)">
<path transform="scale(0.0029, -0.0029)" d="M208 139c61 0 117 -33 117 -99c0 -71 -52 -119 -99 -147c-34 -20 -71 -32 -110 -32c-61 0 -116 33 -116 99c0 71 51 119 98 147c34 20 71 32 110 32z" fill="currentColor"/>
</g>
<g transform="translate(77.7663, 54.7504)">
<rect x="-0.0614" y="-3.3768" width="0.1228" height="2.8892" ry="0.0421" fill="currentColor"/>
</g>
<g transform="translate(76.8712, 54.3820)">
<path transform="scale(0.0029, -0.0029)" d="M208 139c61 0 117 -33 117 -99c0 -71 -52 -119 -99 -147c-34 -20 -71 -32 -110 -32c-61 0 -116 33 -116 99c0 71 51 119 98 147c34 20 71 32 110 32z" fill="currentColor"/>
</g>
<g transform="translate(75.3598, 54.7504)">
<rect x="-0.0614" y="-2.9829" width="0.1228" height="3.2321" ry="0.0421" fill="currentColor"/>
</g>
<g transform="translate(74.4647, 55.1189)">
<path transform="scale(0.0029, -0.0029)" d="M208 139c61 0 117 -33 117 -99c0 -71 -52 -119 -99 -147c-34 -20 -71 -32 -110 -32c-61 0 -116 33 -116 99c0 71 51 119 98 147c34 20 71 32 110 32z" fill="currentColor"/>
</g>
<g transform="translate(70.8977, 55.8557)">
<path transform="scale(0.0029, -0.0029)" d="M0 114c0 12 7 22 18 26l37 15v151c0 12 10 22 22 22s22 -10 22 -22v-134l77 29v152c0 12 10 22 22 22s22 -10 22 -22v-134l16 6c3 1 8 2 11 2c15 0 28 -12 28 -28v-50c0 -12 -7 -23 -18 -27l-37 -14v-152l16 7c3 1 8 2 11 2c15 0 28 -13 28 -29v-50c0 -12 -7 -22 -18 -26
l-37 -15v-151c0 -12 -10 -22 -22 -22s-22 10 -22 22v134l-77 -29v-152c0 -12 -10 -22 -22 -22s-22 10 -22 22v134l-16 -6c-3 -1 -8 -2 -11 -2c-15 0 -28 12 -28 28v50c0 12 7 23 18 27l37 14v152l-16 -7c-3 -1 -8 -2 -11 -2c-15 0 -28 13 -28 29v50zM176 91l-77 -30v-152
l77 30v152z" fill="currentColor"/>
</g>
<g transform="translate(72.9533, 54.7504)">
<rect x="-0.0614" y="-2.5890" width="0.1228" height="3.5750" ry="0.0421" fill="currentColor"/>
</g>
<g transform="translate(72.0582, 55.8557)">
<path transform="scale(0.0029, -0.0029)" d="M208 139c61 0 117 -33 117 -99c0 -71 -52 -119 -99 -147c-34 -20 -71 -32 -110 -32c-61 0 -116 33 -116 99c0 71 51 119 98 147c34 20 71 32 110 32z" fill="currentColor"/>
</g>
<g transform="translate(59.4539, 54.7504)">
<rect x="-0.0614" y="-1.7152" width="0.1228" height="1.9644" ry="0.0421" fill="currentColor"/>
</g>
<g transform="translate(60.9653, 54.3820)">
<path transform="scale(0.0029, -0.0029)" d="M208 139c61 0 117 -33 117 -99c0 -71 -52 -119 -99 -147c-34 -20 -71 -32 -110 -32c-61 0 -116 33 -116 99c0 71 51 119 98 147c34 20 71 32 110 32z" fill="currentColor"/>
</g>
<g transform="translate(58.5588, 55.1189)">
<path transform="scale(0.0029, -0.0029)" d="M208 139c61 0 117 -33 117 -99c0 -71 -52 -119 -99 -147c-34 -20 -71 -32 -110 -32c-61 0 -116 33 -116 99c0 71 51 119 98 147c34 20 71 32 110 32z" fill="currentColor"/>
</g>
<g transform="translate(56.1523, 56.2241)">
<path transform="scale(0.0029, -0.0029)" d="M208 139c61 0 117 -33 117 -99c0 -71 -52 -119 -99 -147c-34 -20 -71 -32 -110 -32c-61 0 -116 33 -116 99c0 71 51 119 98 147c34 20 71 32 110 32z" fill="currentColor"/>
</g>
<g transform="translate(57.0474, 54.7504)">
<rect x="-0.0614" y="-1.2322" width="0.1228" height="2.5866" ry="0.0421" fill="currentColor"/>
</g>
<g transform="translate(61.8604, 54.7504)">
<rect x="-0.0614" y="-2.1982" width="0.1228" height="1.7106" ry="0.0421" fill="currentColor"/>
</g>
</svg>
