<svg xmlns="http://www.w3.org/2000/svg" xmlns:xlink="http://www.w3.org/1999/xlink" version="1.2" width="594.00mm" height="420.00mm" viewBox="0.0000 -0.0000 355.8092 251.5823">
<style type="text/css">
<![CDATA[
tspan { white-space: pre; }
]]>
</style>
<g transform="translate(130.6421, 54.7504)">
<rect x="0.0000" y="-1.4737" width="0.1794" height="2.9474" ry="0.0000" fill="currentColor"/>
</g>
<g transform="translate(88.3274, 54.7504)">
<rect x="0.0000" y="-1.4737" width="0.1794" height="2.9474" ry="0.0000" fill="currentColor"/>
</g>
<g transform="translate(107.6357, 54.7504)">
<rect x="0.0000" y="-1.4737" width="0.1794" height="2.9474" ry="0.0000" fill="currentColor"/>
</g>
<g transform="translate(56.3850, 54.7504)">
<rect x="0.0000" y="-1.4737" width="0.1794" height="2.9474" ry="0.0000" fill="currentColor"/>
</g>
<g transform="translate(153.1919, 54.7504)">
<rect x="0.0000" y="-1.4737" width="0.1794" height="2.9474" ry="0.0000" fill="currentColor"/>
</g>
<g transform="translate(39.4376, 54.7504)">
<rect x="0.0000" y="-1.4737" width="0.1794" height="2.9474" ry="0.0000" fill="currentColor"/>
</g>
<g transform="translate(169.8384, 54.7504)">
<rect x="0.0000" y="-1.4737" width="0.1794" height="2.9474" ry="0.0000" fill="currentColor"/>
</g>
<g transform="translate(71.6701, 54.7504)">
<rect x="0.0000" y="-1.4737" width="0.1794" height="2.9474" ry="0.0000" fill="currentColor"/>
</g>
<g transform="translate(17.9702, 56.9610)">
<rect x="142.7478" y="-0.0841" width="1.5329" height="0.1681" ry="0.0841" fill="currentColor"/>
</g>
<g transform="translate(17.9702, 57.6978)">
<rect x="142.7478" y="-0.0841" width="1.5329" height="0.1681" ry="0.0841" fill="currentColor"/>
</g>
<g transform="translate(17.9702, 56.9610)">
<rect x="136.0620" y="-0.0841" width="1.4347" height="0.1681" ry="0.0841" fill="currentColor"/>
</g>
<g transform="translate(17.9702, 57.6978)">
<rect x="136.0620" y="-0.0841" width="1.4347" height="0.1681" ry="0.0841" fill="currentColor"/>
</g>
<g transform="translate(17.9702, 56.9610)">
<rect x="131.5011" y="-0.0841" width="1.4347" height="0.1681" ry="0.0841" fill="currentColor"/>
</g>
<g transform="translate(17.9702, 57.6978)">
<rect x="131.5011" y="-0.0841" width="1.4347" height="0.1681" ry="0.0841" fill="currentColor"/>
</g>
<g transform="translate(17.9702, 56.9610)">
<rect x="120.2252" y="-0.0841" width="1.4347" height="0.1681" ry="0.0841" fill="currentColor"/>
</g>
<g transform="translate(17.9702, 57.6978)">
<rect x="120.2252" y="-0.0841" width="1.4347" height="0.1681" ry="0.0841" fill="currentColor"/>
</g>
<g transform="translate(17.9702, 56.9610)">
<rect x="116.8687" y="-0.0841" width="1.4347" height="0.1681" ry="0.0841" fill="currentColor"/>
</g>
<g transform="translate(17.9702, 57.6978)">
<rect x="116.8687" y="-0.0841" width="1.4347" height="0.1681" ry="0.0841" fill="currentColor"/>
</g>
<g transform="translate(17.9702, 56.9610)">
<rect x="113.5122" y="-0.0841" width="1.4347" height="0.1681" ry="0.0841" fill="currentColor"/>
</g>
<g transform="translate(17.9702, 56.9610)">
<rect x="108.9513" y="-0.0841" width="1.4347" height="0.1681" ry="0.0841" fill="currentColor"/>
</g>
<g transform="translate(17.9702, 57.6978)">
<rect x="108.9513" y="-0.0841" width="1.4347" height="0.1681" ry="0.0841" fill="currentColor"/>
</g>
<g transform="translate(17.9702, 56.9610)">
<rect x="96.9688" y="-0.0841" width="1.4347" height="0.1681" ry="0.0841" fill="currentColor"/>
</g>
<g transform="translate(17.9702, 57.6978)">
<rect x="96.9688" y="-0.0841" width="1.4347" height="0.1681" ry="0.0841" fill="currentColor"/>
</g>
<g transform="translate(17.9702, 56.9610)">
<rect x="93.6124" y="-0.0841" width="1.4347" height="0.1681" ry="0.0841" fill="currentColor"/>
</g>
<g transform="translate(17.9702, 56.9610)">
<rect x="90.5059" y="-0.0841" width="1.4347" height="0.1681" ry="0.0841" fill="currentColor"/>
</g>
<g transform="translate(17.9702, 56.9610)">
<rect x="61.2369" y="-0.0841" width="1.5329" height="0.1681" ry="0.0841" fill="currentColor"/>
</g>
<g transform="translate(17.9702, 56.9610)">
<rect x="54.5402" y="-0.0841" width="1.4347" height="0.1681" ry="0.0841" fill="currentColor"/>
</g>
<g transform="translate(17.9702, 57.6978)">
<rect x="54.5402" y="-0.0841" width="1.4347" height="0.1681" ry="0.0841" fill="currentColor"/>
</g>
<g transform="translate(17.9702, 56.9610)">
<rect x="43.6703" y="-0.0841" width="1.5329" height="0.1681" ry="0.0841" fill="currentColor"/>
</g>
<g transform="translate(17.9702, 57.6978)">
<rect x="43.6703" y="-0.0841" width="1.5329" height="0.1681" ry="0.0841" fill="currentColor"/>
</g>
<g transform="translate(17.9702, 56.9610)">
<rect x="39.2552" y="-0.0841" width="1.4347" height="0.1681" ry="0.0841" fill="currentColor"/>
</g>
<g transform="translate(17.9702, 56.9610)">
<rect x="26.7229" y="-0.0841" width="1.5329" height="0.1681" ry="0.0841" fill="currentColor"/>
</g>
<g transform="translate(17.9702, 57.6978)">
<rect x="26.7229" y="-0.0841" width="1.5329" height="0.1681" ry="0.0841" fill="currentColor"/>
</g>
<g transform="translate(17.9702, 56.9610)">
<rect x="22.3078" y="-0.0841" width="1.4347" height="0.1681" ry="0.0841" fill="currentColor"/>
</g>
<g transform="translate(17.9702, 56.2241)">
<line stroke-linejoin="round" stroke-linecap="round" stroke-width="0.0944" stroke="currentColor" x1="0.0472" y1="0" x2="152.0004" y2="0"/>
</g>
<g transform="translate(17.9702, 55.4873)">
<line stroke-linejoin="round" stroke-linecap="round" stroke-width="0.0944" stroke="currentColor" x1="0.0472" y1="0" x2="152.0004" y2="0"/>
</g>
<g transform="translate(17.9702, 54.7504)">
<line stroke-linejoin="round" stroke-linecap="round" stroke-width="0.0944" stroke="currentColor" x1="0.0472" y1="0" x2="152.0004" y2="0"/>
</g>
<g transform="translate(17.9702, 54.0136)">
<line stroke-linejoin="round" stroke-linecap="round" stroke-width="0.0944" stroke="currentColor" x1="0.0472" y1="0" x2="152.0004" y2="0"/>
</g>
<g transform="translate(17.9702, 53.2768)">
<line stroke-linejoin="round" stroke-linecap="round" stroke-width="0.0944" stroke="currentColor" x1="0.0472" y1="0" x2="152.0004" y2="0"/>
</g>
<g transform="translate(128.0557, 54.7504)">
<rect x="-0.0614" y="-0.6118" width="0.1228" height="1.9662" ry="0.0421" fill="currentColor"/>
</g>
<g transform="translate(127.1606, 57.6978)">
<path transform="scale(0.0029, -0.0029)" d="M208 139c61 0 117 -33 117 -99c0 -71 -52 -119 -99 -147c-34 -20 -71 -32 -110 -32c-61 0 -116 33 -116 99c0 71 51 119 98 147c34 20 71 32 110 32z" fill="currentColor"/>
</g>
<g transform="translate(127.2220, 54.7504)">
<rect x="-0.0614" y="3.0666" width="0.1228" height="2.0913" ry="0.0421" fill="currentColor"/>
</g>
<g transform="translate(127.1606, 56.2241)">
<path transform="scale(0.0029, -0.0029)" d="M208 139c61 0 117 -33 117 -99c0 -71 -52 -119 -99 -147c-34 -20 -71 -32 -110 -32c-61 0 -116 33 -116 99c0 71 51 119 98 147c34 20 71 32 110 32z" fill="currentColor"/>
</g>
<g transform="translate(121.6476, 55.4873)">
<path transform="scale(0.0029, -0.0029)" d="M208 139c61 0 117 -33 117 -99c0 -71 -52 -119 -99 -147c-34 -20 -71 -32 -110 -32c-61 0 -116 33 -116 99c0 71 51 119 98 147c34 20 71 32 110 32z" fill="currentColor"/>
</g>
<g transform="translate(119.4911, 55.1189)">
<path transform="scale(0.0029, -0.0029)" d="M208 139c61 0 117 -33 117 -99c0 -71 -52 -119 -99 -147c-34 -20 -71 -32 -110 -32c-61 0 -116 33 -116 99c0 71 51 119 98 147c34 20 71 32 110 32z" fill="currentColor"/>
</g>
<g transform="translate(120.3862, 54.7504)">
<rect x="-0.0614" y="-1.4301" width="0.1228" height="1.6793" ry="0.0421" fill="currentColor"/>
</g>
<g transform="translate(122.5427, 54.7504)">
<rect x="-0.0614" y="-1.4725" width="0.1228" height="2.0901" ry="0.0421" fill="currentColor"/>
</g>
<g transform="translate(123.8041, 55.8557)">
<path transform="scale(0.0029, -0.0029)" d="M208 139c61 0 117 -33 117 -99c0 -71 -52 -119 -99 -147c-34 -20 -71 -32 -110 -32c-61 0 -116 33 -116 99c0 71 51 119 98 147c34 20 71 32 110 32z" fill="currentColor"/>
</g>
<g transform="translate(124.6992, 54.7504)">
<rect x="-0.0614" y="-0.8619" width="0.1228" height="1.8479" ry="0.0421" fill="currentColor"/>
</g>
<g transform="translate(100.8035, 55.4873)">
<path transform="scale(0.0029, -0.0029)" d="M208 139c61 0 117 -33 117 -99c0 -71 -52 -119 -99 -147c-34 -20 -71 -32 -110 -32c-61 0 -116 33 -116 99c0 71 51 119 98 147c34 20 71 32 110 32z" fill="currentColor"/>
</g>
<g transform="translate(135.1394, 54.7504)">
<rect x="-0.0614" y="3.0666" width="0.1228" height="1.7187" ry="0.0421" fill="currentColor"/>
</g>
<g transform="translate(135.0780, 57.6978)">
<path transform="scale(0.0029, -0.0029)" d="M208 139c61 0 117 -33 117 -99c0 -71 -52 -119 -99 -147c-34 -20 -71 -32 -110 -32c-61 0 -116 33 -116 99c0 71 51 119 98 147c34 20 71 32 110 32z" fill="currentColor"/>
</g>
<g transform="translate(131.7829, 54.7504)">
<rect x="-0.0614" y="2.6982" width="0.1228" height="1.8567" ry="0.0421" fill="currentColor"/>
</g>
<g transform="translate(132.6166, 54.7504)">
<rect x="-0.0614" y="-0.7368" width="0.1228" height="2.4597" ry="0.0421" fill="currentColor"/>
</g>
<g transform="translate(131.7215, 57.3294)">
<path transform="scale(0.0029, -0.0029)" d="M208 139c61 0 117 -33 117 -99c0 -71 -52 -119 -99 -147c-34 -20 -71 -32 -110 -32c-61 0 -116 33 -116 99c0 71 51 119 98 147c34 20 71 32 110 32z" fill="currentColor"/>
</g>
<g transform="translate(131.7215, 56.5926)">
<path transform="scale(0.0029, -0.0029)" d="M208 139c61 0 117 -33 117 -99c0 -71 -52 -119 -99 -147c-34 -20 -71 -32 -110 -32c-61 0 -116 33 -116 99c0 71 51 119 98 147c34 20 71 32 110 32z" fill="currentColor"/>
</g>
<g transform="translate(127.2833, 59.8662)">
<path transform="scale(0.0029, -0.0029)" d="M0 250c94 60 217 150 217 259c0 56 -15 110 -41 160v6c0 16 14 26 28 26c9 0 17 -4 22 -14c25 -56 40 -116 40 -178c0 -203 -266 -306 -266 -509h-21v250h21z" fill="currentColor"/>
</g>
<g transform="translate(104.2828, 58.7610)">
<path transform="scale(0.0029, -0.0029)" d="M0 250c94 60 217 150 217 259c0 56 -15 110 -41 160v6c0 16 14 26 28 26c9 0 17 -4 22 -14c25 -56 40 -116 40 -178c0 -203 -266 -306 -266 -509h-21v250h21z" fill="currentColor"/>
</g>
<g transform="translate(108.7765, 54.7504)">
<rect x="-0.0614" y="2.3298" width="0.1228" height="1.7274" ry="0.0421" fill="currentColor"/>
</g>
<g transform="translate(109.6103, 54.7504)">
<rect x="-0.0614" y="-1.1053" width="0.1228" height="2.4597" ry="0.0421" fill="currentColor"/>
</g>
<g transform="translate(108.7152, 56.9610)">
<path transform="scale(0.0029, -0.0029)" d="M208 139c61 0 117 -33 117 -99c0 -71 -52 -119 -99 -147c-34 -20 -71 -32 -110 -32c-61 0 -116 33 -116 99c0 71 51 119 98 147c34 20 71 32 110 32z" fill="currentColor"/>
</g>
<g transform="translate(108.7152, 56.2241)">
<path transform="scale(0.0029, -0.0029)" d="M208 139c61 0 117 -33 117 -99c0 -71 -52 -119 -99 -147c-34 -20 -71 -32 -110 -32c-61 0 -116 33 -116 99c0 71 51 119 98 147c34 20 71 32 110 32z" fill="currentColor"/>
</g>
<g transform="translate(104.2214, 54.7504)">
<rect x="-0.0614" y="1.9613" width="0.1228" height="2.0913" ry="0.0421" fill="currentColor"/>
</g>
<g transform="translate(105.0551, 54.7504)">
<rect x="-0.0614" y="-1.4773" width="0.1228" height="2.4634" ry="0.0421" fill="currentColor"/>
</g>
<g transform="translate(104.1600, 56.5926)">
<path transform="scale(0.0029, -0.0029)" d="M208 139c61 0 117 -33 117 -99c0 -71 -52 -119 -99 -147c-34 -20 -71 -32 -110 -32c-61 0 -116 33 -116 99c0 71 51 119 98 147c34 20 71 32 110 32z" fill="currentColor"/>
</g>
<g transform="translate(104.1600, 55.8557)">
<path transform="scale(0.0029, -0.0029)" d="M208 139c61 0 117 -33 117 -99c0 -71 -52 -119 -99 -147c-34 -20 -71 -32 -110 -32c-61 0 -116 33 -116 99c0 71 51 119 98 147c34 20 71 32 110 32z" fill="currentColor"/>
</g>
<g transform="translate(101.6986, 54.7504)">
<rect x="-0.0614" y="-1.6773" width="0.1228" height="2.2949" ry="0.0421" fill="currentColor"/>
</g>
<g transform="translate(155.5833, 52.4103)">
<polygon stroke-linejoin="round" stroke-linecap="round" stroke-width="0.0842" fill="currentColor" stroke="currentColor" points="3.6763 0.1245 3.6763 0.3940 0.0421 0.1347 0.0421 -0.1347"/>
</g>
<g transform="translate(115.1781, 57.6978)">
<path transform="scale(0.0029, -0.0029)" d="M208 139c61 0 117 -33 117 -99c0 -71 -52 -119 -99 -147c-34 -20 -71 -32 -110 -32c-61 0 -116 33 -116 99c0 71 51 119 98 147c34 20 71 32 110 32z" fill="currentColor"/>
</g>
<g transform="translate(118.2297, 54.7504)">
<rect x="-0.0614" y="-1.3877" width="0.1228" height="2.0053" ry="0.0421" fill="currentColor"/>
</g>
<g transform="translate(117.3346, 55.4873)">
<path transform="scale(0.0029, -0.0029)" d="M208 139c61 0 117 -33 117 -99c0 -71 -52 -119 -99 -147c-34 -20 -71 -32 -110 -32c-61 0 -116 33 -116 99c0 71 51 119 98 147c34 20 71 32 110 32z" fill="currentColor"/>
</g>
<g transform="translate(115.2395, 54.7504)">
<rect x="-0.0614" y="3.0666" width="0.1228" height="1.7229" ry="0.0421" fill="currentColor"/>
</g>
<g transform="translate(116.4562, 58.0662)">
<path transform="scale(0.0029, -0.0029)" d="M0 0c0 30 25 55 55 55s54 -25 54 -55s-24 -55 -54 -55s-55 25 -55 55z" fill="currentColor"/>
</g>
<g transform="translate(116.0732, 54.7504)">
<rect x="-0.0614" y="-1.3453" width="0.1228" height="2.3313" ry="0.0421" fill="currentColor"/>
</g>
<g transform="translate(115.1781, 55.8557)">
<path transform="scale(0.0029, -0.0029)" d="M208 139c61 0 117 -33 117 -99c0 -71 -52 -119 -99 -147c-34 -20 -71 -32 -110 -32c-61 0 -116 33 -116 99c0 71 51 119 98 147c34 20 71 32 110 32z" fill="currentColor"/>
</g>
<g transform="translate(111.8830, 54.7504)">
<rect x="-0.0614" y="2.6982" width="0.1228" height="1.5887" ry="0.0421" fill="currentColor"/>
</g>
<g transform="translate(111.8216, 57.3294)">
<path transform="scale(0.0029, -0.0029)" d="M208 139c61 0 117 -33 117 -99c0 -71 -52 -119 -99 -147c-34 -20 -71 -32 -110 -32c-61 0 -116 33 -116 99c0 71 51 119 98 147c34 20 71 32 110 32z" fill="currentColor"/>
</g>
<g transform="translate(159.2403, 54.7504)">
<rect x="-0.0614" y="-2.0852" width="0.1228" height="3.0712" ry="0.0421" fill="currentColor"/>
</g>
<g transform="translate(161.0348, 54.7504)">
<rect x="-0.0614" y="3.1217" width="0.1228" height="1.6678" ry="0.0421" fill="currentColor"/>
</g>
<g transform="translate(161.8685, 54.7504)">
<rect x="-0.0614" y="-1.1053" width="0.1228" height="2.4597" ry="0.0421" fill="currentColor"/>
</g>
<g transform="translate(162.2515, 55.8557)">
<path transform="scale(0.0029, -0.0029)" d="M0 0c0 30 25 55 55 55s54 -25 54 -55s-24 -55 -54 -55s-55 25 -55 55z" fill="currentColor"/>
</g>
<g transform="translate(160.9734, 57.6978)">
<path transform="scale(0.0029, -0.0029)" d="M308 62c0 23 -20 39 -40 39c-4 0 -7 0 -11 -1c-29 -8 -74 -38 -109 -61s-79 -52 -99 -75c-6 -8 -10 -16 -10 -26c0 -23 20 -39 40 -39c4 0 7 0 11 1c29 8 74 38 109 61s79 52 99 75c6 8 10 16 10 26zM0 -59c0 142 114 198 251 198c53 0 96 -22 96 -80
c0 -142 -115 -198 -252 -198c-53 0 -95 22 -95 80z" fill="currentColor"/>
</g>
<g transform="translate(160.9734, 56.2241)">
<path transform="scale(0.0029, -0.0029)" d="M208 139c61 0 117 -33 117 -99c0 -71 -52 -119 -99 -147c-34 -20 -71 -32 -110 -32c-61 0 -116 33 -116 99c0 71 51 119 98 147c34 20 71 32 110 32z" fill="currentColor"/>
</g>
<g transform="translate(158.7620, 54.7504)">
<rect x="-0.0614" y="-2.5750" width="0.1228" height="1.7189" ry="0.0421" fill="currentColor"/>
</g>
<g transform="translate(158.3452, 55.8557)">
<path transform="scale(0.0029, -0.0029)" d="M208 139c61 0 117 -33 117 -99c0 -71 -52 -119 -99 -147c-34 -20 -71 -32 -110 -32c-61 0 -116 33 -116 99c0 71 51 119 98 147c34 20 71 32 110 32z" fill="currentColor"/>
</g>
<g transform="translate(157.8669, 54.0136)">
<path transform="scale(0.0029, -0.0029)" d="M208 139c61 0 117 -33 117 -99c0 -71 -52 -119 -99 -147c-34 -20 -71 -32 -110 -32c-61 0 -116 33 -116 99c0 71 51 119 98 147c34 20 71 32 110 32z" fill="currentColor"/>
</g>
<g transform="translate(155.1051, 52.4103)">
<polygon stroke-linejoin="round" stroke-linecap="round" stroke-width="0.0842" fill="currentColor" stroke="currentColor" points="3.6763 -0.3735 3.6763 -0.1041 0.0421 0.1347 0.0421 -0.1347"/>
</g>
<g transform="translate(147.1876, 53.8840)">
<polygon stroke-linejoin="round" stroke-linecap="round" stroke-width="0.0842" fill="currentColor" stroke="currentColor" points="3.4371 0.1245 3.4371 0.3940 0.0421 0.1347 0.0421 -0.1347"/>
</g>
<g transform="translate(139.2682, 53.4064)">
<polygon stroke-linejoin="round" stroke-linecap="round" stroke-width="0.0842" fill="currentColor" stroke="currentColor" points="5.8436 -0.1347 5.8436 0.1347 0.0421 0.1347 0.0421 -0.1347"/>
</g>
<g transform="translate(142.8747, 54.0136)">
<polygon stroke-linejoin="round" stroke-linecap="round" stroke-width="0.0842" fill="currentColor" stroke="currentColor" points="2.2371 -0.1347 2.2371 0.1347 0.0421 0.1347 0.0421 -0.1347"/>
</g>
<g transform="translate(131.7215, 59.3011)">
<polygon stroke-linejoin="round" stroke-linecap="round" stroke-width="0.0842" fill="currentColor" stroke="currentColor" points="3.4371 0.1041 3.4371 0.3735 0.0421 0.1347 0.0421 -0.1347"/>
</g>
<g transform="translate(124.6378, 53.8840)">
<polygon stroke-linejoin="round" stroke-linecap="round" stroke-width="0.0842" fill="currentColor" stroke="currentColor" points="3.4371 0.1245 3.4371 0.3940 0.0421 0.1347 0.0421 -0.1347"/>
</g>
<g transform="translate(115.1781, 54.7504)">
<path stroke-width="0.0755" stroke-linejoin="round" stroke-linecap="round" stroke="currentColor" fill="currentColor" d="M0.8953 -1.8905C2.3275 -3.0349 8.0908 -3.0307 9.5213 -1.8843L9.5213 -1.8843C8.0907 -2.9174 2.3274 -2.9215 0.8953 -1.8905z"/>
</g>
<g transform="translate(116.0119, 53.4064)">
<polygon stroke-linejoin="round" stroke-linecap="round" stroke-width="0.0842" fill="currentColor" stroke="currentColor" points="6.5501 -0.2644 6.5501 0.0051 0.0421 0.1347 0.0421 -0.1347"/>
</g>
<g transform="translate(116.0119, 54.0136)">
<polygon stroke-linejoin="round" stroke-linecap="round" stroke-width="0.0842" fill="currentColor" stroke="currentColor" points="6.5501 -0.2644 6.5501 0.0051 0.0421 0.1347 0.0421 -0.1347"/>
</g>
<g transform="translate(108.7152, 58.8031)">
<polygon stroke-linejoin="round" stroke-linecap="round" stroke-width="0.0842" fill="currentColor" stroke="currentColor" points="3.1871 0.1041 3.1871 0.3735 0.0421 0.1347 0.0421 -0.1347"/>
</g>
<g transform="translate(94.9243, 52.6695)">
<polygon stroke-linejoin="round" stroke-linecap="round" stroke-width="0.0842" fill="currentColor" stroke="currentColor" points="10.1501 0.4725 10.1501 0.7420 0.0421 0.1347 0.0421 -0.1347"/>
</g>
<g transform="translate(73.5832, 53.8840)">
<polygon stroke-linejoin="round" stroke-linecap="round" stroke-width="0.0842" fill="currentColor" stroke="currentColor" points="3.4371 0.1245 3.4371 0.3940 0.0421 0.1347 0.0421 -0.1347"/>
</g>
<g transform="translate(67.9881, 53.4064)">
<polygon stroke-linejoin="round" stroke-linecap="round" stroke-width="0.0842" fill="currentColor" stroke="currentColor" points="2.2371 -0.2644 2.2371 0.0051 0.0421 0.1347 0.0421 -0.1347"/>
</g>
<g transform="translate(67.9881, 54.0136)">
<polygon stroke-linejoin="round" stroke-linecap="round" stroke-width="0.0842" fill="currentColor" stroke="currentColor" points="2.2371 -0.2644 2.2371 0.0051 0.0421 0.1347 0.0421 -0.1347"/>
</g>
<g transform="translate(61.8960, 54.7504)">
<path stroke-width="0.0755" stroke-linejoin="round" stroke-linecap="round" stroke="currentColor" fill="currentColor" d="M1.2565 -0.1527C2.2342 -1.5323 6.6932 -2.7236 8.2286 -2.0155L8.2286 -2.0155C6.7224 -2.6141 2.2634 -1.4228 1.2565 -0.1527z"/>
</g>
<g transform="translate(52.7388, 52.6695)">
<polygon stroke-linejoin="round" stroke-linecap="round" stroke-width="0.0842" fill="currentColor" stroke="currentColor" points="2.2371 -0.2644 2.2371 0.0051 0.0421 0.1347 0.0421 -0.1347"/>
</g>
<g transform="translate(52.7388, 53.2768)">
<polygon stroke-linejoin="round" stroke-linecap="round" stroke-width="0.0842" fill="currentColor" stroke="currentColor" points="2.2371 -0.2644 2.2371 0.0051 0.0421 0.1347 0.0421 -0.1347"/>
</g>
<g transform="translate(44.9486, 54.7504)">
<path stroke-width="0.0755" stroke-linejoin="round" stroke-linecap="round" stroke="currentColor" fill="currentColor" d="M1.2565 -1.1475C2.4724 -2.5451 8.3158 -3.6238 9.9506 -2.7523L9.9506 -2.7523C8.3364 -3.5123 2.4930 -2.4337 1.2565 -1.1475z"/>
</g>
<g transform="translate(167.4384, 52.5820)">
<path transform="scale(0.0029, -0.0029)" d="M0 0c0 -196 207 -334 207 -530c0 -71 -15 -140 -41 -206c-5 -10 -14 -13 -23 -13c-14 0 -28 10 -28 26c0 2 1 3 1 5c26 59 42 123 42 188c0 101 -90 205 -158 280h-21v250h21z" fill="currentColor"/>
</g>
<g transform="translate(167.3770, 54.7504)">
<rect x="-0.0614" y="-2.2105" width="0.1228" height="2.4597" ry="0.0421" fill="currentColor"/>
</g>
<g transform="translate(166.4819, 55.1189)">
<path transform="scale(0.0029, -0.0029)" d="M208 139c61 0 117 -33 117 -99c0 -71 -52 -119 -99 -147c-34 -20 -71 -32 -110 -32c-61 0 -116 33 -116 99c0 71 51 119 98 147c34 20 71 32 110 32z" fill="currentColor"/>
</g>
<g transform="translate(142.9361, 54.7504)">
<rect x="-0.0614" y="-1.3441" width="0.1228" height="1.9617" ry="0.0421" fill="currentColor"/>
</g>
<g transform="translate(147.2490, 54.7504)">
<rect x="-0.0614" y="-0.8619" width="0.1228" height="2.2163" ry="0.0421" fill="currentColor"/>
</g>
<g transform="translate(146.3539, 56.2241)">
<path transform="scale(0.0029, -0.0029)" d="M208 139c61 0 117 -33 117 -99c0 -71 -52 -119 -99 -147c-34 -20 -71 -32 -110 -32c-61 0 -116 33 -116 99c0 71 51 119 98 147c34 20 71 32 110 32z" fill="currentColor"/>
</g>
<g transform="translate(145.0925, 54.7504)">
<rect x="-0.0614" y="-1.3441" width="0.1228" height="2.3301" ry="0.0421" fill="currentColor"/>
</g>
<g transform="translate(144.1974, 55.8557)">
<path transform="scale(0.0029, -0.0029)" d="M208 139c61 0 117 -33 117 -99c0 -71 -52 -119 -99 -147c-34 -20 -71 -32 -110 -32c-61 0 -116 33 -116 99c0 71 51 119 98 147c34 20 71 32 110 32z" fill="currentColor"/>
</g>
<g transform="translate(142.0410, 55.4873)">
<path transform="scale(0.0029, -0.0029)" d="M208 139c61 0 117 -33 117 -99c0 -71 -52 -119 -99 -147c-34 -20 -71 -32 -110 -32c-61 0 -116 33 -116 99c0 71 51 119 98 147c34 20 71 32 110 32z" fill="currentColor"/>
</g>
<g transform="translate(138.4958, 54.7504)">
<rect x="-0.0614" y="3.4350" width="0.1228" height="1.7229" ry="0.0421" fill="currentColor"/>
</g>
<g transform="translate(139.7125, 58.0662)">
<path transform="scale(0.0029, -0.0029)" d="M0 0c0 30 25 55 55 55s54 -25 54 -55s-24 -55 -54 -55s-55 25 -55 55z" fill="currentColor"/>
</g>
<g transform="translate(139.3296, 54.7504)">
<rect x="-0.0614" y="-1.3441" width="0.1228" height="2.6985" ry="0.0421" fill="currentColor"/>
</g>
<g transform="translate(138.4345, 58.0662)">
<path transform="scale(0.0029, -0.0029)" d="M208 139c61 0 117 -33 117 -99c0 -71 -52 -119 -99 -147c-34 -20 -71 -32 -110 -32c-61 0 -116 33 -116 99c0 71 51 119 98 147c34 20 71 32 110 32z" fill="currentColor"/>
</g>
<g transform="translate(138.4345, 56.2241)">
<path transform="scale(0.0029, -0.0029)" d="M208 139c61 0 117 -33 117 -99c0 -71 -52 -119 -99 -147c-34 -20 -71 -32 -110 -32c-61 0 -116 33 -116 99c0 71 51 119 98 147c34 20 71 32 110 32z" fill="currentColor"/>
</g>
<g transform="translate(154.2713, 57.6978)">
<path transform="scale(0.0029, -0.0029)" d="M208 139c61 0 117 -33 117 -99c0 -71 -52 -119 -99 -147c-34 -20 -71 -32 -110 -32c-61 0 -116 33 -116 99c0 71 51 119 98 147c34 20 71 32 110 32z" fill="currentColor"/>
</g>
<g transform="translate(154.3327, 54.7504)">
<rect x="-0.0614" y="3.0666" width="0.1228" height="1.7229" ry="0.0421" fill="currentColor"/>
</g>
<g transform="translate(155.6447, 54.7504)">
<rect x="-0.0614" y="-2.3359" width="0.1228" height="2.9535" ry="0.0421" fill="currentColor"/>
</g>
<g transform="translate(155.1664, 54.7504)">
<rect x="-0.0614" y="-2.3441" width="0.1228" height="1.8564" ry="0.0421" fill="currentColor"/>
</g>
<g transform="translate(154.7496, 55.4873)">
<path transform="scale(0.0029, -0.0029)" d="M208 139c61 0 117 -33 117 -99c0 -71 -52 -119 -99 -147c-34 -20 -71 -32 -110 -32c-61 0 -116 33 -116 99c0 71 51 119 98 147c34 20 71 32 110 32z" fill="currentColor"/>
</g>
<g transform="translate(154.2713, 54.3820)">
<path transform="scale(0.0029, -0.0029)" d="M208 139c61 0 117 -33 117 -99c0 -71 -52 -119 -99 -147c-34 -20 -71 -32 -110 -32c-61 0 -116 33 -116 99c0 71 51 119 98 147c34 20 71 32 110 32z" fill="currentColor"/>
</g>
<g transform="translate(149.8332, 60.2347)">
<path transform="scale(0.0029, -0.0029)" d="M0 250c94 60 217 150 217 259c0 56 -15 110 -41 160v6c0 16 14 26 28 26c9 0 17 -4 22 -14c25 -56 40 -116 40 -178c0 -203 -266 -306 -266 -509h-21v250h21z" fill="currentColor"/>
</g>
<g transform="translate(149.7718, 54.7504)">
<rect x="-0.0614" y="3.4350" width="0.1228" height="2.0913" ry="0.0421" fill="currentColor"/>
</g>
<g transform="translate(150.6055, 54.7504)">
<rect x="-0.0614" y="-0.6118" width="0.1228" height="2.3347" ry="0.0421" fill="currentColor"/>
</g>
<g transform="translate(149.7104, 58.0662)">
<path transform="scale(0.0029, -0.0029)" d="M208 139c61 0 117 -33 117 -99c0 -71 -52 -119 -99 -147c-34 -20 -71 -32 -110 -32c-61 0 -116 33 -116 99c0 71 51 119 98 147c34 20 71 32 110 32z" fill="currentColor"/>
</g>
<g transform="translate(149.7104, 56.5926)">
<path transform="scale(0.0029, -0.0029)" d="M208 139c61 0 117 -33 117 -99c0 -71 -52 -119 -99 -147c-34 -20 -71 -32 -110 -32c-61 0 -116 33 -116 99c0 71 51 119 98 147c34 20 71 32 110 32z" fill="currentColor"/>
</g>
<g transform="translate(54.9566, 54.7504)">
<rect x="-0.0614" y="-2.2070" width="0.1228" height="2.4562" ry="0.0421" fill="currentColor"/>
</g>
<g transform="translate(54.0615, 55.1189)">
<path transform="scale(0.0029, -0.0029)" d="M208 139c61 0 117 -33 117 -99c0 -71 -52 -119 -99 -147c-34 -20 -71 -32 -110 -32c-61 0 -116 33 -116 99c0 71 51 119 98 147c34 20 71 32 110 32z" fill="currentColor"/>
</g>
<g transform="translate(52.8001, 54.7504)">
<rect x="-0.0614" y="-2.0844" width="0.1228" height="2.7020" ry="0.0421" fill="currentColor"/>
</g>
<g transform="translate(51.9050, 55.4873)">
<path transform="scale(0.0029, -0.0029)" d="M208 139c61 0 117 -33 117 -99c0 -71 -52 -119 -99 -147c-34 -20 -71 -32 -110 -32c-61 0 -116 33 -116 99c0 71 51 119 98 147c34 20 71 32 110 32z" fill="currentColor"/>
</g>
<g transform="translate(45.0099, 54.7504)">
<rect x="-0.0614" y="3.1217" width="0.1228" height="1.6678" ry="0.0421" fill="currentColor"/>
</g>
<g transform="translate(46.3546, 54.7504)">
<rect x="-0.0614" y="-0.7368" width="0.1228" height="2.4597" ry="0.0421" fill="currentColor"/>
</g>
<g transform="translate(45.8437, 54.7504)">
<rect x="-0.0614" y="-1.4737" width="0.1228" height="2.4597" ry="0.0421" fill="currentColor"/>
</g>
<g transform="translate(46.7375, 55.8557)">
<path transform="scale(0.0029, -0.0029)" d="M0 0c0 30 25 55 55 55s54 -25 54 -55s-24 -55 -54 -55s-55 25 -55 55z" fill="currentColor"/>
</g>
<g transform="translate(44.9486, 57.6978)">
<path transform="scale(0.0029, -0.0029)" d="M308 62c0 23 -20 39 -40 39c-4 0 -7 0 -11 -1c-29 -8 -74 -38 -109 -61s-79 -52 -99 -75c-6 -8 -10 -16 -10 -26c0 -23 20 -39 40 -39c4 0 7 0 11 1c29 8 74 38 109 61s79 52 99 75c6 8 10 16 10 26zM0 -59c0 142 114 198 251 198c53 0 96 -22 96 -80
c0 -142 -115 -198 -252 -198c-53 0 -95 22 -95 80z" fill="currentColor"/>
</g>
<g transform="translate(45.4595, 56.5926)">
<path transform="scale(0.0029, -0.0029)" d="M208 139c61 0 117 -33 117 -99c0 -71 -52 -119 -99 -147c-34 -20 -71 -32 -110 -32c-61 0 -116 33 -116 99c0 71 51 119 98 147c34 20 71 32 110 32z" fill="currentColor"/>
</g>
<g transform="translate(44.9486, 55.8557)">
<path transform="scale(0.0029, -0.0029)" d="M208 139c61 0 117 -33 117 -99c0 -71 -52 -119 -99 -147c-34 -20 -71 -32 -110 -32c-61 0 -116 33 -116 99c0 71 51 119 98 147c34 20 71 32 110 32z" fill="currentColor"/>
</g>
<g transform="translate(61.9573, 54.7504)">
<rect x="-0.0614" y="3.4901" width="0.1228" height="1.6678" ry="0.0421" fill="currentColor"/>
</g>
<g transform="translate(62.7911, 54.7504)">
<rect x="-0.0614" y="-1.1053" width="0.1228" height="2.4597" ry="0.0421" fill="currentColor"/>
</g>
<g transform="translate(63.1740, 55.8557)">
<path transform="scale(0.0029, -0.0029)" d="M0 0c0 30 25 55 55 55s54 -25 54 -55s-24 -55 -54 -55s-55 25 -55 55z" fill="currentColor"/>
</g>
<g transform="translate(61.8960, 56.2241)">
<path transform="scale(0.0029, -0.0029)" d="M208 139c61 0 117 -33 117 -99c0 -71 -52 -119 -99 -147c-34 -20 -71 -32 -110 -32c-61 0 -116 33 -116 99c0 71 51 119 98 147c34 20 71 32 110 32z" fill="currentColor"/>
</g>
<g transform="translate(57.5258, 54.7504)">
<rect x="-0.0614" y="2.6982" width="0.1228" height="1.7229" ry="0.0421" fill="currentColor"/>
</g>
<g transform="translate(58.3596, 54.7504)">
<rect x="-0.0614" y="-0.7368" width="0.1228" height="2.4597" ry="0.0421" fill="currentColor"/>
</g>
<g transform="translate(57.4645, 57.3294)">
<path transform="scale(0.0029, -0.0029)" d="M208 139c61 0 117 -33 117 -99c0 -71 -52 -119 -99 -147c-34 -20 -71 -32 -110 -32c-61 0 -116 33 -116 99c0 71 51 119 98 147c34 20 71 32 110 32z" fill="currentColor"/>
</g>
<g transform="translate(57.4645, 56.5926)">
<path transform="scale(0.0029, -0.0029)" d="M208 139c61 0 117 -33 117 -99c0 -71 -52 -119 -99 -147c-34 -20 -71 -32 -110 -32c-61 0 -116 33 -116 99c0 71 51 119 98 147c34 20 71 32 110 32z" fill="currentColor"/>
</g>
<g transform="translate(31.7178, 54.7504)">
<rect x="-0.0614" y="-1.4737" width="0.1228" height="2.4597" ry="0.0421" fill="currentColor"/>
</g>
<g transform="translate(32.1007, 55.8557)">
<path transform="scale(0.0029, -0.0029)" d="M0 0c0 30 25 55 55 55s54 -25 54 -55s-24 -55 -54 -55s-55 25 -55 55z" fill="currentColor"/>
</g>
<g transform="translate(30.8227, 56.5926)">
<path transform="scale(0.0029, -0.0029)" d="M308 62c0 23 -20 39 -40 39c-4 0 -7 0 -11 -1c-29 -8 -74 -38 -109 -61s-79 -52 -99 -75c-6 -8 -10 -16 -10 -26c0 -23 20 -39 40 -39c4 0 7 0 11 1c29 8 74 38 109 61s79 52 99 75c6 8 10 16 10 26zM0 -59c0 142 114 198 251 198c53 0 96 -22 96 -80
c0 -142 -115 -198 -252 -198c-53 0 -95 22 -95 80z" fill="currentColor"/>
</g>
<g transform="translate(30.8227, 55.8557)">
<path transform="scale(0.0029, -0.0029)" d="M208 139c61 0 117 -33 117 -99c0 -71 -52 -119 -99 -147c-34 -20 -71 -32 -110 -32c-61 0 -116 33 -116 99c0 71 51 119 98 147c34 20 71 32 110 32z" fill="currentColor"/>
</g>
<g transform="translate(26.4526, 54.7504)">
<rect x="-0.0614" y="1.9613" width="0.1228" height="1.7229" ry="0.0421" fill="currentColor"/>
</g>
<g transform="translate(27.2863, 54.7504)">
<rect x="-0.0614" y="-2.9474" width="0.1228" height="2.0913" ry="0.0421" fill="currentColor"/>
</g>
<g transform="translate(26.3912, 56.5926)">
<path transform="scale(0.0029, -0.0029)" d="M208 139c61 0 117 -33 117 -99c0 -71 -52 -119 -99 -147c-34 -20 -71 -32 -110 -32c-61 0 -116 33 -116 99c0 71 51 119 98 147c34 20 71 32 110 32z" fill="currentColor"/>
</g>
<g transform="translate(26.3912, 54.0136)">
<path transform="scale(0.0029, -0.0029)" d="M208 139c61 0 117 -33 117 -99c0 -71 -52 -119 -99 -147c-34 -20 -71 -32 -110 -32c-61 0 -116 33 -116 99c0 71 51 119 98 147c34 20 71 32 110 32z" fill="currentColor"/>
</g>
<g transform="translate(22.2702, 53.2768)">
<path transform="scale(0.0029, -0.0029)" d="M0 114c0 12 7 22 18 26l37 15v151c0 12 10 22 22 22s22 -10 22 -22v-134l77 29v152c0 12 10 22 22 22s22 -10 22 -22v-134l16 6c3 1 8 2 11 2c15 0 28 -12 28 -28v-50c0 -12 -7 -23 -18 -27l-37 -14v-152l16 7c3 1 8 2 11 2c15 0 28 -13 28 -29v-50c0 -12 -7 -22 -18 -26
l-37 -15v-151c0 -12 -10 -22 -22 -22s-22 10 -22 22v134l-77 -29v-152c0 -12 -10 -22 -22 -22s-22 10 -22 22v134l-16 -6c-3 -1 -8 -2 -11 -2c-15 0 -28 12 -28 28v50c0 12 7 23 18 27l37 14v152l-16 -7c-3 -1 -8 -2 -11 -2c-15 0 -28 13 -28 29v50zM176 91l-77 -30v-152
l77 30v152z" fill="currentColor"/>
</g>
<g transform="translate(23.0807, 54.3820)">
<path transform="scale(0.0029, -0.0029)" d="M0 114c0 12 7 22 18 26l37 15v151c0 12 10 22 22 22s22 -10 22 -22v-134l77 29v152c0 12 10 22 22 22s22 -10 22 -22v-134l16 6c3 1 8 2 11 2c15 0 28 -12 28 -28v-50c0 -12 -7 -23 -18 -27l-37 -14v-152l16 7c3 1 8 2 11 2c15 0 28 -13 28 -29v-50c0 -12 -7 -22 -18 -26
l-37 -15v-151c0 -12 -10 -22 -22 -22s-22 10 -22 22v134l-77 -29v-152c0 -12 -10 -22 -22 -22s-22 10 -22 22v134l-16 -6c-3 -1 -8 -2 -11 -2c-15 0 -28 12 -28 28v50c0 12 7 23 18 27l37 14v152l-16 -7c-3 -1 -8 -2 -11 -2c-15 0 -28 13 -28 29v50zM176 91l-77 -30v-152
l77 30v152z" fill="currentColor"/>
</g>
<g transform="translate(18.7702, 55.4873)">
<path transform="scale(0.0029, -0.0029)" d="M381 266h9c157 0 258 -130 258 -264c0 -77 -33 -156 -108 -212c-22 -16 -46 -28 -71 -36c2 -32 3 -65 3 -97c0 -21 -1 -43 -2 -64c-7 -122 -91 -230 -211 -230c-108 0 -197 88 -197 197c0 58 54 104 113 104c54 0 95 -48 95 -104c0 -52 -43 -95 -95 -95c-8 0 -16 2 -24 4
c25 -35 65 -59 111 -59c95 0 155 92 161 190c1 20 2 39 2 59c0 28 -1 55 -3 83c-29 -5 -57 -7 -87 -7c-189 0 -333 174 -333 377c0 176 128 307 242 443c-21 62 -41 124 -50 189c-7 52 -8 106 -8 159c0 113 54 219 146 286c8 6 21 7 29 0c72 -82 136 -244 136 -357
c0 -141 -83 -253 -174 -362c22 -67 41 -135 58 -204zM464 -200c64 25 108 93 108 159c0 87 -62 173 -163 187c24 -113 43 -225 55 -346zM338 -218c27 0 54 2 80 6c-13 125 -33 242 -58 359c-79 -7 -123 -59 -123 -116c0 -43 24 -89 78 -120c5 -5 8 -11 8 -17
c0 -13 -11 -24 -24 -24c-3 0 -7 0 -10 2c-81 44 -119 116 -119 187c0 90 60 178 164 201c-14 56 -30 112 -47 167c-104 -122 -208 -245 -208 -404c0 -132 127 -241 259 -241zM239 782c0 -69 22 -127 41 -183c77 97 140 199 140 323c0 49 -3 69 -19 113
c-99 -45 -162 -145 -162 -253z" fill="currentColor"/>
</g>
<g transform="translate(40.5171, 56.9610)">
<path transform="scale(0.0029, -0.0029)" d="M208 139c61 0 117 -33 117 -99c0 -71 -52 -119 -99 -147c-34 -20 -71 -32 -110 -32c-61 0 -116 33 -116 99c0 71 51 119 98 147c34 20 71 32 110 32z" fill="currentColor"/>
</g>
<g transform="translate(40.5785, 54.7504)">
<rect x="-0.0614" y="2.3298" width="0.1228" height="1.7229" ry="0.0421" fill="currentColor"/>
</g>
<g transform="translate(41.4122, 54.7504)">
<rect x="-0.0614" y="-1.1053" width="0.1228" height="2.4597" ry="0.0421" fill="currentColor"/>
</g>
<g transform="translate(61.8960, 58.0662)">
<path transform="scale(0.0029, -0.0029)" d="M308 62c0 23 -20 39 -40 39c-4 0 -7 0 -11 -1c-29 -8 -74 -38 -109 -61s-79 -52 -99 -75c-6 -8 -10 -16 -10 -26c0 -23 20 -39 40 -39c4 0 7 0 11 1c29 8 74 38 109 61s79 52 99 75c6 8 10 16 10 26zM0 -59c0 142 114 198 251 198c53 0 96 -22 96 -80
c0 -142 -115 -198 -252 -198c-53 0 -95 22 -95 80z" fill="currentColor"/>
</g>
<g transform="translate(40.5171, 56.2241)">
<path transform="scale(0.0029, -0.0029)" d="M208 139c61 0 117 -33 117 -99c0 -71 -52 -119 -99 -147c-34 -20 -71 -32 -110 -32c-61 0 -116 33 -116 99c0 71 51 119 98 147c34 20 71 32 110 32z" fill="currentColor"/>
</g>
<g transform="translate(37.0376, 52.9504)">
<path transform="scale(0.0029, -0.0029)" d="M0 0c0 -196 207 -334 207 -530c0 -71 -15 -140 -41 -206c-5 -10 -14 -13 -23 -13c-14 0 -28 10 -28 26c0 2 1 3 1 5c26 59 42 123 42 188c0 101 -90 205 -158 280h-21v250h21z" fill="currentColor"/>
</g>
<g transform="translate(36.9763, 54.7504)">
<rect x="-0.0614" y="-1.8421" width="0.1228" height="2.4597" ry="0.0421" fill="currentColor"/>
</g>
<g transform="translate(36.0812, 55.4873)">
<path transform="scale(0.0029, -0.0029)" d="M208 139c61 0 117 -33 117 -99c0 -71 -52 -119 -99 -147c-34 -20 -71 -32 -110 -32c-61 0 -116 33 -116 99c0 71 51 119 98 147c34 20 71 32 110 32z" fill="currentColor"/>
</g>
<g transform="translate(30.8841, 54.7504)">
<rect x="-0.0614" y="2.0164" width="0.1228" height="1.6678" ry="0.0421" fill="currentColor"/>
</g>
<g transform="translate(85.8660, 54.7504)">
<rect x="-0.0614" y="-2.2105" width="0.1228" height="2.4597" ry="0.0421" fill="currentColor"/>
</g>
<g transform="translate(84.9709, 55.1189)">
<path transform="scale(0.0029, -0.0029)" d="M208 139c61 0 117 -33 117 -99c0 -71 -52 -119 -99 -147c-34 -20 -71 -32 -110 -32c-61 0 -116 33 -116 99c0 71 51 119 98 147c34 20 71 32 110 32z" fill="currentColor"/>
</g>
<g transform="translate(79.5239, 54.7504)">
<rect x="-0.0614" y="2.3848" width="0.1228" height="1.6678" ry="0.0421" fill="currentColor"/>
</g>
<g transform="translate(85.9274, 52.5820)">
<path transform="scale(0.0029, -0.0029)" d="M0 0c0 -196 207 -334 207 -530c0 -71 -15 -140 -41 -206c-5 -10 -14 -13 -23 -13c-14 0 -28 10 -28 26c0 2 1 3 1 5c26 59 42 123 42 188c0 101 -90 205 -158 280h-21v250h21z" fill="currentColor"/>
</g>
<g transform="translate(80.3576, 54.7504)">
<rect x="-0.0614" y="-1.1053" width="0.1228" height="2.4597" ry="0.0421" fill="currentColor"/>
</g>
<g transform="translate(80.7405, 55.8557)">
<path transform="scale(0.0029, -0.0029)" d="M0 0c0 30 25 55 55 55s54 -25 54 -55s-24 -55 -54 -55s-55 25 -55 55z" fill="currentColor"/>
</g>
<g transform="translate(79.4625, 56.9610)">
<path transform="scale(0.0029, -0.0029)" d="M308 62c0 23 -20 39 -40 39c-4 0 -7 0 -11 -1c-29 -8 -74 -38 -109 -61s-79 -52 -99 -75c-6 -8 -10 -16 -10 -26c0 -23 20 -39 40 -39c4 0 7 0 11 1c29 8 74 38 109 61s79 52 99 75c6 8 10 16 10 26zM0 -59c0 142 114 198 251 198c53 0 96 -22 96 -80
c0 -142 -115 -198 -252 -198c-53 0 -95 22 -95 80z" fill="currentColor"/>
</g>
<g transform="translate(79.4625, 56.2241)">
<path transform="scale(0.0029, -0.0029)" d="M208 139c61 0 117 -33 117 -99c0 -71 -52 -119 -99 -147c-34 -20 -71 -32 -110 -32c-61 0 -116 33 -116 99c0 71 51 119 98 147c34 20 71 32 110 32z" fill="currentColor"/>
</g>
<g transform="translate(77.0011, 54.7504)">
<rect x="-0.0614" y="-0.6118" width="0.1228" height="1.9662" ry="0.0421" fill="currentColor"/>
</g>
<g transform="translate(76.1060, 56.2241)">
<path transform="scale(0.0029, -0.0029)" d="M208 139c61 0 117 -33 117 -99c0 -71 -52 -119 -99 -147c-34 -20 -71 -32 -110 -32c-61 0 -116 33 -116 99c0 71 51 119 98 147c34 20 71 32 110 32z" fill="currentColor"/>
</g>
<g transform="translate(89.4705, 54.7504)">
<rect x="-0.0614" y="1.9613" width="0.1228" height="1.7229" ry="0.0421" fill="currentColor"/>
</g>
<g transform="translate(94.0906, 54.7504)">
<path transform="scale(0.0029, -0.0029)" d="M208 139c61 0 117 -33 117 -99c0 -71 -52 -119 -99 -147c-34 -20 -71 -32 -110 -32c-61 0 -116 33 -116 99c0 71 51 119 98 147c34 20 71 32 110 32z" fill="currentColor"/>
</g>
<g transform="translate(90.3042, 54.7504)">
<rect x="-0.0614" y="-1.4737" width="0.1228" height="2.4597" ry="0.0421" fill="currentColor"/>
</g>
<g transform="translate(89.4091, 56.5926)">
<path transform="scale(0.0029, -0.0029)" d="M208 139c61 0 117 -33 117 -99c0 -71 -52 -119 -99 -147c-34 -20 -71 -32 -110 -32c-61 0 -116 33 -116 99c0 71 51 119 98 147c34 20 71 32 110 32z" fill="currentColor"/>
</g>
<g transform="translate(94.5688, 55.8557)">
<path transform="scale(0.0029, -0.0029)" d="M208 139c61 0 117 -33 117 -99c0 -71 -52 -119 -99 -147c-34 -20 -71 -32 -110 -32c-61 0 -116 33 -116 99c0 71 51 119 98 147c34 20 71 32 110 32z" fill="currentColor"/>
</g>
<g transform="translate(89.4091, 55.8557)">
<path transform="scale(0.0029, -0.0029)" d="M208 139c61 0 117 -33 117 -99c0 -71 -52 -119 -99 -147c-34 -20 -71 -32 -110 -32c-61 0 -116 33 -116 99c0 71 51 119 98 147c34 20 71 32 110 32z" fill="currentColor"/>
</g>
<g transform="translate(94.0906, 56.5926)">
<path transform="scale(0.0029, -0.0029)" d="M208 139c61 0 117 -33 117 -99c0 -71 -52 -119 -99 -147c-34 -20 -71 -32 -110 -32c-61 0 -116 33 -116 99c0 71 51 119 98 147c34 20 71 32 110 32z" fill="currentColor"/>
</g>
<g transform="translate(94.9857, 54.7504)">
<rect x="-0.0614" y="-2.0772" width="0.1228" height="1.9580" ry="0.0421" fill="currentColor"/>
</g>
<g transform="translate(95.4639, 54.7504)">
<rect x="-0.0614" y="-1.4737" width="0.1228" height="2.4597" ry="0.0421" fill="currentColor"/>
</g>
<g transform="translate(72.7495, 57.6978)">
<path transform="scale(0.0029, -0.0029)" d="M208 139c61 0 117 -33 117 -99c0 -71 -52 -119 -99 -147c-34 -20 -71 -32 -110 -32c-61 0 -116 33 -116 99c0 71 51 119 98 147c34 20 71 32 110 32z" fill="currentColor"/>
</g>
<g transform="translate(72.7495, 55.8557)">
<path transform="scale(0.0029, -0.0029)" d="M208 139c61 0 117 -33 117 -99c0 -71 -52 -119 -99 -147c-34 -20 -71 -32 -110 -32c-61 0 -116 33 -116 99c0 71 51 119 98 147c34 20 71 32 110 32z" fill="currentColor"/>
</g>
<g transform="translate(97.4470, 55.1189)">
<path transform="scale(0.0029, -0.0029)" d="M208 139c61 0 117 -33 117 -99c0 -71 -52 -119 -99 -147c-34 -20 -71 -32 -110 -32c-61 0 -116 33 -116 99c0 71 51 119 98 147c34 20 71 32 110 32z" fill="currentColor"/>
</g>
<g transform="translate(73.6446, 54.7504)">
<rect x="-0.0614" y="-0.8619" width="0.1228" height="1.8479" ry="0.0421" fill="currentColor"/>
</g>
<g transform="translate(98.3421, 54.7504)">
<rect x="-0.0614" y="-1.8773" width="0.1228" height="2.1265" ry="0.0421" fill="currentColor"/>
</g>
<g transform="translate(70.2060, 54.7504)">
<rect x="-0.0614" y="-1.4702" width="0.1228" height="2.0878" ry="0.0421" fill="currentColor"/>
</g>
<g transform="translate(69.3109, 55.4873)">
<path transform="scale(0.0029, -0.0029)" d="M208 139c61 0 117 -33 117 -99c0 -71 -52 -119 -99 -147c-34 -20 -71 -32 -110 -32c-61 0 -116 33 -116 99c0 71 51 119 98 147c34 20 71 32 110 32z" fill="currentColor"/>
</g>
<g transform="translate(68.0495, 54.7504)">
<rect x="-0.0614" y="-1.3476" width="0.1228" height="2.3336" ry="0.0421" fill="currentColor"/>
</g>
<g transform="translate(67.1544, 55.8557)">
<path transform="scale(0.0029, -0.0029)" d="M208 139c61 0 117 -33 117 -99c0 -71 -52 -119 -99 -147c-34 -20 -71 -32 -110 -32c-61 0 -116 33 -116 99c0 71 51 119 98 147c34 20 71 32 110 32z" fill="currentColor"/>
</g>
<g transform="translate(95.3686, 56.5926)">
<path transform="scale(0.0029, -0.0029)" d="M0 0c0 30 25 55 55 55s54 -25 54 -55s-24 -55 -54 -55s-55 25 -55 55z" fill="currentColor"/>
</g>
<g transform="translate(94.1519, 54.7504)">
<rect x="-0.0614" y="1.9613" width="0.1228" height="1.7229" ry="0.0421" fill="currentColor"/>
</g>
<g transform="translate(72.8109, 54.7504)">
<rect x="-0.0614" y="3.0666" width="0.1228" height="1.7229" ry="0.0421" fill="currentColor"/>
</g>
</svg>
