<svg xmlns="http://www.w3.org/2000/svg" xmlns:xlink="http://www.w3.org/1999/xlink" version="1.2" width="594.00mm" height="420.00mm" viewBox="0.0000 -0.0000 355.8092 251.5823">
<style type="text/css">
<![CDATA[
tspan { white-space: pre; }
]]>
</style>
<g transform="translate(17.9702, 56.2241)">
<line stroke-linejoin="round" stroke-linecap="round" stroke-width="0.0944" stroke="currentColor" x1="0.0472" y1="0" x2="229.9775" y2="0"/>
</g>
<g transform="translate(17.9702, 55.4873)">
<line stroke-linejoin="round" stroke-linecap="round" stroke-width="0.0944" stroke="currentColor" x1="0.0472" y1="0" x2="229.9775" y2="0"/>
</g>
<g transform="translate(17.9702, 54.7504)">
<line stroke-linejoin="round" stroke-linecap="round" stroke-width="0.0944" stroke="currentColor" x1="0.0472" y1="0" x2="229.9775" y2="0"/>
</g>
<g transform="translate(17.9702, 54.0136)">
<line stroke-linejoin="round" stroke-linecap="round" stroke-width="0.0944" stroke="currentColor" x1="0.0472" y1="0" x2="229.9775" y2="0"/>
</g>
<g transform="translate(17.9702, 53.2768)">
<line stroke-linejoin="round" stroke-linecap="round" stroke-width="0.0944" stroke="currentColor" x1="0.0472" y1="0" x2="229.9775" y2="0"/>
</g>
<g transform="translate(191.2057, 54.7504)">
<rect x="0.0000" y="-1.4737" width="0.1794" height="2.9474" ry="0.0000" fill="currentColor"/>
</g>
<g transform="translate(247.8155, 54.7504)">
<rect x="0.0000" y="-1.4737" width="0.1794" height="2.9474" ry="0.0000" fill="currentColor"/>
</g>
<g transform="translate(106.6628, 54.7504)">
<rect x="0.0000" y="-1.4737" width="0.1794" height="2.9474" ry="0.0000" fill="currentColor"/>
</g>
<g transform="translate(135.5411, 54.7504)">
<rect x="0.0000" y="-1.4737" width="0.1794" height="2.9474" ry="0.0000" fill="currentColor"/>
</g>
<g transform="translate(78.7477, 54.7504)">
<rect x="0.0000" y="-1.4737" width="0.1794" height="2.9474" ry="0.0000" fill="currentColor"/>
</g>
<g transform="translate(163.4984, 54.7504)">
<rect x="0.0000" y="-1.4737" width="0.1794" height="2.9474" ry="0.0000" fill="currentColor"/>
</g>
<g transform="translate(218.9130, 54.7504)">
<rect x="0.0000" y="-1.4737" width="0.1794" height="2.9474" ry="0.0000" fill="currentColor"/>
</g>
<g transform="translate(51.3384, 54.7504)">
<rect x="0.0000" y="-1.4737" width="0.1794" height="2.9474" ry="0.0000" fill="currentColor"/>
</g>
<g transform="translate(17.9702, 51.0662)">
<rect x="221.2061" y="-0.0841" width="1.4347" height="0.1681" ry="0.0841" fill="currentColor"/>
</g>
<g transform="translate(17.9702, 51.8031)">
<rect x="221.2061" y="-0.0841" width="1.4347" height="0.1681" ry="0.0841" fill="currentColor"/>
</g>
<g transform="translate(17.9702, 52.5399)">
<rect x="221.2061" y="-0.0841" width="1.4347" height="0.1681" ry="0.0841" fill="currentColor"/>
</g>
<g transform="translate(17.9702, 51.8031)">
<rect x="218.8637" y="-0.0841" width="1.3706" height="0.1681" ry="0.0841" fill="currentColor"/>
</g>
<g transform="translate(17.9702, 52.5399)">
<rect x="218.7996" y="-0.0841" width="1.4347" height="0.1681" ry="0.0841" fill="currentColor"/>
</g>
<g transform="translate(17.9702, 52.5399)">
<rect x="216.0826" y="-0.0841" width="1.4347" height="0.1681" ry="0.0841" fill="currentColor"/>
</g>
<g transform="translate(17.9702, 52.5399)">
<rect x="211.7696" y="-0.0841" width="1.4347" height="0.1681" ry="0.0841" fill="currentColor"/>
</g>
<g transform="translate(17.9702, 56.9610)">
<rect x="175.9823" y="-0.0841" width="1.4347" height="0.1681" ry="0.0841" fill="currentColor"/>
</g>
<g transform="translate(17.9702, 52.5399)">
<rect x="170.8399" y="-0.0841" width="1.4347" height="0.1681" ry="0.0841" fill="currentColor"/>
</g>
<g transform="translate(17.9702, 56.9610)">
<rect x="148.2750" y="-0.0841" width="1.4347" height="0.1681" ry="0.0841" fill="currentColor"/>
</g>
<g transform="translate(17.9702, 52.5399)">
<rect x="143.1326" y="-0.0841" width="1.4347" height="0.1681" ry="0.0841" fill="currentColor"/>
</g>
<g transform="translate(17.9702, 52.5399)">
<rect x="140.7262" y="-0.0841" width="1.4347" height="0.1681" ry="0.0841" fill="currentColor"/>
</g>
<g transform="translate(17.9702, 56.9610)">
<rect x="94.7064" y="-0.0841" width="1.4347" height="0.1681" ry="0.0841" fill="currentColor"/>
</g>
<g transform="translate(17.9702, 56.9610)">
<rect x="92.3000" y="-0.0841" width="1.4347" height="0.1681" ry="0.0841" fill="currentColor"/>
</g>
<g transform="translate(17.9702, 57.6978)">
<rect x="92.3000" y="-0.0841" width="1.4347" height="0.1681" ry="0.0841" fill="currentColor"/>
</g>
<g transform="translate(17.9702, 56.9610)">
<rect x="90.4576" y="-0.0841" width="1.3706" height="0.1681" ry="0.0841" fill="currentColor"/>
</g>
<g transform="translate(17.9702, 56.9610)">
<rect x="79.0717" y="-0.0841" width="1.4347" height="0.1681" ry="0.0841" fill="currentColor"/>
</g>
<g transform="translate(17.9702, 57.6978)">
<rect x="79.0717" y="-0.0841" width="1.4347" height="0.1681" ry="0.0841" fill="currentColor"/>
</g>
<g transform="translate(17.9702, 56.9610)">
<rect x="76.9152" y="-0.0841" width="1.4347" height="0.1681" ry="0.0841" fill="currentColor"/>
</g>
<g transform="translate(17.9702, 57.6978)">
<rect x="76.9152" y="-0.0841" width="1.4347" height="0.1681" ry="0.0841" fill="currentColor"/>
</g>
<g transform="translate(17.9702, 56.9610)">
<rect x="74.7587" y="-0.0841" width="1.4347" height="0.1681" ry="0.0841" fill="currentColor"/>
</g>
<g transform="translate(17.9702, 56.9610)">
<rect x="72.8522" y="-0.0841" width="1.4347" height="0.1681" ry="0.0841" fill="currentColor"/>
</g>
<g transform="translate(17.9702, 56.9610)">
<rect x="51.2105" y="-0.0841" width="1.4347" height="0.1681" ry="0.0841" fill="currentColor"/>
</g>
<g transform="translate(17.9702, 57.6978)">
<rect x="51.2105" y="-0.0841" width="1.4347" height="0.1681" ry="0.0841" fill="currentColor"/>
</g>
<g transform="translate(17.9702, 56.9610)">
<rect x="49.0540" y="-0.0841" width="1.4347" height="0.1681" ry="0.0841" fill="currentColor"/>
</g>
<g transform="translate(17.9702, 56.9610)">
<rect x="47.1475" y="-0.0841" width="1.4347" height="0.1681" ry="0.0841" fill="currentColor"/>
</g>
<g transform="translate(17.9702, 56.9610)">
<rect x="24.2648" y="-0.0841" width="1.4347" height="0.1681" ry="0.0841" fill="currentColor"/>
</g>
<g transform="translate(17.9702, 56.9610)">
<rect x="22.3583" y="-0.0841" width="1.4347" height="0.1681" ry="0.0841" fill="currentColor"/>
</g>
<g transform="translate(173.7038, 54.3820)">
<path transform="scale(0.0029, -0.0029)" d="M208 139c61 0 117 -33 117 -99c0 -71 -52 -119 -99 -147c-34 -20 -71 -32 -110 -32c-61 0 -116 33 -116 99c0 71 51 119 98 147c34 20 71 32 110 32z" fill="currentColor"/>
</g>
<g transform="translate(174.5989, 54.7504)">
<rect x="-0.0614" y="-2.2160" width="0.1228" height="1.7283" ry="0.0421" fill="currentColor"/>
</g>
<g transform="translate(175.6103, 55.4873)">
<path transform="scale(0.0029, -0.0029)" d="M208 139c61 0 117 -33 117 -99c0 -71 -52 -119 -99 -147c-34 -20 -71 -32 -110 -32c-61 0 -116 33 -116 99c0 71 51 119 98 147c34 20 71 32 110 32z" fill="currentColor"/>
</g>
<g transform="translate(176.5054, 54.7504)">
<rect x="-0.0614" y="-2.3852" width="0.1228" height="3.0028" ry="0.0421" fill="currentColor"/>
</g>
<g transform="translate(178.0168, 54.3820)">
<path transform="scale(0.0029, -0.0029)" d="M208 139c61 0 117 -33 117 -99c0 -71 -52 -119 -99 -147c-34 -20 -71 -32 -110 -32c-61 0 -116 33 -116 99c0 71 51 119 98 147c34 20 71 32 110 32z" fill="currentColor"/>
</g>
<g transform="translate(178.9119, 54.7504)">
<rect x="-0.0614" y="-2.5987" width="0.1228" height="2.1111" ry="0.0421" fill="currentColor"/>
</g>
<g transform="translate(166.4843, 56.9610)">
<path transform="scale(0.0029, -0.0029)" d="M208 139c61 0 117 -33 117 -99c0 -71 -52 -119 -99 -147c-34 -20 -71 -32 -110 -32c-61 0 -116 33 -116 99c0 71 51 119 98 147c34 20 71 32 110 32z" fill="currentColor"/>
</g>
<g transform="translate(167.3794, 54.7504)">
<rect x="-0.0614" y="-2.6058" width="0.1228" height="4.6971" ry="0.0421" fill="currentColor"/>
</g>
<g transform="translate(172.1924, 54.7504)">
<rect x="-0.0614" y="-2.0875" width="0.1228" height="2.7051" ry="0.0421" fill="currentColor"/>
</g>
<g transform="translate(168.8908, 56.2241)">
<path transform="scale(0.0029, -0.0029)" d="M208 139c61 0 117 -33 117 -99c0 -71 -52 -119 -99 -147c-34 -20 -71 -32 -110 -32c-61 0 -116 33 -116 99c0 71 51 119 98 147c34 20 71 32 110 32z" fill="currentColor"/>
</g>
<g transform="translate(169.7859, 54.7504)">
<rect x="-0.0614" y="-2.3467" width="0.1228" height="3.7011" ry="0.0421" fill="currentColor"/>
</g>
<g transform="translate(171.2973, 55.4873)">
<path transform="scale(0.0029, -0.0029)" d="M208 139c61 0 117 -33 117 -99c0 -71 -52 -119 -99 -147c-34 -20 -71 -32 -110 -32c-61 0 -116 33 -116 99c0 71 51 119 98 147c34 20 71 32 110 32z" fill="currentColor"/>
</g>
<g transform="translate(193.1802, 54.7504)">
<rect x="-0.0614" y="-2.8111" width="0.1228" height="1.9551" ry="0.0421" fill="currentColor"/>
</g>
<g transform="translate(189.0492, 52.5399)">
<path transform="scale(0.0029, -0.0029)" d="M208 139c61 0 117 -33 117 -99c0 -71 -52 -119 -99 -147c-34 -20 -71 -32 -110 -32c-61 0 -116 33 -116 99c0 71 51 119 98 147c34 20 71 32 110 32z" fill="currentColor"/>
</g>
<g transform="translate(189.9443, 54.7504)">
<rect x="-0.0614" y="-4.2805" width="0.1228" height="1.9508" ry="0.0421" fill="currentColor"/>
</g>
<g transform="translate(192.2851, 54.0136)">
<path transform="scale(0.0029, -0.0029)" d="M208 139c61 0 117 -33 117 -99c0 -71 -52 -119 -99 -147c-34 -20 -71 -32 -110 -32c-61 0 -116 33 -116 99c0 71 51 119 98 147c34 20 71 32 110 32z" fill="currentColor"/>
</g>
<g transform="translate(180.4233, 53.6452)">
<path transform="scale(0.0029, -0.0029)" d="M208 139c61 0 117 -33 117 -99c0 -71 -52 -119 -99 -147c-34 -20 -71 -32 -110 -32c-61 0 -116 33 -116 99c0 71 51 119 98 147c34 20 71 32 110 32z" fill="currentColor"/>
</g>
<g transform="translate(181.3184, 54.7504)">
<rect x="-0.0614" y="-2.8123" width="0.1228" height="1.5878" ry="0.0421" fill="currentColor"/>
</g>
<g transform="translate(182.3297, 55.1189)">
<path transform="scale(0.0029, -0.0029)" d="M208 139c61 0 117 -33 117 -99c0 -71 -52 -119 -99 -147c-34 -20 -71 -32 -110 -32c-61 0 -116 33 -116 99c0 71 51 119 98 147c34 20 71 32 110 32z" fill="currentColor"/>
</g>
<g transform="translate(183.2248, 54.7504)">
<rect x="-0.0614" y="-3.0879" width="0.1228" height="3.3371" ry="0.0421" fill="currentColor"/>
</g>
<g transform="translate(184.7362, 53.2768)">
<path transform="scale(0.0029, -0.0029)" d="M208 139c61 0 117 -33 117 -99c0 -71 -52 -119 -99 -147c-34 -20 -71 -32 -110 -32c-61 0 -116 33 -116 99c0 71 51 119 98 147c34 20 71 32 110 32z" fill="currentColor"/>
</g>
<g transform="translate(185.6313, 54.7504)">
<rect x="-0.0614" y="-3.5150" width="0.1228" height="1.9221" ry="0.0421" fill="currentColor"/>
</g>
<g transform="translate(186.8927, 52.9083)">
<path transform="scale(0.0029, -0.0029)" d="M208 139c61 0 117 -33 117 -99c0 -71 -52 -119 -99 -147c-34 -20 -71 -32 -110 -32c-61 0 -116 33 -116 99c0 71 51 119 98 147c34 20 71 32 110 32z" fill="currentColor"/>
</g>
<g transform="translate(187.7878, 54.7504)">
<rect x="-0.0614" y="-3.8978" width="0.1228" height="1.9364" ry="0.0421" fill="currentColor"/>
</g>
<g transform="translate(143.3400, 55.1189)">
<path transform="scale(0.0029, -0.0029)" d="M208 139c61 0 117 -33 117 -99c0 -71 -52 -119 -99 -147c-34 -20 -71 -32 -110 -32c-61 0 -116 33 -116 99c0 71 51 119 98 147c34 20 71 32 110 32z" fill="currentColor"/>
</g>
<g transform="translate(139.4221, 54.7504)">
<rect x="-0.0614" y="-1.6483" width="0.1228" height="3.3712" ry="0.0421" fill="currentColor"/>
</g>
<g transform="translate(140.9335, 55.8557)">
<path transform="scale(0.0029, -0.0029)" d="M208 139c61 0 117 -33 117 -99c0 -71 -52 -119 -99 -147c-34 -20 -71 -32 -110 -32c-61 0 -116 33 -116 99c0 71 51 119 98 147c34 20 71 32 110 32z" fill="currentColor"/>
</g>
<g transform="translate(141.8286, 54.7504)">
<rect x="-0.0614" y="-1.8619" width="0.1228" height="2.8479" ry="0.0421" fill="currentColor"/>
</g>
<g transform="translate(138.5270, 56.5926)">
<path transform="scale(0.0029, -0.0029)" d="M208 139c61 0 117 -33 117 -99c0 -71 -52 -119 -99 -147c-34 -20 -71 -32 -110 -32c-61 0 -116 33 -116 99c0 71 51 119 98 147c34 20 71 32 110 32z" fill="currentColor"/>
</g>
<g transform="translate(144.2351, 54.7504)">
<rect x="-0.0614" y="-2.0755" width="0.1228" height="2.3246" ry="0.0421" fill="currentColor"/>
</g>
<g transform="translate(145.7465, 54.0136)">
<path transform="scale(0.0029, -0.0029)" d="M208 139c61 0 117 -33 117 -99c0 -71 -52 -119 -99 -147c-34 -20 -71 -32 -110 -32c-61 0 -116 33 -116 99c0 71 51 119 98 147c34 20 71 32 110 32z" fill="currentColor"/>
</g>
<g transform="translate(146.6416, 54.7504)">
<rect x="-0.0614" y="-2.9528" width="0.1228" height="2.0967" ry="0.0421" fill="currentColor"/>
</g>
<g transform="translate(137.5157, 54.7504)">
<rect x="-0.0614" y="-1.4791" width="0.1228" height="2.4652" ry="0.0421" fill="currentColor"/>
</g>
<g transform="translate(241.3218, 54.7504)">
<path stroke-width="0.0755" stroke-linejoin="round" stroke-linecap="round" stroke="currentColor" fill="currentColor" d="M0.9612 -5.8933C2.0798 -6.5443 4.5158 -6.0281 5.2742 -4.9793L5.2742 -4.9793C4.4923 -5.9172 2.0563 -6.4335 0.9612 -5.8933z"/>
</g>
<g transform="translate(133.1346, 56.2241)">
<path transform="scale(0.0029, -0.0029)" d="M208 139c61 0 117 -33 117 -99c0 -71 -52 -119 -99 -147c-34 -20 -71 -32 -110 -32c-61 0 -116 33 -116 99c0 71 51 119 98 147c34 20 71 32 110 32z" fill="currentColor"/>
</g>
<g transform="translate(134.0297, 54.7504)">
<rect x="-0.0614" y="-2.0933" width="0.1228" height="3.4478" ry="0.0421" fill="currentColor"/>
</g>
<g transform="translate(136.6206, 55.8557)">
<path transform="scale(0.0029, -0.0029)" d="M208 139c61 0 117 -33 117 -99c0 -71 -52 -119 -99 -147c-34 -20 -71 -32 -110 -32c-61 0 -116 33 -116 99c0 71 51 119 98 147c34 20 71 32 110 32z" fill="currentColor"/>
</g>
<g transform="translate(147.6530, 55.1189)">
<path transform="scale(0.0029, -0.0029)" d="M208 139c61 0 117 -33 117 -99c0 -71 -52 -119 -99 -147c-34 -20 -71 -32 -110 -32c-61 0 -116 33 -116 99c0 71 51 119 98 147c34 20 71 32 110 32z" fill="currentColor"/>
</g>
<g transform="translate(156.7789, 52.9083)">
<path transform="scale(0.0029, -0.0029)" d="M208 139c61 0 117 -33 117 -99c0 -71 -52 -119 -99 -147c-34 -20 -71 -32 -110 -32c-61 0 -116 33 -116 99c0 71 51 119 98 147c34 20 71 32 110 32z" fill="currentColor"/>
</g>
<g transform="translate(157.6741, 54.7504)">
<rect x="-0.0614" y="-3.9843" width="0.1228" height="2.0230" ry="0.0421" fill="currentColor"/>
</g>
<g transform="translate(158.9354, 52.5399)">
<path transform="scale(0.0029, -0.0029)" d="M208 139c61 0 117 -33 117 -99c0 -71 -52 -119 -99 -147c-34 -20 -71 -32 -110 -32c-61 0 -116 33 -116 99c0 71 51 119 98 147c34 20 71 32 110 32z" fill="currentColor"/>
</g>
<g transform="translate(159.8305, 54.7504)">
<rect x="-0.0614" y="-4.3598" width="0.1228" height="2.0300" ry="0.0421" fill="currentColor"/>
</g>
<g transform="translate(161.3419, 52.1715)">
<path transform="scale(0.0029, -0.0029)" d="M208 139c61 0 117 -33 117 -99c0 -71 -52 -119 -99 -147c-34 -20 -71 -32 -110 -32c-61 0 -116 33 -116 99c0 71 51 119 98 147c34 20 71 32 110 32z" fill="currentColor"/>
</g>
<g transform="translate(162.2370, 54.7504)">
<rect x="-0.0614" y="-4.7788" width="0.1228" height="2.0806" ry="0.0421" fill="currentColor"/>
</g>
<g transform="translate(164.5778, 53.6452)">
<path transform="scale(0.0029, -0.0029)" d="M208 139c61 0 117 -33 117 -99c0 -71 -52 -119 -99 -147c-34 -20 -71 -32 -110 -32c-61 0 -116 33 -116 99c0 71 51 119 98 147c34 20 71 32 110 32z" fill="currentColor"/>
</g>
<g transform="translate(165.4729, 54.7504)">
<rect x="-0.0614" y="-2.8111" width="0.1228" height="1.5866" ry="0.0421" fill="currentColor"/>
</g>
<g transform="translate(152.4660, 53.2768)">
<path transform="scale(0.0029, -0.0029)" d="M208 139c61 0 117 -33 117 -99c0 -71 -52 -119 -99 -147c-34 -20 -71 -32 -110 -32c-61 0 -116 33 -116 99c0 71 51 119 98 147c34 20 71 32 110 32z" fill="currentColor"/>
</g>
<g transform="translate(148.5481, 54.7504)">
<rect x="-0.0614" y="-3.1220" width="0.1228" height="3.3712" ry="0.0421" fill="currentColor"/>
</g>
<g transform="translate(150.0595, 54.0136)">
<path transform="scale(0.0029, -0.0029)" d="M208 139c61 0 117 -33 117 -99c0 -71 -52 -119 -99 -147c-34 -20 -71 -32 -110 -32c-61 0 -116 33 -116 99c0 71 51 119 98 147c34 20 71 32 110 32z" fill="currentColor"/>
</g>
<g transform="translate(150.9546, 54.7504)">
<rect x="-0.0614" y="-3.3356" width="0.1228" height="2.4795" ry="0.0421" fill="currentColor"/>
</g>
<g transform="translate(153.3611, 54.7504)">
<rect x="-0.0614" y="-3.5491" width="0.1228" height="1.9562" ry="0.0421" fill="currentColor"/>
</g>
<g transform="translate(154.3725, 54.7504)">
<path transform="scale(0.0029, -0.0029)" d="M208 139c61 0 117 -33 117 -99c0 -71 -52 -119 -99 -147c-34 -20 -71 -32 -110 -32c-61 0 -116 33 -116 99c0 71 51 119 98 147c34 20 71 32 110 32z" fill="currentColor"/>
</g>
<g transform="translate(155.2676, 54.7504)">
<rect x="-0.0614" y="-3.5653" width="0.1228" height="3.4460" ry="0.0421" fill="currentColor"/>
</g>
<g transform="translate(237.9040, 54.7504)">
<rect x="-0.0614" y="-5.2812" width="0.1228" height="2.2146" ry="0.0421" fill="currentColor"/>
</g>
<g transform="translate(235.8483, 51.8031)">
<path transform="scale(0.0029, -0.0029)" d="M0 114c0 12 7 22 18 26l37 15v151c0 12 10 22 22 22s22 -10 22 -22v-134l77 29v152c0 12 10 22 22 22s22 -10 22 -22v-134l16 6c3 1 8 2 11 2c15 0 28 -12 28 -28v-50c0 -12 -7 -23 -18 -27l-37 -14v-152l16 7c3 1 8 2 11 2c15 0 28 -13 28 -29v-50c0 -12 -7 -22 -18 -26
l-37 -15v-151c0 -12 -10 -22 -22 -22s-22 10 -22 22v134l-77 -29v-152c0 -12 -10 -22 -22 -22s-22 10 -22 22v134l-16 -6c-3 -1 -8 -2 -11 -2c-15 0 -28 12 -28 28v50c0 12 7 23 18 27l37 14v152l-16 -7c-3 -1 -8 -2 -11 -2c-15 0 -28 13 -28 29v50zM176 91l-77 -30v-152
l77 30v152z" fill="currentColor"/>
</g>
<g transform="translate(239.4154, 51.0662)">
<path transform="scale(0.0029, -0.0029)" d="M208 139c61 0 117 -33 117 -99c0 -71 -52 -119 -99 -147c-34 -20 -71 -32 -110 -32c-61 0 -116 33 -116 99c0 71 51 119 98 147c34 20 71 32 110 32z" fill="currentColor"/>
</g>
<g transform="translate(240.3105, 54.7504)">
<rect x="-0.0614" y="-5.7521" width="0.1228" height="1.9487" ry="0.0421" fill="currentColor"/>
</g>
<g transform="translate(237.0089, 51.8031)">
<path transform="scale(0.0029, -0.0029)" d="M208 139c61 0 117 -33 117 -99c0 -71 -52 -119 -99 -147c-34 -20 -71 -32 -110 -32c-61 0 -116 33 -116 99c0 71 51 119 98 147c34 20 71 32 110 32z" fill="currentColor"/>
</g>
<g transform="translate(241.3218, 52.9083)">
<path transform="scale(0.0029, -0.0029)" d="M208 139c61 0 117 -33 117 -99c0 -71 -52 -119 -99 -147c-34 -20 -71 -32 -110 -32c-61 0 -116 33 -116 99c0 71 51 119 98 147c34 20 71 32 110 32z" fill="currentColor"/>
</g>
<g transform="translate(242.2169, 54.7504)">
<rect x="-0.0614" y="-5.3481" width="0.1228" height="3.3867" ry="0.0421" fill="currentColor"/>
</g>
<g transform="translate(243.4783, 53.2768)">
<path transform="scale(0.0029, -0.0029)" d="M208 139c61 0 117 -33 117 -99c0 -71 -52 -119 -99 -147c-34 -20 -71 -32 -110 -32c-61 0 -116 33 -116 99c0 71 51 119 98 147c34 20 71 32 110 32z" fill="currentColor"/>
</g>
<g transform="translate(244.3734, 54.7504)">
<rect x="-0.0614" y="-4.8911" width="0.1228" height="3.2982" ry="0.0421" fill="currentColor"/>
</g>
<g transform="translate(231.8854, 53.6452)">
<path transform="scale(0.0029, -0.0029)" d="M208 139c61 0 117 -33 117 -99c0 -71 -52 -119 -99 -147c-34 -20 -71 -32 -110 -32c-61 0 -116 33 -116 99c0 71 51 119 98 147c34 20 71 32 110 32z" fill="currentColor"/>
</g>
<g transform="translate(228.4675, 54.7504)">
<rect x="-0.0614" y="-3.0725" width="0.1228" height="1.8480" ry="0.0421" fill="currentColor"/>
</g>
<g transform="translate(229.9789, 52.5399)">
<path transform="scale(0.0029, -0.0029)" d="M208 139c61 0 117 -33 117 -99c0 -71 -52 -119 -99 -147c-34 -20 -71 -32 -110 -32c-61 0 -116 33 -116 99c0 71 51 119 98 147c34 20 71 32 110 32z" fill="currentColor"/>
</g>
<g transform="translate(230.8740, 54.7504)">
<rect x="-0.0614" y="-4.5570" width="0.1228" height="2.2272" ry="0.0421" fill="currentColor"/>
</g>
<g transform="translate(232.7805, 54.7504)">
<rect x="-0.0614" y="-4.7534" width="0.1228" height="3.5289" ry="0.0421" fill="currentColor"/>
</g>
<g transform="translate(234.2919, 52.5399)">
<path transform="scale(0.0029, -0.0029)" d="M208 139c61 0 117 -33 117 -99c0 -71 -52 -119 -99 -147c-34 -20 -71 -32 -110 -32c-61 0 -116 33 -116 99c0 71 51 119 98 147c34 20 71 32 110 32z" fill="currentColor"/>
</g>
<g transform="translate(235.1870, 54.7504)">
<rect x="-0.0614" y="-5.0013" width="0.1228" height="2.6715" ry="0.0421" fill="currentColor"/>
</g>
<g transform="translate(156.7789, 54.7504)">
<path stroke-width="0.0755" stroke-linejoin="round" stroke-linecap="round" stroke="currentColor" fill="currentColor" d="M0.8404 -4.5296C1.6643 -5.5779 4.2737 -6.0323 5.4034 -5.3240L5.4034 -5.3240C4.2931 -5.9206 1.6837 -5.4663 0.8404 -4.5296z"/>
</g>
<g transform="translate(70.2535, 52.6695)">
<polygon stroke-linejoin="round" stroke-linecap="round" stroke-width="0.0842" fill="currentColor" stroke="currentColor" points="7.0021 -0.1347 7.0021 0.1347 0.0421 0.1347 0.0421 -0.1347"/>
</g>
<g transform="translate(70.2535, 53.2768)">
<polygon stroke-linejoin="round" stroke-linecap="round" stroke-width="0.0842" fill="currentColor" stroke="currentColor" points="7.0021 -0.1347 7.0021 0.1347 0.0421 0.1347 0.0421 -0.1347"/>
</g>
<g transform="translate(80.6608, 52.6695)">
<polygon stroke-linejoin="round" stroke-linecap="round" stroke-width="0.0842" fill="currentColor" stroke="currentColor" points="7.0021 -0.1347 7.0021 0.1347 0.0421 0.1347 0.0421 -0.1347"/>
</g>
<g transform="translate(80.6608, 53.2768)">
<polygon stroke-linejoin="round" stroke-linecap="round" stroke-width="0.0842" fill="currentColor" stroke="currentColor" points="7.0021 -0.1347 7.0021 0.1347 0.0421 0.1347 0.0421 -0.1347"/>
</g>
<g transform="translate(82.2336, 54.7504)">
<path stroke-width="0.0755" stroke-linejoin="round" stroke-linecap="round" stroke="currentColor" fill="currentColor" d="M0.9427 -2.6262C2.9389 -3.6363 13.9732 -1.9662 15.5811 -0.4106L15.5811 -0.4106C13.9563 -1.8541 2.9219 -3.5242 0.9427 -2.6262z"/>
</g>
<g transform="translate(89.7388, 54.3820)">
<polygon stroke-linejoin="round" stroke-linecap="round" stroke-width="0.0842" fill="currentColor" stroke="currentColor" points="6.3001 0.2337 6.3001 0.5032 0.0421 0.1347 0.0421 -0.1347"/>
</g>
<g transform="translate(89.7388, 54.9892)">
<polygon stroke-linejoin="round" stroke-linecap="round" stroke-width="0.0842" fill="currentColor" stroke="currentColor" points="6.3001 0.2337 6.3001 0.5032 0.0421 0.1347 0.0421 -0.1347"/>
</g>
<g transform="translate(98.1147, 52.6695)">
<polygon stroke-linejoin="round" stroke-linecap="round" stroke-width="0.0842" fill="currentColor" stroke="currentColor" points="7.0560 -0.1347 7.0560 0.1347 0.0421 0.1347 0.0421 -0.1347"/>
</g>
<g transform="translate(98.1147, 53.2768)">
<polygon stroke-linejoin="round" stroke-linecap="round" stroke-width="0.0842" fill="currentColor" stroke="currentColor" points="7.0560 -0.1347 7.0560 0.1347 0.0421 0.1347 0.0421 -0.1347"/>
</g>
<g transform="translate(109.4365, 54.7504)">
<polygon stroke-linejoin="round" stroke-linecap="round" stroke-width="0.0842" fill="currentColor" stroke="currentColor" points="6.8001 -0.7420 6.8001 -0.4725 0.0421 0.1347 0.0421 -0.1347"/>
</g>
<g transform="translate(109.4365, 55.3577)">
<polygon stroke-linejoin="round" stroke-linecap="round" stroke-width="0.0842" fill="currentColor" stroke="currentColor" points="6.8001 -0.7420 6.8001 -0.4725 0.0421 0.1347 0.0421 -0.1347"/>
</g>
<g transform="translate(118.5624, 52.5399)">
<polygon stroke-linejoin="round" stroke-linecap="round" stroke-width="0.0842" fill="currentColor" stroke="currentColor" points="7.1107 -0.7420 7.1107 -0.4725 0.0421 0.1347 0.0421 -0.1347"/>
</g>
<g transform="translate(118.5624, 53.1471)">
<polygon stroke-linejoin="round" stroke-linecap="round" stroke-width="0.0842" fill="currentColor" stroke="currentColor" points="7.1107 -0.7420 7.1107 -0.4725 0.0421 0.1347 0.0421 -0.1347"/>
</g>
<g transform="translate(127.9989, 51.4347)">
<polygon stroke-linejoin="round" stroke-linecap="round" stroke-width="0.0842" fill="currentColor" stroke="currentColor" points="6.0501 1.1002 6.0501 1.3696 0.0421 0.1347 0.0421 -0.1347"/>
</g>
<g transform="translate(127.9989, 52.0419)">
<polygon stroke-linejoin="round" stroke-linecap="round" stroke-width="0.0842" fill="currentColor" stroke="currentColor" points="6.0501 1.1002 6.0501 1.3696 0.0421 0.1347 0.0421 -0.1347"/>
</g>
<g transform="translate(137.4543, 53.2768)">
<polygon stroke-linejoin="round" stroke-linecap="round" stroke-width="0.0842" fill="currentColor" stroke="currentColor" points="6.8001 -0.7420 6.8001 -0.4725 0.0421 0.1347 0.0421 -0.1347"/>
</g>
<g transform="translate(137.4543, 53.8840)">
<polygon stroke-linejoin="round" stroke-linecap="round" stroke-width="0.0842" fill="currentColor" stroke="currentColor" points="6.8001 -0.7420 6.8001 -0.4725 0.0421 0.1347 0.0421 -0.1347"/>
</g>
<g transform="translate(146.5802, 51.8031)">
<polygon stroke-linejoin="round" stroke-linecap="round" stroke-width="0.0842" fill="currentColor" stroke="currentColor" points="6.8001 -0.7420 6.8001 -0.4725 0.0421 0.1347 0.0421 -0.1347"/>
</g>
<g transform="translate(146.5802, 52.4103)">
<polygon stroke-linejoin="round" stroke-linecap="round" stroke-width="0.0842" fill="currentColor" stroke="currentColor" points="6.8001 -0.7420 6.8001 -0.4725 0.0421 0.1347 0.0421 -0.1347"/>
</g>
<g transform="translate(155.2062, 51.1959)">
<polygon stroke-linejoin="round" stroke-linecap="round" stroke-width="0.0842" fill="currentColor" stroke="currentColor" points="7.0501 -1.3696 7.0501 -1.1002 0.0421 0.1347 0.0421 -0.1347"/>
</g>
<g transform="translate(155.2062, 51.8031)">
<polygon stroke-linejoin="round" stroke-linecap="round" stroke-width="0.0842" fill="currentColor" stroke="currentColor" points="7.0501 -1.3696 7.0501 -1.1002 0.0421 0.1347 0.0421 -0.1347"/>
</g>
<g transform="translate(61.8775, 54.1432)">
<polygon stroke-linejoin="round" stroke-linecap="round" stroke-width="0.0842" fill="currentColor" stroke="currentColor" points="6.3001 0.4725 6.3001 0.7420 0.0421 0.1347 0.0421 -0.1347"/>
</g>
<g transform="translate(61.8775, 54.7504)">
<polygon stroke-linejoin="round" stroke-linecap="round" stroke-width="0.0842" fill="currentColor" stroke="currentColor" points="6.3001 0.4725 6.3001 0.7420 0.0421 0.1347 0.0421 -0.1347"/>
</g>
<g transform="translate(165.4116, 51.9327)">
<polygon stroke-linejoin="round" stroke-linecap="round" stroke-width="0.0842" fill="currentColor" stroke="currentColor" points="6.8001 0.6021 6.8001 0.8716 0.0421 0.1347 0.0421 -0.1347"/>
</g>
<g transform="translate(165.4116, 52.5399)">
<polygon stroke-linejoin="round" stroke-linecap="round" stroke-width="0.0842" fill="currentColor" stroke="currentColor" points="6.8001 0.6021 6.8001 0.8716 0.0421 0.1347 0.0421 -0.1347"/>
</g>
<g transform="translate(174.5375, 52.5399)">
<polygon stroke-linejoin="round" stroke-linecap="round" stroke-width="0.0842" fill="currentColor" stroke="currentColor" points="6.8001 -0.7420 6.8001 -0.4725 0.0421 0.1347 0.0421 -0.1347"/>
</g>
<g transform="translate(174.5375, 53.1471)">
<polygon stroke-linejoin="round" stroke-linecap="round" stroke-width="0.0842" fill="currentColor" stroke="currentColor" points="6.8001 -0.7420 6.8001 -0.4725 0.0421 0.1347 0.0421 -0.1347"/>
</g>
<g transform="translate(183.1635, 51.6735)">
<polygon stroke-linejoin="round" stroke-linecap="round" stroke-width="0.0842" fill="currentColor" stroke="currentColor" points="6.8001 -1.3492 6.8001 -1.0797 0.0421 0.1347 0.0421 -0.1347"/>
</g>
<g transform="translate(183.1635, 52.2807)">
<polygon stroke-linejoin="round" stroke-linecap="round" stroke-width="0.0842" fill="currentColor" stroke="currentColor" points="6.8001 -1.3492 6.8001 -1.0797 0.0421 0.1347 0.0421 -0.1347"/>
</g>
<g transform="translate(184.7362, 54.7504)">
<path stroke-width="0.0755" stroke-linejoin="round" stroke-linecap="round" stroke="currentColor" fill="currentColor" d="M0.8394 -4.0603C1.6285 -5.0796 4.0606 -5.5113 5.1524 -4.8258L5.1524 -4.8258C4.0804 -5.3997 1.6483 -4.9681 0.8394 -4.0603z"/>
</g>
<g transform="translate(193.1188, 51.9327)">
<polygon stroke-linejoin="round" stroke-linecap="round" stroke-width="0.0842" fill="currentColor" stroke="currentColor" points="6.8001 0.6021 6.8001 0.8716 0.0421 0.1347 0.0421 -0.1347"/>
</g>
<g transform="translate(193.1188, 52.5399)">
<polygon stroke-linejoin="round" stroke-linecap="round" stroke-width="0.0842" fill="currentColor" stroke="currentColor" points="6.8001 0.6021 6.8001 0.8716 0.0421 0.1347 0.0421 -0.1347"/>
</g>
<g transform="translate(202.2448, 52.5399)">
<polygon stroke-linejoin="round" stroke-linecap="round" stroke-width="0.0842" fill="currentColor" stroke="currentColor" points="6.8001 -0.7420 6.8001 -0.4725 0.0421 0.1347 0.0421 -0.1347"/>
</g>
<g transform="translate(202.2448, 53.1471)">
<polygon stroke-linejoin="round" stroke-linecap="round" stroke-width="0.0842" fill="currentColor" stroke="currentColor" points="6.8001 -0.7420 6.8001 -0.4725 0.0421 0.1347 0.0421 -0.1347"/>
</g>
<g transform="translate(210.8707, 51.9327)">
<polygon stroke-linejoin="round" stroke-linecap="round" stroke-width="0.0842" fill="currentColor" stroke="currentColor" points="6.8001 -1.3696 6.8001 -1.1002 0.0421 0.1347 0.0421 -0.1347"/>
</g>
<g transform="translate(210.8707, 52.5399)">
<polygon stroke-linejoin="round" stroke-linecap="round" stroke-width="0.0842" fill="currentColor" stroke="currentColor" points="6.8001 -1.3696 6.8001 -1.1002 0.0421 0.1347 0.0421 -0.1347"/>
</g>
<g transform="translate(212.4435, 54.7504)">
<path stroke-width="0.0755" stroke-linejoin="round" stroke-linecap="round" stroke="currentColor" fill="currentColor" d="M0.8385 -3.8084C1.6249 -4.8303 4.0574 -5.2694 5.1515 -4.5868L5.1515 -4.5868C4.0775 -5.1578 1.6451 -4.7188 0.8385 -3.8084z"/>
</g>
<g transform="translate(221.6866, 52.1715)">
<polygon stroke-linejoin="round" stroke-linecap="round" stroke-width="0.0842" fill="currentColor" stroke="currentColor" points="6.8001 -0.6328 6.8001 -0.3633 0.0421 0.1347 0.0421 -0.1347"/>
</g>
<g transform="translate(221.6866, 52.7787)">
<polygon stroke-linejoin="round" stroke-linecap="round" stroke-width="0.0842" fill="currentColor" stroke="currentColor" points="6.8001 -0.6328 6.8001 -0.3633 0.0421 0.1347 0.0421 -0.1347"/>
</g>
<g transform="translate(230.8126, 50.1998)">
<polygon stroke-linejoin="round" stroke-linecap="round" stroke-width="0.0842" fill="currentColor" stroke="currentColor" points="7.1107 -0.8716 7.1107 -0.6021 0.0421 0.1347 0.0421 -0.1347"/>
</g>
<g transform="translate(230.8126, 50.8070)">
<polygon stroke-linejoin="round" stroke-linecap="round" stroke-width="0.0842" fill="currentColor" stroke="currentColor" points="7.1107 -0.8716 7.1107 -0.6021 0.0421 0.1347 0.0421 -0.1347"/>
</g>
<g transform="translate(240.2491, 48.9853)">
<polygon stroke-linejoin="round" stroke-linecap="round" stroke-width="0.0842" fill="currentColor" stroke="currentColor" points="6.3001 1.2093 6.3001 1.4788 0.0421 0.1347 0.0421 -0.1347"/>
</g>
<g transform="translate(240.2491, 49.5926)">
<polygon stroke-linejoin="round" stroke-linecap="round" stroke-width="0.0842" fill="currentColor" stroke="currentColor" points="6.3001 1.2093 6.3001 1.4788 0.0421 0.1347 0.0421 -0.1347"/>
</g>
<g transform="translate(245.6348, 53.6452)">
<path transform="scale(0.0029, -0.0029)" d="M208 139c61 0 117 -33 117 -99c0 -71 -52 -119 -99 -147c-34 -20 -71 -32 -110 -32c-61 0 -116 33 -116 99c0 71 51 119 98 147c34 20 71 32 110 32z" fill="currentColor"/>
</g>
<g transform="translate(246.5299, 54.7504)">
<rect x="-0.0614" y="-4.4341" width="0.1228" height="3.2096" ry="0.0421" fill="currentColor"/>
</g>
<g transform="translate(227.5724, 53.6452)">
<path transform="scale(0.0029, -0.0029)" d="M208 139c61 0 117 -33 117 -99c0 -71 -52 -119 -99 -147c-34 -20 -71 -32 -110 -32c-61 0 -116 33 -116 99c0 71 51 119 98 147c34 20 71 32 110 32z" fill="currentColor"/>
</g>
<g transform="translate(26.3059, 52.1715)">
<polygon stroke-linejoin="round" stroke-linecap="round" stroke-width="0.0842" fill="currentColor" stroke="currentColor" points="6.5501 -0.1347 6.5501 0.1347 0.0421 0.1347 0.0421 -0.1347"/>
</g>
<g transform="translate(26.3059, 52.7787)">
<polygon stroke-linejoin="round" stroke-linecap="round" stroke-width="0.0842" fill="currentColor" stroke="currentColor" points="6.5501 -0.1347 6.5501 0.1347 0.0421 0.1347 0.0421 -0.1347"/>
</g>
<g transform="translate(27.8786, 54.7504)">
<path stroke-width="0.0755" stroke-linejoin="round" stroke-linecap="round" stroke="currentColor" fill="currentColor" d="M0.9469 -3.1242C2.9354 -4.1037 13.5619 -2.3465 15.1291 -0.7790L15.1291 -0.7790C13.5434 -2.2347 2.9169 -3.9919 0.9469 -3.1242z"/>
</g>
<g transform="translate(34.9318, 53.4064)">
<polygon stroke-linejoin="round" stroke-linecap="round" stroke-width="0.0842" fill="currentColor" stroke="currentColor" points="6.5501 0.4725 6.5501 0.7420 0.0421 0.1347 0.0421 -0.1347"/>
</g>
<g transform="translate(34.9318, 54.0136)">
<polygon stroke-linejoin="round" stroke-linecap="round" stroke-width="0.0842" fill="currentColor" stroke="currentColor" points="6.5501 0.4725 6.5501 0.7420 0.0421 0.1347 0.0421 -0.1347"/>
</g>
<g transform="translate(43.3078, 52.1715)">
<polygon stroke-linejoin="round" stroke-linecap="round" stroke-width="0.0842" fill="currentColor" stroke="currentColor" points="6.5501 -0.1347 6.5501 0.1347 0.0421 0.1347 0.0421 -0.1347"/>
</g>
<g transform="translate(43.3078, 52.7787)">
<polygon stroke-linejoin="round" stroke-linecap="round" stroke-width="0.0842" fill="currentColor" stroke="currentColor" points="6.5501 -0.1347 6.5501 0.1347 0.0421 0.1347 0.0421 -0.1347"/>
</g>
<g transform="translate(53.2516, 52.6695)">
<polygon stroke-linejoin="round" stroke-linecap="round" stroke-width="0.0842" fill="currentColor" stroke="currentColor" points="6.5501 -0.1347 6.5501 0.1347 0.0421 0.1347 0.0421 -0.1347"/>
</g>
<g transform="translate(53.2516, 53.2768)">
<polygon stroke-linejoin="round" stroke-linecap="round" stroke-width="0.0842" fill="currentColor" stroke="currentColor" points="6.5501 -0.1347 6.5501 0.1347 0.0421 0.1347 0.0421 -0.1347"/>
</g>
<g transform="translate(54.8244, 54.7504)">
<path stroke-width="0.0755" stroke-linejoin="round" stroke-linecap="round" stroke="currentColor" fill="currentColor" d="M0.9441 -2.6262C2.9228 -3.6232 13.5487 -1.9636 15.1291 -0.4106L15.1291 -0.4106C13.5312 -1.8516 2.9053 -3.5113 0.9441 -2.6262z"/>
</g>
<g transform="translate(208.1305, 54.0136)">
<path transform="scale(0.0029, -0.0029)" d="M208 139c61 0 117 -33 117 -99c0 -71 -52 -119 -99 -147c-34 -20 -71 -32 -110 -32c-61 0 -116 33 -116 99c0 71 51 119 98 147c34 20 71 32 110 32z" fill="currentColor"/>
</g>
<g transform="translate(204.2127, 54.7504)">
<rect x="-0.0614" y="-2.3852" width="0.1228" height="3.3712" ry="0.0421" fill="currentColor"/>
</g>
<g transform="translate(205.7240, 54.7504)">
<path transform="scale(0.0029, -0.0029)" d="M208 139c61 0 117 -33 117 -99c0 -71 -52 -119 -99 -147c-34 -20 -71 -32 -110 -32c-61 0 -116 33 -116 99c0 71 51 119 98 147c34 20 71 32 110 32z" fill="currentColor"/>
</g>
<g transform="translate(206.6192, 54.7504)">
<rect x="-0.0614" y="-2.5987" width="0.1228" height="2.4795" ry="0.0421" fill="currentColor"/>
</g>
<g transform="translate(203.3176, 55.8557)">
<path transform="scale(0.0029, -0.0029)" d="M208 139c61 0 117 -33 117 -99c0 -71 -52 -119 -99 -147c-34 -20 -71 -32 -110 -32c-61 0 -116 33 -116 99c0 71 51 119 98 147c34 20 71 32 110 32z" fill="currentColor"/>
</g>
<g transform="translate(209.0256, 54.7504)">
<rect x="-0.0614" y="-2.8123" width="0.1228" height="1.9562" ry="0.0421" fill="currentColor"/>
</g>
<g transform="translate(210.0370, 55.4873)">
<path transform="scale(0.0029, -0.0029)" d="M208 139c61 0 117 -33 117 -99c0 -71 -52 -119 -99 -147c-34 -20 -71 -32 -110 -32c-61 0 -116 33 -116 99c0 71 51 119 98 147c34 20 71 32 110 32z" fill="currentColor"/>
</g>
<g transform="translate(210.9321, 54.7504)">
<rect x="-0.0614" y="-2.8288" width="0.1228" height="3.4464" ry="0.0421" fill="currentColor"/>
</g>
<g transform="translate(199.0046, 55.8557)">
<path transform="scale(0.0029, -0.0029)" d="M208 139c61 0 117 -33 117 -99c0 -71 -52 -119 -99 -147c-34 -20 -71 -32 -110 -32c-61 0 -116 33 -116 99c0 71 51 119 98 147c34 20 71 32 110 32z" fill="currentColor"/>
</g>
<g transform="translate(195.0867, 54.7504)">
<rect x="-0.0614" y="-2.6058" width="0.1228" height="5.0655" ry="0.0421" fill="currentColor"/>
</g>
<g transform="translate(196.5981, 56.5926)">
<path transform="scale(0.0029, -0.0029)" d="M208 139c61 0 117 -33 117 -99c0 -71 -52 -119 -99 -147c-34 -20 -71 -32 -110 -32c-61 0 -116 33 -116 99c0 71 51 119 98 147c34 20 71 32 110 32z" fill="currentColor"/>
</g>
<g transform="translate(197.4932, 54.7504)">
<rect x="-0.0614" y="-2.3467" width="0.1228" height="4.0695" ry="0.0421" fill="currentColor"/>
</g>
<g transform="translate(212.4435, 53.6452)">
<path transform="scale(0.0029, -0.0029)" d="M208 139c61 0 117 -33 117 -99c0 -71 -52 -119 -99 -147c-34 -20 -71 -32 -110 -32c-61 0 -116 33 -116 99c0 71 51 119 98 147c34 20 71 32 110 32z" fill="currentColor"/>
</g>
<g transform="translate(199.8997, 54.7504)">
<rect x="-0.0614" y="-2.0875" width="0.1228" height="3.0735" ry="0.0421" fill="currentColor"/>
</g>
<g transform="translate(201.4111, 54.7504)">
<path transform="scale(0.0029, -0.0029)" d="M208 139c61 0 117 -33 117 -99c0 -71 -52 -119 -99 -147c-34 -20 -71 -32 -110 -32c-61 0 -116 33 -116 99c0 71 51 119 98 147c34 20 71 32 110 32z" fill="currentColor"/>
</g>
<g transform="translate(202.3062, 54.7504)">
<rect x="-0.0614" y="-2.2160" width="0.1228" height="2.0967" ry="0.0421" fill="currentColor"/>
</g>
<g transform="translate(222.7594, 55.1189)">
<path transform="scale(0.0029, -0.0029)" d="M208 139c61 0 117 -33 117 -99c0 -71 -52 -119 -99 -147c-34 -20 -71 -32 -110 -32c-61 0 -116 33 -116 99c0 71 51 119 98 147c34 20 71 32 110 32z" fill="currentColor"/>
</g>
<g transform="translate(219.6924, 54.3820)">
<path transform="scale(0.0029, -0.0029)" d="M0 114c0 12 7 22 18 26l37 15v151c0 12 10 22 22 22s22 -10 22 -22v-134l77 29v152c0 12 10 22 22 22s22 -10 22 -22v-134l16 6c3 1 8 2 11 2c15 0 28 -12 28 -28v-50c0 -12 -7 -23 -18 -27l-37 -14v-152l16 7c3 1 8 2 11 2c15 0 28 -13 28 -29v-50c0 -12 -7 -22 -18 -26
l-37 -15v-151c0 -12 -10 -22 -22 -22s-22 10 -22 22v134l-77 -29v-152c0 -12 -10 -22 -22 -22s-22 10 -22 22v134l-16 -6c-3 -1 -8 -2 -11 -2c-15 0 -28 12 -28 28v50c0 12 7 23 18 27l37 14v152l-16 -7c-3 -1 -8 -2 -11 -2c-15 0 -28 13 -28 29v50zM176 91l-77 -30v-152
l77 30v152z" fill="currentColor"/>
</g>
<g transform="translate(223.6545, 54.7504)">
<rect x="-0.0614" y="-2.7222" width="0.1228" height="2.9714" ry="0.0421" fill="currentColor"/>
</g>
<g transform="translate(225.1659, 54.3820)">
<path transform="scale(0.0029, -0.0029)" d="M208 139c61 0 117 -33 117 -99c0 -71 -52 -119 -99 -147c-34 -20 -71 -32 -110 -32c-61 0 -116 33 -116 99c0 71 51 119 98 147c34 20 71 32 110 32z" fill="currentColor"/>
</g>
<g transform="translate(226.0610, 54.7504)">
<rect x="-0.0614" y="-2.8974" width="0.1228" height="2.4097" ry="0.0421" fill="currentColor"/>
</g>
<g transform="translate(216.7565, 52.9083)">
<path transform="scale(0.0029, -0.0029)" d="M208 139c61 0 117 -33 117 -99c0 -71 -52 -119 -99 -147c-34 -20 -71 -32 -110 -32c-61 0 -116 33 -116 99c0 71 51 119 98 147c34 20 71 32 110 32z" fill="currentColor"/>
</g>
<g transform="translate(213.3386, 54.7504)">
<rect x="-0.0614" y="-3.2631" width="0.1228" height="2.0387" ry="0.0421" fill="currentColor"/>
</g>
<g transform="translate(214.6000, 53.2768)">
<path transform="scale(0.0029, -0.0029)" d="M208 139c61 0 117 -33 117 -99c0 -71 -52 -119 -99 -147c-34 -20 -71 -32 -110 -32c-61 0 -116 33 -116 99c0 71 51 119 98 147c34 20 71 32 110 32z" fill="currentColor"/>
</g>
<g transform="translate(215.4951, 54.7504)">
<rect x="-0.0614" y="-3.6523" width="0.1228" height="2.0594" ry="0.0421" fill="currentColor"/>
</g>
<g transform="translate(194.1916, 57.3294)">
<path transform="scale(0.0029, -0.0029)" d="M208 139c61 0 117 -33 117 -99c0 -71 -52 -119 -99 -147c-34 -20 -71 -32 -110 -32c-61 0 -116 33 -116 99c0 71 51 119 98 147c34 20 71 32 110 32z" fill="currentColor"/>
</g>
<g transform="translate(217.6516, 54.7504)">
<rect x="-0.0614" y="-4.0416" width="0.1228" height="2.0802" ry="0.0421" fill="currentColor"/>
</g>
<g transform="translate(220.8529, 54.3820)">
<path transform="scale(0.0029, -0.0029)" d="M208 139c61 0 117 -33 117 -99c0 -71 -52 -119 -99 -147c-34 -20 -71 -32 -110 -32c-61 0 -116 33 -116 99c0 71 51 119 98 147c34 20 71 32 110 32z" fill="currentColor"/>
</g>
<g transform="translate(221.7480, 54.7504)">
<rect x="-0.0614" y="-2.5834" width="0.1228" height="2.0958" ry="0.0421" fill="currentColor"/>
</g>
<g transform="translate(61.0438, 56.2241)">
<path transform="scale(0.0029, -0.0029)" d="M208 139c61 0 117 -33 117 -99c0 -71 -52 -119 -99 -147c-34 -20 -71 -32 -110 -32c-61 0 -116 33 -116 99c0 71 51 119 98 147c34 20 71 32 110 32z" fill="currentColor"/>
</g>
<g transform="translate(61.9389, 54.7504)">
<rect x="-0.0614" y="-0.6013" width="0.1228" height="1.9558" ry="0.0421" fill="currentColor"/>
</g>
<g transform="translate(63.2003, 56.5926)">
<path transform="scale(0.0029, -0.0029)" d="M208 139c61 0 117 -33 117 -99c0 -71 -52 -119 -99 -147c-34 -20 -71 -32 -110 -32c-61 0 -116 33 -116 99c0 71 51 119 98 147c34 20 71 32 110 32z" fill="currentColor"/>
</g>
<g transform="translate(64.0954, 54.7504)">
<rect x="-0.0614" y="-0.3949" width="0.1228" height="2.1178" ry="0.0421" fill="currentColor"/>
</g>
<g transform="translate(65.3568, 56.9610)">
<path transform="scale(0.0029, -0.0029)" d="M208 139c61 0 117 -33 117 -99c0 -71 -52 -119 -99 -147c-34 -20 -71 -32 -110 -32c-61 0 -116 33 -116 99c0 71 51 119 98 147c34 20 71 32 110 32z" fill="currentColor"/>
</g>
<g transform="translate(66.2519, 54.7504)">
<rect x="-0.0614" y="-0.1884" width="0.1228" height="2.2797" ry="0.0421" fill="currentColor"/>
</g>
<g transform="translate(67.2633, 57.3294)">
<path transform="scale(0.0029, -0.0029)" d="M208 139c61 0 117 -33 117 -99c0 -71 -52 -119 -99 -147c-34 -20 -71 -32 -110 -32c-61 0 -116 33 -116 99c0 71 51 119 98 147c34 20 71 32 110 32z" fill="currentColor"/>
</g>
<g transform="translate(68.1584, 54.7504)">
<rect x="-0.0614" y="-0.0059" width="0.1228" height="2.4656" ry="0.0421" fill="currentColor"/>
</g>
<g transform="translate(54.8244, 54.3820)">
<path transform="scale(0.0029, -0.0029)" d="M208 139c61 0 117 -33 117 -99c0 -71 -52 -119 -99 -147c-34 -20 -71 -32 -110 -32c-61 0 -116 33 -116 99c0 71 51 119 98 147c34 20 71 32 110 32z" fill="currentColor"/>
</g>
<g transform="translate(55.7195, 54.7504)">
<rect x="-0.0614" y="-2.0809" width="0.1228" height="1.5933" ry="0.0421" fill="currentColor"/>
</g>
<g transform="translate(56.7308, 55.4873)">
<path transform="scale(0.0029, -0.0029)" d="M208 139c61 0 117 -33 117 -99c0 -71 -52 -119 -99 -147c-34 -20 -71 -32 -110 -32c-61 0 -116 33 -116 99c0 71 51 119 98 147c34 20 71 32 110 32z" fill="currentColor"/>
</g>
<g transform="translate(57.6259, 54.7504)">
<rect x="-0.0614" y="-2.0809" width="0.1228" height="2.6985" ry="0.0421" fill="currentColor"/>
</g>
<g transform="translate(58.8873, 55.8557)">
<path transform="scale(0.0029, -0.0029)" d="M208 139c61 0 117 -33 117 -99c0 -71 -52 -119 -99 -147c-34 -20 -71 -32 -110 -32c-61 0 -116 33 -116 99c0 71 51 119 98 147c34 20 71 32 110 32z" fill="currentColor"/>
</g>
<g transform="translate(59.7824, 54.7504)">
<rect x="-0.0614" y="-2.0809" width="0.1228" height="3.0669" ry="0.0421" fill="currentColor"/>
</g>
<g transform="translate(75.4017, 56.2241)">
<path transform="scale(0.0029, -0.0029)" d="M33 35l-2 -60v-11c0 -21 2 -43 5 -64c42 38 87 81 87 138c0 32 -13 63 -41 63c-31 0 -48 -32 -49 -66zM32 446l-9 -337c25 26 59 40 95 40c50 0 82 -51 82 -105c0 -77 -80 -117 -137 -169c-18 -17 -26 -48 -52 -48c-16 0 -28 15 -28 32l-15 587c10 6 21 8 32 8
s22 -2 32 -8z" fill="currentColor"/>
</g>
<g transform="translate(79.8271, 56.5926)">
<path transform="scale(0.0029, -0.0029)" d="M208 139c61 0 117 -33 117 -99c0 -71 -52 -119 -99 -147c-34 -20 -71 -32 -110 -32c-61 0 -116 33 -116 99c0 71 51 119 98 147c34 20 71 32 110 32z" fill="currentColor"/>
</g>
<g transform="translate(80.7222, 54.7504)">
<rect x="-0.0614" y="-2.0809" width="0.1228" height="3.8038" ry="0.0421" fill="currentColor"/>
</g>
<g transform="translate(82.2336, 54.7504)">
<path transform="scale(0.0029, -0.0029)" d="M208 139c61 0 117 -33 117 -99c0 -71 -52 -119 -99 -147c-34 -20 -71 -32 -110 -32c-61 0 -116 33 -116 99c0 71 51 119 98 147c34 20 71 32 110 32z" fill="currentColor"/>
</g>
<g transform="translate(83.1287, 54.7504)">
<rect x="-0.0614" y="-2.0809" width="0.1228" height="1.9617" ry="0.0421" fill="currentColor"/>
</g>
<g transform="translate(69.4198, 57.6978)">
<path transform="scale(0.0029, -0.0029)" d="M208 139c61 0 117 -33 117 -99c0 -71 -52 -119 -99 -147c-34 -20 -71 -32 -110 -32c-61 0 -116 33 -116 99c0 71 51 119 98 147c34 20 71 32 110 32z" fill="currentColor"/>
</g>
<g transform="translate(70.3149, 54.7504)">
<rect x="-0.0614" y="-2.0809" width="0.1228" height="4.9090" ry="0.0421" fill="currentColor"/>
</g>
<g transform="translate(71.8263, 54.3820)">
<path transform="scale(0.0029, -0.0029)" d="M208 139c61 0 117 -33 117 -99c0 -71 -52 -119 -99 -147c-34 -20 -71 -32 -110 -32c-61 0 -116 33 -116 99c0 71 51 119 98 147c34 20 71 32 110 32z" fill="currentColor"/>
</g>
<g transform="translate(72.7214, 54.7504)">
<rect x="-0.0614" y="-2.0809" width="0.1228" height="1.5933" ry="0.0421" fill="currentColor"/>
</g>
<g transform="translate(73.7327, 55.8557)">
<path transform="scale(0.0029, -0.0029)" d="M208 139c61 0 117 -33 117 -99c0 -71 -52 -119 -99 -147c-34 -20 -71 -32 -110 -32c-61 0 -116 33 -116 99c0 71 51 119 98 147c34 20 71 32 110 32z" fill="currentColor"/>
</g>
<g transform="translate(74.6278, 54.7504)">
<rect x="-0.0614" y="-2.0809" width="0.1228" height="3.0669" ry="0.0421" fill="currentColor"/>
</g>
<g transform="translate(76.3412, 56.2241)">
<path transform="scale(0.0029, -0.0029)" d="M208 139c61 0 117 -33 117 -99c0 -71 -52 -119 -99 -147c-34 -20 -71 -32 -110 -32c-61 0 -116 33 -116 99c0 71 51 119 98 147c34 20 71 32 110 32z" fill="currentColor"/>
</g>
<g transform="translate(77.2363, 54.7504)">
<rect x="-0.0614" y="-2.0809" width="0.1228" height="3.4354" ry="0.0421" fill="currentColor"/>
</g>
<g transform="translate(29.7851, 55.1189)">
<path transform="scale(0.0029, -0.0029)" d="M208 139c61 0 117 -33 117 -99c0 -71 -52 -119 -99 -147c-34 -20 -71 -32 -110 -32c-61 0 -116 33 -116 99c0 71 51 119 98 147c34 20 71 32 110 32z" fill="currentColor"/>
</g>
<g transform="translate(30.6802, 54.7504)">
<rect x="-0.0614" y="-2.5789" width="0.1228" height="2.8281" ry="0.0421" fill="currentColor"/>
</g>
<g transform="translate(31.9416, 55.4873)">
<path transform="scale(0.0029, -0.0029)" d="M208 139c61 0 117 -33 117 -99c0 -71 -52 -119 -99 -147c-34 -20 -71 -32 -110 -32c-61 0 -116 33 -116 99c0 71 51 119 98 147c34 20 71 32 110 32z" fill="currentColor"/>
</g>
<g transform="translate(32.8367, 54.7504)">
<rect x="-0.0614" y="-2.5789" width="0.1228" height="3.1966" ry="0.0421" fill="currentColor"/>
</g>
<g transform="translate(34.0981, 55.8557)">
<path transform="scale(0.0029, -0.0029)" d="M208 139c61 0 117 -33 117 -99c0 -71 -52 -119 -99 -147c-34 -20 -71 -32 -110 -32c-61 0 -116 33 -116 99c0 71 51 119 98 147c34 20 71 32 110 32z" fill="currentColor"/>
</g>
<g transform="translate(34.9932, 54.7504)">
<rect x="-0.0614" y="-1.3384" width="0.1228" height="2.3244" ry="0.0421" fill="currentColor"/>
</g>
<g transform="translate(36.2546, 56.2241)">
<path transform="scale(0.0029, -0.0029)" d="M208 139c61 0 117 -33 117 -99c0 -71 -52 -119 -99 -147c-34 -20 -71 -32 -110 -32c-61 0 -116 33 -116 99c0 71 51 119 98 147c34 20 71 32 110 32z" fill="currentColor"/>
</g>
<g transform="translate(37.1497, 54.7504)">
<rect x="-0.0614" y="-1.1398" width="0.1228" height="2.4942" ry="0.0421" fill="currentColor"/>
</g>
<g transform="translate(18.7702, 55.4873)">
<path transform="scale(0.0029, -0.0029)" d="M381 266h9c157 0 258 -130 258 -264c0 -77 -33 -156 -108 -212c-22 -16 -46 -28 -71 -36c2 -32 3 -65 3 -97c0 -21 -1 -43 -2 -64c-7 -122 -91 -230 -211 -230c-108 0 -197 88 -197 197c0 58 54 104 113 104c54 0 95 -48 95 -104c0 -52 -43 -95 -95 -95c-8 0 -16 2 -24 4
c25 -35 65 -59 111 -59c95 0 155 92 161 190c1 20 2 39 2 59c0 28 -1 55 -3 83c-29 -5 -57 -7 -87 -7c-189 0 -333 174 -333 377c0 176 128 307 242 443c-21 62 -41 124 -50 189c-7 52 -8 106 -8 159c0 113 54 219 146 286c8 6 21 7 29 0c72 -82 136 -244 136 -357
c0 -141 -83 -253 -174 -362c22 -67 41 -135 58 -204zM464 -200c64 25 108 93 108 159c0 87 -62 173 -163 187c24 -113 43 -225 55 -346zM338 -218c27 0 54 2 80 6c-13 125 -33 242 -58 359c-79 -7 -123 -59 -123 -116c0 -43 24 -89 78 -120c5 -5 8 -11 8 -17
c0 -13 -11 -24 -24 -24c-3 0 -7 0 -10 2c-81 44 -119 116 -119 187c0 90 60 178 164 201c-14 56 -30 112 -47 167c-104 -122 -208 -245 -208 -404c0 -132 127 -241 259 -241zM239 782c0 -69 22 -127 41 -183c77 97 140 199 140 323c0 49 -3 69 -19 113
c-99 -45 -162 -145 -162 -253z" fill="currentColor"/>
</g>
<g transform="translate(22.3827, 54.7504)">
<path transform="scale(0.0029, -0.0029)" d="M33 35l-2 -60v-11c0 -21 2 -43 5 -64c42 38 87 81 87 138c0 32 -13 63 -41 63c-31 0 -48 -32 -49 -66zM32 446l-9 -337c25 26 59 40 95 40c50 0 82 -51 82 -105c0 -77 -80 -117 -137 -169c-18 -17 -26 -48 -52 -48c-16 0 -28 15 -28 32l-15 587c10 6 21 8 32 8
s22 -2 32 -8z" fill="currentColor"/>
</g>
<g transform="translate(25.4721, 56.5926)">
<path transform="scale(0.0029, -0.0029)" d="M208 139c61 0 117 -33 117 -99c0 -71 -52 -119 -99 -147c-34 -20 -71 -32 -110 -32c-61 0 -116 33 -116 99c0 71 51 119 98 147c34 20 71 32 110 32z" fill="currentColor"/>
</g>
<g transform="translate(26.3672, 54.7504)">
<rect x="-0.0614" y="-2.5789" width="0.1228" height="4.3018" ry="0.0421" fill="currentColor"/>
</g>
<g transform="translate(27.8786, 54.0136)">
<path transform="scale(0.0029, -0.0029)" d="M208 139c61 0 117 -33 117 -99c0 -71 -52 -119 -99 -147c-34 -20 -71 -32 -110 -32c-61 0 -116 33 -116 99c0 71 51 119 98 147c34 20 71 32 110 32z" fill="currentColor"/>
</g>
<g transform="translate(28.7737, 54.7504)">
<rect x="-0.0614" y="-2.5789" width="0.1228" height="1.7229" ry="0.0421" fill="currentColor"/>
</g>
<g transform="translate(46.7870, 55.4873)">
<path transform="scale(0.0029, -0.0029)" d="M208 139c61 0 117 -33 117 -99c0 -71 -52 -119 -99 -147c-34 -20 -71 -32 -110 -32c-61 0 -116 33 -116 99c0 71 51 119 98 147c34 20 71 32 110 32z" fill="currentColor"/>
</g>
<g transform="translate(47.6821, 54.7504)">
<rect x="-0.0614" y="-2.5789" width="0.1228" height="3.1966" ry="0.0421" fill="currentColor"/>
</g>
<g transform="translate(48.9435, 55.8557)">
<path transform="scale(0.0029, -0.0029)" d="M208 139c61 0 117 -33 117 -99c0 -71 -52 -119 -99 -147c-34 -20 -71 -32 -110 -32c-61 0 -116 33 -116 99c0 71 51 119 98 147c34 20 71 32 110 32z" fill="currentColor"/>
</g>
<g transform="translate(49.8386, 54.7504)">
<rect x="-0.0614" y="-2.5789" width="0.1228" height="3.5650" ry="0.0421" fill="currentColor"/>
</g>
<g transform="translate(52.4179, 56.2241)">
<path transform="scale(0.0029, -0.0029)" d="M208 139c61 0 117 -33 117 -99c0 -71 -52 -119 -99 -147c-34 -20 -71 -32 -110 -32c-61 0 -116 33 -116 99c0 71 51 119 98 147c34 20 71 32 110 32z" fill="currentColor"/>
</g>
<g transform="translate(53.3130, 54.7504)">
<rect x="-0.0614" y="-2.0809" width="0.1228" height="3.4354" ry="0.0421" fill="currentColor"/>
</g>
<g transform="translate(38.4111, 56.5926)">
<path transform="scale(0.0029, -0.0029)" d="M208 139c61 0 117 -33 117 -99c0 -71 -52 -119 -99 -147c-34 -20 -71 -32 -110 -32c-61 0 -116 33 -116 99c0 71 51 119 98 147c34 20 71 32 110 32z" fill="currentColor"/>
</g>
<g transform="translate(39.3062, 54.7504)">
<rect x="-0.0614" y="-0.9411" width="0.1228" height="2.6640" ry="0.0421" fill="currentColor"/>
</g>
<g transform="translate(40.5676, 56.9610)">
<path transform="scale(0.0029, -0.0029)" d="M208 139c61 0 117 -33 117 -99c0 -71 -52 -119 -99 -147c-34 -20 -71 -32 -110 -32c-61 0 -116 33 -116 99c0 71 51 119 98 147c34 20 71 32 110 32z" fill="currentColor"/>
</g>
<g transform="translate(41.4627, 54.7504)">
<rect x="-0.0614" y="-0.7425" width="0.1228" height="2.8338" ry="0.0421" fill="currentColor"/>
</g>
<g transform="translate(42.4740, 57.3294)">
<path transform="scale(0.0029, -0.0029)" d="M208 139c61 0 117 -33 117 -99c0 -71 -52 -119 -99 -147c-34 -20 -71 -32 -110 -32c-61 0 -116 33 -116 99c0 71 51 119 98 147c34 20 71 32 110 32z" fill="currentColor"/>
</g>
<g transform="translate(43.3691, 54.7504)">
<rect x="-0.0614" y="-2.5789" width="0.1228" height="5.0387" ry="0.0421" fill="currentColor"/>
</g>
<g transform="translate(44.8805, 54.0136)">
<path transform="scale(0.0029, -0.0029)" d="M208 139c61 0 117 -33 117 -99c0 -71 -52 -119 -99 -147c-34 -20 -71 -32 -110 -32c-61 0 -116 33 -116 99c0 71 51 119 98 147c34 20 71 32 110 32z" fill="currentColor"/>
</g>
<g transform="translate(45.7756, 54.7504)">
<rect x="-0.0614" y="-2.5789" width="0.1228" height="1.7229" ry="0.0421" fill="currentColor"/>
</g>
<g transform="translate(107.4422, 56.9610)">
<path transform="scale(0.0029, -0.0029)" d="M0 114c0 12 7 22 18 26l37 15v151c0 12 10 22 22 22s22 -10 22 -22v-134l77 29v152c0 12 10 22 22 22s22 -10 22 -22v-134l16 6c3 1 8 2 11 2c15 0 28 -12 28 -28v-50c0 -12 -7 -23 -18 -27l-37 -14v-152l16 7c3 1 8 2 11 2c15 0 28 -13 28 -29v-50c0 -12 -7 -22 -18 -26
l-37 -15v-151c0 -12 -10 -22 -22 -22s-22 10 -22 22v134l-77 -29v-152c0 -12 -10 -22 -22 -22s-22 10 -22 22v134l-16 -6c-3 -1 -8 -2 -11 -2c-15 0 -28 12 -28 28v50c0 12 7 23 18 27l37 14v152l-16 -7c-3 -1 -8 -2 -11 -2c-15 0 -28 13 -28 29v50zM176 91l-77 -30v-152
l77 30v152z" fill="currentColor"/>
</g>
<g transform="translate(110.5092, 57.6978)">
<path transform="scale(0.0029, -0.0029)" d="M208 139c61 0 117 -33 117 -99c0 -71 -52 -119 -99 -147c-34 -20 -71 -32 -110 -32c-61 0 -116 33 -116 99c0 71 51 119 98 147c34 20 71 32 110 32z" fill="currentColor"/>
</g>
<g transform="translate(111.4043, 54.7504)">
<rect x="-0.0614" y="-0.1746" width="0.1228" height="3.0028" ry="0.0421" fill="currentColor"/>
</g>
<g transform="translate(112.9157, 56.9610)">
<path transform="scale(0.0029, -0.0029)" d="M208 139c61 0 117 -33 117 -99c0 -71 -52 -119 -99 -147c-34 -20 -71 -32 -110 -32c-61 0 -116 33 -116 99c0 71 51 119 98 147c34 20 71 32 110 32z" fill="currentColor"/>
</g>
<g transform="translate(113.8108, 54.7504)">
<rect x="-0.0614" y="-0.3882" width="0.1228" height="2.4795" ry="0.0421" fill="currentColor"/>
</g>
<g transform="translate(115.3222, 56.2241)">
<path transform="scale(0.0029, -0.0029)" d="M208 139c61 0 117 -33 117 -99c0 -71 -52 -119 -99 -147c-34 -20 -71 -32 -110 -32c-61 0 -116 33 -116 99c0 71 51 119 98 147c34 20 71 32 110 32z" fill="currentColor"/>
</g>
<g transform="translate(116.2173, 54.7504)">
<rect x="-0.0614" y="-0.6018" width="0.1228" height="1.9562" ry="0.0421" fill="currentColor"/>
</g>
<g transform="translate(102.0998, 56.2241)">
<path transform="scale(0.0029, -0.0029)" d="M208 139c61 0 117 -33 117 -99c0 -71 -52 -119 -99 -147c-34 -20 -71 -32 -110 -32c-61 0 -116 33 -116 99c0 71 51 119 98 147c34 20 71 32 110 32z" fill="currentColor"/>
</g>
<g transform="translate(102.9949, 54.7504)">
<rect x="-0.0614" y="-2.0809" width="0.1228" height="3.4354" ry="0.0421" fill="currentColor"/>
</g>
<g transform="translate(101.2440, 56.2241)">
<path transform="scale(0.0029, -0.0029)" d="M-8 375c8 5 18 7 27 7s20 -2 28 -7l-3 -196l99 24h4c11 0 20 -8 20 -19l8 -559c-8 -5 -19 -7 -28 -7s-19 2 -27 7l3 196l-99 -24h-5c-11 0 -19 8 -19 19zM127 109l-85 -20l-2 -198l84 20z" fill="currentColor"/>
</g>
<g transform="translate(104.2563, 56.5926)">
<path transform="scale(0.0029, -0.0029)" d="M208 139c61 0 117 -33 117 -99c0 -71 -52 -119 -99 -147c-34 -20 -71 -32 -110 -32c-61 0 -116 33 -116 99c0 71 51 119 98 147c34 20 71 32 110 32z" fill="currentColor"/>
</g>
<g transform="translate(105.1514, 54.7504)">
<rect x="-0.0614" y="-2.0809" width="0.1228" height="3.8038" ry="0.0421" fill="currentColor"/>
</g>
<g transform="translate(108.6027, 56.9610)">
<path transform="scale(0.0029, -0.0029)" d="M208 139c61 0 117 -33 117 -99c0 -71 -52 -119 -99 -147c-34 -20 -71 -32 -110 -32c-61 0 -116 33 -116 99c0 71 51 119 98 147c34 20 71 32 110 32z" fill="currentColor"/>
</g>
<g transform="translate(125.6538, 54.7504)">
<rect x="-0.0614" y="-2.8125" width="0.1228" height="2.3249" ry="0.0421" fill="currentColor"/>
</g>
<g transform="translate(123.5982, 54.3820)">
<path transform="scale(0.0029, -0.0029)" d="M0 114c0 12 7 22 18 26l37 15v151c0 12 10 22 22 22s22 -10 22 -22v-134l77 29v152c0 12 10 22 22 22s22 -10 22 -22v-134l16 6c3 1 8 2 11 2c15 0 28 -12 28 -28v-50c0 -12 -7 -23 -18 -27l-37 -14v-152l16 7c3 1 8 2 11 2c15 0 28 -13 28 -29v-50c0 -12 -7 -22 -18 -26
l-37 -15v-151c0 -12 -10 -22 -22 -22s-22 10 -22 22v134l-77 -29v-152c0 -12 -10 -22 -22 -22s-22 10 -22 22v134l-16 -6c-3 -1 -8 -2 -11 -2c-15 0 -28 12 -28 28v50c0 12 7 23 18 27l37 14v152l-16 -7c-3 -1 -8 -2 -11 -2c-15 0 -28 13 -28 29v50zM176 91l-77 -30v-152
l77 30v152z" fill="currentColor"/>
</g>
<g transform="translate(127.1652, 53.6452)">
<path transform="scale(0.0029, -0.0029)" d="M208 139c61 0 117 -33 117 -99c0 -71 -52 -119 -99 -147c-34 -20 -71 -32 -110 -32c-61 0 -116 33 -116 99c0 71 51 119 98 147c34 20 71 32 110 32z" fill="currentColor"/>
</g>
<g transform="translate(128.0603, 54.7504)">
<rect x="-0.0614" y="-3.3033" width="0.1228" height="2.0789" ry="0.0421" fill="currentColor"/>
</g>
<g transform="translate(124.7587, 54.3820)">
<path transform="scale(0.0029, -0.0029)" d="M208 139c61 0 117 -33 117 -99c0 -71 -52 -119 -99 -147c-34 -20 -71 -32 -110 -32c-61 0 -116 33 -116 99c0 71 51 119 98 147c34 20 71 32 110 32z" fill="currentColor"/>
</g>
<g transform="translate(129.0717, 55.4873)">
<path transform="scale(0.0029, -0.0029)" d="M208 139c61 0 117 -33 117 -99c0 -71 -52 -119 -99 -147c-34 -20 -71 -32 -110 -32c-61 0 -116 33 -116 99c0 71 51 119 98 147c34 20 71 32 110 32z" fill="currentColor"/>
</g>
<g transform="translate(129.9668, 54.7504)">
<rect x="-0.0614" y="-2.9169" width="0.1228" height="3.5345" ry="0.0421" fill="currentColor"/>
</g>
<g transform="translate(131.2282, 55.1189)">
<path transform="scale(0.0029, -0.0029)" d="M208 139c61 0 117 -33 117 -99c0 -71 -52 -119 -99 -147c-34 -20 -71 -32 -110 -32c-61 0 -116 33 -116 99c0 71 51 119 98 147c34 20 71 32 110 32z" fill="currentColor"/>
</g>
<g transform="translate(132.1233, 54.7504)">
<rect x="-0.0614" y="-2.4798" width="0.1228" height="2.7290" ry="0.0421" fill="currentColor"/>
</g>
<g transform="translate(120.5303, 54.7504)">
<rect x="-0.0614" y="-2.3776" width="0.1228" height="3.7320" ry="0.0421" fill="currentColor"/>
</g>
<g transform="translate(117.7287, 55.1189)">
<path transform="scale(0.0029, -0.0029)" d="M208 139c61 0 117 -33 117 -99c0 -71 -52 -119 -99 -147c-34 -20 -71 -32 -110 -32c-61 0 -116 33 -116 99c0 71 51 119 98 147c34 20 71 32 110 32z" fill="currentColor"/>
</g>
<g transform="translate(118.6238, 54.7504)">
<rect x="-0.0614" y="-2.2157" width="0.1228" height="2.4649" ry="0.0421" fill="currentColor"/>
</g>
<g transform="translate(119.6352, 56.2241)">
<path transform="scale(0.0029, -0.0029)" d="M208 139c61 0 117 -33 117 -99c0 -71 -52 -119 -99 -147c-34 -20 -71 -32 -110 -32c-61 0 -116 33 -116 99c0 71 51 119 98 147c34 20 71 32 110 32z" fill="currentColor"/>
</g>
<g transform="translate(109.4979, 54.7504)">
<rect x="-0.0614" y="-0.0054" width="0.1228" height="2.0967" ry="0.0421" fill="currentColor"/>
</g>
<g transform="translate(122.0417, 55.1189)">
<path transform="scale(0.0029, -0.0029)" d="M208 139c61 0 117 -33 117 -99c0 -71 -52 -119 -99 -147c-34 -20 -71 -32 -110 -32c-61 0 -116 33 -116 99c0 71 51 119 98 147c34 20 71 32 110 32z" fill="currentColor"/>
</g>
<g transform="translate(122.9368, 54.7504)">
<rect x="-0.0614" y="-2.5819" width="0.1228" height="2.8311" ry="0.0421" fill="currentColor"/>
</g>
<g transform="translate(88.9050, 56.5926)">
<path transform="scale(0.0029, -0.0029)" d="M208 139c61 0 117 -33 117 -99c0 -71 -52 -119 -99 -147c-34 -20 -71 -32 -110 -32c-61 0 -116 33 -116 99c0 71 51 119 98 147c34 20 71 32 110 32z" fill="currentColor"/>
</g>
<g transform="translate(95.1245, 57.6978)">
<path transform="scale(0.0029, -0.0029)" d="M208 139c61 0 117 -33 117 -99c0 -71 -52 -119 -99 -147c-34 -20 -71 -32 -110 -32c-61 0 -116 33 -116 99c0 71 51 119 98 147c34 20 71 32 110 32z" fill="currentColor"/>
</g>
<g transform="translate(96.0196, 54.7504)">
<rect x="-0.0614" y="-0.0036" width="0.1228" height="2.8317" ry="0.0421" fill="currentColor"/>
</g>
<g transform="translate(85.8091, 56.2241)">
<path transform="scale(0.0029, -0.0029)" d="M33 35l-2 -60v-11c0 -21 2 -43 5 -64c42 38 87 81 87 138c0 32 -13 63 -41 63c-31 0 -48 -32 -49 -66zM32 446l-9 -337c25 26 59 40 95 40c50 0 82 -51 82 -105c0 -77 -80 -117 -137 -169c-18 -17 -26 -48 -52 -48c-16 0 -28 15 -28 32l-15 587c10 6 21 8 32 8
s22 -2 32 -8z" fill="currentColor"/>
</g>
<g transform="translate(87.6437, 54.7504)">
<rect x="-0.0614" y="-2.0809" width="0.1228" height="3.4354" ry="0.0421" fill="currentColor"/>
</g>
<g transform="translate(86.7486, 56.2241)">
<path transform="scale(0.0029, -0.0029)" d="M208 139c61 0 117 -33 117 -99c0 -71 -52 -119 -99 -147c-34 -20 -71 -32 -110 -32c-61 0 -116 33 -116 99c0 71 51 119 98 147c34 20 71 32 110 32z" fill="currentColor"/>
</g>
<g transform="translate(97.2810, 58.0662)">
<path transform="scale(0.0029, -0.0029)" d="M208 139c61 0 117 -33 117 -99c0 -71 -52 -119 -99 -147c-34 -20 -71 -32 -110 -32c-61 0 -116 33 -116 99c0 71 51 119 98 147c34 20 71 32 110 32z" fill="currentColor"/>
</g>
<g transform="translate(89.8001, 54.7504)">
<rect x="-0.0614" y="-0.3649" width="0.1228" height="2.0877" ry="0.0421" fill="currentColor"/>
</g>
<g transform="translate(93.8631, 54.7504)">
<rect x="-0.0614" y="-0.1288" width="0.1228" height="2.5886" ry="0.0421" fill="currentColor"/>
</g>
<g transform="translate(92.9680, 57.3294)">
<path transform="scale(0.0029, -0.0029)" d="M208 139c61 0 117 -33 117 -99c0 -71 -52 -119 -99 -147c-34 -20 -71 -32 -110 -32c-61 0 -116 33 -116 99c0 71 51 119 98 147c34 20 71 32 110 32z" fill="currentColor"/>
</g>
<g transform="translate(91.0615, 56.9610)">
<path transform="scale(0.0029, -0.0029)" d="M208 139c61 0 117 -33 117 -99c0 -71 -52 -119 -99 -147c-34 -20 -71 -32 -110 -32c-61 0 -116 33 -116 99c0 71 51 119 98 147c34 20 71 32 110 32z" fill="currentColor"/>
</g>
<g transform="translate(91.9566, 54.7504)">
<rect x="-0.0614" y="-0.2396" width="0.1228" height="2.3309" ry="0.0421" fill="currentColor"/>
</g>
<g transform="translate(85.0352, 54.7504)">
<rect x="-0.0614" y="-2.0809" width="0.1228" height="3.0669" ry="0.0421" fill="currentColor"/>
</g>
<g transform="translate(100.5826, 54.7504)">
<rect x="-0.0614" y="-2.0809" width="0.1228" height="1.9617" ry="0.0421" fill="currentColor"/>
</g>
<g transform="translate(99.6875, 54.7504)">
<path transform="scale(0.0029, -0.0029)" d="M208 139c61 0 117 -33 117 -99c0 -71 -52 -119 -99 -147c-34 -20 -71 -32 -110 -32c-61 0 -116 33 -116 99c0 71 51 119 98 147c34 20 71 32 110 32z" fill="currentColor"/>
</g>
<g transform="translate(98.1761, 54.7504)">
<rect x="-0.0614" y="-2.0809" width="0.1228" height="5.2775" ry="0.0421" fill="currentColor"/>
</g>
<g transform="translate(84.1401, 55.8557)">
<path transform="scale(0.0029, -0.0029)" d="M208 139c61 0 117 -33 117 -99c0 -71 -52 -119 -99 -147c-34 -20 -71 -32 -110 -32c-61 0 -116 33 -116 99c0 71 51 119 98 147c34 20 71 32 110 32z" fill="currentColor"/>
</g>
</svg>
