<svg xmlns="http://www.w3.org/2000/svg" xmlns:xlink="http://www.w3.org/1999/xlink" version="1.2" width="594.00mm" height="420.00mm" viewBox="0.0000 -0.0000 355.8092 251.5823">
<style type="text/css">
<![CDATA[
tspan { white-space: pre; }
]]>
</style>
<g transform="translate(17.9702, 56.2241)">
<line stroke-linejoin="round" stroke-linecap="round" stroke-width="0.0944" stroke="currentColor" x1="0.0472" y1="0" x2="213.3442" y2="0"/>
</g>
<g transform="translate(17.9702, 55.4873)">
<line stroke-linejoin="round" stroke-linecap="round" stroke-width="0.0944" stroke="currentColor" x1="0.0472" y1="0" x2="213.3442" y2="0"/>
</g>
<g transform="translate(17.9702, 54.7504)">
<line stroke-linejoin="round" stroke-linecap="round" stroke-width="0.0944" stroke="currentColor" x1="0.0472" y1="0" x2="213.3442" y2="0"/>
</g>
<g transform="translate(17.9702, 54.0136)">
<line stroke-linejoin="round" stroke-linecap="round" stroke-width="0.0944" stroke="currentColor" x1="0.0472" y1="0" x2="213.3442" y2="0"/>
</g>
<g transform="translate(17.9702, 53.2768)">
<line stroke-linejoin="round" stroke-linecap="round" stroke-width="0.0944" stroke="currentColor" x1="0.0472" y1="0" x2="213.3442" y2="0"/>
</g>
<g transform="translate(45.8611, 54.7504)">
<rect x="0.0000" y="-1.4737" width="0.1794" height="2.9474" ry="0.0000" fill="currentColor"/>
</g>
<g transform="translate(143.1565, 54.7504)">
<rect x="0.0000" y="-1.4737" width="0.1794" height="2.9474" ry="0.0000" fill="currentColor"/>
</g>
<g transform="translate(91.2142, 54.7504)">
<rect x="0.0000" y="-1.4737" width="0.1794" height="2.9474" ry="0.0000" fill="currentColor"/>
</g>
<g transform="translate(231.1821, 54.7504)">
<rect x="0.0000" y="-1.4737" width="0.1794" height="2.9474" ry="0.0000" fill="currentColor"/>
</g>
<g transform="translate(172.6013, 54.7504)">
<rect x="0.0000" y="-1.4737" width="0.1794" height="2.9474" ry="0.0000" fill="currentColor"/>
</g>
<g transform="translate(115.1087, 54.7504)">
<rect x="0.0000" y="-1.4737" width="0.1794" height="2.9474" ry="0.0000" fill="currentColor"/>
</g>
<g transform="translate(17.9702, 56.9610)">
<rect x="203.9052" y="-0.0841" width="1.3706" height="0.1681" ry="0.0841" fill="currentColor"/>
</g>
<g transform="translate(17.9702, 52.5399)">
<rect x="182.3822" y="-0.0841" width="1.4347" height="0.1681" ry="0.0841" fill="currentColor"/>
</g>
<g transform="translate(17.9702, 52.5399)">
<rect x="177.5087" y="-0.0841" width="1.4347" height="0.1681" ry="0.0841" fill="currentColor"/>
</g>
<g transform="translate(17.9702, 52.5399)">
<rect x="175.6022" y="-0.0841" width="1.4347" height="0.1681" ry="0.0841" fill="currentColor"/>
</g>
<g transform="translate(17.9702, 56.9610)">
<rect x="156.0841" y="-0.0841" width="1.3779" height="0.1681" ry="0.0841" fill="currentColor"/>
</g>
<g transform="translate(17.9702, 56.9610)">
<rect x="151.9855" y="-0.0841" width="1.4347" height="0.1681" ry="0.0841" fill="currentColor"/>
</g>
<g transform="translate(17.9702, 52.5399)">
<rect x="138.9802" y="-0.0841" width="1.4347" height="0.1681" ry="0.0841" fill="currentColor"/>
</g>
<g transform="translate(17.9702, 52.5399)">
<rect x="131.7002" y="-0.0841" width="1.4347" height="0.1681" ry="0.0841" fill="currentColor"/>
</g>
<g transform="translate(17.9702, 52.5399)">
<rect x="119.0105" y="-0.0841" width="1.3779" height="0.1681" ry="0.0841" fill="currentColor"/>
</g>
<g transform="translate(17.9702, 52.5399)">
<rect x="113.8243" y="-0.0841" width="1.4347" height="0.1681" ry="0.0841" fill="currentColor"/>
</g>
<g transform="translate(17.9702, 52.5399)">
<rect x="111.9178" y="-0.0841" width="1.4347" height="0.1681" ry="0.0841" fill="currentColor"/>
</g>
<g transform="translate(17.9702, 56.9610)">
<rect x="74.0843" y="-0.0841" width="1.4347" height="0.1681" ry="0.0841" fill="currentColor"/>
</g>
<g transform="translate(17.9702, 57.6978)">
<rect x="74.0843" y="-0.0841" width="1.4347" height="0.1681" ry="0.0841" fill="currentColor"/>
</g>
<g transform="translate(17.9702, 56.9610)">
<rect x="69.4625" y="-0.0841" width="1.3706" height="0.1681" ry="0.0841" fill="currentColor"/>
</g>
<g transform="translate(17.9702, 56.9610)">
<rect x="52.1728" y="-0.0841" width="1.3779" height="0.1681" ry="0.0841" fill="currentColor"/>
</g>
<g transform="translate(17.9702, 56.9610)">
<rect x="46.9310" y="-0.0841" width="1.3779" height="0.1681" ry="0.0841" fill="currentColor"/>
</g>
<g transform="translate(17.9702, 52.5399)">
<rect x="36.8047" y="-0.0841" width="1.4347" height="0.1681" ry="0.0841" fill="currentColor"/>
</g>
<g transform="translate(17.9702, 56.9610)">
<rect x="29.6559" y="-0.0841" width="1.3706" height="0.1681" ry="0.0841" fill="currentColor"/>
</g>
<g transform="translate(17.9702, 52.5399)">
<rect x="17.5823" y="-0.0841" width="1.4347" height="0.1681" ry="0.0841" fill="currentColor"/>
</g>
<g transform="translate(17.9702, 52.5399)">
<rect x="14.4758" y="-0.0841" width="1.4347" height="0.1681" ry="0.0841" fill="currentColor"/>
</g>
<g transform="translate(202.7479, 54.7504)">
<rect x="0.0000" y="-1.4737" width="0.1794" height="2.9474" ry="0.0000" fill="currentColor"/>
</g>
<g transform="translate(68.6899, 54.7504)">
<rect x="0.0000" y="-1.4737" width="0.1794" height="2.9474" ry="0.0000" fill="currentColor"/>
</g>
<g transform="translate(163.4148, 55.1189)">
<path transform="scale(0.0029, -0.0029)" d="M208 139c61 0 117 -33 117 -99c0 -71 -52 -119 -99 -147c-34 -20 -71 -32 -110 -32c-61 0 -116 33 -116 99c0 71 51 119 98 147c34 20 71 32 110 32z" fill="currentColor"/>
</g>
<g transform="translate(170.1948, 56.9610)">
<path transform="scale(0.0029, -0.0029)" d="M208 139c61 0 117 -33 117 -99c0 -71 -52 -119 -99 -147c-34 -20 -71 -32 -110 -32c-61 0 -116 33 -116 99c0 71 51 119 98 147c34 20 71 32 110 32z" fill="currentColor"/>
</g>
<g transform="translate(171.0899, 54.7504)">
<rect x="-0.0614" y="-0.7467" width="0.1228" height="2.8380" ry="0.0421" fill="currentColor"/>
</g>
<g transform="translate(174.2365, 57.3294)">
<path transform="scale(0.0029, -0.0029)" d="M208 139c61 0 117 -33 117 -99c0 -71 -52 -119 -99 -147c-34 -20 -71 -32 -110 -32c-61 0 -116 33 -116 99c0 71 51 119 98 147c34 20 71 32 110 32z" fill="currentColor"/>
</g>
<g transform="translate(175.1316, 54.7504)">
<rect x="-0.0614" y="-0.6131" width="0.1228" height="3.0728" ry="0.0421" fill="currentColor"/>
</g>
<g transform="translate(164.3099, 54.7504)">
<rect x="-0.0614" y="-1.8323" width="0.1228" height="2.0815" ry="0.0421" fill="currentColor"/>
</g>
<g transform="translate(166.1318, 55.8557)">
<path transform="scale(0.0029, -0.0029)" d="M208 139c61 0 117 -33 117 -99c0 -71 -52 -119 -99 -147c-34 -20 -71 -32 -110 -32c-61 0 -116 33 -116 99c0 71 51 119 98 147c34 20 71 32 110 32z" fill="currentColor"/>
</g>
<g transform="translate(167.0269, 54.7504)">
<rect x="-0.0614" y="-1.3972" width="0.1228" height="2.3833" ry="0.0421" fill="currentColor"/>
</g>
<g transform="translate(164.9713, 55.8557)">
<path transform="scale(0.0029, -0.0029)" d="M0 114c0 12 7 22 18 26l37 15v151c0 12 10 22 22 22s22 -10 22 -22v-134l77 29v152c0 12 10 22 22 22s22 -10 22 -22v-134l16 6c3 1 8 2 11 2c15 0 28 -12 28 -28v-50c0 -12 -7 -23 -18 -27l-37 -14v-152l16 7c3 1 8 2 11 2c15 0 28 -13 28 -29v-50c0 -12 -7 -22 -18 -26
l-37 -15v-151c0 -12 -10 -22 -22 -22s-22 10 -22 22v134l-77 -29v-152c0 -12 -10 -22 -22 -22s-22 10 -22 22v134l-16 -6c-3 -1 -8 -2 -11 -2c-15 0 -28 12 -28 28v50c0 12 7 23 18 27l37 14v152l-16 -7c-3 -1 -8 -2 -11 -2c-15 0 -28 13 -28 29v50zM176 91l-77 -30v-152
l77 30v152z" fill="currentColor"/>
</g>
<g transform="translate(168.0383, 56.5926)">
<path transform="scale(0.0029, -0.0029)" d="M208 139c61 0 117 -33 117 -99c0 -71 -52 -119 -99 -147c-34 -20 -71 -32 -110 -32c-61 0 -116 33 -116 99c0 71 51 119 98 147c34 20 71 32 110 32z" fill="currentColor"/>
</g>
<g transform="translate(168.9334, 54.7504)">
<rect x="-0.0614" y="-1.0920" width="0.1228" height="2.8148" ry="0.0421" fill="currentColor"/>
</g>
<g transform="translate(182.6616, 54.7504)">
<rect x="-0.0614" y="-1.3381" width="0.1228" height="2.3242" ry="0.0421" fill="currentColor"/>
</g>
<g transform="translate(180.6060, 55.8557)">
<path transform="scale(0.0029, -0.0029)" d="M0 114c0 12 7 22 18 26l37 15v151c0 12 10 22 22 22s22 -10 22 -22v-134l77 29v152c0 12 10 22 22 22s22 -10 22 -22v-134l16 6c3 1 8 2 11 2c15 0 28 -12 28 -28v-50c0 -12 -7 -23 -18 -27l-37 -14v-152l16 7c3 1 8 2 11 2c15 0 28 -13 28 -29v-50c0 -12 -7 -22 -18 -26
l-37 -15v-151c0 -12 -10 -22 -22 -22s-22 10 -22 22v134l-77 -29v-152c0 -12 -10 -22 -22 -22s-22 10 -22 22v134l-16 -6c-3 -1 -8 -2 -11 -2c-15 0 -28 12 -28 28v50c0 12 7 23 18 27l37 14v152l-16 -7c-3 -1 -8 -2 -11 -2c-15 0 -28 13 -28 29v50zM176 91l-77 -30v-152
l77 30v152z" fill="currentColor"/>
</g>
<g transform="translate(183.9230, 55.4873)">
<path transform="scale(0.0029, -0.0029)" d="M208 139c61 0 117 -33 117 -99c0 -71 -52 -119 -99 -147c-34 -20 -71 -32 -110 -32c-61 0 -116 33 -116 99c0 71 51 119 98 147c34 20 71 32 110 32z" fill="currentColor"/>
</g>
<g transform="translate(184.8181, 54.7504)">
<rect x="-0.0614" y="-3.5546" width="0.1228" height="4.1722" ry="0.0421" fill="currentColor"/>
</g>
<g transform="translate(181.7665, 55.8557)">
<path transform="scale(0.0029, -0.0029)" d="M208 139c61 0 117 -33 117 -99c0 -71 -52 -119 -99 -147c-34 -20 -71 -32 -110 -32c-61 0 -116 33 -116 99c0 71 51 119 98 147c34 20 71 32 110 32z" fill="currentColor"/>
</g>
<g transform="translate(186.5315, 53.6452)">
<path transform="scale(0.0029, -0.0029)" d="M208 139c61 0 117 -33 117 -99c0 -71 -52 -119 -99 -147c-34 -20 -71 -32 -110 -32c-61 0 -116 33 -116 99c0 71 51 119 98 147c34 20 71 32 110 32z" fill="currentColor"/>
</g>
<g transform="translate(187.4266, 54.7504)">
<rect x="-0.0614" y="-3.5546" width="0.1228" height="2.3301" ry="0.0421" fill="currentColor"/>
</g>
<g transform="translate(176.6430, 56.5926)">
<path transform="scale(0.0029, -0.0029)" d="M208 139c61 0 117 -33 117 -99c0 -71 -52 -119 -99 -147c-34 -20 -71 -32 -110 -32c-61 0 -116 33 -116 99c0 71 51 119 98 147c34 20 71 32 110 32z" fill="currentColor"/>
</g>
<g transform="translate(177.5381, 54.7504)">
<rect x="-0.0614" y="-0.8448" width="0.1228" height="2.5677" ry="0.0421" fill="currentColor"/>
</g>
<g transform="translate(173.3807, 57.3294)">
<path transform="scale(0.0029, -0.0029)" d="M-8 375c8 5 18 7 27 7s20 -2 28 -7l-3 -196l99 24h4c11 0 20 -8 20 -19l8 -559c-8 -5 -19 -7 -28 -7s-19 2 -27 7l3 196l-99 -24h-5c-11 0 -19 8 -19 19zM127 109l-85 -20l-2 -198l84 20z" fill="currentColor"/>
</g>
<g transform="translate(179.0495, 55.4873)">
<path transform="scale(0.0029, -0.0029)" d="M208 139c61 0 117 -33 117 -99c0 -71 -52 -119 -99 -147c-34 -20 -71 -32 -110 -32c-61 0 -116 33 -116 99c0 71 51 119 98 147c34 20 71 32 110 32z" fill="currentColor"/>
</g>
<g transform="translate(179.9446, 54.7504)">
<rect x="-0.0614" y="-1.0765" width="0.1228" height="1.6942" ry="0.0421" fill="currentColor"/>
</g>
<g transform="translate(145.9916, 54.7504)">
<rect x="-0.0614" y="-3.5621" width="0.1228" height="3.0744" ry="0.0421" fill="currentColor"/>
</g>
<g transform="translate(143.9360, 54.3820)">
<path transform="scale(0.0029, -0.0029)" d="M0 114c0 12 7 22 18 26l37 15v151c0 12 10 22 22 22s22 -10 22 -22v-134l77 29v152c0 12 10 22 22 22s22 -10 22 -22v-134l16 6c3 1 8 2 11 2c15 0 28 -12 28 -28v-50c0 -12 -7 -23 -18 -27l-37 -14v-152l16 7c3 1 8 2 11 2c15 0 28 -13 28 -29v-50c0 -12 -7 -22 -18 -26
l-37 -15v-151c0 -12 -10 -22 -22 -22s-22 10 -22 22v134l-77 -29v-152c0 -12 -10 -22 -22 -22s-22 10 -22 22v134l-16 -6c-3 -1 -8 -2 -11 -2c-15 0 -28 12 -28 28v50c0 12 7 23 18 27l37 14v152l-16 -7c-3 -1 -8 -2 -11 -2c-15 0 -28 13 -28 29v50zM176 91l-77 -30v-152
l77 30v152z" fill="currentColor"/>
</g>
<g transform="translate(147.5030, 53.6452)">
<path transform="scale(0.0029, -0.0029)" d="M208 139c61 0 117 -33 117 -99c0 -71 -52 -119 -99 -147c-34 -20 -71 -32 -110 -32c-61 0 -116 33 -116 99c0 71 51 119 98 147c34 20 71 32 110 32z" fill="currentColor"/>
</g>
<g transform="translate(148.3981, 54.7504)">
<rect x="-0.0614" y="-3.8561" width="0.1228" height="2.6316" ry="0.0421" fill="currentColor"/>
</g>
<g transform="translate(222.8840, 53.2768)">
<polygon stroke-linejoin="round" stroke-linecap="round" stroke-width="0.0842" fill="currentColor" stroke="currentColor" points="6.8060 -0.1347 6.8060 0.1347 0.0421 0.1347 0.0421 -0.1347"/>
</g>
<g transform="translate(222.8840, 53.8840)">
<polygon stroke-linejoin="round" stroke-linecap="round" stroke-width="0.0842" fill="currentColor" stroke="currentColor" points="6.8060 -0.1347 6.8060 0.1347 0.0421 0.1347 0.0421 -0.1347"/>
</g>
<g transform="translate(136.3071, 52.1715)">
<path transform="scale(0.0029, -0.0029)" d="M-8 375c8 5 18 7 27 7s20 -2 28 -7l-3 -196l99 24h4c11 0 20 -8 20 -19l8 -559c-8 -5 -19 -7 -28 -7s-19 2 -27 7l3 196l-99 -24h-5c-11 0 -19 8 -19 19zM127 109l-85 -20l-2 -198l84 20z" fill="currentColor"/>
</g>
<g transform="translate(139.0694, 52.9083)">
<path transform="scale(0.0029, -0.0029)" d="M208 139c61 0 117 -33 117 -99c0 -71 -52 -119 -99 -147c-34 -20 -71 -32 -110 -32c-61 0 -116 33 -116 99c0 71 51 119 98 147c34 20 71 32 110 32z" fill="currentColor"/>
</g>
<g transform="translate(139.9645, 54.7504)">
<rect x="-0.0614" y="-4.5353" width="0.1228" height="2.5739" ry="0.0421" fill="currentColor"/>
</g>
<g transform="translate(140.9759, 53.6452)">
<path transform="scale(0.0029, -0.0029)" d="M208 139c61 0 117 -33 117 -99c0 -71 -52 -119 -99 -147c-34 -20 -71 -32 -110 -32c-61 0 -116 33 -116 99c0 71 51 119 98 147c34 20 71 32 110 32z" fill="currentColor"/>
</g>
<g transform="translate(141.8710, 54.7504)">
<rect x="-0.0614" y="-4.4246" width="0.1228" height="3.2001" ry="0.0421" fill="currentColor"/>
</g>
<g transform="translate(145.0965, 54.3820)">
<path transform="scale(0.0029, -0.0029)" d="M208 139c61 0 117 -33 117 -99c0 -71 -52 -119 -99 -147c-34 -20 -71 -32 -110 -32c-61 0 -116 33 -116 99c0 71 51 119 98 147c34 20 71 32 110 32z" fill="currentColor"/>
</g>
<g transform="translate(157.1895, 52.5399)">
<path transform="scale(0.0029, -0.0029)" d="M208 139c61 0 117 -33 117 -99c0 -71 -52 -119 -99 -147c-34 -20 -71 -32 -110 -32c-61 0 -116 33 -116 99c0 71 51 119 98 147c34 20 71 32 110 32z" fill="currentColor"/>
</g>
<g transform="translate(158.0846, 54.7504)">
<rect x="-0.0614" y="-4.1193" width="0.1228" height="1.7896" ry="0.0421" fill="currentColor"/>
</g>
<g transform="translate(159.0960, 53.2768)">
<path transform="scale(0.0029, -0.0029)" d="M208 139c61 0 117 -33 117 -99c0 -71 -52 -119 -99 -147c-34 -20 -71 -32 -110 -32c-61 0 -116 33 -116 99c0 71 51 119 98 147c34 20 71 32 110 32z" fill="currentColor"/>
</g>
<g transform="translate(159.9911, 54.7504)">
<rect x="-0.0614" y="-3.9864" width="0.1228" height="2.3934" ry="0.0421" fill="currentColor"/>
</g>
<g transform="translate(161.5083, 54.3820)">
<path transform="scale(0.0029, -0.0029)" d="M208 139c61 0 117 -33 117 -99c0 -71 -52 -119 -99 -147c-34 -20 -71 -32 -110 -32c-61 0 -116 33 -116 99c0 71 51 119 98 147c34 20 71 32 110 32z" fill="currentColor"/>
</g>
<g transform="translate(162.4034, 54.7504)">
<rect x="-0.0614" y="-3.8181" width="0.1228" height="3.3305" ry="0.0421" fill="currentColor"/>
</g>
<g transform="translate(160.6524, 54.3820)">
<path transform="scale(0.0029, -0.0029)" d="M-8 375c8 5 18 7 27 7s20 -2 28 -7l-3 -196l99 24h4c11 0 20 -8 20 -19l8 -559c-8 -5 -19 -7 -28 -7s-19 2 -27 7l3 196l-99 -24h-5c-11 0 -19 8 -19 19zM127 109l-85 -20l-2 -198l84 20z" fill="currentColor"/>
</g>
<g transform="translate(149.9095, 52.5399)">
<path transform="scale(0.0029, -0.0029)" d="M208 139c61 0 117 -33 117 -99c0 -71 -52 -119 -99 -147c-34 -20 -71 -32 -110 -32c-61 0 -116 33 -116 99c0 71 51 119 98 147c34 20 71 32 110 32z" fill="currentColor"/>
</g>
<g transform="translate(150.8046, 54.7504)">
<rect x="-0.0614" y="-4.1501" width="0.1228" height="1.8203" ry="0.0421" fill="currentColor"/>
</g>
<g transform="translate(152.0660, 52.9083)">
<path transform="scale(0.0029, -0.0029)" d="M208 139c61 0 117 -33 117 -99c0 -71 -52 -119 -99 -147c-34 -20 -71 -32 -110 -32c-61 0 -116 33 -116 99c0 71 51 119 98 147c34 20 71 32 110 32z" fill="currentColor"/>
</g>
<g transform="translate(152.9611, 54.7504)">
<rect x="-0.0614" y="-4.4136" width="0.1228" height="2.4522" ry="0.0421" fill="currentColor"/>
</g>
<g transform="translate(154.7830, 53.2768)">
<path transform="scale(0.0029, -0.0029)" d="M208 139c61 0 117 -33 117 -99c0 -71 -52 -119 -99 -147c-34 -20 -71 -32 -110 -32c-61 0 -116 33 -116 99c0 71 51 119 98 147c34 20 71 32 110 32z" fill="currentColor"/>
</g>
<g transform="translate(155.6781, 54.7504)">
<rect x="-0.0614" y="-4.2871" width="0.1228" height="2.6942" ry="0.0421" fill="currentColor"/>
</g>
<g transform="translate(153.6225, 53.2768)">
<path transform="scale(0.0029, -0.0029)" d="M0 114c0 12 7 22 18 26l37 15v151c0 12 10 22 22 22s22 -10 22 -22v-134l77 29v152c0 12 10 22 22 22s22 -10 22 -22v-134l16 6c3 1 8 2 11 2c15 0 28 -12 28 -28v-50c0 -12 -7 -23 -18 -27l-37 -14v-152l16 7c3 1 8 2 11 2c15 0 28 -13 28 -29v-50c0 -12 -7 -22 -18 -26
l-37 -15v-151c0 -12 -10 -22 -22 -22s-22 10 -22 22v134l-77 -29v-152c0 -12 -10 -22 -22 -22s-22 10 -22 22v134l-16 -6c-3 -1 -8 -2 -11 -2c-15 0 -28 12 -28 28v50c0 12 7 23 18 27l37 14v152l-16 -7c-3 -1 -8 -2 -11 -2c-15 0 -28 13 -28 29v50zM176 91l-77 -30v-152
l77 30v152z" fill="currentColor"/>
</g>
<g transform="translate(225.3578, 54.7504)">
<rect x="-0.0614" y="-1.4737" width="0.1228" height="2.0913" ry="0.0421" fill="currentColor"/>
</g>
<g transform="translate(222.0503, 56.9610)">
<path transform="scale(0.0029, -0.0029)" d="M208 139c61 0 117 -33 117 -99c0 -71 -52 -119 -99 -147c-34 -20 -71 -32 -110 -32c-61 0 -116 33 -116 99c0 71 51 119 98 147c34 20 71 32 110 32z" fill="currentColor"/>
</g>
<g transform="translate(222.9454, 54.7504)">
<rect x="-0.0614" y="-1.4737" width="0.1228" height="3.5650" ry="0.0421" fill="currentColor"/>
</g>
<g transform="translate(220.8898, 56.9610)">
<path transform="scale(0.0029, -0.0029)" d="M0 114c0 12 7 22 18 26l37 15v151c0 12 10 22 22 22s22 -10 22 -22v-134l77 29v152c0 12 10 22 22 22s22 -10 22 -22v-134l16 6c3 1 8 2 11 2c15 0 28 -12 28 -28v-50c0 -12 -7 -23 -18 -27l-37 -14v-152l16 7c3 1 8 2 11 2c15 0 28 -13 28 -29v-50c0 -12 -7 -22 -18 -26
l-37 -15v-151c0 -12 -10 -22 -22 -22s-22 10 -22 22v134l-77 -29v-152c0 -12 -10 -22 -22 -22s-22 10 -22 22v134l-16 -6c-3 -1 -8 -2 -11 -2c-15 0 -28 12 -28 28v50c0 12 7 23 18 27l37 14v152l-16 -7c-3 -1 -8 -2 -11 -2c-15 0 -28 13 -28 29v50zM176 91l-77 -30v-152
l77 30v152z" fill="currentColor"/>
</g>
<g transform="translate(224.4627, 55.4873)">
<path transform="scale(0.0029, -0.0029)" d="M208 139c61 0 117 -33 117 -99c0 -71 -52 -119 -99 -147c-34 -20 -71 -32 -110 -32c-61 0 -116 33 -116 99c0 71 51 119 98 147c34 20 71 32 110 32z" fill="currentColor"/>
</g>
<g transform="translate(223.6068, 55.4873)">
<path transform="scale(0.0029, -0.0029)" d="M-8 375c8 5 18 7 27 7s20 -2 28 -7l-3 -196l99 24h4c11 0 20 -8 20 -19l8 -559c-8 -5 -19 -7 -28 -7s-19 2 -27 7l3 196l-99 -24h-5c-11 0 -19 8 -19 19zM127 109l-85 -20l-2 -198l84 20z" fill="currentColor"/>
</g>
<g transform="translate(226.6191, 55.8557)">
<path transform="scale(0.0029, -0.0029)" d="M208 139c61 0 117 -33 117 -99c0 -71 -52 -119 -99 -147c-34 -20 -71 -32 -110 -32c-61 0 -116 33 -116 99c0 71 51 119 98 147c34 20 71 32 110 32z" fill="currentColor"/>
</g>
<g transform="translate(227.5143, 54.7504)">
<rect x="-0.0614" y="-1.4737" width="0.1228" height="2.4597" ry="0.0421" fill="currentColor"/>
</g>
<g transform="translate(214.6098, 55.1189)">
<path transform="scale(0.0029, -0.0029)" d="M208 139c61 0 117 -33 117 -99c0 -71 -52 -119 -99 -147c-34 -20 -71 -32 -110 -32c-61 0 -116 33 -116 99c0 71 51 119 98 147c34 20 71 32 110 32z" fill="currentColor"/>
</g>
<g transform="translate(215.5049, 54.7504)">
<rect x="-0.0614" y="-2.1703" width="0.1228" height="2.4195" ry="0.0421" fill="currentColor"/>
</g>
<g transform="translate(217.3268, 55.4873)">
<path transform="scale(0.0029, -0.0029)" d="M208 139c61 0 117 -33 117 -99c0 -71 -52 -119 -99 -147c-34 -20 -71 -32 -110 -32c-61 0 -116 33 -116 99c0 71 51 119 98 147c34 20 71 32 110 32z" fill="currentColor"/>
</g>
<g transform="translate(218.2219, 54.7504)">
<rect x="-0.0614" y="-2.1211" width="0.1228" height="2.7387" ry="0.0421" fill="currentColor"/>
</g>
<g transform="translate(216.1663, 55.4873)">
<path transform="scale(0.0029, -0.0029)" d="M0 114c0 12 7 22 18 26l37 15v151c0 12 10 22 22 22s22 -10 22 -22v-134l77 29v152c0 12 10 22 22 22s22 -10 22 -22v-134l16 6c3 1 8 2 11 2c15 0 28 -12 28 -28v-50c0 -12 -7 -23 -18 -27l-37 -14v-152l16 7c3 1 8 2 11 2c15 0 28 -13 28 -29v-50c0 -12 -7 -22 -18 -26
l-37 -15v-151c0 -12 -10 -22 -22 -22s-22 10 -22 22v134l-77 -29v-152c0 -12 -10 -22 -22 -22s-22 10 -22 22v134l-16 -6c-3 -1 -8 -2 -11 -2c-15 0 -28 12 -28 28v50c0 12 7 23 18 27l37 14v152l-16 -7c-3 -1 -8 -2 -11 -2c-15 0 -28 13 -28 29v50zM176 91l-77 -30v-152
l77 30v152z" fill="currentColor"/>
</g>
<g transform="translate(219.4833, 55.1189)">
<path transform="scale(0.0029, -0.0029)" d="M208 139c61 0 117 -33 117 -99c0 -71 -52 -119 -99 -147c-34 -20 -71 -32 -110 -32c-61 0 -116 33 -116 99c0 71 51 119 98 147c34 20 71 32 110 32z" fill="currentColor"/>
</g>
<g transform="translate(220.3784, 54.7504)">
<rect x="-0.0614" y="-2.0820" width="0.1228" height="2.3312" ry="0.0421" fill="currentColor"/>
</g>
<g transform="translate(164.2485, 52.9083)">
<polygon stroke-linejoin="round" stroke-linecap="round" stroke-width="0.0842" fill="currentColor" stroke="currentColor" points="6.8607 0.9705 6.8607 1.2400 0.0421 0.1347 0.0421 -0.1347"/>
</g>
<g transform="translate(164.2485, 53.5156)">
<polygon stroke-linejoin="round" stroke-linecap="round" stroke-width="0.0842" fill="currentColor" stroke="currentColor" points="6.8607 0.9705 6.8607 1.2400 0.0421 0.1347 0.0421 -0.1347"/>
</g>
<g transform="translate(93.1273, 51.4347)">
<polygon stroke-linejoin="round" stroke-linecap="round" stroke-width="0.0842" fill="currentColor" stroke="currentColor" points="6.8001 -0.1347 6.8001 0.1347 0.0421 0.1347 0.0421 -0.1347"/>
</g>
<g transform="translate(93.1273, 52.0419)">
<polygon stroke-linejoin="round" stroke-linecap="round" stroke-width="0.0842" fill="currentColor" stroke="currentColor" points="6.8001 -0.1347 6.8001 0.1347 0.0421 0.1347 0.0421 -0.1347"/>
</g>
<g transform="translate(102.5638, 51.9327)">
<polygon stroke-linejoin="round" stroke-linecap="round" stroke-width="0.0842" fill="currentColor" stroke="currentColor" points="9.9001 -0.1347 9.9001 0.1347 0.0421 0.1347 0.0421 -0.1347"/>
</g>
<g transform="translate(117.0219, 53.2768)">
<polygon stroke-linejoin="round" stroke-linecap="round" stroke-width="0.0842" fill="currentColor" stroke="currentColor" points="6.8001 -0.7420 6.8001 -0.4725 0.0421 0.1347 0.0421 -0.1347"/>
</g>
<g transform="translate(117.0219, 53.8840)">
<polygon stroke-linejoin="round" stroke-linecap="round" stroke-width="0.0842" fill="currentColor" stroke="currentColor" points="6.8001 -0.7420 6.8001 -0.4725 0.0421 0.1347 0.0421 -0.1347"/>
</g>
<g transform="translate(126.1478, 51.0662)">
<polygon stroke-linejoin="round" stroke-linecap="round" stroke-width="0.0842" fill="currentColor" stroke="currentColor" points="6.8001 -1.0012 6.8001 -0.7317 0.0421 0.1347 0.0421 -0.1347"/>
</g>
<g transform="translate(126.1478, 51.6735)">
<polygon stroke-linejoin="round" stroke-linecap="round" stroke-width="0.0842" fill="currentColor" stroke="currentColor" points="6.8001 -1.0012 6.8001 -0.7317 0.0421 0.1347 0.0421 -0.1347"/>
</g>
<g transform="translate(125.3141, 54.7504)">
<path stroke-width="0.0755" stroke-linejoin="round" stroke-linecap="round" stroke="currentColor" fill="currentColor" d="M0.8550 -4.2372C1.7545 -5.2711 4.5393 -5.6237 5.6680 -4.8467L5.6680 -4.8467C4.5535 -5.5113 1.7687 -5.1587 0.8550 -4.2372z"/>
</g>
<g transform="translate(135.5843, 49.9610)">
<polygon stroke-linejoin="round" stroke-linecap="round" stroke-width="0.0842" fill="currentColor" stroke="currentColor" points="6.3060 0.2337 6.3060 0.5032 0.0421 0.1347 0.0421 -0.1347"/>
</g>
<g transform="translate(135.5843, 50.5682)">
<polygon stroke-linejoin="round" stroke-linecap="round" stroke-width="0.0842" fill="currentColor" stroke="currentColor" points="6.3060 0.2337 6.3060 0.5032 0.0421 0.1347 0.0421 -0.1347"/>
</g>
<g transform="translate(145.9302, 51.1959)">
<polygon stroke-linejoin="round" stroke-linecap="round" stroke-width="0.0842" fill="currentColor" stroke="currentColor" points="7.0501 -1.0012 7.0501 -0.7317 0.0421 0.1347 0.0421 -0.1347"/>
</g>
<g transform="translate(145.9302, 51.8031)">
<polygon stroke-linejoin="round" stroke-linecap="round" stroke-width="0.0842" fill="currentColor" stroke="currentColor" points="7.0501 -1.0012 7.0501 -0.7317 0.0421 0.1347 0.0421 -0.1347"/>
</g>
<g transform="translate(145.0965, 54.7504)">
<path stroke-width="0.0755" stroke-linejoin="round" stroke-linecap="round" stroke="currentColor" fill="currentColor" d="M0.8564 -4.1073C1.7601 -5.1369 4.5445 -5.4771 5.6694 -4.6954L5.6694 -4.6954C4.5582 -5.3646 1.7738 -5.0245 0.8564 -4.1073z"/>
</g>
<g transform="translate(155.6167, 50.4590)">
<polygon stroke-linejoin="round" stroke-linecap="round" stroke-width="0.0842" fill="currentColor" stroke="currentColor" points="6.8060 0.3429 6.8060 0.6123 0.0421 0.1347 0.0421 -0.1347"/>
</g>
<g transform="translate(155.6167, 51.0662)">
<polygon stroke-linejoin="round" stroke-linecap="round" stroke-width="0.0842" fill="currentColor" stroke="currentColor" points="6.8060 0.3429 6.8060 0.6123 0.0421 0.1347 0.0421 -0.1347"/>
</g>
<g transform="translate(71.1589, 51.1959)">
<polygon stroke-linejoin="round" stroke-linecap="round" stroke-width="0.0842" fill="currentColor" stroke="currentColor" points="17.3631 -0.1347 17.3631 0.1347 0.0421 0.1347 0.0421 -0.1347"/>
</g>
<g transform="translate(175.0703, 54.1432)">
<polygon stroke-linejoin="round" stroke-linecap="round" stroke-width="0.0842" fill="currentColor" stroke="currentColor" points="7.6107 -0.8716 7.6107 -0.6021 0.0421 0.1347 0.0421 -0.1347"/>
</g>
<g transform="translate(175.0703, 54.7504)">
<polygon stroke-linejoin="round" stroke-linecap="round" stroke-width="0.0842" fill="currentColor" stroke="currentColor" points="7.6107 -0.8716 7.6107 -0.6021 0.0421 0.1347 0.0421 -0.1347"/>
</g>
<g transform="translate(174.2365, 54.7504)">
<path stroke-width="0.0755" stroke-linejoin="round" stroke-linecap="round" stroke="currentColor" fill="currentColor" d="M0.8645 -1.1584C1.7925 -2.1631 4.5749 -2.4310 5.6775 -1.6218L5.6775 -1.6218C4.5858 -2.3182 1.8034 -2.0503 0.8645 -1.1584z"/>
</g>
<g transform="translate(184.7567, 51.1959)">
<polygon stroke-linejoin="round" stroke-linecap="round" stroke-width="0.0842" fill="currentColor" stroke="currentColor" points="7.5626 -0.1347 7.5626 0.1347 0.0421 0.1347 0.0421 -0.1347"/>
</g>
<g transform="translate(184.7567, 51.8031)">
<polygon stroke-linejoin="round" stroke-linecap="round" stroke-width="0.0842" fill="currentColor" stroke="currentColor" points="7.5626 -0.1347 7.5626 0.1347 0.0421 0.1347 0.0421 -0.1347"/>
</g>
<g transform="translate(186.5315, 54.7504)">
<path stroke-width="0.0755" stroke-linejoin="round" stroke-linecap="round" stroke="currentColor" fill="currentColor" d="M0.8951 -4.0998C1.9203 -5.0146 4.7434 -5.0146 5.7686 -4.0998L5.7686 -4.0998C4.7434 -4.9012 1.9203 -4.9012 0.8951 -4.0998z"/>
</g>
<g transform="translate(194.6452, 50.1998)">
<polygon stroke-linejoin="round" stroke-linecap="round" stroke-width="0.0842" fill="currentColor" stroke="currentColor" points="6.8607 0.1245 6.8607 0.3940 0.0421 0.1347 0.0421 -0.1347"/>
</g>
<g transform="translate(194.6452, 50.8070)">
<polygon stroke-linejoin="round" stroke-linecap="round" stroke-width="0.0842" fill="currentColor" stroke="currentColor" points="6.8607 0.1245 6.8607 0.3940 0.0421 0.1347 0.0421 -0.1347"/>
</g>
<g transform="translate(193.8115, 54.7504)">
<path stroke-width="0.0755" stroke-linejoin="round" stroke-linecap="round" stroke="currentColor" fill="currentColor" d="M0.9071 -5.0936C1.9306 -5.9468 4.5739 -5.8476 5.5306 -4.9200L5.5306 -4.9200C4.5697 -5.7343 1.9263 -5.8336 0.9071 -5.0936z"/>
</g>
<g transform="translate(204.6611, 51.4347)">
<polygon stroke-linejoin="round" stroke-linecap="round" stroke-width="0.0842" fill="currentColor" stroke="currentColor" points="6.5501 0.6021 6.5501 0.8716 0.0421 0.1347 0.0421 -0.1347"/>
</g>
<g transform="translate(204.6611, 52.0419)">
<polygon stroke-linejoin="round" stroke-linecap="round" stroke-width="0.0842" fill="currentColor" stroke="currentColor" points="6.5501 0.6021 6.5501 0.8716 0.0421 0.1347 0.0421 -0.1347"/>
</g>
<g transform="translate(213.2870, 52.5399)">
<polygon stroke-linejoin="round" stroke-linecap="round" stroke-width="0.0842" fill="currentColor" stroke="currentColor" points="7.1107 -0.0051 7.1107 0.2644 0.0421 0.1347 0.0421 -0.1347"/>
</g>
<g transform="translate(213.2870, 53.1471)">
<polygon stroke-linejoin="round" stroke-linecap="round" stroke-width="0.0842" fill="currentColor" stroke="currentColor" points="7.1107 -0.0051 7.1107 0.2644 0.0421 0.1347 0.0421 -0.1347"/>
</g>
<g transform="translate(212.4533, 54.7504)">
<path stroke-width="0.0755" stroke-linejoin="round" stroke-linecap="round" stroke="currentColor" fill="currentColor" d="M0.9009 -2.7547C1.9426 -3.6507 4.7658 -3.5996 5.7744 -2.6664L5.7744 -2.6664C4.7637 -3.4863 1.9406 -3.5374 0.9009 -2.7547z"/>
</g>
<g transform="translate(228.7756, 56.2241)">
<path transform="scale(0.0029, -0.0029)" d="M208 139c61 0 117 -33 117 -99c0 -71 -52 -119 -99 -147c-34 -20 -71 -32 -110 -32c-61 0 -116 33 -116 99c0 71 51 119 98 147c34 20 71 32 110 32z" fill="currentColor"/>
</g>
<g transform="translate(229.6707, 54.7504)">
<rect x="-0.0614" y="-1.4737" width="0.1228" height="2.8281" ry="0.0421" fill="currentColor"/>
</g>
<g transform="translate(26.3059, 50.4590)">
<polygon stroke-linejoin="round" stroke-linecap="round" stroke-width="0.0842" fill="currentColor" stroke="currentColor" points="16.8631 -0.1347 16.8631 0.1347 0.0421 0.1347 0.0421 -0.1347"/>
</g>
<g transform="translate(48.6347, 50.6978)">
<polygon stroke-linejoin="round" stroke-linecap="round" stroke-width="0.0842" fill="currentColor" stroke="currentColor" points="17.3631 -0.1347 17.3631 0.1347 0.0421 0.1347 0.0421 -0.1347"/>
</g>
<g transform="translate(195.7179, 52.5399)">
<path transform="scale(0.0029, -0.0029)" d="M208 139c61 0 117 -33 117 -99c0 -71 -52 -119 -99 -147c-34 -20 -71 -32 -110 -32c-61 0 -116 33 -116 99c0 71 51 119 98 147c34 20 71 32 110 32z" fill="currentColor"/>
</g>
<g transform="translate(196.6131, 54.7504)">
<rect x="-0.0614" y="-4.4768" width="0.1228" height="2.1470" ry="0.0421" fill="currentColor"/>
</g>
<g transform="translate(198.4350, 52.9083)">
<path transform="scale(0.0029, -0.0029)" d="M208 139c61 0 117 -33 117 -99c0 -71 -52 -119 -99 -147c-34 -20 -71 -32 -110 -32c-61 0 -116 33 -116 99c0 71 51 119 98 147c34 20 71 32 110 32z" fill="currentColor"/>
</g>
<g transform="translate(199.3301, 54.7504)">
<rect x="-0.0614" y="-4.3747" width="0.1228" height="2.4134" ry="0.0421" fill="currentColor"/>
</g>
<g transform="translate(197.2744, 52.9083)">
<path transform="scale(0.0029, -0.0029)" d="M0 114c0 12 7 22 18 26l37 15v151c0 12 10 22 22 22s22 -10 22 -22v-134l77 29v152c0 12 10 22 22 22s22 -10 22 -22v-134l16 6c3 1 8 2 11 2c15 0 28 -12 28 -28v-50c0 -12 -7 -23 -18 -27l-37 -14v-152l16 7c3 1 8 2 11 2c15 0 28 -13 28 -29v-50c0 -12 -7 -22 -18 -26
l-37 -15v-151c0 -12 -10 -22 -22 -22s-22 10 -22 22v134l-77 -29v-152c0 -12 -10 -22 -22 -22s-22 10 -22 22v134l-16 -6c-3 -1 -8 -2 -11 -2c-15 0 -28 12 -28 28v50c0 12 7 23 18 27l37 14v152l-16 -7c-3 -1 -8 -2 -11 -2c-15 0 -28 13 -28 29v50zM176 91l-77 -30v-152
l77 30v152z" fill="currentColor"/>
</g>
<g transform="translate(200.5915, 52.5399)">
<path transform="scale(0.0029, -0.0029)" d="M208 139c61 0 117 -33 117 -99c0 -71 -52 -119 -99 -147c-34 -20 -71 -32 -110 -32c-61 0 -116 33 -116 99c0 71 51 119 98 147c34 20 71 32 110 32z" fill="currentColor"/>
</g>
<g transform="translate(201.4866, 54.7504)">
<rect x="-0.0614" y="-4.2937" width="0.1228" height="1.9640" ry="0.0421" fill="currentColor"/>
</g>
<g transform="translate(188.6880, 54.0136)">
<path transform="scale(0.0029, -0.0029)" d="M208 139c61 0 117 -33 117 -99c0 -71 -52 -119 -99 -147c-34 -20 -71 -32 -110 -32c-61 0 -116 33 -116 99c0 71 51 119 98 147c34 20 71 32 110 32z" fill="currentColor"/>
</g>
<g transform="translate(189.5831, 54.7504)">
<rect x="-0.0614" y="-3.5546" width="0.1228" height="2.6985" ry="0.0421" fill="currentColor"/>
</g>
<g transform="translate(191.4050, 54.3820)">
<path transform="scale(0.0029, -0.0029)" d="M208 139c61 0 117 -33 117 -99c0 -71 -52 -119 -99 -147c-34 -20 -71 -32 -110 -32c-61 0 -116 33 -116 99c0 71 51 119 98 147c34 20 71 32 110 32z" fill="currentColor"/>
</g>
<g transform="translate(192.3001, 54.7504)">
<rect x="-0.0614" y="-3.5546" width="0.1228" height="3.0669" ry="0.0421" fill="currentColor"/>
</g>
<g transform="translate(190.2444, 54.3820)">
<path transform="scale(0.0029, -0.0029)" d="M0 114c0 12 7 22 18 26l37 15v151c0 12 10 22 22 22s22 -10 22 -22v-134l77 29v152c0 12 10 22 22 22s22 -10 22 -22v-134l16 6c3 1 8 2 11 2c15 0 28 -12 28 -28v-50c0 -12 -7 -23 -18 -27l-37 -14v-152l16 7c3 1 8 2 11 2c15 0 28 -13 28 -29v-50c0 -12 -7 -22 -18 -26
l-37 -15v-151c0 -12 -10 -22 -22 -22s-22 10 -22 22v134l-77 -29v-152c0 -12 -10 -22 -22 -22s-22 10 -22 22v134l-16 -6c-3 -1 -8 -2 -11 -2c-15 0 -28 12 -28 28v50c0 12 7 23 18 27l37 14v152l-16 -7c-3 -1 -8 -2 -11 -2c-15 0 -28 13 -28 29v50zM176 91l-77 -30v-152
l77 30v152z" fill="currentColor"/>
</g>
<g transform="translate(193.8115, 52.1715)">
<path transform="scale(0.0029, -0.0029)" d="M208 139c61 0 117 -33 117 -99c0 -71 -52 -119 -99 -147c-34 -20 -71 -32 -110 -32c-61 0 -116 33 -116 99c0 71 51 119 98 147c34 20 71 32 110 32z" fill="currentColor"/>
</g>
<g transform="translate(194.7066, 54.7504)">
<rect x="-0.0614" y="-4.5484" width="0.1228" height="1.8502" ry="0.0421" fill="currentColor"/>
</g>
<g transform="translate(211.1919, 54.7504)">
<rect x="-0.0614" y="-2.5858" width="0.1228" height="2.0982" ry="0.0421" fill="currentColor"/>
</g>
<g transform="translate(208.1403, 54.0136)">
<path transform="scale(0.0029, -0.0029)" d="M208 139c61 0 117 -33 117 -99c0 -71 -52 -119 -99 -147c-34 -20 -71 -32 -110 -32c-61 0 -116 33 -116 99c0 71 51 119 98 147c34 20 71 32 110 32z" fill="currentColor"/>
</g>
<g transform="translate(209.0354, 54.7504)">
<rect x="-0.0614" y="-2.8268" width="0.1228" height="1.9708" ry="0.0421" fill="currentColor"/>
</g>
<g transform="translate(210.2968, 54.3820)">
<path transform="scale(0.0029, -0.0029)" d="M208 139c61 0 117 -33 117 -99c0 -71 -52 -119 -99 -147c-34 -20 -71 -32 -110 -32c-61 0 -116 33 -116 99c0 71 51 119 98 147c34 20 71 32 110 32z" fill="currentColor"/>
</g>
<g transform="translate(212.4533, 54.7504)">
<path transform="scale(0.0029, -0.0029)" d="M208 139c61 0 117 -33 117 -99c0 -71 -52 -119 -99 -147c-34 -20 -71 -32 -110 -32c-61 0 -116 33 -116 99c0 71 51 119 98 147c34 20 71 32 110 32z" fill="currentColor"/>
</g>
<g transform="translate(213.3484, 54.7504)">
<rect x="-0.0614" y="-2.2094" width="0.1228" height="2.0902" ry="0.0421" fill="currentColor"/>
</g>
<g transform="translate(203.8274, 53.2768)">
<path transform="scale(0.0029, -0.0029)" d="M208 139c61 0 117 -33 117 -99c0 -71 -52 -119 -99 -147c-34 -20 -71 -32 -110 -32c-61 0 -116 33 -116 99c0 71 51 119 98 147c34 20 71 32 110 32z" fill="currentColor"/>
</g>
<g transform="translate(204.7225, 54.7504)">
<rect x="-0.0614" y="-3.3089" width="0.1228" height="1.7160" ry="0.0421" fill="currentColor"/>
</g>
<g transform="translate(185.5920, 53.6452)">
<path transform="scale(0.0029, -0.0029)" d="M33 35l-2 -60v-11c0 -21 2 -43 5 -64c42 38 87 81 87 138c0 32 -13 63 -41 63c-31 0 -48 -32 -49 -66zM32 446l-9 -337c25 26 59 40 95 40c50 0 82 -51 82 -105c0 -77 -80 -117 -137 -169c-18 -17 -26 -48 -52 -48c-16 0 -28 15 -28 32l-15 587c10 6 21 8 32 8
s22 -2 32 -8z" fill="currentColor"/>
</g>
<g transform="translate(205.9839, 53.6452)">
<path transform="scale(0.0029, -0.0029)" d="M208 139c61 0 117 -33 117 -99c0 -71 -52 -119 -99 -147c-34 -20 -71 -32 -110 -32c-61 0 -116 33 -116 99c0 71 51 119 98 147c34 20 71 32 110 32z" fill="currentColor"/>
</g>
<g transform="translate(206.8790, 54.7504)">
<rect x="-0.0614" y="-3.0679" width="0.1228" height="1.8434" ry="0.0421" fill="currentColor"/>
</g>
<g transform="translate(64.2276, 56.9610)">
<path transform="scale(0.0029, -0.0029)" d="M-8 375c8 5 18 7 27 7s20 -2 28 -7l-3 -196l99 24h4c11 0 20 -8 20 -19l8 -559c-8 -5 -19 -7 -28 -7s-19 2 -27 7l3 196l-99 -24h-5c-11 0 -19 8 -19 19zM127 109l-85 -20l-2 -198l84 20z" fill="currentColor"/>
</g>
<g transform="translate(70.3252, 57.3294)">
<path transform="scale(0.0029, -0.0029)" d="M208 139c61 0 117 -33 117 -99c0 -71 -52 -119 -99 -147c-34 -20 -71 -32 -110 -32c-61 0 -116 33 -116 99c0 71 51 119 98 147c34 20 71 32 110 32z" fill="currentColor"/>
</g>
<g transform="translate(71.2203, 54.7504)">
<rect x="-0.0614" y="-3.5546" width="0.1228" height="6.0143" ry="0.0421" fill="currentColor"/>
</g>
<g transform="translate(69.4694, 57.3294)">
<path transform="scale(0.0029, -0.0029)" d="M-8 375c8 5 18 7 27 7s20 -2 28 -7l-3 -196l99 24h4c11 0 20 -8 20 -19l8 -559c-8 -5 -19 -7 -28 -7s-19 2 -27 7l3 196l-99 -24h-5c-11 0 -19 8 -19 19zM127 109l-85 -20l-2 -198l84 20z" fill="currentColor"/>
</g>
<g transform="translate(62.6221, 54.7504)">
<rect x="-0.0614" y="-4.0526" width="0.1228" height="2.4597" ry="0.0421" fill="currentColor"/>
</g>
<g transform="translate(58.3705, 52.9083)">
<path transform="scale(0.0029, -0.0029)" d="M208 139c61 0 117 -33 117 -99c0 -71 -52 -119 -99 -147c-34 -20 -71 -32 -110 -32c-61 0 -116 33 -116 99c0 71 51 119 98 147c34 20 71 32 110 32z" fill="currentColor"/>
</g>
<g transform="translate(59.2656, 54.7504)">
<rect x="-0.0614" y="-4.0526" width="0.1228" height="2.0913" ry="0.0421" fill="currentColor"/>
</g>
<g transform="translate(61.7270, 53.2768)">
<path transform="scale(0.0029, -0.0029)" d="M208 139c61 0 117 -33 117 -99c0 -71 -52 -119 -99 -147c-34 -20 -71 -32 -110 -32c-61 0 -116 33 -116 99c0 71 51 119 98 147c34 20 71 32 110 32z" fill="currentColor"/>
</g>
<g transform="translate(60.5664, 53.2768)">
<path transform="scale(0.0029, -0.0029)" d="M0 114c0 12 7 22 18 26l37 15v151c0 12 10 22 22 22s22 -10 22 -22v-134l77 29v152c0 12 10 22 22 22s22 -10 22 -22v-134l16 6c3 1 8 2 11 2c15 0 28 -12 28 -28v-50c0 -12 -7 -23 -18 -27l-37 -14v-152l16 7c3 1 8 2 11 2c15 0 28 -13 28 -29v-50c0 -12 -7 -22 -18 -26
l-37 -15v-151c0 -12 -10 -22 -22 -22s-22 10 -22 22v134l-77 -29v-152c0 -12 -10 -22 -22 -22s-22 10 -22 22v134l-16 -6c-3 -1 -8 -2 -11 -2c-15 0 -28 12 -28 28v50c0 12 7 23 18 27l37 14v152l-16 -7c-3 -1 -8 -2 -11 -2c-15 0 -28 13 -28 29v50zM176 91l-77 -30v-152
l77 30v152z" fill="currentColor"/>
</g>
<g transform="translate(65.0835, 56.9610)">
<path transform="scale(0.0029, -0.0029)" d="M208 139c61 0 117 -33 117 -99c0 -71 -52 -119 -99 -147c-34 -20 -71 -32 -110 -32c-61 0 -116 33 -116 99c0 71 51 119 98 147c34 20 71 32 110 32z" fill="currentColor"/>
</g>
<g transform="translate(65.9786, 54.7504)">
<rect x="-0.0614" y="-4.0526" width="0.1228" height="6.1439" ry="0.0421" fill="currentColor"/>
</g>
<g transform="translate(85.1463, 54.7504)">
<rect x="-0.0614" y="-3.5546" width="0.1228" height="2.3301" ry="0.0421" fill="currentColor"/>
</g>
<g transform="translate(87.6077, 57.3294)">
<path transform="scale(0.0029, -0.0029)" d="M208 139c61 0 117 -33 117 -99c0 -71 -52 -119 -99 -147c-34 -20 -71 -32 -110 -32c-61 0 -116 33 -116 99c0 71 51 119 98 147c34 20 71 32 110 32z" fill="currentColor"/>
</g>
<g transform="translate(88.5028, 54.7504)">
<rect x="-0.0614" y="-3.5546" width="0.1228" height="6.0143" ry="0.0421" fill="currentColor"/>
</g>
<g transform="translate(84.2512, 53.6452)">
<path transform="scale(0.0029, -0.0029)" d="M208 139c61 0 117 -33 117 -99c0 -71 -52 -119 -99 -147c-34 -20 -71 -32 -110 -32c-61 0 -116 33 -116 99c0 71 51 119 98 147c34 20 71 32 110 32z" fill="currentColor"/>
</g>
<g transform="translate(86.6682, 57.3294)">
<path transform="scale(0.0029, -0.0029)" d="M33 35l-2 -60v-11c0 -21 2 -43 5 -64c42 38 87 81 87 138c0 32 -13 63 -41 63c-31 0 -48 -32 -49 -66zM32 446l-9 -337c25 26 59 40 95 40c50 0 82 -51 82 -105c0 -77 -80 -117 -137 -169c-18 -17 -26 -48 -52 -48c-16 0 -28 15 -28 32l-15 587c10 6 21 8 32 8
s22 -2 32 -8z" fill="currentColor"/>
</g>
<g transform="translate(92.2936, 57.6978)">
<path transform="scale(0.0029, -0.0029)" d="M208 139c61 0 117 -33 117 -99c0 -71 -52 -119 -99 -147c-34 -20 -71 -32 -110 -32c-61 0 -116 33 -116 99c0 71 51 119 98 147c34 20 71 32 110 32z" fill="currentColor"/>
</g>
<g transform="translate(93.1887, 54.7504)">
<rect x="-0.0614" y="-3.3158" width="0.1228" height="6.1439" ry="0.0421" fill="currentColor"/>
</g>
<g transform="translate(73.9317, 54.0136)">
<path transform="scale(0.0029, -0.0029)" d="M208 139c61 0 117 -33 117 -99c0 -71 -52 -119 -99 -147c-34 -20 -71 -32 -110 -32c-61 0 -116 33 -116 99c0 71 51 119 98 147c34 20 71 32 110 32z" fill="currentColor"/>
</g>
<g transform="translate(74.8268, 54.7504)">
<rect x="-0.0614" y="-3.5546" width="0.1228" height="2.6985" ry="0.0421" fill="currentColor"/>
</g>
<g transform="translate(77.5382, 52.9083)">
<path transform="scale(0.0029, -0.0029)" d="M208 139c61 0 117 -33 117 -99c0 -71 -52 -119 -99 -147c-34 -20 -71 -32 -110 -32c-61 0 -116 33 -116 99c0 71 51 119 98 147c34 20 71 32 110 32z" fill="currentColor"/>
</g>
<g transform="translate(78.4333, 54.7504)">
<rect x="-0.0614" y="-3.5546" width="0.1228" height="1.5933" ry="0.0421" fill="currentColor"/>
</g>
<g transform="translate(80.8947, 53.2768)">
<path transform="scale(0.0029, -0.0029)" d="M208 139c61 0 117 -33 117 -99c0 -71 -52 -119 -99 -147c-34 -20 -71 -32 -110 -32c-61 0 -116 33 -116 99c0 71 51 119 98 147c34 20 71 32 110 32z" fill="currentColor"/>
</g>
<g transform="translate(81.7898, 54.7504)">
<rect x="-0.0614" y="-3.5546" width="0.1228" height="1.9617" ry="0.0421" fill="currentColor"/>
</g>
<g transform="translate(29.0786, 53.2768)">
<path transform="scale(0.0029, -0.0029)" d="M208 139c61 0 117 -33 117 -99c0 -71 -52 -119 -99 -147c-34 -20 -71 -32 -110 -32c-61 0 -116 33 -116 99c0 71 51 119 98 147c34 20 71 32 110 32z" fill="currentColor"/>
</g>
<g transform="translate(29.9737, 54.7504)">
<rect x="-0.0614" y="-4.2914" width="0.1228" height="2.6985" ry="0.0421" fill="currentColor"/>
</g>
<g transform="translate(32.6851, 52.1715)">
<path transform="scale(0.0029, -0.0029)" d="M208 139c61 0 117 -33 117 -99c0 -71 -52 -119 -99 -147c-34 -20 -71 -32 -110 -32c-61 0 -116 33 -116 99c0 71 51 119 98 147c34 20 71 32 110 32z" fill="currentColor"/>
</g>
<g transform="translate(33.5802, 54.7504)">
<rect x="-0.0614" y="-4.2914" width="0.1228" height="1.5933" ry="0.0421" fill="currentColor"/>
</g>
<g transform="translate(35.7916, 52.5399)">
<path transform="scale(0.0029, -0.0029)" d="M208 139c61 0 117 -33 117 -99c0 -71 -52 -119 -99 -147c-34 -20 -71 -32 -110 -32c-61 0 -116 33 -116 99c0 71 51 119 98 147c34 20 71 32 110 32z" fill="currentColor"/>
</g>
<g transform="translate(36.6867, 54.7504)">
<rect x="-0.0614" y="-4.2914" width="0.1228" height="1.9617" ry="0.0421" fill="currentColor"/>
</g>
<g transform="translate(39.1481, 52.9083)">
<path transform="scale(0.0029, -0.0029)" d="M208 139c61 0 117 -33 117 -99c0 -71 -52 -119 -99 -147c-34 -20 -71 -32 -110 -32c-61 0 -116 33 -116 99c0 71 51 119 98 147c34 20 71 32 110 32z" fill="currentColor"/>
</g>
<g transform="translate(18.7702, 55.4873)">
<path transform="scale(0.0029, -0.0029)" d="M381 266h9c157 0 258 -130 258 -264c0 -77 -33 -156 -108 -212c-22 -16 -46 -28 -71 -36c2 -32 3 -65 3 -97c0 -21 -1 -43 -2 -64c-7 -122 -91 -230 -211 -230c-108 0 -197 88 -197 197c0 58 54 104 113 104c54 0 95 -48 95 -104c0 -52 -43 -95 -95 -95c-8 0 -16 2 -24 4
c25 -35 65 -59 111 -59c95 0 155 92 161 190c1 20 2 39 2 59c0 28 -1 55 -3 83c-29 -5 -57 -7 -87 -7c-189 0 -333 174 -333 377c0 176 128 307 242 443c-21 62 -41 124 -50 189c-7 52 -8 106 -8 159c0 113 54 219 146 286c8 6 21 7 29 0c72 -82 136 -244 136 -357
c0 -141 -83 -253 -174 -362c22 -67 41 -135 58 -204zM464 -200c64 25 108 93 108 159c0 87 -62 173 -163 187c24 -113 43 -225 55 -346zM338 -218c27 0 54 2 80 6c-13 125 -33 242 -58 359c-79 -7 -123 -59 -123 -116c0 -43 24 -89 78 -120c5 -5 8 -11 8 -17
c0 -13 -11 -24 -24 -24c-3 0 -7 0 -10 2c-81 44 -119 116 -119 187c0 90 60 178 164 201c-14 56 -30 112 -47 167c-104 -122 -208 -245 -208 -404c0 -132 127 -241 259 -241zM239 782c0 -69 22 -127 41 -183c77 97 140 199 140 323c0 49 -3 69 -19 113
c-99 -45 -162 -145 -162 -253z" fill="currentColor"/>
</g>
<g transform="translate(22.3827, 54.7504)">
<path transform="scale(0.0029, -0.0029)" d="M33 35l-2 -60v-11c0 -21 2 -43 5 -64c42 38 87 81 87 138c0 32 -13 63 -41 63c-31 0 -48 -32 -49 -66zM32 446l-9 -337c25 26 59 40 95 40c50 0 82 -51 82 -105c0 -77 -80 -117 -137 -169c-18 -17 -26 -48 -52 -48c-16 0 -28 15 -28 32l-15 587c10 6 21 8 32 8
s22 -2 32 -8z" fill="currentColor"/>
</g>
<g transform="translate(40.0432, 54.7504)">
<rect x="-0.0614" y="-4.2914" width="0.1228" height="2.3301" ry="0.0421" fill="currentColor"/>
</g>
<g transform="translate(25.4721, 54.0136)">
<path transform="scale(0.0029, -0.0029)" d="M208 139c61 0 117 -33 117 -99c0 -71 -52 -119 -99 -147c-34 -20 -71 -32 -110 -32c-61 0 -116 33 -116 99c0 71 51 119 98 147c34 20 71 32 110 32z" fill="currentColor"/>
</g>
<g transform="translate(26.3672, 54.7504)">
<rect x="-0.0614" y="-4.2914" width="0.1228" height="3.4354" ry="0.0421" fill="currentColor"/>
</g>
<g transform="translate(46.6405, 56.9610)">
<path transform="scale(0.0029, -0.0029)" d="M0 114c0 12 7 22 18 26l37 15v151c0 12 10 22 22 22s22 -10 22 -22v-134l77 29v152c0 12 10 22 22 22s22 -10 22 -22v-134l16 6c3 1 8 2 11 2c15 0 28 -12 28 -28v-50c0 -12 -7 -23 -18 -27l-37 -14v-152l16 7c3 1 8 2 11 2c15 0 28 -13 28 -29v-50c0 -12 -7 -22 -18 -26
l-37 -15v-151c0 -12 -10 -22 -22 -22s-22 10 -22 22v134l-77 -29v-152c0 -12 -10 -22 -22 -22s-22 10 -22 22v134l-16 -6c-3 -1 -8 -2 -11 -2c-15 0 -28 12 -28 28v50c0 12 7 23 18 27l37 14v152l-16 -7c-3 -1 -8 -2 -11 -2c-15 0 -28 13 -28 29v50zM176 91l-77 -30v-152
l77 30v152z" fill="currentColor"/>
</g>
<g transform="translate(51.4075, 53.6452)">
<path transform="scale(0.0029, -0.0029)" d="M208 139c61 0 117 -33 117 -99c0 -71 -52 -119 -99 -147c-34 -20 -71 -32 -110 -32c-61 0 -116 33 -116 99c0 71 51 119 98 147c34 20 71 32 110 32z" fill="currentColor"/>
</g>
<g transform="translate(52.3026, 54.7504)">
<rect x="-0.0614" y="-4.0526" width="0.1228" height="2.8281" ry="0.0421" fill="currentColor"/>
</g>
<g transform="translate(55.0140, 52.5399)">
<path transform="scale(0.0029, -0.0029)" d="M208 139c61 0 117 -33 117 -99c0 -71 -52 -119 -99 -147c-34 -20 -71 -32 -110 -32c-61 0 -116 33 -116 99c0 71 51 119 98 147c34 20 71 32 110 32z" fill="currentColor"/>
</g>
<g transform="translate(55.9091, 54.7504)">
<rect x="-0.0614" y="-4.0526" width="0.1228" height="1.7229" ry="0.0421" fill="currentColor"/>
</g>
<g transform="translate(37.9876, 52.9083)">
<path transform="scale(0.0029, -0.0029)" d="M0 114c0 12 7 22 18 26l37 15v151c0 12 10 22 22 22s22 -10 22 -22v-134l77 29v152c0 12 10 22 22 22s22 -10 22 -22v-134l16 6c3 1 8 2 11 2c15 0 28 -12 28 -28v-50c0 -12 -7 -23 -18 -27l-37 -14v-152l16 7c3 1 8 2 11 2c15 0 28 -13 28 -29v-50c0 -12 -7 -22 -18 -26
l-37 -15v-151c0 -12 -10 -22 -22 -22s-22 10 -22 22v134l-77 -29v-152c0 -12 -10 -22 -22 -22s-22 10 -22 22v134l-16 -6c-3 -1 -8 -2 -11 -2c-15 0 -28 12 -28 28v50c0 12 7 23 18 27l37 14v152l-16 -7c-3 -1 -8 -2 -11 -2c-15 0 -28 13 -28 29v50zM176 91l-77 -30v-152
l77 30v152z" fill="currentColor"/>
</g>
<g transform="translate(42.2546, 56.5926)">
<path transform="scale(0.0029, -0.0029)" d="M208 139c61 0 117 -33 117 -99c0 -71 -52 -119 -99 -147c-34 -20 -71 -32 -110 -32c-61 0 -116 33 -116 99c0 71 51 119 98 147c34 20 71 32 110 32z" fill="currentColor"/>
</g>
<g transform="translate(43.1497, 54.7504)">
<rect x="-0.0614" y="-4.2914" width="0.1228" height="6.0143" ry="0.0421" fill="currentColor"/>
</g>
<g transform="translate(138.0580, 54.7504)">
<rect x="-0.0614" y="-4.6459" width="0.1228" height="1.9477" ry="0.0421" fill="currentColor"/>
</g>
<g transform="translate(47.8010, 56.9610)">
<path transform="scale(0.0029, -0.0029)" d="M208 139c61 0 117 -33 117 -99c0 -71 -52 -119 -99 -147c-34 -20 -71 -32 -110 -32c-61 0 -116 33 -116 99c0 71 51 119 98 147c34 20 71 32 110 32z" fill="currentColor"/>
</g>
<g transform="translate(48.6961, 54.7504)">
<rect x="-0.0614" y="-4.0526" width="0.1228" height="6.1439" ry="0.0421" fill="currentColor"/>
</g>
<g transform="translate(118.0947, 56.5926)">
<path transform="scale(0.0029, -0.0029)" d="M208 139c61 0 117 -33 117 -99c0 -71 -52 -119 -99 -147c-34 -20 -71 -32 -110 -32c-61 0 -116 33 -116 99c0 71 51 119 98 147c34 20 71 32 110 32z" fill="currentColor"/>
</g>
<g transform="translate(118.9898, 54.7504)">
<rect x="-0.0614" y="-1.6483" width="0.1228" height="3.3712" ry="0.0421" fill="currentColor"/>
</g>
<g transform="translate(120.5011, 55.8557)">
<path transform="scale(0.0029, -0.0029)" d="M208 139c61 0 117 -33 117 -99c0 -71 -52 -119 -99 -147c-34 -20 -71 -32 -110 -32c-61 0 -116 33 -116 99c0 71 51 119 98 147c34 20 71 32 110 32z" fill="currentColor"/>
</g>
<g transform="translate(121.3962, 54.7504)">
<rect x="-0.0614" y="-1.8619" width="0.1228" height="2.8479" ry="0.0421" fill="currentColor"/>
</g>
<g transform="translate(122.9076, 55.1189)">
<path transform="scale(0.0029, -0.0029)" d="M208 139c61 0 117 -33 117 -99c0 -71 -52 -119 -99 -147c-34 -20 -71 -32 -110 -32c-61 0 -116 33 -116 99c0 71 51 119 98 147c34 20 71 32 110 32z" fill="currentColor"/>
</g>
<g transform="translate(123.8027, 54.7504)">
<rect x="-0.0614" y="-2.0755" width="0.1228" height="2.3246" ry="0.0421" fill="currentColor"/>
</g>
<g transform="translate(111.5495, 55.4873)">
<path transform="scale(0.0029, -0.0029)" d="M208 139c61 0 117 -33 117 -99c0 -71 -52 -119 -99 -147c-34 -20 -71 -32 -110 -32c-61 0 -116 33 -116 99c0 71 51 119 98 147c34 20 71 32 110 32z" fill="currentColor"/>
</g>
<g transform="translate(112.4446, 54.7504)">
<rect x="-0.0614" y="-2.8177" width="0.1228" height="3.4354" ry="0.0421" fill="currentColor"/>
</g>
<g transform="translate(116.1882, 55.8557)">
<path transform="scale(0.0029, -0.0029)" d="M208 139c61 0 117 -33 117 -99c0 -71 -52 -119 -99 -147c-34 -20 -71 -32 -110 -32c-61 0 -116 33 -116 99c0 71 51 119 98 147c34 20 71 32 110 32z" fill="currentColor"/>
</g>
<g transform="translate(117.0833, 54.7504)">
<rect x="-0.0614" y="-1.4791" width="0.1228" height="2.4652" ry="0.0421" fill="currentColor"/>
</g>
<g transform="translate(135.6457, 54.7504)">
<rect x="-0.0614" y="-4.7859" width="0.1228" height="2.8246" ry="0.0421" fill="currentColor"/>
</g>
<g transform="translate(132.0336, 52.5399)">
<path transform="scale(0.0029, -0.0029)" d="M208 139c61 0 117 -33 117 -99c0 -71 -52 -119 -99 -147c-34 -20 -71 -32 -110 -32c-61 0 -116 33 -116 99c0 71 51 119 98 147c34 20 71 32 110 32z" fill="currentColor"/>
</g>
<g transform="translate(132.9287, 54.7504)">
<rect x="-0.0614" y="-4.5429" width="0.1228" height="2.2131" ry="0.0421" fill="currentColor"/>
</g>
<g transform="translate(134.7506, 52.9083)">
<path transform="scale(0.0029, -0.0029)" d="M208 139c61 0 117 -33 117 -99c0 -71 -52 -119 -99 -147c-34 -20 -71 -32 -110 -32c-61 0 -116 33 -116 99c0 71 51 119 98 147c34 20 71 32 110 32z" fill="currentColor"/>
</g>
<g transform="translate(133.5901, 52.9083)">
<path transform="scale(0.0029, -0.0029)" d="M0 114c0 12 7 22 18 26l37 15v151c0 12 10 22 22 22s22 -10 22 -22v-134l77 29v152c0 12 10 22 22 22s22 -10 22 -22v-134l16 6c3 1 8 2 11 2c15 0 28 -12 28 -28v-50c0 -12 -7 -23 -18 -27l-37 -14v-152l16 7c3 1 8 2 11 2c15 0 28 -13 28 -29v-50c0 -12 -7 -22 -18 -26
l-37 -15v-151c0 -12 -10 -22 -22 -22s-22 10 -22 22v134l-77 -29v-152c0 -12 -10 -22 -22 -22s-22 10 -22 22v134l-16 -6c-3 -1 -8 -2 -11 -2c-15 0 -28 12 -28 28v50c0 12 7 23 18 27l37 14v152l-16 -7c-3 -1 -8 -2 -11 -2c-15 0 -28 13 -28 29v50zM176 91l-77 -30v-152
l77 30v152z" fill="currentColor"/>
</g>
<g transform="translate(137.1629, 52.1715)">
<path transform="scale(0.0029, -0.0029)" d="M208 139c61 0 117 -33 117 -99c0 -71 -52 -119 -99 -147c-34 -20 -71 -32 -110 -32c-61 0 -116 33 -116 99c0 71 51 119 98 147c34 20 71 32 110 32z" fill="currentColor"/>
</g>
<g transform="translate(127.7206, 53.2768)">
<path transform="scale(0.0029, -0.0029)" d="M208 139c61 0 117 -33 117 -99c0 -71 -52 -119 -99 -147c-34 -20 -71 -32 -110 -32c-61 0 -116 33 -116 99c0 71 51 119 98 147c34 20 71 32 110 32z" fill="currentColor"/>
</g>
<g transform="translate(125.3141, 54.0136)">
<path transform="scale(0.0029, -0.0029)" d="M208 139c61 0 117 -33 117 -99c0 -71 -52 -119 -99 -147c-34 -20 -71 -32 -110 -32c-61 0 -116 33 -116 99c0 71 51 119 98 147c34 20 71 32 110 32z" fill="currentColor"/>
</g>
<g transform="translate(126.2092, 54.7504)">
<rect x="-0.0614" y="-3.6920" width="0.1228" height="2.8359" ry="0.0421" fill="currentColor"/>
</g>
<g transform="translate(128.6157, 54.7504)">
<rect x="-0.0614" y="-3.9967" width="0.1228" height="2.4038" ry="0.0421" fill="currentColor"/>
</g>
<g transform="translate(130.1271, 52.1715)">
<path transform="scale(0.0029, -0.0029)" d="M208 139c61 0 117 -33 117 -99c0 -71 -52 -119 -99 -147c-34 -20 -71 -32 -110 -32c-61 0 -116 33 -116 99c0 71 51 119 98 147c34 20 71 32 110 32z" fill="currentColor"/>
</g>
<g transform="translate(131.0222, 54.7504)">
<rect x="-0.0614" y="-4.3015" width="0.1228" height="1.6033" ry="0.0421" fill="currentColor"/>
</g>
<g transform="translate(99.0130, 54.0136)">
<path transform="scale(0.0029, -0.0029)" d="M208 139c61 0 117 -33 117 -99c0 -71 -52 -119 -99 -147c-34 -20 -71 -32 -110 -32c-61 0 -116 33 -116 99c0 71 51 119 98 147c34 20 71 32 110 32z" fill="currentColor"/>
</g>
<g transform="translate(99.9081, 54.7504)">
<rect x="-0.0614" y="-3.3158" width="0.1228" height="2.4597" ry="0.0421" fill="currentColor"/>
</g>
<g transform="translate(101.7301, 54.3820)">
<path transform="scale(0.0029, -0.0029)" d="M208 139c61 0 117 -33 117 -99c0 -71 -52 -119 -99 -147c-34 -20 -71 -32 -110 -32c-61 0 -116 33 -116 99c0 71 51 119 98 147c34 20 71 32 110 32z" fill="currentColor"/>
</g>
<g transform="translate(102.6252, 54.7504)">
<rect x="-0.0614" y="-2.8177" width="0.1228" height="2.3301" ry="0.0421" fill="currentColor"/>
</g>
<g transform="translate(100.5695, 54.3820)">
<path transform="scale(0.0029, -0.0029)" d="M0 114c0 12 7 22 18 26l37 15v151c0 12 10 22 22 22s22 -10 22 -22v-134l77 29v152c0 12 10 22 22 22s22 -10 22 -22v-134l16 6c3 1 8 2 11 2c15 0 28 -12 28 -28v-50c0 -12 -7 -23 -18 -27l-37 -14v-152l16 7c3 1 8 2 11 2c15 0 28 -13 28 -29v-50c0 -12 -7 -22 -18 -26
l-37 -15v-151c0 -12 -10 -22 -22 -22s-22 10 -22 22v134l-77 -29v-152c0 -12 -10 -22 -22 -22s-22 10 -22 22v134l-16 -6c-3 -1 -8 -2 -11 -2c-15 0 -28 12 -28 28v50c0 12 7 23 18 27l37 14v152l-16 -7c-3 -1 -8 -2 -11 -2c-15 0 -28 13 -28 29v50zM176 91l-77 -30v-152
l77 30v152z" fill="currentColor"/>
</g>
<g transform="translate(94.7001, 53.2768)">
<path transform="scale(0.0029, -0.0029)" d="M208 139c61 0 117 -33 117 -99c0 -71 -52 -119 -99 -147c-34 -20 -71 -32 -110 -32c-61 0 -116 33 -116 99c0 71 51 119 98 147c34 20 71 32 110 32z" fill="currentColor"/>
</g>
<g transform="translate(95.5952, 54.7504)">
<rect x="-0.0614" y="-3.3158" width="0.1228" height="1.7229" ry="0.0421" fill="currentColor"/>
</g>
<g transform="translate(96.8566, 53.6452)">
<path transform="scale(0.0029, -0.0029)" d="M208 139c61 0 117 -33 117 -99c0 -71 -52 -119 -99 -147c-34 -20 -71 -32 -110 -32c-61 0 -116 33 -116 99c0 71 51 119 98 147c34 20 71 32 110 32z" fill="currentColor"/>
</g>
<g transform="translate(97.7517, 54.7504)">
<rect x="-0.0614" y="-3.3158" width="0.1228" height="2.0913" ry="0.0421" fill="currentColor"/>
</g>
<g transform="translate(104.8365, 55.1189)">
<path transform="scale(0.0029, -0.0029)" d="M208 139c61 0 117 -33 117 -99c0 -71 -52 -119 -99 -147c-34 -20 -71 -32 -110 -32c-61 0 -116 33 -116 99c0 71 51 119 98 147c34 20 71 32 110 32z" fill="currentColor"/>
</g>
<g transform="translate(105.7316, 54.7504)">
<rect x="-0.0614" y="-2.8177" width="0.1228" height="3.0669" ry="0.0421" fill="currentColor"/>
</g>
<g transform="translate(109.3381, 54.7504)">
<rect x="-0.0614" y="-2.8177" width="0.1228" height="1.5933" ry="0.0421" fill="currentColor"/>
</g>
<g transform="translate(108.4430, 53.6452)">
<path transform="scale(0.0029, -0.0029)" d="M208 139c61 0 117 -33 117 -99c0 -71 -52 -119 -99 -147c-34 -20 -71 -32 -110 -32c-61 0 -116 33 -116 99c0 71 51 119 98 147c34 20 71 32 110 32z" fill="currentColor"/>
</g>
</svg>
