<svg xmlns="http://www.w3.org/2000/svg" xmlns:xlink="http://www.w3.org/1999/xlink" version="1.2" width="594.00mm" height="420.00mm" viewBox="0.0000 -0.0000 355.8092 251.5823">
<style type="text/css">
<![CDATA[
tspan { white-space: pre; }
]]>
</style>
<g transform="translate(17.9702, 56.2241)">
<line stroke-linejoin="round" stroke-linecap="round" stroke-width="0.0944" stroke="currentColor" x1="0.0472" y1="0" x2="182.9342" y2="0"/>
</g>
<g transform="translate(17.9702, 55.4873)">
<line stroke-linejoin="round" stroke-linecap="round" stroke-width="0.0944" stroke="currentColor" x1="0.0472" y1="0" x2="182.9342" y2="0"/>
</g>
<g transform="translate(17.9702, 54.7504)">
<line stroke-linejoin="round" stroke-linecap="round" stroke-width="0.0944" stroke="currentColor" x1="0.0472" y1="0" x2="182.9342" y2="0"/>
</g>
<g transform="translate(17.9702, 54.0136)">
<line stroke-linejoin="round" stroke-linecap="round" stroke-width="0.0944" stroke="currentColor" x1="0.0472" y1="0" x2="182.9342" y2="0"/>
</g>
<g transform="translate(17.9702, 53.2768)">
<line stroke-linejoin="round" stroke-linecap="round" stroke-width="0.0944" stroke="currentColor" x1="0.0472" y1="0" x2="182.9342" y2="0"/>
</g>
<g transform="translate(66.6616, 54.7504)">
<rect x="0.0000" y="-1.4737" width="0.1794" height="2.9474" ry="0.0000" fill="currentColor"/>
</g>
<g transform="translate(152.7477, 54.7504)">
<rect x="0.0000" y="-1.4737" width="0.1794" height="2.9474" ry="0.0000" fill="currentColor"/>
</g>
<g transform="translate(178.1352, 54.7504)">
<rect x="0.0000" y="-1.4737" width="0.1794" height="2.9474" ry="0.0000" fill="currentColor"/>
</g>
<g transform="translate(89.4228, 54.7504)">
<rect x="0.0000" y="-1.4737" width="0.1794" height="2.9474" ry="0.0000" fill="currentColor"/>
</g>
<g transform="translate(46.1866, 54.7504)">
<rect x="0.0000" y="-1.4737" width="0.1794" height="2.9474" ry="0.0000" fill="currentColor"/>
</g>
<g transform="translate(131.0003, 54.7504)">
<rect x="0.0000" y="-1.4737" width="0.1794" height="2.9474" ry="0.0000" fill="currentColor"/>
</g>
<g transform="translate(200.7722, 54.7504)">
<rect x="0.0000" y="-1.4737" width="0.1794" height="2.9474" ry="0.0000" fill="currentColor"/>
</g>
<g transform="translate(109.4726, 54.7504)">
<rect x="0.0000" y="-1.4737" width="0.1794" height="2.9474" ry="0.0000" fill="currentColor"/>
</g>
<g transform="translate(17.9702, 56.9610)">
<rect x="180.3051" y="-0.0841" width="1.4347" height="0.1681" ry="0.0841" fill="currentColor"/>
</g>
<g transform="translate(17.9702, 57.6978)">
<rect x="180.3051" y="-0.0841" width="1.4347" height="0.1681" ry="0.0841" fill="currentColor"/>
</g>
<g transform="translate(17.9702, 52.5399)">
<rect x="127.1608" y="-0.0841" width="1.4347" height="0.1681" ry="0.0841" fill="currentColor"/>
</g>
<g transform="translate(17.9702, 52.5399)">
<rect x="120.9459" y="-0.0841" width="1.4347" height="0.1681" ry="0.0841" fill="currentColor"/>
</g>
<g transform="translate(17.9702, 52.5399)">
<rect x="119.0394" y="-0.0841" width="1.4347" height="0.1681" ry="0.0841" fill="currentColor"/>
</g>
<g transform="translate(17.9702, 52.5399)">
<rect x="106.8261" y="-0.0841" width="1.4347" height="0.1681" ry="0.0841" fill="currentColor"/>
</g>
<g transform="translate(17.9702, 52.5399)">
<rect x="105.0196" y="-0.0841" width="1.4347" height="0.1681" ry="0.0841" fill="currentColor"/>
</g>
<g transform="translate(17.9702, 52.5399)">
<rect x="42.3472" y="-0.0841" width="1.4347" height="0.1681" ry="0.0841" fill="currentColor"/>
</g>
<g transform="translate(17.9702, 52.5399)">
<rect x="36.1322" y="-0.0841" width="1.4347" height="0.1681" ry="0.0841" fill="currentColor"/>
</g>
<g transform="translate(17.9702, 52.5399)">
<rect x="34.2258" y="-0.0841" width="1.4347" height="0.1681" ry="0.0841" fill="currentColor"/>
</g>
<g transform="translate(17.9702, 52.5399)">
<rect x="21.9972" y="-0.0841" width="1.4347" height="0.1681" ry="0.0841" fill="currentColor"/>
</g>
<g transform="translate(17.9702, 52.5399)">
<rect x="20.1908" y="-0.0841" width="1.4347" height="0.1681" ry="0.0841" fill="currentColor"/>
</g>
<g transform="translate(194.1270, 52.6695)">
<polygon stroke-linejoin="round" stroke-linecap="round" stroke-width="0.0842" fill="currentColor" stroke="currentColor" points="5.3017 0.4725 5.3017 0.7420 0.0421 0.1347 0.0421 -0.1347"/>
</g>
<g transform="translate(198.3094, 53.7520)">
<polygon stroke-linejoin="round" stroke-linecap="round" stroke-width="0.0842" fill="currentColor" stroke="currentColor" points="1.1193 -0.0028 1.1193 0.2667 0.0421 0.1347 0.0421 -0.1347"/>
</g>
<g transform="translate(148.5070, 56.2241)">
<path transform="scale(0.0029, -0.0029)" d="M57 -500l102 325c-32 -11 -66 -21 -100 -21c-47 0 -87 34 -87 79c0 40 34 72 75 72c25 0 49 -13 57 -36c10 -26 4 -58 32 -58c15 0 49 49 54 64l47 150c-32 -11 -66 -21 -100 -21c-47 0 -87 34 -87 79c0 40 34 72 75 72c25 0 49 -13 57 -36c10 -26 4 -58 32 -58
c13 0 43 38 49 50c8 15 30 15 37 0l-173 -661c-10 -8 -23 -13 -35 -13s-25 5 -35 13z" fill="currentColor"/>
</g>
<g transform="translate(146.2652, 54.7504)">
<rect x="-0.0614" y="-4.2859" width="0.1228" height="1.9562" ry="0.0421" fill="currentColor"/>
</g>
<g transform="translate(150.5912, 53.2768)">
<path transform="scale(0.0029, -0.0029)" d="M208 139c61 0 117 -33 117 -99c0 -71 -52 -119 -99 -147c-34 -20 -71 -32 -110 -32c-61 0 -116 33 -116 99c0 71 51 119 98 147c34 20 71 32 110 32z" fill="currentColor"/>
</g>
<g transform="translate(150.5912, 54.3820)">
<path transform="scale(0.0029, -0.0029)" d="M208 139c61 0 117 -33 117 -99c0 -71 -52 -119 -99 -147c-34 -20 -71 -32 -110 -32c-61 0 -116 33 -116 99c0 71 51 119 98 147c34 20 71 32 110 32z" fill="currentColor"/>
</g>
<g transform="translate(151.4863, 54.7504)">
<rect x="-0.0614" y="-3.8193" width="0.1228" height="2.2264" ry="0.0421" fill="currentColor"/>
</g>
<g transform="translate(140.4332, 52.1715)">
<path transform="scale(0.0029, -0.0029)" d="M0 0c0 30 25 55 55 55s54 -25 54 -55s-24 -55 -54 -55s-55 25 -55 55z" fill="currentColor"/>
</g>
<g transform="translate(140.0503, 54.7504)">
<rect x="-0.0614" y="-4.2879" width="0.1228" height="1.9582" ry="0.0421" fill="currentColor"/>
</g>
<g transform="translate(139.2166, 54.7504)">
<rect x="-0.0614" y="-0.2492" width="0.1228" height="2.4597" ry="0.0421" fill="currentColor"/>
</g>
<g transform="translate(111.9706, 54.3820)">
<path transform="scale(0.0029, -0.0029)" d="M0 0c0 30 25 55 55 55s54 -25 54 -55s-24 -55 -54 -55s-55 25 -55 55z" fill="currentColor"/>
</g>
<g transform="translate(150.6526, 54.7504)">
<rect x="-0.0614" y="-0.2492" width="0.1228" height="2.4597" ry="0.0421" fill="currentColor"/>
</g>
<g transform="translate(138.2894, 54.3820)">
<path transform="scale(0.0029, -0.0029)" d="M-8 375c8 5 18 7 27 7s20 -2 28 -7l-3 -196l99 24h4c11 0 20 -8 20 -19l8 -559c-8 -5 -19 -7 -28 -7s-19 2 -27 7l3 196l-99 -24h-5c-11 0 -19 8 -19 19zM127 109l-85 -20l-2 -198l84 20z" fill="currentColor"/>
</g>
<g transform="translate(143.2136, 52.9083)">
<path transform="scale(0.0029, -0.0029)" d="M208 139c61 0 117 -33 117 -99c0 -71 -52 -119 -99 -147c-34 -20 -71 -32 -110 -32c-61 0 -116 33 -116 99c0 71 51 119 98 147c34 20 71 32 110 32z" fill="currentColor"/>
</g>
<g transform="translate(144.1087, 54.7504)">
<rect x="-0.0614" y="-4.0561" width="0.1228" height="2.0948" ry="0.0421" fill="currentColor"/>
</g>
<g transform="translate(145.3701, 52.5399)">
<path transform="scale(0.0029, -0.0029)" d="M208 139c61 0 117 -33 117 -99c0 -71 -52 -119 -99 -147c-34 -20 -71 -32 -110 -32c-61 0 -116 33 -116 99c0 71 51 119 98 147c34 20 71 32 110 32z" fill="currentColor"/>
</g>
<g transform="translate(145.3701, 56.2241)">
<path transform="scale(0.0029, -0.0029)" d="M63 -250l119 325c-32 -11 -65 -21 -99 -21c-47 0 -87 34 -87 79c0 40 34 72 75 72c25 0 48 -13 56 -36c10 -26 4 -58 32 -58c13 0 48 38 54 50c8 15 30 15 37 0l-117 -411c-10 -8 -23 -13 -35 -13s-25 5 -35 13z" fill="currentColor"/>
</g>
<g transform="translate(146.6482, 52.1715)">
<path transform="scale(0.0029, -0.0029)" d="M0 0c0 30 25 55 55 55s54 -25 54 -55s-24 -55 -54 -55s-55 25 -55 55z" fill="currentColor"/>
</g>
<g transform="translate(153.5271, 54.7504)">
<path transform="scale(0.0029, -0.0029)" d="M-8 375c8 5 18 7 27 7s20 -2 28 -7l-3 -196l99 24h4c11 0 20 -8 20 -19l8 -559c-8 -5 -19 -7 -28 -7s-19 2 -27 7l3 196l-99 -24h-5c-11 0 -19 8 -19 19zM127 109l-85 -20l-2 -198l84 20z" fill="currentColor"/>
</g>
<g transform="translate(158.4513, 53.2768)">
<path transform="scale(0.0029, -0.0029)" d="M208 139c61 0 117 -33 117 -99c0 -71 -52 -119 -99 -147c-34 -20 -71 -32 -110 -32c-61 0 -116 33 -116 99c0 71 51 119 98 147c34 20 71 32 110 32z" fill="currentColor"/>
</g>
<g transform="translate(159.3464, 54.7504)">
<rect x="-0.0614" y="-3.5584" width="0.1228" height="1.9655" ry="0.0421" fill="currentColor"/>
</g>
<g transform="translate(161.0598, 53.6452)">
<path transform="scale(0.0029, -0.0029)" d="M208 139c61 0 117 -33 117 -99c0 -71 -52 -119 -99 -147c-34 -20 -71 -32 -110 -32c-61 0 -116 33 -116 99c0 71 51 119 98 147c34 20 71 32 110 32z" fill="currentColor"/>
</g>
<g transform="translate(161.0598, 54.7504)">
<path transform="scale(0.0029, -0.0029)" d="M208 139c61 0 117 -33 117 -99c0 -71 -52 -119 -99 -147c-34 -20 -71 -32 -110 -32c-61 0 -116 33 -116 99c0 71 51 119 98 147c34 20 71 32 110 32z" fill="currentColor"/>
</g>
<g transform="translate(162.3378, 53.6452)">
<path transform="scale(0.0029, -0.0029)" d="M0 0c0 30 25 55 55 55s54 -25 54 -55s-24 -55 -54 -55s-55 25 -55 55z" fill="currentColor"/>
</g>
<g transform="translate(161.9549, 54.7504)">
<rect x="-0.0614" y="-3.6809" width="0.1228" height="2.4564" ry="0.0421" fill="currentColor"/>
</g>
<g transform="translate(139.1552, 54.3820)">
<path transform="scale(0.0029, -0.0029)" d="M208 139c61 0 117 -33 117 -99c0 -71 -52 -119 -99 -147c-34 -20 -71 -32 -110 -32c-61 0 -116 33 -116 99c0 71 51 119 98 147c34 20 71 32 110 32z" fill="currentColor"/>
</g>
<g transform="translate(150.7139, 56.9189)">
<path transform="scale(0.0029, -0.0029)" d="M266 659c0 -44 -15 -80 -38 -114c16 -35 25 -73 25 -111c0 -180 -252 -254 -253 -433v-1h-21v500h21v-70c94 49 217 126 217 229c0 20 -5 41 -14 59v5c0 16 13 26 27 26c32 0 36 -61 36 -90zM0 205c88 51 204 130 204 229c0 22 -4 44 -12 65c-79 -85 -192 -155 -192 -274
v-20z" fill="currentColor"/>
</g>
<g transform="translate(149.4306, 53.2768)">
<path transform="scale(0.0029, -0.0029)" d="M0 114c0 12 7 22 18 26l37 15v151c0 12 10 22 22 22s22 -10 22 -22v-134l77 29v152c0 12 10 22 22 22s22 -10 22 -22v-134l16 6c3 1 8 2 11 2c15 0 28 -12 28 -28v-50c0 -12 -7 -23 -18 -27l-37 -14v-152l16 7c3 1 8 2 11 2c15 0 28 -13 28 -29v-50c0 -12 -7 -22 -18 -26
l-37 -15v-151c0 -12 -10 -22 -22 -22s-22 10 -22 22v134l-77 -29v-152c0 -12 -10 -22 -22 -22s-22 10 -22 22v134l-16 -6c-3 -1 -8 -2 -11 -2c-15 0 -28 12 -28 28v50c0 12 7 23 18 27l37 14v152l-16 -7c-3 -1 -8 -2 -11 -2c-15 0 -28 13 -28 29v50zM176 91l-77 -30v-152
l77 30v152z" fill="currentColor"/>
</g>
<g transform="translate(154.3929, 52.9083)">
<path transform="scale(0.0029, -0.0029)" d="M208 139c61 0 117 -33 117 -99c0 -71 -52 -119 -99 -147c-34 -20 -71 -32 -110 -32c-61 0 -116 33 -116 99c0 71 51 119 98 147c34 20 71 32 110 32z" fill="currentColor"/>
</g>
<g transform="translate(154.3929, 54.7504)">
<path transform="scale(0.0029, -0.0029)" d="M208 139c61 0 117 -33 117 -99c0 -71 -52 -119 -99 -147c-34 -20 -71 -32 -110 -32c-61 0 -116 33 -116 99c0 71 51 119 98 147c34 20 71 32 110 32z" fill="currentColor"/>
</g>
<g transform="translate(155.6709, 52.9083)">
<path transform="scale(0.0029, -0.0029)" d="M0 0c0 30 25 55 55 55s54 -25 54 -55s-24 -55 -54 -55s-55 25 -55 55z" fill="currentColor"/>
</g>
<g transform="translate(155.2880, 54.7504)">
<rect x="-0.0614" y="-3.8100" width="0.1228" height="1.8487" ry="0.0421" fill="currentColor"/>
</g>
<g transform="translate(154.4543, 54.7504)">
<rect x="-0.0614" y="0.1192" width="0.1228" height="2.3369" ry="0.0421" fill="currentColor"/>
</g>
<g transform="translate(123.2289, 52.5399)">
<path transform="scale(0.0029, -0.0029)" d="M208 139c61 0 117 -33 117 -99c0 -71 -52 -119 -99 -147c-34 -20 -71 -32 -110 -32c-61 0 -116 33 -116 99c0 71 51 119 98 147c34 20 71 32 110 32z" fill="currentColor"/>
</g>
<g transform="translate(110.8153, 56.5504)">
<path transform="scale(0.0029, -0.0029)" d="M0 250c94 60 217 150 217 259c0 56 -15 110 -41 160v6c0 16 14 26 28 26c9 0 17 -4 22 -14c25 -56 40 -116 40 -178c0 -203 -266 -306 -266 -509h-21v250h21z" fill="currentColor"/>
</g>
<g transform="translate(121.6724, 52.9083)">
<path transform="scale(0.0029, -0.0029)" d="M208 139c61 0 117 -33 117 -99c0 -71 -52 -119 -99 -147c-34 -20 -71 -32 -110 -32c-61 0 -116 33 -116 99c0 71 51 119 98 147c34 20 71 32 110 32z" fill="currentColor"/>
</g>
<g transform="translate(122.5675, 54.7504)">
<rect x="-0.0614" y="-4.4102" width="0.1228" height="2.4489" ry="0.0421" fill="currentColor"/>
</g>
<g transform="translate(118.5091, 54.7504)">
<rect x="-0.0614" y="-4.0580" width="0.1228" height="2.4650" ry="0.0421" fill="currentColor"/>
</g>
<g transform="translate(124.1240, 54.7504)">
<rect x="-0.0614" y="-4.5453" width="0.1228" height="2.2156" ry="0.0421" fill="currentColor"/>
</g>
<g transform="translate(125.0354, 52.1715)">
<path transform="scale(0.0029, -0.0029)" d="M208 139c61 0 117 -33 117 -99c0 -71 -52 -119 -99 -147c-34 -20 -71 -32 -110 -32c-61 0 -116 33 -116 99c0 71 51 119 98 147c34 20 71 32 110 32z" fill="currentColor"/>
</g>
<g transform="translate(126.3134, 52.1715)">
<path transform="scale(0.0029, -0.0029)" d="M0 0c0 30 25 55 55 55s54 -25 54 -55s-24 -55 -54 -55s-55 25 -55 55z" fill="currentColor"/>
</g>
<g transform="translate(125.9305, 54.7504)">
<rect x="-0.0614" y="-4.4116" width="0.1228" height="1.7134" ry="0.0421" fill="currentColor"/>
</g>
<g transform="translate(114.5010, 54.0136)">
<path transform="scale(0.0029, -0.0029)" d="M208 139c61 0 117 -33 117 -99c0 -71 -52 -119 -99 -147c-34 -20 -71 -32 -110 -32c-61 0 -116 33 -116 99c0 71 51 119 98 147c34 20 71 32 110 32z" fill="currentColor"/>
</g>
<g transform="translate(115.3961, 54.7504)">
<rect x="-0.0614" y="-3.6310" width="0.1228" height="2.7749" ry="0.0421" fill="currentColor"/>
</g>
<g transform="translate(116.0575, 53.6452)">
<path transform="scale(0.0029, -0.0029)" d="M208 139c61 0 117 -33 117 -99c0 -71 -52 -119 -99 -147c-34 -20 -71 -32 -110 -32c-61 0 -116 33 -116 99c0 71 51 119 98 147c34 20 71 32 110 32z" fill="currentColor"/>
</g>
<g transform="translate(116.9526, 54.7504)">
<rect x="-0.0614" y="-3.5575" width="0.1228" height="2.3330" ry="0.0421" fill="currentColor"/>
</g>
<g transform="translate(117.6140, 53.2768)">
<path transform="scale(0.0029, -0.0029)" d="M208 139c61 0 117 -33 117 -99c0 -71 -52 -119 -99 -147c-34 -20 -71 -32 -110 -32c-61 0 -116 33 -116 99c0 71 51 119 98 147c34 20 71 32 110 32z" fill="currentColor"/>
</g>
<g transform="translate(118.8920, 52.9083)">
<path transform="scale(0.0029, -0.0029)" d="M0 0c0 30 25 55 55 55s54 -25 54 -55s-24 -55 -54 -55s-55 25 -55 55z" fill="currentColor"/>
</g>
<g transform="translate(133.0016, 54.7504)">
<rect x="-0.0614" y="-0.2492" width="0.1228" height="2.4597" ry="0.0421" fill="currentColor"/>
</g>
<g transform="translate(131.7797, 54.3820)">
<path transform="scale(0.0029, -0.0029)" d="M0 114c0 12 7 22 18 26l37 15v151c0 12 10 22 22 22s22 -10 22 -22v-134l77 29v152c0 12 10 22 22 22s22 -10 22 -22v-134l16 6c3 1 8 2 11 2c15 0 28 -12 28 -28v-50c0 -12 -7 -23 -18 -27l-37 -14v-152l16 7c3 1 8 2 11 2c15 0 28 -13 28 -29v-50c0 -12 -7 -22 -18 -26
l-37 -15v-151c0 -12 -10 -22 -22 -22s-22 10 -22 22v134l-77 -29v-152c0 -12 -10 -22 -22 -22s-22 10 -22 22v134l-16 -6c-3 -1 -8 -2 -11 -2c-15 0 -28 12 -28 28v50c0 12 7 23 18 27l37 14v152l-16 -7c-3 -1 -8 -2 -11 -2c-15 0 -28 13 -28 29v50zM176 91l-77 -30v-152
l77 30v152z" fill="currentColor"/>
</g>
<g transform="translate(137.2487, 52.1715)">
<path transform="scale(0.0029, -0.0029)" d="M208 139c61 0 117 -33 117 -99c0 -71 -52 -119 -99 -147c-34 -20 -71 -32 -110 -32c-61 0 -116 33 -116 99c0 71 51 119 98 147c34 20 71 32 110 32z" fill="currentColor"/>
</g>
<g transform="translate(138.1438, 54.7504)">
<rect x="-0.0614" y="-4.5387" width="0.1228" height="1.8405" ry="0.0421" fill="currentColor"/>
</g>
<g transform="translate(110.7539, 54.7504)">
<rect x="-0.0614" y="-0.6176" width="0.1228" height="2.4597" ry="0.0421" fill="currentColor"/>
</g>
<g transform="translate(139.1552, 52.5399)">
<path transform="scale(0.0029, -0.0029)" d="M208 139c61 0 117 -33 117 -99c0 -71 -52 -119 -99 -147c-34 -20 -71 -32 -110 -32c-61 0 -116 33 -116 99c0 71 51 119 98 147c34 20 71 32 110 32z" fill="currentColor"/>
</g>
<g transform="translate(128.8438, 53.2768)">
<path transform="scale(0.0029, -0.0029)" d="M208 139c61 0 117 -33 117 -99c0 -71 -52 -119 -99 -147c-34 -20 -71 -32 -110 -32c-61 0 -116 33 -116 99c0 71 51 119 98 147c34 20 71 32 110 32z" fill="currentColor"/>
</g>
<g transform="translate(128.8438, 54.0136)">
<path transform="scale(0.0029, -0.0029)" d="M208 139c61 0 117 -33 117 -99c0 -71 -52 -119 -99 -147c-34 -20 -71 -32 -110 -32c-61 0 -116 33 -116 99c0 71 51 119 98 147c34 20 71 32 110 32z" fill="currentColor"/>
</g>
<g transform="translate(129.7389, 54.7504)">
<rect x="-0.0614" y="-3.8233" width="0.1228" height="2.2304" ry="0.0421" fill="currentColor"/>
</g>
<g transform="translate(128.9052, 54.7504)">
<rect x="-0.0614" y="-0.6176" width="0.1228" height="2.4597" ry="0.0421" fill="currentColor"/>
</g>
<g transform="translate(128.9666, 56.5504)">
<path transform="scale(0.0029, -0.0029)" d="M266 659c0 -44 -15 -80 -38 -114c16 -35 25 -73 25 -111c0 -180 -252 -254 -253 -433v-1h-21v500h21v-70c94 49 217 126 217 229c0 20 -5 41 -14 59v5c0 16 13 26 27 26c32 0 36 -61 36 -90zM0 205c88 51 204 130 204 229c0 22 -4 44 -12 65c-79 -85 -192 -155 -192 -274
v-20z" fill="currentColor"/>
</g>
<g transform="translate(132.9403, 53.6452)">
<path transform="scale(0.0029, -0.0029)" d="M208 139c61 0 117 -33 117 -99c0 -71 -52 -119 -99 -147c-34 -20 -71 -32 -110 -32c-61 0 -116 33 -116 99c0 71 51 119 98 147c34 20 71 32 110 32z" fill="currentColor"/>
</g>
<g transform="translate(132.9403, 54.3820)">
<path transform="scale(0.0029, -0.0029)" d="M208 139c61 0 117 -33 117 -99c0 -71 -52 -119 -99 -147c-34 -20 -71 -32 -110 -32c-61 0 -116 33 -116 99c0 71 51 119 98 147c34 20 71 32 110 32z" fill="currentColor"/>
</g>
<g transform="translate(134.2183, 53.6452)">
<path transform="scale(0.0029, -0.0029)" d="M0 0c0 30 25 55 55 55s54 -25 54 -55s-24 -55 -54 -55s-55 25 -55 55z" fill="currentColor"/>
</g>
<g transform="translate(133.8354, 54.7504)">
<rect x="-0.0614" y="-3.6962" width="0.1228" height="2.4717" ry="0.0421" fill="currentColor"/>
</g>
<g transform="translate(190.8810, 54.7504)">
<path transform="scale(0.0029, -0.0029)" d="M-8 375c8 5 18 7 27 7s20 -2 28 -7l-3 -196l99 24h4c11 0 20 -8 20 -19l8 -559c-8 -5 -19 -7 -28 -7s-19 2 -27 7l3 196l-99 -24h-5c-11 0 -19 8 -19 19zM127 109l-85 -20l-2 -198l84 20z" fill="currentColor"/>
</g>
<g transform="translate(193.2933, 54.3820)">
<path transform="scale(0.0029, -0.0029)" d="M208 139c61 0 117 -33 117 -99c0 -71 -52 -119 -99 -147c-34 -20 -71 -32 -110 -32c-61 0 -116 33 -116 99c0 71 51 119 98 147c34 20 71 32 110 32z" fill="currentColor"/>
</g>
<g transform="translate(193.2933, 56.2241)">
<path transform="scale(0.0029, -0.0029)" d="M63 -250l119 325c-32 -11 -65 -21 -99 -21c-47 0 -87 34 -87 79c0 40 34 72 75 72c25 0 48 -13 56 -36c10 -26 4 -58 32 -58c13 0 48 38 54 50c8 15 30 15 37 0l-117 -411c-10 -8 -23 -13 -35 -13s-25 5 -35 13z" fill="currentColor"/>
</g>
<g transform="translate(194.5713, 54.3820)">
<path transform="scale(0.0029, -0.0029)" d="M0 0c0 30 25 55 55 55s54 -25 54 -55s-24 -55 -54 -55s-55 25 -55 55z" fill="currentColor"/>
</g>
<g transform="translate(194.1884, 54.7504)">
<rect x="-0.0614" y="-2.0739" width="0.1228" height="1.5863" ry="0.0421" fill="currentColor"/>
</g>
<g transform="translate(192.6319, 54.7504)">
<rect x="-0.0614" y="-3.3192" width="0.1228" height="3.2000" ry="0.0421" fill="currentColor"/>
</g>
<g transform="translate(196.4301, 56.2241)">
<path transform="scale(0.0029, -0.0029)" d="M57 -500l102 325c-32 -11 -66 -21 -100 -21c-47 0 -87 34 -87 79c0 40 34 72 75 72c25 0 49 -13 57 -36c10 -26 4 -58 32 -58c15 0 49 49 54 64l47 150c-32 -11 -66 -21 -100 -21c-47 0 -87 34 -87 79c0 40 34 72 75 72c25 0 49 -13 57 -36c10 -26 4 -58 32 -58
c13 0 43 38 49 50c8 15 30 15 37 0l-173 -661c-10 -8 -23 -13 -35 -13s-25 5 -35 13z" fill="currentColor"/>
</g>
<g transform="translate(186.1611, 54.7504)">
<rect x="-0.0614" y="-3.6808" width="0.1228" height="2.8247" ry="0.0421" fill="currentColor"/>
</g>
<g transform="translate(187.1176, 54.7504)">
<rect x="-0.0614" y="-3.1930" width="0.1228" height="1.9685" ry="0.0421" fill="currentColor"/>
</g>
<g transform="translate(185.3274, 54.7504)">
<rect x="-0.0614" y="0.4876" width="0.1228" height="2.2141" ry="0.0421" fill="currentColor"/>
</g>
<g transform="translate(189.3245, 54.3820)">
<path transform="scale(0.0029, -0.0029)" d="M208 139c61 0 117 -33 117 -99c0 -71 -52 -119 -99 -147c-34 -20 -71 -32 -110 -32c-61 0 -116 33 -116 99c0 71 51 119 98 147c34 20 71 32 110 32z" fill="currentColor"/>
</g>
<g transform="translate(190.2196, 54.7504)">
<rect x="-0.0614" y="-3.4540" width="0.1228" height="2.9664" ry="0.0421" fill="currentColor"/>
</g>
<g transform="translate(188.1639, 54.3820)">
<path transform="scale(0.0029, -0.0029)" d="M0 114c0 12 7 22 18 26l37 15v151c0 12 10 22 22 22s22 -10 22 -22v-134l77 29v152c0 12 10 22 22 22s22 -10 22 -22v-134l16 6c3 1 8 2 11 2c15 0 28 -12 28 -28v-50c0 -12 -7 -23 -18 -27l-37 -14v-152l16 7c3 1 8 2 11 2c15 0 28 -13 28 -29v-50c0 -12 -7 -22 -18 -26
l-37 -15v-151c0 -12 -10 -22 -22 -22s-22 10 -22 22v134l-77 -29v-152c0 -12 -10 -22 -22 -22s-22 10 -22 22v134l-16 -6c-3 -1 -8 -2 -11 -2c-15 0 -28 12 -28 28v50c0 12 7 23 18 27l37 14v152l-16 -7c-3 -1 -8 -2 -11 -2c-15 0 -28 13 -28 29v50zM176 91l-77 -30v-152
l77 30v152z" fill="currentColor"/>
</g>
<g transform="translate(191.7368, 54.7504)">
<path transform="scale(0.0029, -0.0029)" d="M208 139c61 0 117 -33 117 -99c0 -71 -52 -119 -99 -147c-34 -20 -71 -32 -110 -32c-61 0 -116 33 -116 99c0 71 51 119 98 147c34 20 71 32 110 32z" fill="currentColor"/>
</g>
<g transform="translate(106.3489, 56.0830)">
<polygon stroke-linejoin="round" stroke-linecap="round" stroke-width="0.0842" fill="currentColor" stroke="currentColor" points="1.1193 0.0064 1.1193 0.2758 0.0421 0.1347 0.0421 -0.1347"/>
</g>
<g transform="translate(103.5791, 56.3538)">
<polygon stroke-linejoin="round" stroke-linecap="round" stroke-width="0.0842" fill="currentColor" stroke="currentColor" points="3.8891 0.3429 3.8891 0.6123 0.0421 0.1347 0.0421 -0.1347"/>
</g>
<g transform="translate(41.0403, 50.3294)">
<polygon stroke-linejoin="round" stroke-linecap="round" stroke-width="0.0842" fill="currentColor" stroke="currentColor" points="3.9043 0.4725 3.9043 0.7420 0.0421 0.1347 0.0421 -0.1347"/>
</g>
<g transform="translate(43.8253, 51.3651)">
<polygon stroke-linejoin="round" stroke-linecap="round" stroke-width="0.0842" fill="currentColor" stroke="currentColor" points="1.1193 0.0440 1.1193 0.3134 0.0421 0.1347 0.0421 -0.1347"/>
</g>
<g transform="translate(48.9603, 51.0662)">
<polygon stroke-linejoin="round" stroke-linecap="round" stroke-width="0.0842" fill="currentColor" stroke="currentColor" points="4.3891 -1.0012 4.3891 -0.7317 0.0421 0.1347 0.0421 -0.1347"/>
</g>
<g transform="translate(52.2301, 51.0341)">
<polygon stroke-linejoin="round" stroke-linecap="round" stroke-width="0.0842" fill="currentColor" stroke="currentColor" points="1.1193 -0.3618 1.1193 -0.0924 0.0421 0.1347 0.0421 -0.1347"/>
</g>
<g transform="translate(55.1752, 50.4590)">
<polygon stroke-linejoin="round" stroke-linecap="round" stroke-width="0.0842" fill="currentColor" stroke="currentColor" points="4.1391 0.1041 4.1391 0.3735 0.0421 0.1347 0.0421 -0.1347"/>
</g>
<g transform="translate(58.1951, 51.2387)">
<polygon stroke-linejoin="round" stroke-linecap="round" stroke-width="0.0842" fill="currentColor" stroke="currentColor" points="1.1193 -0.0684 1.1193 0.2011 0.0421 0.1347 0.0421 -0.1347"/>
</g>
<g transform="translate(61.3902, 50.4590)">
<polygon stroke-linejoin="round" stroke-linecap="round" stroke-width="0.0842" fill="currentColor" stroke="currentColor" points="4.0293 0.3429 4.0293 0.6123 0.0421 0.1347 0.0421 -0.1347"/>
</g>
<g transform="translate(64.3002, 51.4076)">
<polygon stroke-linejoin="round" stroke-linecap="round" stroke-width="0.0842" fill="currentColor" stroke="currentColor" points="1.1193 0.0015 1.1193 0.2710 0.0421 0.1347 0.0421 -0.1347"/>
</g>
<g transform="translate(69.1405, 50.9366)">
<polygon stroke-linejoin="round" stroke-linecap="round" stroke-width="0.0842" fill="currentColor" stroke="currentColor" points="4.1391 0.1245 4.1391 0.3940 0.0421 0.1347 0.0421 -0.1347"/>
</g>
<g transform="translate(72.1603, 51.7311)">
<polygon stroke-linejoin="round" stroke-linecap="round" stroke-width="0.0842" fill="currentColor" stroke="currentColor" points="1.1193 -0.0627 1.1193 0.2067 0.0421 0.1347 0.0421 -0.1347"/>
</g>
<g transform="translate(75.8074, 51.0662)">
<polygon stroke-linejoin="round" stroke-linecap="round" stroke-width="0.0842" fill="currentColor" stroke="currentColor" points="6.8561 0.2337 6.8561 0.5032 0.0421 0.1347 0.0421 -0.1347"/>
</g>
<g transform="translate(79.8659, 51.8902)">
<polygon stroke-linejoin="round" stroke-linecap="round" stroke-width="0.0842" fill="currentColor" stroke="currentColor" points="2.7977 0.0169 2.7977 0.2864 0.0421 0.1347 0.0421 -0.1347"/>
</g>
<g transform="translate(79.8659, 52.4974)">
<polygon stroke-linejoin="round" stroke-linecap="round" stroke-width="0.0842" fill="currentColor" stroke="currentColor" points="2.7977 0.0169 2.7977 0.2864 0.0421 0.1347 0.0421 -0.1347"/>
</g>
<g transform="translate(84.1394, 51.9327)">
<polygon stroke-linejoin="round" stroke-linecap="round" stroke-width="0.0842" fill="currentColor" stroke="currentColor" points="4.0293 -0.3940 4.0293 -0.1245 0.0421 0.1347 0.0421 -0.1347"/>
</g>
<g transform="translate(87.0494, 52.3546)">
<polygon stroke-linejoin="round" stroke-linecap="round" stroke-width="0.0842" fill="currentColor" stroke="currentColor" points="1.1193 -0.2087 1.1193 0.0608 0.0421 0.1347 0.0421 -0.1347"/>
</g>
<g transform="translate(91.4224, 51.1959)">
<polygon stroke-linejoin="round" stroke-linecap="round" stroke-width="0.0842" fill="currentColor" stroke="currentColor" points="4.1391 -0.3940 4.1391 -0.1245 0.0421 0.1347 0.0421 -0.1347"/>
</g>
<g transform="translate(94.4422, 51.6158)">
<polygon stroke-linejoin="round" stroke-linecap="round" stroke-width="0.0842" fill="currentColor" stroke="currentColor" points="1.1193 -0.2067 1.1193 0.0627 0.0421 0.1347 0.0421 -0.1347"/>
</g>
<g transform="translate(93.6085, 56.7885)">
<polygon stroke-linejoin="round" stroke-linecap="round" stroke-width="0.0842" fill="currentColor" stroke="currentColor" points="1.1193 -0.2011 1.1193 0.0684 0.0421 0.1347 0.0421 -0.1347"/>
</g>
<g transform="translate(90.5887, 57.5682)">
<polygon stroke-linejoin="round" stroke-linecap="round" stroke-width="0.0842" fill="currentColor" stroke="currentColor" points="4.1391 -0.3735 4.1391 -0.1041 0.0421 0.1347 0.0421 -0.1347"/>
</g>
<g transform="translate(98.1978, 51.4347)">
<polygon stroke-linejoin="round" stroke-linecap="round" stroke-width="0.0842" fill="currentColor" stroke="currentColor" points="4.1391 -0.3735 4.1391 -0.1041 0.0421 0.1347 0.0421 -0.1347"/>
</g>
<g transform="translate(101.2177, 51.8694)">
<polygon stroke-linejoin="round" stroke-linecap="round" stroke-width="0.0842" fill="currentColor" stroke="currentColor" points="1.1193 -0.2011 1.1193 0.0684 0.0421 0.1347 0.0421 -0.1347"/>
</g>
<g transform="translate(100.3839, 56.2961)">
<polygon stroke-linejoin="round" stroke-linecap="round" stroke-width="0.0842" fill="currentColor" stroke="currentColor" points="1.1193 -0.2067 1.1193 0.0627 0.0421 0.1347 0.0421 -0.1347"/>
</g>
<g transform="translate(97.3641, 57.0906)">
<polygon stroke-linejoin="round" stroke-linecap="round" stroke-width="0.0842" fill="currentColor" stroke="currentColor" points="4.1391 -0.3940 4.1391 -0.1245 0.0421 0.1347 0.0421 -0.1347"/>
</g>
<g transform="translate(104.4128, 50.9366)">
<polygon stroke-linejoin="round" stroke-linecap="round" stroke-width="0.0842" fill="currentColor" stroke="currentColor" points="3.8891 0.3633 3.8891 0.6328 0.0421 0.1347 0.0421 -0.1347"/>
</g>
<g transform="translate(107.1826, 51.8947)">
<polygon stroke-linejoin="round" stroke-linecap="round" stroke-width="0.0842" fill="currentColor" stroke="currentColor" points="1.1193 0.0124 1.1193 0.2819 0.0421 0.1347 0.0421 -0.1347"/>
</g>
<g transform="translate(33.6188, 50.6978)">
<polygon stroke-linejoin="round" stroke-linecap="round" stroke-width="0.0842" fill="currentColor" stroke="currentColor" points="5.6956 -0.6328 5.6956 -0.3633 0.0421 0.1347 0.0421 -0.1347"/>
</g>
<g transform="translate(37.6773, 50.9528)">
<polygon stroke-linejoin="round" stroke-linecap="round" stroke-width="0.0842" fill="currentColor" stroke="currentColor" points="1.6371 -0.2805 1.6371 -0.0110 0.0421 0.1347 0.0421 -0.1347"/>
</g>
<g transform="translate(37.6773, 51.5600)">
<polygon stroke-linejoin="round" stroke-linecap="round" stroke-width="0.0842" fill="currentColor" stroke="currentColor" points="1.6371 -0.2805 1.6371 -0.0110 0.0421 0.1347 0.0421 -0.1347"/>
</g>
<g transform="translate(111.5263, 50.9366)">
<polygon stroke-linejoin="round" stroke-linecap="round" stroke-width="0.0842" fill="currentColor" stroke="currentColor" points="5.4456 0.1245 5.4456 0.3940 0.0421 0.1347 0.0421 -0.1347"/>
</g>
<g transform="translate(115.3347, 51.7237)">
<polygon stroke-linejoin="round" stroke-linecap="round" stroke-width="0.0842" fill="currentColor" stroke="currentColor" points="1.6371 -0.0554 1.6371 0.2141 0.0421 0.1347 0.0421 -0.1347"/>
</g>
<g transform="translate(115.3347, 52.3310)">
<polygon stroke-linejoin="round" stroke-linecap="round" stroke-width="0.0842" fill="currentColor" stroke="currentColor" points="1.6371 -0.0554 1.6371 0.2141 0.0421 0.1347 0.0421 -0.1347"/>
</g>
<g transform="translate(118.4477, 50.6978)">
<polygon stroke-linejoin="round" stroke-linecap="round" stroke-width="0.0842" fill="currentColor" stroke="currentColor" points="5.6956 -0.6328 5.6956 -0.3633 0.0421 0.1347 0.0421 -0.1347"/>
</g>
<g transform="translate(122.5061, 50.9528)">
<polygon stroke-linejoin="round" stroke-linecap="round" stroke-width="0.0842" fill="currentColor" stroke="currentColor" points="1.6371 -0.2805 1.6371 -0.0110 0.0421 0.1347 0.0421 -0.1347"/>
</g>
<g transform="translate(122.5061, 51.5600)">
<polygon stroke-linejoin="round" stroke-linecap="round" stroke-width="0.0842" fill="currentColor" stroke="currentColor" points="1.6371 -0.2805 1.6371 -0.0110 0.0421 0.1347 0.0421 -0.1347"/>
</g>
<g transform="translate(125.8691, 50.3294)">
<polygon stroke-linejoin="round" stroke-linecap="round" stroke-width="0.0842" fill="currentColor" stroke="currentColor" points="3.8891 0.4725 3.8891 0.7420 0.0421 0.1347 0.0421 -0.1347"/>
</g>
<g transform="translate(128.6389, 51.3644)">
<polygon stroke-linejoin="round" stroke-linecap="round" stroke-width="0.0842" fill="currentColor" stroke="currentColor" points="1.1193 0.0447 1.1193 0.3141 0.0421 0.1347 0.0421 -0.1347"/>
</g>
<g transform="translate(133.7740, 51.0662)">
<polygon stroke-linejoin="round" stroke-linecap="round" stroke-width="0.0842" fill="currentColor" stroke="currentColor" points="4.3891 -1.0012 4.3891 -0.7317 0.0421 0.1347 0.0421 -0.1347"/>
</g>
<g transform="translate(137.0438, 51.0341)">
<polygon stroke-linejoin="round" stroke-linecap="round" stroke-width="0.0842" fill="currentColor" stroke="currentColor" points="1.1193 -0.3618 1.1193 -0.0924 0.0421 0.1347 0.0421 -0.1347"/>
</g>
<g transform="translate(139.9889, 50.4590)">
<polygon stroke-linejoin="round" stroke-linecap="round" stroke-width="0.0842" fill="currentColor" stroke="currentColor" points="4.1391 0.1041 4.1391 0.3735 0.0421 0.1347 0.0421 -0.1347"/>
</g>
<g transform="translate(143.0087, 51.2387)">
<polygon stroke-linejoin="round" stroke-linecap="round" stroke-width="0.0842" fill="currentColor" stroke="currentColor" points="1.1193 -0.0684 1.1193 0.2011 0.0421 0.1347 0.0421 -0.1347"/>
</g>
<g transform="translate(146.2038, 50.4590)">
<polygon stroke-linejoin="round" stroke-linecap="round" stroke-width="0.0842" fill="currentColor" stroke="currentColor" points="5.3017 0.3429 5.3017 0.6123 0.0421 0.1347 0.0421 -0.1347"/>
</g>
<g transform="translate(150.3863, 51.4400)">
<polygon stroke-linejoin="round" stroke-linecap="round" stroke-width="0.0842" fill="currentColor" stroke="currentColor" points="1.1193 -0.0309 1.1193 0.2385 0.0421 0.1347 0.0421 -0.1347"/>
</g>
<g transform="translate(155.2266, 50.9366)">
<polygon stroke-linejoin="round" stroke-linecap="round" stroke-width="0.0842" fill="currentColor" stroke="currentColor" points="4.1391 0.1245 4.1391 0.3940 0.0421 0.1347 0.0421 -0.1347"/>
</g>
<g transform="translate(158.2464, 51.7311)">
<polygon stroke-linejoin="round" stroke-linecap="round" stroke-width="0.0842" fill="currentColor" stroke="currentColor" points="1.1193 -0.0627 1.1193 0.2067 0.0421 0.1347 0.0421 -0.1347"/>
</g>
<g transform="translate(161.8935, 51.0662)">
<polygon stroke-linejoin="round" stroke-linecap="round" stroke-width="0.0842" fill="currentColor" stroke="currentColor" points="6.8561 0.2337 6.8561 0.5032 0.0421 0.1347 0.0421 -0.1347"/>
</g>
<g transform="translate(165.9519, 51.8902)">
<polygon stroke-linejoin="round" stroke-linecap="round" stroke-width="0.0842" fill="currentColor" stroke="currentColor" points="2.7977 0.0169 2.7977 0.2864 0.0421 0.1347 0.0421 -0.1347"/>
</g>
<g transform="translate(165.9519, 52.4974)">
<polygon stroke-linejoin="round" stroke-linecap="round" stroke-width="0.0842" fill="currentColor" stroke="currentColor" points="2.7977 0.0169 2.7977 0.2864 0.0421 0.1347 0.0421 -0.1347"/>
</g>
<g transform="translate(170.2254, 51.9327)">
<polygon stroke-linejoin="round" stroke-linecap="round" stroke-width="0.0842" fill="currentColor" stroke="currentColor" points="5.8622 -0.3940 5.8622 -0.1245 0.0421 0.1347 0.0421 -0.1347"/>
</g>
<g transform="translate(174.9684, 52.3317)">
<polygon stroke-linejoin="round" stroke-linecap="round" stroke-width="0.0842" fill="currentColor" stroke="currentColor" points="1.1193 -0.1857 1.1193 0.0837 0.0421 0.1347 0.0421 -0.1347"/>
</g>
<g transform="translate(180.1348, 51.1959)">
<polygon stroke-linejoin="round" stroke-linecap="round" stroke-width="0.0842" fill="currentColor" stroke="currentColor" points="4.1391 -0.3940 4.1391 -0.1245 0.0421 0.1347 0.0421 -0.1347"/>
</g>
<g transform="translate(183.1546, 51.6158)">
<polygon stroke-linejoin="round" stroke-linecap="round" stroke-width="0.0842" fill="currentColor" stroke="currentColor" points="1.1193 -0.2067 1.1193 0.0627 0.0421 0.1347 0.0421 -0.1347"/>
</g>
<g transform="translate(186.0997, 51.0662)">
<polygon stroke-linejoin="round" stroke-linecap="round" stroke-width="0.0842" fill="currentColor" stroke="currentColor" points="6.5514 0.2337 6.5514 0.5032 0.0421 0.1347 0.0421 -0.1347"/>
</g>
<g transform="translate(190.1582, 51.9002)">
<polygon stroke-linejoin="round" stroke-linecap="round" stroke-width="0.0842" fill="currentColor" stroke="currentColor" points="2.4930 0.0069 2.4930 0.2764 0.0421 0.1347 0.0421 -0.1347"/>
</g>
<g transform="translate(190.1582, 52.5074)">
<polygon stroke-linejoin="round" stroke-linecap="round" stroke-width="0.0842" fill="currentColor" stroke="currentColor" points="2.4930 0.0069 2.4930 0.2764 0.0421 0.1347 0.0421 -0.1347"/>
</g>
<g transform="translate(198.5143, 55.4873)">
<path transform="scale(0.0029, -0.0029)" d="M208 139c61 0 117 -33 117 -99c0 -71 -52 -119 -99 -147c-34 -20 -71 -32 -110 -32c-61 0 -116 33 -116 99c0 71 51 119 98 147c34 20 71 32 110 32z" fill="currentColor"/>
</g>
<g transform="translate(198.5143, 57.6978)">
<path transform="scale(0.0029, -0.0029)" d="M208 139c61 0 117 -33 117 -99c0 -71 -52 -119 -99 -147c-34 -20 -71 -32 -110 -32c-61 0 -116 33 -116 99c0 71 51 119 98 147c34 20 71 32 110 32z" fill="currentColor"/>
</g>
<g transform="translate(199.4094, 54.7504)">
<rect x="-0.0614" y="-1.4807" width="0.1228" height="2.0983" ry="0.0421" fill="currentColor"/>
</g>
<g transform="translate(198.5757, 54.7504)">
<rect x="-0.0614" y="3.0666" width="0.1228" height="2.2755" ry="0.0421" fill="currentColor"/>
</g>
<g transform="translate(198.6371, 60.0504)">
<path transform="scale(0.0029, -0.0029)" d="M266 659c0 -44 -15 -80 -38 -114c16 -35 25 -73 25 -111c0 -180 -252 -254 -253 -433v-1h-21v500h21v-70c94 49 217 126 217 229c0 20 -5 41 -14 59v5c0 16 13 26 27 26c32 0 36 -61 36 -90zM0 205c88 51 204 130 204 229c0 22 -4 44 -12 65c-79 -85 -192 -155 -192 -274
v-20z" fill="currentColor"/>
</g>
<g transform="translate(186.5441, 53.6452)">
<path transform="scale(0.0029, -0.0029)" d="M0 0c0 30 25 55 55 55s54 -25 54 -55s-24 -55 -54 -55s-55 25 -55 55z" fill="currentColor"/>
</g>
<g transform="translate(26.3059, 51.9327)">
<polygon stroke-linejoin="round" stroke-linecap="round" stroke-width="0.0842" fill="currentColor" stroke="currentColor" points="5.2371 -0.3940 5.2371 -0.1245 0.0421 0.1347 0.0421 -0.1347"/>
</g>
<g transform="translate(30.4237, 52.3377)">
<polygon stroke-linejoin="round" stroke-linecap="round" stroke-width="0.0842" fill="currentColor" stroke="currentColor" points="1.1193 -0.1918 1.1193 0.0777 0.0421 0.1347 0.0421 -0.1347"/>
</g>
<g transform="translate(172.5286, 56.2241)">
<path transform="scale(0.0029, -0.0029)" d="M57 -500l102 325c-32 -11 -66 -21 -100 -21c-47 0 -87 34 -87 79c0 40 34 72 75 72c25 0 49 -13 57 -36c10 -26 4 -58 32 -58c15 0 49 49 54 64l47 150c-32 -11 -66 -21 -100 -21c-47 0 -87 34 -87 79c0 40 34 72 75 72c25 0 49 -13 57 -36c10 -26 4 -58 32 -58
c13 0 43 38 49 50c8 15 30 15 37 0l-173 -661c-10 -8 -23 -13 -35 -13s-25 5 -35 13z" fill="currentColor"/>
</g>
<g transform="translate(170.2868, 54.7504)">
<rect x="-0.0614" y="-2.8204" width="0.1228" height="1.9644" ry="0.0421" fill="currentColor"/>
</g>
<g transform="translate(175.1733, 53.6452)">
<path transform="scale(0.0029, -0.0029)" d="M208 139c61 0 117 -33 117 -99c0 -71 -52 -119 -99 -147c-34 -20 -71 -32 -110 -32c-61 0 -116 33 -116 99c0 71 51 119 98 147c34 20 71 32 110 32z" fill="currentColor"/>
</g>
<g transform="translate(176.1298, 54.0136)">
<path transform="scale(0.0029, -0.0029)" d="M208 139c61 0 117 -33 117 -99c0 -71 -52 -119 -99 -147c-34 -20 -71 -32 -110 -32c-61 0 -116 33 -116 99c0 71 51 119 98 147c34 20 71 32 110 32z" fill="currentColor"/>
</g>
<g transform="translate(175.1733, 55.4873)">
<path transform="scale(0.0029, -0.0029)" d="M208 139c61 0 117 -33 117 -99c0 -71 -52 -119 -99 -147c-34 -20 -71 -32 -110 -32c-61 0 -116 33 -116 99c0 71 51 119 98 147c34 20 71 32 110 32z" fill="currentColor"/>
</g>
<g transform="translate(176.0684, 54.7504)">
<rect x="-0.0614" y="-3.0743" width="0.1228" height="1.8498" ry="0.0421" fill="currentColor"/>
</g>
<g transform="translate(160.1203, 54.7504)">
<path transform="scale(0.0029, -0.0029)" d="M33 35l-2 -60v-11c0 -21 2 -43 5 -64c42 38 87 81 87 138c0 32 -13 63 -41 63c-31 0 -48 -32 -49 -66zM32 446l-9 -337c25 26 59 40 95 40c50 0 82 -51 82 -105c0 -77 -80 -117 -137 -169c-18 -17 -26 -48 -52 -48c-16 0 -28 15 -28 32l-15 587c10 6 21 8 32 8
s22 -2 32 -8z" fill="currentColor"/>
</g>
<g transform="translate(165.1182, 54.0136)">
<path transform="scale(0.0029, -0.0029)" d="M208 139c61 0 117 -33 117 -99c0 -71 -52 -119 -99 -147c-34 -20 -71 -32 -110 -32c-61 0 -116 33 -116 99c0 71 51 119 98 147c34 20 71 32 110 32z" fill="currentColor"/>
</g>
<g transform="translate(166.0133, 54.7504)">
<rect x="-0.0614" y="-3.4642" width="0.1228" height="2.6081" ry="0.0421" fill="currentColor"/>
</g>
<g transform="translate(177.0249, 54.7504)">
<rect x="-0.0614" y="-3.1316" width="0.1228" height="2.2755" ry="0.0421" fill="currentColor"/>
</g>
<g transform="translate(167.8352, 54.3820)">
<path transform="scale(0.0029, -0.0029)" d="M208 139c61 0 117 -33 117 -99c0 -71 -52 -119 -99 -147c-34 -20 -71 -32 -110 -32c-61 0 -116 33 -116 99c0 71 51 119 98 147c34 20 71 32 110 32z" fill="currentColor"/>
</g>
<g transform="translate(168.7303, 54.7504)">
<rect x="-0.0614" y="-3.3191" width="0.1228" height="2.8314" ry="0.0421" fill="currentColor"/>
</g>
<g transform="translate(166.6747, 54.3820)">
<path transform="scale(0.0029, -0.0029)" d="M0 114c0 12 7 22 18 26l37 15v151c0 12 10 22 22 22s22 -10 22 -22v-134l77 29v152c0 12 10 22 22 22s22 -10 22 -22v-134l16 6c3 1 8 2 11 2c15 0 28 -12 28 -28v-50c0 -12 -7 -23 -18 -27l-37 -14v-152l16 7c3 1 8 2 11 2c15 0 28 -13 28 -29v-50c0 -12 -7 -22 -18 -26
l-37 -15v-151c0 -12 -10 -22 -22 -22s-22 10 -22 22v134l-77 -29v-152c0 -12 -10 -22 -22 -22s-22 10 -22 22v134l-16 -6c-3 -1 -8 -2 -11 -2c-15 0 -28 12 -28 28v50c0 12 7 23 18 27l37 14v152l-16 -7c-3 -1 -8 -2 -11 -2c-15 0 -28 13 -28 29v50zM176 91l-77 -30v-152
l77 30v152z" fill="currentColor"/>
</g>
<g transform="translate(169.3917, 54.0136)">
<path transform="scale(0.0029, -0.0029)" d="M208 139c61 0 117 -33 117 -99c0 -71 -52 -119 -99 -147c-34 -20 -71 -32 -110 -32c-61 0 -116 33 -116 99c0 71 51 119 98 147c34 20 71 32 110 32z" fill="currentColor"/>
</g>
<g transform="translate(169.3917, 56.2241)">
<path transform="scale(0.0029, -0.0029)" d="M63 -250l119 325c-32 -11 -65 -21 -99 -21c-47 0 -87 34 -87 79c0 40 34 72 75 72c25 0 48 -13 56 -36c10 -26 4 -58 32 -58c13 0 48 38 54 50c8 15 30 15 37 0l-117 -411c-10 -8 -23 -13 -35 -13s-25 5 -35 13z" fill="currentColor"/>
</g>
<g transform="translate(170.6698, 53.6452)">
<path transform="scale(0.0029, -0.0029)" d="M0 0c0 30 25 55 55 55s54 -25 54 -55s-24 -55 -54 -55s-55 25 -55 55z" fill="currentColor"/>
</g>
<g transform="translate(179.3625, 54.7504)">
<rect x="-0.0614" y="0.4876" width="0.1228" height="2.2141" ry="0.0421" fill="currentColor"/>
</g>
<g transform="translate(183.3595, 52.9083)">
<path transform="scale(0.0029, -0.0029)" d="M208 139c61 0 117 -33 117 -99c0 -71 -52 -119 -99 -147c-34 -20 -71 -32 -110 -32c-61 0 -116 33 -116 99c0 71 51 119 98 147c34 20 71 32 110 32z" fill="currentColor"/>
</g>
<g transform="translate(184.2546, 54.7504)">
<rect x="-0.0614" y="-3.8100" width="0.1228" height="1.8487" ry="0.0421" fill="currentColor"/>
</g>
<g transform="translate(185.2660, 54.0136)">
<path transform="scale(0.0029, -0.0029)" d="M208 139c61 0 117 -33 117 -99c0 -71 -52 -119 -99 -147c-34 -20 -71 -32 -110 -32c-61 0 -116 33 -116 99c0 71 51 119 98 147c34 20 71 32 110 32z" fill="currentColor"/>
</g>
<g transform="translate(186.2225, 53.6452)">
<path transform="scale(0.0029, -0.0029)" d="M208 139c61 0 117 -33 117 -99c0 -71 -52 -119 -99 -147c-34 -20 -71 -32 -110 -32c-61 0 -116 33 -116 99c0 71 51 119 98 147c34 20 71 32 110 32z" fill="currentColor"/>
</g>
<g transform="translate(185.2660, 55.1189)">
<path transform="scale(0.0029, -0.0029)" d="M208 139c61 0 117 -33 117 -99c0 -71 -52 -119 -99 -147c-34 -20 -71 -32 -110 -32c-61 0 -116 33 -116 99c0 71 51 119 98 147c34 20 71 32 110 32z" fill="currentColor"/>
</g>
<g transform="translate(179.3011, 53.2768)">
<path transform="scale(0.0029, -0.0029)" d="M208 139c61 0 117 -33 117 -99c0 -71 -52 -119 -99 -147c-34 -20 -71 -32 -110 -32c-61 0 -116 33 -116 99c0 71 51 119 98 147c34 20 71 32 110 32z" fill="currentColor"/>
</g>
<g transform="translate(177.0863, 51.6610)">
<path transform="scale(0.0029, -0.0029)" d="M0 -212v-213v213c0 -114 85 -201 146 -295c4 13 6 26 6 40c0 94 -87 188 -152 255zM0 0c0 -177 201 -290 201 -467c0 -33 -9 -66 -23 -96c18 -36 29 -74 29 -116c0 -63 -15 -125 -41 -182c-5 -10 -14 -13 -23 -13c-14 0 -28 10 -28 26c0 2 1 3 1 5c26 51 42 107 42 164
c0 95 -90 188 -158 254v-75h-21v500h21z" fill="currentColor"/>
</g>
<g transform="translate(175.2347, 54.7504)">
<rect x="-0.0614" y="0.8561" width="0.1228" height="2.2755" ry="0.0421" fill="currentColor"/>
</g>
<g transform="translate(175.2961, 57.8399)">
<path transform="scale(0.0029, -0.0029)" d="M266 659c0 -44 -15 -80 -38 -114c16 -35 25 -73 25 -111c0 -180 -252 -254 -253 -433v-1h-21v500h21v-70c94 49 217 126 217 229c0 20 -5 41 -14 59v5c0 16 13 26 27 26c32 0 36 -61 36 -90zM0 205c88 51 204 130 204 229c0 22 -4 44 -12 65c-79 -85 -192 -155 -192 -274
v-20z" fill="currentColor"/>
</g>
<g transform="translate(174.0128, 55.4873)">
<path transform="scale(0.0029, -0.0029)" d="M0 114c0 12 7 22 18 26l37 15v151c0 12 10 22 22 22s22 -10 22 -22v-134l77 29v152c0 12 10 22 22 22s22 -10 22 -22v-134l16 6c3 1 8 2 11 2c15 0 28 -12 28 -28v-50c0 -12 -7 -23 -18 -27l-37 -14v-152l16 7c3 1 8 2 11 2c15 0 28 -13 28 -29v-50c0 -12 -7 -22 -18 -26
l-37 -15v-151c0 -12 -10 -22 -22 -22s-22 10 -22 22v134l-77 -29v-152c0 -12 -10 -22 -22 -22s-22 10 -22 22v134l-16 -6c-3 -1 -8 -2 -11 -2c-15 0 -28 12 -28 28v50c0 12 7 23 18 27l37 14v152l-16 -7c-3 -1 -8 -2 -11 -2c-15 0 -28 13 -28 29v50zM176 91l-77 -30v-152
l77 30v152z" fill="currentColor"/>
</g>
<g transform="translate(161.1212, 54.7504)">
<rect x="-0.0614" y="0.1192" width="0.1228" height="2.3369" ry="0.0421" fill="currentColor"/>
</g>
<g transform="translate(179.7793, 54.0136)">
<path transform="scale(0.0029, -0.0029)" d="M208 139c61 0 117 -33 117 -99c0 -71 -52 -119 -99 -147c-34 -20 -71 -32 -110 -32c-61 0 -116 33 -116 99c0 71 51 119 98 147c34 20 71 32 110 32z" fill="currentColor"/>
</g>
<g transform="translate(179.3011, 55.1189)">
<path transform="scale(0.0029, -0.0029)" d="M208 139c61 0 117 -33 117 -99c0 -71 -52 -119 -99 -147c-34 -20 -71 -32 -110 -32c-61 0 -116 33 -116 99c0 71 51 119 98 147c34 20 71 32 110 32z" fill="currentColor"/>
</g>
<g transform="translate(181.0574, 52.9083)">
<path transform="scale(0.0029, -0.0029)" d="M0 0c0 30 25 55 55 55s54 -25 54 -55s-24 -55 -54 -55s-55 25 -55 55z" fill="currentColor"/>
</g>
<g transform="translate(180.1962, 54.7504)">
<rect x="-0.0614" y="-3.5584" width="0.1228" height="1.9655" ry="0.0421" fill="currentColor"/>
</g>
<g transform="translate(180.6744, 54.7504)">
<rect x="-0.0614" y="-2.9474" width="0.1228" height="2.0913" ry="0.0421" fill="currentColor"/>
</g>
<g transform="translate(59.2951, 54.7504)">
<rect x="-0.0614" y="-4.0561" width="0.1228" height="2.0948" ry="0.0421" fill="currentColor"/>
</g>
<g transform="translate(54.4029, 54.7504)">
<rect x="-0.0614" y="-0.2492" width="0.1228" height="2.4597" ry="0.0421" fill="currentColor"/>
</g>
<g transform="translate(53.4757, 54.3820)">
<path transform="scale(0.0029, -0.0029)" d="M-8 375c8 5 18 7 27 7s20 -2 28 -7l-3 -196l99 24h4c11 0 20 -8 20 -19l8 -559c-8 -5 -19 -7 -28 -7s-19 2 -27 7l3 196l-99 -24h-5c-11 0 -19 8 -19 19zM127 109l-85 -20l-2 -198l84 20z" fill="currentColor"/>
</g>
<g transform="translate(58.4000, 52.9083)">
<path transform="scale(0.0029, -0.0029)" d="M208 139c61 0 117 -33 117 -99c0 -71 -52 -119 -99 -147c-34 -20 -71 -32 -110 -32c-61 0 -116 33 -116 99c0 71 51 119 98 147c34 20 71 32 110 32z" fill="currentColor"/>
</g>
<g transform="translate(60.5565, 52.5399)">
<path transform="scale(0.0029, -0.0029)" d="M208 139c61 0 117 -33 117 -99c0 -71 -52 -119 -99 -147c-34 -20 -71 -32 -110 -32c-61 0 -116 33 -116 99c0 71 51 119 98 147c34 20 71 32 110 32z" fill="currentColor"/>
</g>
<g transform="translate(60.5565, 56.2241)">
<path transform="scale(0.0029, -0.0029)" d="M63 -250l119 325c-32 -11 -65 -21 -99 -21c-47 0 -87 34 -87 79c0 40 34 72 75 72c25 0 48 -13 56 -36c10 -26 4 -58 32 -58c13 0 48 38 54 50c8 15 30 15 37 0l-117 -411c-10 -8 -23 -13 -35 -13s-25 5 -35 13z" fill="currentColor"/>
</g>
<g transform="translate(61.8345, 52.1715)">
<path transform="scale(0.0029, -0.0029)" d="M0 0c0 30 25 55 55 55s54 -25 54 -55s-24 -55 -54 -55s-55 25 -55 55z" fill="currentColor"/>
</g>
<g transform="translate(61.4516, 54.7504)">
<rect x="-0.0614" y="-4.2842" width="0.1228" height="1.9545" ry="0.0421" fill="currentColor"/>
</g>
<g transform="translate(46.9661, 54.3820)">
<path transform="scale(0.0029, -0.0029)" d="M0 114c0 12 7 22 18 26l37 15v151c0 12 10 22 22 22s22 -10 22 -22v-134l77 29v152c0 12 10 22 22 22s22 -10 22 -22v-134l16 6c3 1 8 2 11 2c15 0 28 -12 28 -28v-50c0 -12 -7 -23 -18 -27l-37 -14v-152l16 7c3 1 8 2 11 2c15 0 28 -13 28 -29v-50c0 -12 -7 -22 -18 -26
l-37 -15v-151c0 -12 -10 -22 -22 -22s-22 10 -22 22v134l-77 -29v-152c0 -12 -10 -22 -22 -22s-22 10 -22 22v134l-16 -6c-3 -1 -8 -2 -11 -2c-15 0 -28 12 -28 28v50c0 12 7 23 18 27l37 14v152l-16 -7c-3 -1 -8 -2 -11 -2c-15 0 -28 13 -28 29v50zM176 91l-77 -30v-152
l77 30v152z" fill="currentColor"/>
</g>
<g transform="translate(61.8345, 55.8557)">
<path transform="scale(0.0029, -0.0029)" d="M0 0c0 30 25 55 55 55s54 -25 54 -55s-24 -55 -54 -55s-55 25 -55 55z" fill="currentColor"/>
</g>
<g transform="translate(52.4350, 52.1715)">
<path transform="scale(0.0029, -0.0029)" d="M208 139c61 0 117 -33 117 -99c0 -71 -52 -119 -99 -147c-34 -20 -71 -32 -110 -32c-61 0 -116 33 -116 99c0 71 51 119 98 147c34 20 71 32 110 32z" fill="currentColor"/>
</g>
<g transform="translate(53.3301, 54.7504)">
<rect x="-0.0614" y="-4.5387" width="0.1228" height="1.8405" ry="0.0421" fill="currentColor"/>
</g>
<g transform="translate(54.3415, 52.5399)">
<path transform="scale(0.0029, -0.0029)" d="M208 139c61 0 117 -33 117 -99c0 -71 -52 -119 -99 -147c-34 -20 -71 -32 -110 -32c-61 0 -116 33 -116 99c0 71 51 119 98 147c34 20 71 32 110 32z" fill="currentColor"/>
</g>
<g transform="translate(54.3415, 54.3820)">
<path transform="scale(0.0029, -0.0029)" d="M208 139c61 0 117 -33 117 -99c0 -71 -52 -119 -99 -147c-34 -20 -71 -32 -110 -32c-61 0 -116 33 -116 99c0 71 51 119 98 147c34 20 71 32 110 32z" fill="currentColor"/>
</g>
<g transform="translate(55.6196, 52.1715)">
<path transform="scale(0.0029, -0.0029)" d="M0 0c0 30 25 55 55 55s54 -25 54 -55s-24 -55 -54 -55s-55 25 -55 55z" fill="currentColor"/>
</g>
<g transform="translate(55.2366, 54.7504)">
<rect x="-0.0614" y="-4.2879" width="0.1228" height="1.9582" ry="0.0421" fill="currentColor"/>
</g>
<g transform="translate(69.5848, 52.9083)">
<path transform="scale(0.0029, -0.0029)" d="M0 0c0 30 25 55 55 55s54 -25 54 -55s-24 -55 -54 -55s-55 25 -55 55z" fill="currentColor"/>
</g>
<g transform="translate(69.2019, 54.7504)">
<rect x="-0.0614" y="-3.8100" width="0.1228" height="1.8487" ry="0.0421" fill="currentColor"/>
</g>
<g transform="translate(68.3682, 54.7504)">
<rect x="-0.0614" y="0.1192" width="0.1228" height="2.3369" ry="0.0421" fill="currentColor"/>
</g>
<g transform="translate(67.4410, 54.7504)">
<path transform="scale(0.0029, -0.0029)" d="M-8 375c8 5 18 7 27 7s20 -2 28 -7l-3 -196l99 24h4c11 0 20 -8 20 -19l8 -559c-8 -5 -19 -7 -28 -7s-19 2 -27 7l3 196l-99 -24h-5c-11 0 -19 8 -19 19zM127 109l-85 -20l-2 -198l84 20z" fill="currentColor"/>
</g>
<g transform="translate(72.3652, 53.2768)">
<path transform="scale(0.0029, -0.0029)" d="M208 139c61 0 117 -33 117 -99c0 -71 -52 -119 -99 -147c-34 -20 -71 -32 -110 -32c-61 0 -116 33 -116 99c0 71 51 119 98 147c34 20 71 32 110 32z" fill="currentColor"/>
</g>
<g transform="translate(73.2603, 54.7504)">
<rect x="-0.0614" y="-3.5584" width="0.1228" height="1.9655" ry="0.0421" fill="currentColor"/>
</g>
<g transform="translate(64.5051, 53.2768)">
<path transform="scale(0.0029, -0.0029)" d="M208 139c61 0 117 -33 117 -99c0 -71 -52 -119 -99 -147c-34 -20 -71 -32 -110 -32c-61 0 -116 33 -116 99c0 71 51 119 98 147c34 20 71 32 110 32z" fill="currentColor"/>
</g>
<g transform="translate(64.5051, 54.3820)">
<path transform="scale(0.0029, -0.0029)" d="M208 139c61 0 117 -33 117 -99c0 -71 -52 -119 -99 -147c-34 -20 -71 -32 -110 -32c-61 0 -116 33 -116 99c0 71 51 119 98 147c34 20 71 32 110 32z" fill="currentColor"/>
</g>
<g transform="translate(65.4002, 54.7504)">
<rect x="-0.0614" y="-3.8210" width="0.1228" height="2.2281" ry="0.0421" fill="currentColor"/>
</g>
<g transform="translate(48.1880, 54.7504)">
<rect x="-0.0614" y="-0.2492" width="0.1228" height="2.4597" ry="0.0421" fill="currentColor"/>
</g>
<g transform="translate(64.5665, 54.7504)">
<rect x="-0.0614" y="-0.2492" width="0.1228" height="2.4597" ry="0.0421" fill="currentColor"/>
</g>
<g transform="translate(64.6278, 56.9189)">
<path transform="scale(0.0029, -0.0029)" d="M266 659c0 -44 -15 -80 -38 -114c16 -35 25 -73 25 -111c0 -180 -252 -254 -253 -433v-1h-21v500h21v-70c94 49 217 126 217 229c0 20 -5 41 -14 59v5c0 16 13 26 27 26c32 0 36 -61 36 -90zM0 205c88 51 204 130 204 229c0 22 -4 44 -12 65c-79 -85 -192 -155 -192 -274
v-20z" fill="currentColor"/>
</g>
<g transform="translate(63.3446, 53.2768)">
<path transform="scale(0.0029, -0.0029)" d="M0 114c0 12 7 22 18 26l37 15v151c0 12 10 22 22 22s22 -10 22 -22v-134l77 29v152c0 12 10 22 22 22s22 -10 22 -22v-134l16 6c3 1 8 2 11 2c15 0 28 -12 28 -28v-50c0 -12 -7 -23 -18 -27l-37 -14v-152l16 7c3 1 8 2 11 2c15 0 28 -13 28 -29v-50c0 -12 -7 -22 -18 -26
l-37 -15v-151c0 -12 -10 -22 -22 -22s-22 10 -22 22v134l-77 -29v-152c0 -12 -10 -22 -22 -22s-22 10 -22 22v134l-16 -6c-3 -1 -8 -2 -11 -2c-15 0 -28 12 -28 28v50c0 12 7 23 18 27l37 14v152l-16 -7c-3 -1 -8 -2 -11 -2c-15 0 -28 13 -28 29v50zM176 91l-77 -30v-152
l77 30v152z" fill="currentColor"/>
</g>
<g transform="translate(68.3068, 52.9083)">
<path transform="scale(0.0029, -0.0029)" d="M208 139c61 0 117 -33 117 -99c0 -71 -52 -119 -99 -147c-34 -20 -71 -32 -110 -32c-61 0 -116 33 -116 99c0 71 51 119 98 147c34 20 71 32 110 32z" fill="currentColor"/>
</g>
<g transform="translate(68.3068, 54.7504)">
<path transform="scale(0.0029, -0.0029)" d="M208 139c61 0 117 -33 117 -99c0 -71 -52 -119 -99 -147c-34 -20 -71 -32 -110 -32c-61 0 -116 33 -116 99c0 71 51 119 98 147c34 20 71 32 110 32z" fill="currentColor"/>
</g>
<g transform="translate(27.3851, 54.0557)">
<path transform="scale(0.0029, -0.0029)" d="M0 0c0 -196 207 -334 207 -530c0 -71 -15 -140 -41 -206c-5 -10 -14 -13 -23 -13c-14 0 -28 10 -28 26c0 2 1 3 1 5c26 59 42 123 42 188c0 101 -90 205 -158 280h-21v250h21z" fill="currentColor"/>
</g>
<g transform="translate(25.5335, 54.7504)">
<rect x="-0.0614" y="1.9613" width="0.1228" height="2.0913" ry="0.0421" fill="currentColor"/>
</g>
<g transform="translate(25.5949, 58.7610)">
<path transform="scale(0.0029, -0.0029)" d="M0 250c94 60 217 150 217 259c0 56 -15 110 -41 160v6c0 16 14 26 28 26c9 0 17 -4 22 -14c25 -56 40 -116 40 -178c0 -203 -266 -306 -266 -509h-21v250h21z" fill="currentColor"/>
</g>
<g transform="translate(30.6286, 53.6452)">
<path transform="scale(0.0029, -0.0029)" d="M208 139c61 0 117 -33 117 -99c0 -71 -52 -119 -99 -147c-34 -20 -71 -32 -110 -32c-61 0 -116 33 -116 99c0 71 51 119 98 147c34 20 71 32 110 32z" fill="currentColor"/>
</g>
<g transform="translate(31.5237, 54.7504)">
<rect x="-0.0614" y="-3.0740" width="0.1228" height="1.8495" ry="0.0421" fill="currentColor"/>
</g>
<g transform="translate(32.7851, 53.2768)">
<path transform="scale(0.0029, -0.0029)" d="M208 139c61 0 117 -33 117 -99c0 -71 -52 -119 -99 -147c-34 -20 -71 -32 -110 -32c-61 0 -116 33 -116 99c0 71 51 119 98 147c34 20 71 32 110 32z" fill="currentColor"/>
</g>
<g transform="translate(34.0631, 52.9083)">
<path transform="scale(0.0029, -0.0029)" d="M0 0c0 30 25 55 55 55s54 -25 54 -55s-24 -55 -54 -55s-55 25 -55 55z" fill="currentColor"/>
</g>
<g transform="translate(33.6802, 54.7504)">
<rect x="-0.0614" y="-4.0580" width="0.1228" height="2.4650" ry="0.0421" fill="currentColor"/>
</g>
<g transform="translate(18.7702, 55.4873)">
<path transform="scale(0.0029, -0.0029)" d="M381 266h9c157 0 258 -130 258 -264c0 -77 -33 -156 -108 -212c-22 -16 -46 -28 -71 -36c2 -32 3 -65 3 -97c0 -21 -1 -43 -2 -64c-7 -122 -91 -230 -211 -230c-108 0 -197 88 -197 197c0 58 54 104 113 104c54 0 95 -48 95 -104c0 -52 -43 -95 -95 -95c-8 0 -16 2 -24 4
c25 -35 65 -59 111 -59c95 0 155 92 161 190c1 20 2 39 2 59c0 28 -1 55 -3 83c-29 -5 -57 -7 -87 -7c-189 0 -333 174 -333 377c0 176 128 307 242 443c-21 62 -41 124 -50 189c-7 52 -8 106 -8 159c0 113 54 219 146 286c8 6 21 7 29 0c72 -82 136 -244 136 -357
c0 -141 -83 -253 -174 -362c22 -67 41 -135 58 -204zM464 -200c64 25 108 93 108 159c0 87 -62 173 -163 187c24 -113 43 -225 55 -346zM338 -218c27 0 54 2 80 6c-13 125 -33 242 -58 359c-79 -7 -123 -59 -123 -116c0 -43 24 -89 78 -120c5 -5 8 -11 8 -17
c0 -13 -11 -24 -24 -24c-3 0 -7 0 -10 2c-81 44 -119 116 -119 187c0 90 60 178 164 201c-14 56 -30 112 -47 167c-104 -122 -208 -245 -208 -404c0 -132 127 -241 259 -241zM239 782c0 -69 22 -127 41 -183c77 97 140 199 140 323c0 49 -3 69 -19 113
c-99 -45 -162 -145 -162 -253z" fill="currentColor"/>
</g>
<g transform="translate(22.3827, 54.7504)">
<path transform="scale(0.0029, -0.0029)" d="M33 35l-2 -60v-11c0 -21 2 -43 5 -64c42 38 87 81 87 138c0 32 -13 63 -41 63c-31 0 -48 -32 -49 -66zM32 446l-9 -337c25 26 59 40 95 40c50 0 82 -51 82 -105c0 -77 -80 -117 -137 -169c-18 -17 -26 -48 -52 -48c-16 0 -28 15 -28 32l-15 587c10 6 21 8 32 8
s22 -2 32 -8z" fill="currentColor"/>
</g>
<g transform="translate(36.8436, 52.9083)">
<path transform="scale(0.0029, -0.0029)" d="M208 139c61 0 117 -33 117 -99c0 -71 -52 -119 -99 -147c-34 -20 -71 -32 -110 -32c-61 0 -116 33 -116 99c0 71 51 119 98 147c34 20 71 32 110 32z" fill="currentColor"/>
</g>
<g transform="translate(25.4721, 54.0136)">
<path transform="scale(0.0029, -0.0029)" d="M208 139c61 0 117 -33 117 -99c0 -71 -52 -119 -99 -147c-34 -20 -71 -32 -110 -32c-61 0 -116 33 -116 99c0 71 51 119 98 147c34 20 71 32 110 32z" fill="currentColor"/>
</g>
<g transform="translate(26.4286, 56.5926)">
<path transform="scale(0.0029, -0.0029)" d="M208 139c61 0 117 -33 117 -99c0 -71 -52 -119 -99 -147c-34 -20 -71 -32 -110 -32c-61 0 -116 33 -116 99c0 71 51 119 98 147c34 20 71 32 110 32z" fill="currentColor"/>
</g>
<g transform="translate(25.4721, 56.5926)">
<path transform="scale(0.0029, -0.0029)" d="M208 139c61 0 117 -33 117 -99c0 -71 -52 -119 -99 -147c-34 -20 -71 -32 -110 -32c-61 0 -116 33 -116 99c0 71 51 119 98 147c34 20 71 32 110 32z" fill="currentColor"/>
</g>
<g transform="translate(26.7502, 53.6452)">
<path transform="scale(0.0029, -0.0029)" d="M0 0c0 30 25 55 55 55s54 -25 54 -55s-24 -55 -54 -55s-55 25 -55 55z" fill="currentColor"/>
</g>
<g transform="translate(26.3672, 54.7504)">
<rect x="-0.0614" y="-2.8208" width="0.1228" height="1.9647" ry="0.0421" fill="currentColor"/>
</g>
<g transform="translate(27.3237, 54.7504)">
<rect x="-0.0614" y="-0.7368" width="0.1228" height="2.4597" ry="0.0421" fill="currentColor"/>
</g>
<g transform="translate(44.0302, 53.2768)">
<path transform="scale(0.0029, -0.0029)" d="M208 139c61 0 117 -33 117 -99c0 -71 -52 -119 -99 -147c-34 -20 -71 -32 -110 -32c-61 0 -116 33 -116 99c0 71 51 119 98 147c34 20 71 32 110 32z" fill="currentColor"/>
</g>
<g transform="translate(44.0302, 54.0136)">
<path transform="scale(0.0029, -0.0029)" d="M208 139c61 0 117 -33 117 -99c0 -71 -52 -119 -99 -147c-34 -20 -71 -32 -110 -32c-61 0 -116 33 -116 99c0 71 51 119 98 147c34 20 71 32 110 32z" fill="currentColor"/>
</g>
<g transform="translate(44.9253, 54.7504)">
<rect x="-0.0614" y="-3.8233" width="0.1228" height="2.2304" ry="0.0421" fill="currentColor"/>
</g>
<g transform="translate(44.0915, 54.7504)">
<rect x="-0.0614" y="-0.6176" width="0.1228" height="2.4597" ry="0.0421" fill="currentColor"/>
</g>
<g transform="translate(44.1529, 56.5504)">
<path transform="scale(0.0029, -0.0029)" d="M266 659c0 -44 -15 -80 -38 -114c16 -35 25 -73 25 -111c0 -180 -252 -254 -253 -433v-1h-21v500h21v-70c94 49 217 126 217 229c0 20 -5 41 -14 59v5c0 16 13 26 27 26c32 0 36 -61 36 -90zM0 205c88 51 204 130 204 229c0 22 -4 44 -12 65c-79 -85 -192 -155 -192 -274
v-20z" fill="currentColor"/>
</g>
<g transform="translate(48.1266, 53.6452)">
<path transform="scale(0.0029, -0.0029)" d="M208 139c61 0 117 -33 117 -99c0 -71 -52 -119 -99 -147c-34 -20 -71 -32 -110 -32c-61 0 -116 33 -116 99c0 71 51 119 98 147c34 20 71 32 110 32z" fill="currentColor"/>
</g>
<g transform="translate(48.1266, 54.3820)">
<path transform="scale(0.0029, -0.0029)" d="M208 139c61 0 117 -33 117 -99c0 -71 -52 -119 -99 -147c-34 -20 -71 -32 -110 -32c-61 0 -116 33 -116 99c0 71 51 119 98 147c34 20 71 32 110 32z" fill="currentColor"/>
</g>
<g transform="translate(49.4046, 53.6452)">
<path transform="scale(0.0029, -0.0029)" d="M0 0c0 30 25 55 55 55s54 -25 54 -55s-24 -55 -54 -55s-55 25 -55 55z" fill="currentColor"/>
</g>
<g transform="translate(49.0217, 54.7504)">
<rect x="-0.0614" y="-3.6962" width="0.1228" height="2.4717" ry="0.0421" fill="currentColor"/>
</g>
<g transform="translate(40.2065, 56.2241)">
<path transform="scale(0.0029, -0.0029)" d="M63 -250l119 325c-32 -11 -65 -21 -99 -21c-47 0 -87 34 -87 79c0 40 34 72 75 72c25 0 48 -13 56 -36c10 -26 4 -58 32 -58c13 0 48 38 54 50c8 15 30 15 37 0l-117 -411c-10 -8 -23 -13 -35 -13s-25 5 -35 13z" fill="currentColor"/>
</g>
<g transform="translate(37.7387, 54.7504)">
<rect x="-0.0614" y="-4.4102" width="0.1228" height="2.4489" ry="0.0421" fill="currentColor"/>
</g>
<g transform="translate(38.4000, 52.5399)">
<path transform="scale(0.0029, -0.0029)" d="M208 139c61 0 117 -33 117 -99c0 -71 -52 -119 -99 -147c-34 -20 -71 -32 -110 -32c-61 0 -116 33 -116 99c0 71 51 119 98 147c34 20 71 32 110 32z" fill="currentColor"/>
</g>
<g transform="translate(39.2952, 54.7504)">
<rect x="-0.0614" y="-4.5453" width="0.1228" height="2.2156" ry="0.0421" fill="currentColor"/>
</g>
<g transform="translate(40.2065, 52.1715)">
<path transform="scale(0.0029, -0.0029)" d="M208 139c61 0 117 -33 117 -99c0 -71 -52 -119 -99 -147c-34 -20 -71 -32 -110 -32c-61 0 -116 33 -116 99c0 71 51 119 98 147c34 20 71 32 110 32z" fill="currentColor"/>
</g>
<g transform="translate(41.4846, 52.1715)">
<path transform="scale(0.0029, -0.0029)" d="M0 0c0 30 25 55 55 55s54 -25 54 -55s-24 -55 -54 -55s-55 25 -55 55z" fill="currentColor"/>
</g>
<g transform="translate(41.1016, 54.7504)">
<rect x="-0.0614" y="-4.4116" width="0.1228" height="1.7134" ry="0.0421" fill="currentColor"/>
</g>
<g transform="translate(41.4846, 55.8557)">
<path transform="scale(0.0029, -0.0029)" d="M0 0c0 30 25 55 55 55s54 -25 54 -55s-24 -55 -54 -55s-55 25 -55 55z" fill="currentColor"/>
</g>
<g transform="translate(93.7813, 54.7504)">
<path transform="scale(0.0029, -0.0029)" d="M-8 375c8 5 18 7 27 7s20 -2 28 -7l-3 -196l99 24h4c11 0 20 -8 20 -19l8 -559c-8 -5 -19 -7 -28 -7s-19 2 -27 7l3 196l-99 -24h-5c-11 0 -19 8 -19 19zM127 109l-85 -20l-2 -198l84 20z" fill="currentColor"/>
</g>
<g transform="translate(97.3641, 53.6452)">
<path transform="scale(0.0029, -0.0029)" d="M208 139c61 0 117 -33 117 -99c0 -71 -52 -119 -99 -147c-34 -20 -71 -32 -110 -32c-61 0 -116 33 -116 99c0 71 51 119 98 147c34 20 71 32 110 32z" fill="currentColor"/>
</g>
<g transform="translate(97.3641, 54.3820)">
<path transform="scale(0.0029, -0.0029)" d="M208 139c61 0 117 -33 117 -99c0 -71 -52 -119 -99 -147c-34 -20 -71 -32 -110 -32c-61 0 -116 33 -116 99c0 71 51 119 98 147c34 20 71 32 110 32z" fill="currentColor"/>
</g>
<g transform="translate(98.6422, 53.6452)">
<path transform="scale(0.0029, -0.0029)" d="M0 0c0 30 25 55 55 55s54 -25 54 -55s-24 -55 -54 -55s-55 25 -55 55z" fill="currentColor"/>
</g>
<g transform="translate(98.2592, 54.7504)">
<rect x="-0.0614" y="-3.3193" width="0.1228" height="2.0948" ry="0.0421" fill="currentColor"/>
</g>
<g transform="translate(98.6422, 54.3820)">
<path transform="scale(0.0029, -0.0029)" d="M0 0c0 30 25 55 55 55s54 -25 54 -55s-24 -55 -54 -55s-55 25 -55 55z" fill="currentColor"/>
</g>
<g transform="translate(97.4255, 54.7504)">
<rect x="-0.0614" y="-0.2492" width="0.1228" height="2.5855" ry="0.0421" fill="currentColor"/>
</g>
<g transform="translate(96.2036, 54.3820)">
<path transform="scale(0.0029, -0.0029)" d="M0 114c0 12 7 22 18 26l37 15v151c0 12 10 22 22 22s22 -10 22 -22v-134l77 29v152c0 12 10 22 22 22s22 -10 22 -22v-134l16 6c3 1 8 2 11 2c15 0 28 -12 28 -28v-50c0 -12 -7 -23 -18 -27l-37 -14v-152l16 7c3 1 8 2 11 2c15 0 28 -13 28 -29v-50c0 -12 -7 -22 -18 -26
l-37 -15v-151c0 -12 -10 -22 -22 -22s-22 10 -22 22v134l-77 -29v-152c0 -12 -10 -22 -22 -22s-22 10 -22 22v134l-16 -6c-3 -1 -8 -2 -11 -2c-15 0 -28 12 -28 28v50c0 12 7 23 18 27l37 14v152l-16 -7c-3 -1 -8 -2 -11 -2c-15 0 -28 13 -28 29v50zM176 91l-77 -30v-152
l77 30v152z" fill="currentColor"/>
</g>
<g transform="translate(101.4226, 53.2768)">
<path transform="scale(0.0029, -0.0029)" d="M208 139c61 0 117 -33 117 -99c0 -71 -52 -119 -99 -147c-34 -20 -71 -32 -110 -32c-61 0 -116 33 -116 99c0 71 51 119 98 147c34 20 71 32 110 32z" fill="currentColor"/>
</g>
<g transform="translate(91.8667, 55.1189)">
<path transform="scale(0.0029, -0.0029)" d="M0 0c0 30 25 55 55 55s54 -25 54 -55s-24 -55 -54 -55s-55 25 -55 55z" fill="currentColor"/>
</g>
<g transform="translate(90.6500, 54.7504)">
<rect x="-0.0614" y="0.4876" width="0.1228" height="2.3266" ry="0.0421" fill="currentColor"/>
</g>
<g transform="translate(101.4226, 54.0136)">
<path transform="scale(0.0029, -0.0029)" d="M208 139c61 0 117 -33 117 -99c0 -71 -52 -119 -99 -147c-34 -20 -71 -32 -110 -32c-61 0 -116 33 -116 99c0 71 51 119 98 147c34 20 71 32 110 32z" fill="currentColor"/>
</g>
<g transform="translate(94.6471, 52.9083)">
<path transform="scale(0.0029, -0.0029)" d="M208 139c61 0 117 -33 117 -99c0 -71 -52 -119 -99 -147c-34 -20 -71 -32 -110 -32c-61 0 -116 33 -116 99c0 71 51 119 98 147c34 20 71 32 110 32z" fill="currentColor"/>
</g>
<g transform="translate(94.6471, 54.7504)">
<path transform="scale(0.0029, -0.0029)" d="M208 139c61 0 117 -33 117 -99c0 -71 -52 -119 -99 -147c-34 -20 -71 -32 -110 -32c-61 0 -116 33 -116 99c0 71 51 119 98 147c34 20 71 32 110 32z" fill="currentColor"/>
</g>
<g transform="translate(95.5422, 54.7504)">
<rect x="-0.0614" y="-3.8100" width="0.1228" height="1.8487" ry="0.0421" fill="currentColor"/>
</g>
<g transform="translate(94.7085, 54.7504)">
<rect x="-0.0614" y="0.1192" width="0.1228" height="2.4632" ry="0.0421" fill="currentColor"/>
</g>
<g transform="translate(107.3875, 53.6452)">
<path transform="scale(0.0029, -0.0029)" d="M208 139c61 0 117 -33 117 -99c0 -71 -52 -119 -99 -147c-34 -20 -71 -32 -110 -32c-61 0 -116 33 -116 99c0 71 51 119 98 147c34 20 71 32 110 32z" fill="currentColor"/>
</g>
<g transform="translate(107.3875, 54.3820)">
<path transform="scale(0.0029, -0.0029)" d="M208 139c61 0 117 -33 117 -99c0 -71 -52 -119 -99 -147c-34 -20 -71 -32 -110 -32c-61 0 -116 33 -116 99c0 71 51 119 98 147c34 20 71 32 110 32z" fill="currentColor"/>
</g>
<g transform="translate(108.2826, 54.7504)">
<rect x="-0.0614" y="-3.3236" width="0.1228" height="2.0991" ry="0.0421" fill="currentColor"/>
</g>
<g transform="translate(107.4489, 54.7504)">
<rect x="-0.0614" y="-0.2492" width="0.1228" height="2.3226" ry="0.0421" fill="currentColor"/>
</g>
<g transform="translate(110.6925, 53.2768)">
<path transform="scale(0.0029, -0.0029)" d="M208 139c61 0 117 -33 117 -99c0 -71 -52 -119 -99 -147c-34 -20 -71 -32 -110 -32c-61 0 -116 33 -116 99c0 71 51 119 98 147c34 20 71 32 110 32z" fill="currentColor"/>
</g>
<g transform="translate(110.6925, 54.0136)">
<path transform="scale(0.0029, -0.0029)" d="M208 139c61 0 117 -33 117 -99c0 -71 -52 -119 -99 -147c-34 -20 -71 -32 -110 -32c-61 0 -116 33 -116 99c0 71 51 119 98 147c34 20 71 32 110 32z" fill="currentColor"/>
</g>
<g transform="translate(111.9706, 52.9083)">
<path transform="scale(0.0029, -0.0029)" d="M0 0c0 30 25 55 55 55s54 -25 54 -55s-24 -55 -54 -55s-55 25 -55 55z" fill="currentColor"/>
</g>
<g transform="translate(111.5876, 54.7504)">
<rect x="-0.0614" y="-3.8109" width="0.1228" height="2.2180" ry="0.0421" fill="currentColor"/>
</g>
<g transform="translate(103.5791, 52.9083)">
<path transform="scale(0.0029, -0.0029)" d="M208 139c61 0 117 -33 117 -99c0 -71 -52 -119 -99 -147c-34 -20 -71 -32 -110 -32c-61 0 -116 33 -116 99c0 71 51 119 98 147c34 20 71 32 110 32z" fill="currentColor"/>
</g>
<g transform="translate(102.3177, 54.7504)">
<rect x="-0.0614" y="-3.5511" width="0.1228" height="1.9582" ry="0.0421" fill="currentColor"/>
</g>
<g transform="translate(101.4839, 54.7504)">
<rect x="-0.0614" y="-0.6176" width="0.1228" height="2.7023" ry="0.0421" fill="currentColor"/>
</g>
<g transform="translate(103.5791, 53.6452)">
<path transform="scale(0.0029, -0.0029)" d="M208 139c61 0 117 -33 117 -99c0 -71 -52 -119 -99 -147c-34 -20 -71 -32 -110 -32c-61 0 -116 33 -116 99c0 71 51 119 98 147c34 20 71 32 110 32z" fill="currentColor"/>
</g>
<g transform="translate(104.8571, 52.9083)">
<path transform="scale(0.0029, -0.0029)" d="M0 0c0 30 25 55 55 55s54 -25 54 -55s-24 -55 -54 -55s-55 25 -55 55z" fill="currentColor"/>
</g>
<g transform="translate(104.4742, 54.7504)">
<rect x="-0.0614" y="-3.8061" width="0.1228" height="1.8447" ry="0.0421" fill="currentColor"/>
</g>
<g transform="translate(104.8571, 53.6452)">
<path transform="scale(0.0029, -0.0029)" d="M0 0c0 30 25 55 55 55s54 -25 54 -55s-24 -55 -54 -55s-55 25 -55 55z" fill="currentColor"/>
</g>
<g transform="translate(103.6404, 54.7504)">
<rect x="-0.0614" y="-0.9860" width="0.1228" height="2.5968" ry="0.0421" fill="currentColor"/>
</g>
<g transform="translate(84.5837, 53.6452)">
<path transform="scale(0.0029, -0.0029)" d="M0 0c0 30 25 55 55 55s54 -25 54 -55s-24 -55 -54 -55s-55 25 -55 55z" fill="currentColor"/>
</g>
<g transform="translate(81.7491, 54.3820)">
<path transform="scale(0.0029, -0.0029)" d="M208 139c61 0 117 -33 117 -99c0 -71 -52 -119 -99 -147c-34 -20 -71 -32 -110 -32c-61 0 -116 33 -116 99c0 71 51 119 98 147c34 20 71 32 110 32z" fill="currentColor"/>
</g>
<g transform="translate(82.6442, 54.7504)">
<rect x="-0.0614" y="-3.3191" width="0.1228" height="2.8314" ry="0.0421" fill="currentColor"/>
</g>
<g transform="translate(80.5886, 54.3820)">
<path transform="scale(0.0029, -0.0029)" d="M0 114c0 12 7 22 18 26l37 15v151c0 12 10 22 22 22s22 -10 22 -22v-134l77 29v152c0 12 10 22 22 22s22 -10 22 -22v-134l16 6c3 1 8 2 11 2c15 0 28 -12 28 -28v-50c0 -12 -7 -23 -18 -27l-37 -14v-152l16 7c3 1 8 2 11 2c15 0 28 -13 28 -29v-50c0 -12 -7 -22 -18 -26
l-37 -15v-151c0 -12 -10 -22 -22 -22s-22 10 -22 22v134l-77 -29v-152c0 -12 -10 -22 -22 -22s-22 10 -22 22v134l-16 -6c-3 -1 -8 -2 -11 -2c-15 0 -28 12 -28 28v50c0 12 7 23 18 27l37 14v152l-16 -7c-3 -1 -8 -2 -11 -2c-15 0 -28 13 -28 29v50zM176 91l-77 -30v-152
l77 30v152z" fill="currentColor"/>
</g>
<g transform="translate(83.3056, 54.0136)">
<path transform="scale(0.0029, -0.0029)" d="M208 139c61 0 117 -33 117 -99c0 -71 -52 -119 -99 -147c-34 -20 -71 -32 -110 -32c-61 0 -116 33 -116 99c0 71 51 119 98 147c34 20 71 32 110 32z" fill="currentColor"/>
</g>
<g transform="translate(83.3056, 56.2241)">
<path transform="scale(0.0029, -0.0029)" d="M63 -250l119 325c-32 -11 -65 -21 -99 -21c-47 0 -87 34 -87 79c0 40 34 72 75 72c25 0 48 -13 56 -36c10 -26 4 -58 32 -58c13 0 48 38 54 50c8 15 30 15 37 0l-117 -411c-10 -8 -23 -13 -35 -13s-25 5 -35 13z" fill="currentColor"/>
</g>
<g transform="translate(84.2007, 54.7504)">
<rect x="-0.0614" y="-2.8217" width="0.1228" height="1.9656" ry="0.0421" fill="currentColor"/>
</g>
<g transform="translate(84.5837, 55.8557)">
<path transform="scale(0.0029, -0.0029)" d="M0 0c0 30 25 55 55 55s54 -25 54 -55s-24 -55 -54 -55s-55 25 -55 55z" fill="currentColor"/>
</g>
<g transform="translate(74.9737, 53.6452)">
<path transform="scale(0.0029, -0.0029)" d="M208 139c61 0 117 -33 117 -99c0 -71 -52 -119 -99 -147c-34 -20 -71 -32 -110 -32c-61 0 -116 33 -116 99c0 71 51 119 98 147c34 20 71 32 110 32z" fill="currentColor"/>
</g>
<g transform="translate(74.9737, 54.7504)">
<path transform="scale(0.0029, -0.0029)" d="M208 139c61 0 117 -33 117 -99c0 -71 -52 -119 -99 -147c-34 -20 -71 -32 -110 -32c-61 0 -116 33 -116 99c0 71 51 119 98 147c34 20 71 32 110 32z" fill="currentColor"/>
</g>
<g transform="translate(76.2517, 53.6452)">
<path transform="scale(0.0029, -0.0029)" d="M0 0c0 30 25 55 55 55s54 -25 54 -55s-24 -55 -54 -55s-55 25 -55 55z" fill="currentColor"/>
</g>
<g transform="translate(75.8688, 54.7504)">
<rect x="-0.0614" y="-3.6809" width="0.1228" height="2.4564" ry="0.0421" fill="currentColor"/>
</g>
<g transform="translate(75.0351, 54.7504)">
<rect x="-0.0614" y="0.1192" width="0.1228" height="2.3369" ry="0.0421" fill="currentColor"/>
</g>
<g transform="translate(74.0342, 54.7504)">
<path transform="scale(0.0029, -0.0029)" d="M33 35l-2 -60v-11c0 -21 2 -43 5 -64c42 38 87 81 87 138c0 32 -13 63 -41 63c-31 0 -48 -32 -49 -66zM32 446l-9 -337c25 26 59 40 95 40c50 0 82 -51 82 -105c0 -77 -80 -117 -137 -169c-18 -17 -26 -48 -52 -48c-16 0 -28 15 -28 32l-15 587c10 6 21 8 32 8
s22 -2 32 -8z" fill="currentColor"/>
</g>
<g transform="translate(79.0321, 54.0136)">
<path transform="scale(0.0029, -0.0029)" d="M208 139c61 0 117 -33 117 -99c0 -71 -52 -119 -99 -147c-34 -20 -71 -32 -110 -32c-61 0 -116 33 -116 99c0 71 51 119 98 147c34 20 71 32 110 32z" fill="currentColor"/>
</g>
<g transform="translate(79.9272, 54.7504)">
<rect x="-0.0614" y="-3.4642" width="0.1228" height="2.6081" ry="0.0421" fill="currentColor"/>
</g>
<g transform="translate(87.3770, 57.1952)">
<path transform="scale(0.0029, -0.0029)" d="M266 659c0 -44 -15 -80 -38 -114c16 -35 25 -73 25 -111c0 -180 -252 -254 -253 -433v-1h-21v500h21v-70c94 49 217 126 217 229c0 20 -5 41 -14 59v5c0 16 13 26 27 26c32 0 36 -61 36 -90zM0 205c88 51 204 130 204 229c0 22 -4 44 -12 65c-79 -85 -192 -155 -192 -274
v-20z" fill="currentColor"/>
</g>
<g transform="translate(91.8667, 52.9083)">
<path transform="scale(0.0029, -0.0029)" d="M0 0c0 30 25 55 55 55s54 -25 54 -55s-24 -55 -54 -55s-55 25 -55 55z" fill="currentColor"/>
</g>
<g transform="translate(91.4838, 54.7504)">
<rect x="-0.0614" y="-3.5584" width="0.1228" height="1.9655" ry="0.0421" fill="currentColor"/>
</g>
<g transform="translate(90.5887, 55.1189)">
<path transform="scale(0.0029, -0.0029)" d="M208 139c61 0 117 -33 117 -99c0 -71 -52 -119 -99 -147c-34 -20 -71 -32 -110 -32c-61 0 -116 33 -116 99c0 71 51 119 98 147c34 20 71 32 110 32z" fill="currentColor"/>
</g>
<g transform="translate(90.5887, 53.2768)">
<path transform="scale(0.0029, -0.0029)" d="M208 139c61 0 117 -33 117 -99c0 -71 -52 -119 -99 -147c-34 -20 -71 -32 -110 -32c-61 0 -116 33 -116 99c0 71 51 119 98 147c34 20 71 32 110 32z" fill="currentColor"/>
</g>
<g transform="translate(88.1494, 54.7504)">
<rect x="-0.0614" y="-3.0731" width="0.1228" height="1.8486" ry="0.0421" fill="currentColor"/>
</g>
<g transform="translate(87.2543, 54.7504)">
<path transform="scale(0.0029, -0.0029)" d="M208 139c61 0 117 -33 117 -99c0 -71 -52 -119 -99 -147c-34 -20 -71 -32 -110 -32c-61 0 -116 33 -116 99c0 71 51 119 98 147c34 20 71 32 110 32z" fill="currentColor"/>
</g>
<g transform="translate(87.2543, 53.6452)">
<path transform="scale(0.0029, -0.0029)" d="M208 139c61 0 117 -33 117 -99c0 -71 -52 -119 -99 -147c-34 -20 -71 -32 -110 -32c-61 0 -116 33 -116 99c0 71 51 119 98 147c34 20 71 32 110 32z" fill="currentColor"/>
</g>
<g transform="translate(87.3156, 54.7504)">
<rect x="-0.0614" y="0.1192" width="0.1228" height="2.3676" ry="0.0421" fill="currentColor"/>
</g>
</svg>
